<svg width="196" height="40" viewBox="0 0 196 40" fill="none" xmlns="http://www.w3.org/2000/svg">
<path d="M16.97 25.112C19.434 25.112 21.17 23.376 21.17 20.506V19.694C21.17 16.796 19.462 15.088 16.97 15.088C14.506 15.088 12.77 16.824 12.77 19.694V20.506C12.77 23.404 14.478 25.112 16.97 25.112ZM16.97 23.852C15.346 23.852 14.142 22.662 14.142 20.506V19.694C14.142 17.51 15.318 16.348 16.97 16.348C18.608 16.348 19.798 17.538 19.798 19.694V20.506C19.798 22.69 18.622 23.852 16.97 23.852ZM25.0335 25H25.6495V23.852H25.2155C24.5715 23.852 24.2495 23.516 24.2495 22.802V15.2H22.9895V22.942C22.9895 24.272 23.7175 25 25.0335 25ZM29.3336 24.832C30.2296 24.832 30.9576 24.524 31.4616 23.936V25C31.4616 26.288 30.9576 26.792 29.7536 26.792C28.6896 26.792 28.3116 26.4 28.1716 25.7H26.9116C27.0516 27.058 27.8916 27.912 29.7536 27.912C31.6996 27.912 32.7216 26.89 32.7216 25V18H31.7416L31.6016 18.994C31.1116 18.266 30.3276 17.888 29.3336 17.888C27.7376 17.888 26.5616 19.064 26.5616 21.094V21.626C26.5616 23.67 27.7236 24.832 29.3336 24.832ZM29.6696 23.628C28.5776 23.628 27.8776 22.942 27.8776 21.626V21.094C27.8776 19.792 28.5636 19.092 29.6696 19.092C30.7056 19.092 31.4616 19.848 31.4616 21.094V21.626C31.4616 22.872 30.7056 23.628 29.6696 23.628ZM36.5656 25.112C37.5876 25.112 38.4276 24.65 38.9316 23.852L39.0856 25H40.0656V20.24C40.0656 18.798 39.1556 17.888 37.4056 17.888C35.5576 17.888 34.6756 18.77 34.6056 19.96H36.0056C36.0756 19.4 36.4676 19.008 37.4056 19.008C38.3576 19.008 38.8056 19.456 38.8056 20.24V20.758H37.4056C35.1796 20.758 34.3256 21.612 34.3256 23.04C34.3256 24.328 35.1096 25.112 36.5656 25.112ZM36.7056 23.992C36.0336 23.992 35.6416 23.6 35.6416 23.012C35.6416 22.298 36.1176 21.822 37.4056 21.822H38.8056V22.074C38.8056 23.11 37.9236 23.992 36.7056 23.992ZM52.0011 25H53.4291L49.8591 15.2H48.3191L44.7491 25H46.1211L47.0731 22.312H51.0491L52.0011 25ZM48.3471 18.756L49.0751 16.67L49.7891 18.756L50.6151 21.108H47.5071L48.3471 18.756ZM58.0965 25.112C59.6645 25.112 60.8545 23.922 60.8545 21.766V21.234C60.8545 19.064 59.6785 17.888 58.0965 17.888C57.1865 17.888 56.4445 18.196 55.9545 18.812V15.2H54.6945V25H55.6745L55.8005 24.006C56.2905 24.748 57.0885 25.112 58.0965 25.112ZM57.7465 23.908C56.7105 23.908 55.9545 23.152 55.9545 21.766V21.136C55.9825 19.806 56.7385 19.092 57.7465 19.092C58.8385 19.092 59.5385 19.792 59.5385 21.234V21.766C59.5385 23.208 58.8525 23.908 57.7465 23.908ZM62.5285 25H63.7885V20.8C63.8165 19.792 64.5305 19.092 65.8185 19.092H66.5185V17.888H65.8185C64.8945 17.888 64.1105 18.266 63.6345 18.952L63.5085 18H62.5285V25ZM69.5969 25.112C70.6189 25.112 71.4589 24.65 71.9629 23.852L72.1169 25H73.0969V20.24C73.0969 18.798 72.1869 17.888 70.4369 17.888C68.5889 17.888 67.7069 18.77 67.6369 19.96H69.0369C69.1069 19.4 69.4989 19.008 70.4369 19.008C71.3889 19.008 71.8369 19.456 71.8369 20.24V20.758H70.4369C68.2109 20.758 67.3569 21.612 67.3569 23.04C67.3569 24.328 68.1409 25.112 69.5969 25.112ZM69.7369 23.992C69.0649 23.992 68.6729 23.6 68.6729 23.012C68.6729 22.298 69.1489 21.822 70.4369 21.822H71.8369V22.074C71.8369 23.11 70.9549 23.992 69.7369 23.992ZM75.1203 25H76.3803V20.8C76.4083 19.764 77.1223 19.092 78.0603 19.092C79.0123 19.092 79.6003 19.68 79.6003 20.87V25H80.8603V20.8C80.8883 19.792 81.6023 19.092 82.5403 19.092C83.4923 19.092 84.0803 19.68 84.0803 20.87V25H85.3403V20.87C85.3403 18.938 84.2903 17.888 82.8203 17.888C81.8123 17.888 80.9723 18.364 80.4963 19.162C80.0623 18.336 79.2923 17.888 78.3403 17.888C77.4443 17.888 76.7023 18.266 76.2263 18.952L76.1003 18H75.1203V25ZM90.1703 25.112C92.1163 25.112 93.3903 23.838 93.3903 21.766V21.234C93.3903 19.148 92.1303 17.888 90.1703 17.888C88.2243 17.888 86.9503 19.162 86.9503 21.234V21.766C86.9503 23.852 88.2103 25.112 90.1703 25.112ZM90.1703 23.908C89.0083 23.908 88.2663 23.166 88.2663 21.766V21.234C88.2663 19.82 88.9943 19.092 90.1703 19.092C91.3323 19.092 92.0743 19.834 92.0743 21.234V21.766C92.0743 23.18 91.3463 23.908 90.1703 23.908ZM96.6141 25H98.1541L100.674 18H99.3301L97.3841 23.6L95.3261 18H93.9541L96.6141 25ZM103.407 25.112C104.429 25.112 105.269 24.65 105.773 23.852L105.927 25H106.907V20.24C106.907 18.798 105.997 17.888 104.247 17.888C102.399 17.888 101.517 18.77 101.447 19.96H102.847C102.917 19.4 103.309 19.008 104.247 19.008C105.199 19.008 105.647 19.456 105.647 20.24V20.758H104.247C102.021 20.758 101.167 21.612 101.167 23.04C101.167 24.328 101.951 25.112 103.407 25.112ZM103.547 23.992C102.875 23.992 102.483 23.6 102.483 23.012C102.483 22.298 102.959 21.822 104.247 21.822H105.647V22.074C105.647 23.11 104.765 23.992 103.547 23.992Z" fill="#7E838E"/>
<circle cx="129" cy="20" r="15" fill="#F6BD60"/>
<path d="M129 25.112C131.464 25.112 133.2 23.376 133.2 20.506V19.694C133.2 16.796 131.492 15.088 129 15.088C126.536 15.088 124.8 16.824 124.8 19.694V20.506C124.8 23.404 126.508 25.112 129 25.112ZM129 23.852C127.376 23.852 126.172 22.662 126.172 20.506V19.694C126.172 17.51 127.348 16.348 129 16.348C130.638 16.348 131.828 17.538 131.828 19.694V20.506C131.828 22.69 130.652 23.852 129 23.852Z" fill="white"/>
<path d="M181.43 24.0116C181.233 23.9858 181.092 23.8308 181.073 23.65C180.998 23.1162 180.876 21.8937 180.848 19.4573C180.82 16.4182 179.224 13.5427 175.555 12.7764C175.339 12.7334 175.18 12.5612 175.18 12.3632V11.5453C175.18 10.8135 174.636 10.142 173.857 10.0214C172.852 9.86648 171.989 10.5724 171.989 11.4592V12.3546C171.989 12.5526 171.83 12.7248 171.623 12.7678C168.076 13.5254 166.18 16.401 166.152 19.4573C166.133 21.8937 166.002 23.1162 165.927 23.65C165.899 23.8308 165.758 23.9858 165.57 24.0116C164.557 24.158 163.815 25.0619 164.041 26.0692C164.219 26.8785 165.073 27.4295 165.974 27.4295H173.19H173.81H181.026C181.927 27.4295 182.781 26.8871 182.959 26.0692C183.185 25.0619 182.443 24.158 181.43 24.0116Z" stroke="#3A3A3D" stroke-miterlimit="10"/>
<path d="M176 27.5V28.0734C176 29.3352 174.885 30.3669 173.5 30.3669C172.115 30.3669 171 29.3438 171 28.0734V27.5" stroke="#3A3A3D" stroke-miterlimit="10"/>
</svg>
