<svg width="19" height="18" viewBox="0 0 19 18" fill="none" xmlns="http://www.w3.org/2000/svg">
<path fill-rule="evenodd" clip-rule="evenodd" d="M0 1.60038H1.57151C1.81412 0.680711 2.64976 0 3.64287 0C4.63599 0 5.47126 0.68071 5.71424 1.60038L19 1.60038V2.69654L5.7146 2.69654C5.47126 3.61402 4.63635 4.29327 3.64324 4.29327C2.65012 4.29327 1.81522 3.61402 1.57187 2.69654H0V1.60038ZM4.69152 2.14846C4.69152 2.72686 4.22091 3.19712 3.64287 3.19712C3.06483 3.19712 2.59422 2.72686 2.59422 2.14846C2.59422 1.56823 3.06483 1.09615 3.64287 1.09615C4.22091 1.09615 4.69152 1.56823 4.69152 2.14846Z" fill="#3A3B3D"/>
<path fill-rule="evenodd" clip-rule="evenodd" d="M0 9.32105V8.2249H5.82862C6.07196 7.30741 6.90869 6.62816 7.90327 6.62816C8.89602 6.62816 9.73092 7.30741 9.97427 8.2249L19 8.22489V9.32105H9.9739C9.73092 10.2385 8.89565 10.9178 7.9029 10.9178C6.90833 10.9178 6.07196 10.2385 5.82825 9.32105L0 9.32105ZM7.90327 9.82163C8.48167 9.82163 8.95192 9.35138 8.95192 8.77297C8.95192 8.19457 8.48167 7.72432 7.90327 7.72432C7.3234 7.72432 6.85133 8.1942 6.85096 8.77224V8.7737C6.85133 9.35174 7.32304 9.82163 7.90327 9.82163Z" fill="#3A3B3D"/>
<path fill-rule="evenodd" clip-rule="evenodd" d="M0 15.9454V14.8493L10.6221 14.8493C10.8654 13.9318 11.7 13.2526 12.6931 13.2526C13.6862 13.2526 14.5211 13.9318 14.7645 14.8493H19V15.9454H14.7648C14.5215 16.8629 13.6866 17.5422 12.6935 17.5422C11.7003 17.5422 10.8654 16.8629 10.6221 15.9454L0 15.9454ZM13.7421 15.3974C13.7421 15.9758 13.2715 16.446 12.6935 16.446C12.1154 16.446 11.6448 15.9758 11.6448 15.3974C11.6448 14.819 12.1154 14.3487 12.6935 14.3487C13.2715 14.3487 13.7421 14.819 13.7421 15.3974Z" fill="#3A3B3D"/>
</svg>
