<svg width="25" height="25" viewBox="0 0 25 25" fill="none" xmlns="http://www.w3.org/2000/svg">
<path d="M13.8621 4V6.88967H12.8621V4H13.8621Z" fill="#3A3B3D"/>
<path d="M13.1463 8.41334C17.433 8.41334 21.1207 10.9513 22.8174 14.5872L21.9113 15.0101C20.3716 11.7108 17.0277 9.41334 13.1463 9.41334C9.26429 9.41334 5.92101 11.7017 4.38159 15.0096L3.47496 14.5877C5.17197 10.9411 8.86022 8.41334 13.1463 8.41334Z" fill="#3A3B3D"/>
<path d="M9.28673 8.06757L7.71667 5.1779L6.838 5.65532L8.40805 8.54499L9.28673 8.06757Z" fill="#3A3B3D"/>
<path d="M19.8822 5.65532L18.3121 8.54499L17.4334 8.06757L19.0035 5.1779L19.8822 5.65532Z" fill="#3A3B3D"/>
<path d="M5.44492 10.6421L2.72863 7.75239L2 8.4373L4.71629 11.327L5.44492 10.6421Z" fill="#3A3B3D"/>
<path d="M24.7276 8.43795L22.0017 11.3276L21.2742 10.6414L24.0002 7.75175L24.7276 8.43795Z" fill="#3A3B3D"/>
<path fill-rule="evenodd" clip-rule="evenodd" d="M16.3644 16C16.3644 17.6569 15.0212 19 13.3644 19C11.7075 19 10.3644 17.6569 10.3644 16C10.3644 14.3432 11.7075 13 13.3644 13C15.0212 13 16.3644 14.3432 16.3644 16ZM15.3644 16C15.3644 17.1046 14.4689 18 13.3644 18C12.2598 18 11.3644 17.1046 11.3644 16C11.3644 14.8955 12.2598 14 13.3644 14C14.4689 14 15.3644 14.8955 15.3644 16Z" fill="#3A3B3D"/>
</svg>
