<svg width="15" height="15" viewBox="0 0 15 15" fill="none" xmlns="http://www.w3.org/2000/svg">
<path d="M7.99977 9.00017H5.99983V11.0001H7.99977V9.00017Z" fill="#3A3B3D"/>
<path fill-rule="evenodd" clip-rule="evenodd" d="M7.01206 0.000803481C4.89971 0.0307846 2.99991 1.61986 2.99991 3.66902V6.03473H0.999972V14H12.9996V6.03473H10.9997V3.66902L10.9996 3.65948C10.9793 2.67021 10.548 1.73037 9.80252 1.0452C9.05726 0.360251 8.05871 -0.0146561 7.02572 0.000427234L7.01206 0.000803481ZM9.99972 6.03473H3.99989V3.66902C3.99989 2.21595 5.39906 0.965862 7.07284 0.965862C7.0795 0.965862 7.08613 0.965736 7.09273 0.965487C7.84725 0.967205 8.5714 1.24668 9.11307 1.74451C9.66574 2.25246 9.98354 2.94622 9.99972 3.67399V6.03473ZM11.9997 7.00022H1.99994V13.0345H11.9997V7.00022Z" fill="#3A3B3D"/>
</svg>
