<svg width="8" height="10" viewBox="0 0 8 10" fill="none" xmlns="http://www.w3.org/2000/svg">
<path d="M0.19461 4.74433C0.324277 4.61174 0.481625 4.5455 0.666896 4.5455H0.888991V3.18178C0.888991 2.31058 1.19447 1.56255 1.80561 0.937542C2.41671 0.312514 3.14806 0 4.00004 0C4.85198 0 5.58348 0.312514 6.19453 0.937517C6.80568 1.56255 7.11115 2.31056 7.11115 3.18178V4.5455H7.33335C7.51847 4.5455 7.67592 4.61174 7.80556 4.74433C7.9352 4.87682 8 5.03784 8 5.22734V9.31821C8 9.50753 7.93518 9.66861 7.80556 9.80122C7.67592 9.93368 7.51847 10 7.33335 10H0.666725C0.481454 10 0.324131 9.93376 0.19444 9.80122C0.064918 9.66861 0 9.50753 0 9.31821V5.22726C-9.72748e-05 5.03791 0.064918 4.87691 0.19461 4.74433ZM2.22227 4.5455H5.7778V3.18178C5.7778 2.67991 5.60416 2.25138 5.25694 1.89633C4.90968 1.54123 4.49073 1.36371 3.99996 1.36371C3.50914 1.36371 3.0903 1.5412 2.74301 1.89633C2.39589 2.25135 2.22227 2.67991 2.22227 3.18178V4.5455Z" fill="#3A3B3D"/>
</svg>
