<svg width="316" height="62" viewBox="0 0 316 62" fill="none" xmlns="http://www.w3.org/2000/svg">
<path d="M4 22.5H312C313.933 22.5 315.5 24.067 315.5 26V58C315.5 59.933 313.933 61.5 312 61.5H4C2.06701 61.5 0.5 59.933 0.5 58V26C0.5 24.067 2.067 22.5 4 22.5Z" stroke="#E1E3E8"/>
<path d="M4.2 12.096C6.036 12.096 7.26 10.872 7.5 9.3H6.276C6.036 10.296 5.316 11.016 4.2 11.016C2.856 11.016 1.836 9.996 1.836 8.148V7.452C1.836 5.592 2.844 4.584 4.2 4.584C5.328 4.584 6.036 5.304 6.276 6.06H7.5C7.26 4.716 6.048 3.504 4.2 3.504C2.136 3.504 0.66 4.98 0.66 7.452V8.148C0.66 10.632 2.124 12.096 4.2 12.096ZM11.0991 12.096C11.8911 12.096 12.5511 11.76 12.9711 11.172L13.0791 12H13.9191V6H12.8391V9.612C12.8031 10.476 12.1911 11.064 11.2791 11.064C10.4631 11.064 9.95906 10.56 9.95906 9.54V6H8.87906V9.54C8.87906 11.196 9.77906 12.096 11.0991 12.096ZM15.7242 12H16.8042V8.4C16.8282 7.536 17.4402 6.936 18.5442 6.936H19.1442V5.904H18.5442C17.7522 5.904 17.0802 6.228 16.6722 6.816L16.5642 6H15.7242V12ZM20.2828 12H21.3628V8.4C21.3868 7.536 21.9988 6.936 23.1028 6.936H23.7028V5.904H23.1028C22.3108 5.904 21.6388 6.228 21.2308 6.816L21.1228 6H20.2828V12ZM27.0642 12.096C28.6842 12.096 29.4642 11.316 29.7042 10.14H28.6002C28.3602 10.764 28.0122 11.112 27.0642 11.112C26.1642 11.112 25.5282 10.512 25.4922 9.348H29.7642V8.772C29.7642 7.008 28.6602 5.904 27.0642 5.904C25.4802 5.904 24.3642 7.02 24.3642 8.772V9.228C24.3642 11.004 25.4562 12.096 27.0642 12.096ZM27.0642 6.888C27.9642 6.888 28.5162 7.356 28.6122 8.412H25.5042C25.6122 7.392 26.2122 6.888 27.0642 6.888ZM31.2047 12H32.2847V8.4C32.3087 7.536 32.9327 6.936 33.9047 6.936C34.7807 6.936 35.2847 7.44 35.2847 8.46V12H36.3647V8.46C36.3647 6.804 35.4647 5.904 34.0847 5.904C33.2447 5.904 32.5727 6.24 32.1527 6.828L32.0447 6H31.2047V12ZM37.2698 6.984H38.3498V10.236C38.3498 11.364 38.9858 12 40.1138 12H41.1098V11.016H40.2698C39.7178 11.016 39.4298 10.728 39.4298 10.116V6.984H40.9898V6H39.4298V4.32H38.3498V6H37.2698V6.984ZM45.3741 12H46.5021V8.976H48.1341C50.2341 8.976 51.2541 7.956 51.2541 6.288C51.2541 4.572 50.2821 3.6 48.1341 3.6H45.3741V12ZM48.1341 4.632C49.5381 4.632 50.0901 5.184 50.0901 6.288C50.0901 7.368 49.5141 7.944 48.1341 7.944H46.5021V4.632H48.1341ZM53.8922 12.096C54.7682 12.096 55.4882 11.7 55.9202 11.016L56.0522 12H56.8922V7.92C56.8922 6.684 56.1122 5.904 54.6122 5.904C53.0282 5.904 52.2722 6.66 52.2122 7.68H53.4122C53.4722 7.2 53.8082 6.864 54.6122 6.864C55.4282 6.864 55.8122 7.248 55.8122 7.92V8.364H54.6122C52.7042 8.364 51.9722 9.096 51.9722 10.32C51.9722 11.424 52.6442 12.096 53.8922 12.096ZM54.0122 11.136C53.4362 11.136 53.1002 10.8 53.1002 10.296C53.1002 9.684 53.5082 9.276 54.6122 9.276H55.8122V9.492C55.8122 10.38 55.0562 11.136 54.0122 11.136ZM60.6666 12.096C62.3346 12.096 63.0666 11.364 63.0666 10.32C63.0666 7.86 59.5146 8.904 59.5146 7.62C59.5146 7.152 59.8026 6.864 60.6666 6.864C61.4226 6.864 61.6986 7.152 61.8186 7.74H62.9466C62.8266 6.624 62.0946 5.904 60.6666 5.904C59.1186 5.904 58.3866 6.636 58.3866 7.62C58.3866 9.912 61.9386 8.868 61.9386 10.32C61.9386 10.848 61.6506 11.136 60.6666 11.136C59.7906 11.136 59.5146 10.848 59.3946 10.14H58.2666C58.3866 11.364 59.1186 12.096 60.6666 12.096ZM66.5494 12.096C68.2174 12.096 68.9494 11.364 68.9494 10.32C68.9494 7.86 65.3974 8.904 65.3974 7.62C65.3974 7.152 65.6854 6.864 66.5494 6.864C67.3054 6.864 67.5814 7.152 67.7014 7.74H68.8294C68.7094 6.624 67.9774 5.904 66.5494 5.904C65.0014 5.904 64.2694 6.636 64.2694 7.62C64.2694 9.912 67.8214 8.868 67.8214 10.32C67.8214 10.848 67.5334 11.136 66.5494 11.136C65.6734 11.136 65.3974 10.848 65.2774 10.14H64.1494C64.2694 11.364 65.0014 12.096 66.5494 12.096ZM75.375 12H76.695L78.315 6H77.235L76.011 10.728L74.643 6H73.323L72.099 10.668L70.803 6H69.675L71.415 12H72.735L73.983 7.224L75.375 12ZM81.7922 12.096C83.4602 12.096 84.5522 11.004 84.5522 9.228V8.772C84.5522 6.984 83.4722 5.904 81.7922 5.904C80.1242 5.904 79.0322 6.996 79.0322 8.772V9.228C79.0322 11.016 80.1122 12.096 81.7922 12.096ZM81.7922 11.064C80.7962 11.064 80.1602 10.428 80.1602 9.228V8.772C80.1602 7.56 80.7842 6.936 81.7922 6.936C82.7882 6.936 83.4242 7.572 83.4242 8.772V9.228C83.4242 10.44 82.8002 11.064 81.7922 11.064ZM85.9898 12H87.0698V8.4C87.0938 7.536 87.7058 6.936 88.8098 6.936H89.4098V5.904H88.8098C88.0178 5.904 87.3458 6.228 86.9378 6.816L86.8298 6H85.9898V12ZM92.4353 12.096C93.2873 12.096 93.9713 11.784 94.3913 11.148L94.5113 12H95.3513V3.6H94.2713V6.696C93.8393 6.168 93.2153 5.904 92.4473 5.904C91.0793 5.904 90.0713 6.912 90.0713 8.772V9.228C90.0713 11.1 91.0673 12.096 92.4353 12.096ZM92.7353 11.064C91.7993 11.064 91.1993 10.452 91.1993 9.228V8.772C91.1993 7.524 91.7873 6.936 92.7353 6.936C93.5993 6.936 94.2353 7.548 94.2713 8.688V9.324C94.2353 10.452 93.5993 11.064 92.7353 11.064Z" fill="#7E838E"/>
<path d="M15.28 41.888H17.002L16.12 43.428L16.848 43.848L17.73 42.322L18.612 43.848L19.326 43.428L18.444 41.888H20.18V41.048H18.458L19.34 39.508L18.612 39.088L17.73 40.628L16.848 39.088L16.12 39.508L17.002 41.048H15.28V41.888ZM26.3351 41.888H28.0571L27.1751 43.428L27.9031 43.848L28.7851 42.322L29.6671 43.848L30.3811 43.428L29.4991 41.888H31.2351V41.048H29.5131L30.3951 39.508L29.6671 39.088L28.7851 40.628L27.9031 39.088L27.1751 39.508L28.0571 41.048H26.3351V41.888ZM37.3902 41.888H39.1122L38.2302 43.428L38.9582 43.848L39.8402 42.322L40.7222 43.848L41.4362 43.428L40.5542 41.888H42.2902V41.048H40.5682L41.4502 39.508L40.7222 39.088L39.8402 40.628L38.9582 39.088L38.2302 39.508L39.1122 41.048H37.3902V41.888ZM48.4452 41.888H50.1672L49.2852 43.428L50.0132 43.848L50.8952 42.322L51.7772 43.848L52.4912 43.428L51.6092 41.888H53.3452V41.048H51.6232L52.5052 39.508L51.7772 39.088L50.8952 40.628L50.0132 39.088L49.2852 39.508L50.1672 41.048H48.4452V41.888ZM59.5003 41.888H61.2223L60.3403 43.428L61.0683 43.848L61.9503 42.322L62.8323 43.848L63.5463 43.428L62.6643 41.888H64.4003V41.048H62.6783L63.5603 39.508L62.8323 39.088L61.9503 40.628L61.0683 39.088L60.3403 39.508L61.2223 41.048H59.5003V41.888ZM70.5554 41.888H72.2774L71.3954 43.428L72.1234 43.848L73.0054 42.322L73.8874 43.848L74.6014 43.428L73.7194 41.888H75.4554V41.048H73.7334L74.6154 39.508L73.8874 39.088L73.0054 40.628L72.1234 39.088L71.3954 39.508L72.2774 41.048H70.5554V41.888Z" fill="#3A3A3D"/>
<path d="M161.784 38.1797C163.402 41.6473 166.918 44.065 171.002 44.065C175.086 44.065 178.602 41.6569 180.22 38.1797" stroke="#3A3A3D" stroke-miterlimit="10"/>
<path d="M171.002 46.0886V48.9783" stroke="#3A3A3D" stroke-miterlimit="10"/>
<path d="M175.516 44.6721L177.086 47.5618" stroke="#3A3A3D" stroke-miterlimit="10"/>
<path d="M166.491 44.6721L164.921 47.5618" stroke="#3A3A3D" stroke-miterlimit="10"/>
<path d="M179.283 41.9939L181.999 44.8836" stroke="#3A3A3D" stroke-miterlimit="10"/>
<path d="M162.726 41.9939L160 44.8836" stroke="#3A3A3D" stroke-miterlimit="10"/>
<path d="M312 22H197V62H312C314.209 62 316 60.2091 316 58V26C316 23.7909 314.209 22 312 22Z" fill="#FF708A"/>
<path d="M217.028 47.112C219.45 47.112 220.598 45.964 220.598 44.326C220.598 40.602 214.97 42.058 214.97 39.748C214.97 38.964 215.6 38.348 217.028 38.348C218.4 38.348 218.904 38.866 219.058 40.07H220.458C220.318 38.124 219.282 37.088 217.028 37.088C214.76 37.088 213.598 38.236 213.598 39.748C213.598 43.318 219.226 41.876 219.226 44.312C219.226 45.166 218.54 45.852 217.028 45.852C215.614 45.852 214.984 45.278 214.858 43.85H213.458C213.598 46.048 214.732 47.112 217.028 47.112ZM224.103 47.112C225.125 47.112 225.965 46.65 226.469 45.852L226.623 47H227.603V42.24C227.603 40.798 226.693 39.888 224.943 39.888C223.095 39.888 222.213 40.77 222.143 41.96H223.543C223.613 41.4 224.005 41.008 224.943 41.008C225.895 41.008 226.343 41.456 226.343 42.24V42.758H224.943C222.717 42.758 221.863 43.612 221.863 45.04C221.863 46.328 222.647 47.112 224.103 47.112ZM224.243 45.992C223.571 45.992 223.179 45.6 223.179 45.012C223.179 44.298 223.655 43.822 224.943 43.822H226.343V44.074C226.343 45.11 225.461 45.992 224.243 45.992ZM231.173 47H232.713L235.233 40H233.889L231.943 45.6L229.885 40H228.513L231.173 47ZM238.946 47.112C240.836 47.112 241.746 46.202 242.026 44.83H240.738C240.458 45.558 240.052 45.964 238.946 45.964C237.896 45.964 237.154 45.264 237.112 43.906H242.096V43.234C242.096 41.176 240.808 39.888 238.946 39.888C237.098 39.888 235.796 41.19 235.796 43.234V43.766C235.796 45.838 237.07 47.112 238.946 47.112ZM238.946 41.036C239.996 41.036 240.64 41.582 240.752 42.814H237.126C237.252 41.624 237.952 41.036 238.946 41.036ZM251.127 47.112C253.269 47.112 254.697 45.684 254.977 43.85H253.549C253.269 45.012 252.429 45.852 251.127 45.852C249.559 45.852 248.369 44.662 248.369 42.506V41.694C248.369 39.524 249.545 38.348 251.127 38.348C252.443 38.348 253.269 39.188 253.549 40.07H254.977C254.697 38.502 253.283 37.088 251.127 37.088C248.719 37.088 246.997 38.81 246.997 41.694V42.506C246.997 45.404 248.705 47.112 251.127 47.112ZM256.655 47H257.915V42.8C257.943 41.792 258.671 41.092 259.805 41.092C260.827 41.092 261.415 41.68 261.415 42.87V47H262.675V42.87C262.675 40.938 261.625 39.888 260.015 39.888C259.105 39.888 258.377 40.224 257.915 40.826V37.2H256.655V47ZM266.458 47.112C267.48 47.112 268.32 46.65 268.824 45.852L268.978 47H269.958V42.24C269.958 40.798 269.048 39.888 267.298 39.888C265.45 39.888 264.568 40.77 264.498 41.96H265.898C265.968 41.4 266.36 41.008 267.298 41.008C268.25 41.008 268.698 41.456 268.698 42.24V42.758H267.298C265.072 42.758 264.218 43.612 264.218 45.04C264.218 46.328 265.002 47.112 266.458 47.112ZM266.598 45.992C265.926 45.992 265.534 45.6 265.534 45.012C265.534 44.298 266.01 43.822 267.298 43.822H268.698V44.074C268.698 45.11 267.816 45.992 266.598 45.992ZM271.982 47H273.242V42.8C273.27 41.792 273.998 41.092 275.132 41.092C276.154 41.092 276.742 41.68 276.742 42.87V47H278.002V42.87C278.002 40.938 276.952 39.888 275.342 39.888C274.362 39.888 273.578 40.28 273.088 40.966L272.962 40H271.982V47ZM282.386 46.832C283.282 46.832 284.01 46.524 284.514 45.936V47C284.514 48.288 284.01 48.792 282.806 48.792C281.742 48.792 281.364 48.4 281.224 47.7H279.964C280.104 49.058 280.944 49.912 282.806 49.912C284.752 49.912 285.774 48.89 285.774 47V40H284.794L284.654 40.994C284.164 40.266 283.38 39.888 282.386 39.888C280.79 39.888 279.614 41.064 279.614 43.094V43.626C279.614 45.67 280.776 46.832 282.386 46.832ZM282.722 45.628C281.63 45.628 280.93 44.942 280.93 43.626V43.094C280.93 41.792 281.616 41.092 282.722 41.092C283.758 41.092 284.514 41.848 284.514 43.094V43.626C284.514 44.872 283.758 45.628 282.722 45.628ZM290.598 47.112C292.488 47.112 293.398 46.202 293.678 44.83H292.39C292.11 45.558 291.704 45.964 290.598 45.964C289.548 45.964 288.806 45.264 288.764 43.906H293.748V43.234C293.748 41.176 292.46 39.888 290.598 39.888C288.75 39.888 287.448 41.19 287.448 43.234V43.766C287.448 45.838 288.722 47.112 290.598 47.112ZM290.598 41.036C291.648 41.036 292.292 41.582 292.404 42.814H288.778C288.904 41.624 289.604 41.036 290.598 41.036ZM297.809 47.112C299.755 47.112 300.609 46.258 300.609 45.04C300.609 42.17 296.465 43.388 296.465 41.89C296.465 41.344 296.801 41.008 297.809 41.008C298.691 41.008 299.013 41.344 299.153 42.03H300.469C300.329 40.728 299.475 39.888 297.809 39.888C296.003 39.888 295.149 40.742 295.149 41.89C295.149 44.564 299.293 43.346 299.293 45.04C299.293 45.656 298.957 45.992 297.809 45.992C296.787 45.992 296.465 45.656 296.325 44.83H295.009C295.149 46.258 296.003 47.112 297.809 47.112Z" fill="white"/>
</svg>
