<svg width="316" height="62" viewBox="0 0 316 62" fill="none" xmlns="http://www.w3.org/2000/svg">
<path d="M4 22.5H312C313.933 22.5 315.5 24.067 315.5 26V58C315.5 59.933 313.933 61.5 312 61.5H4C2.06701 61.5 0.5 59.933 0.5 58V26C0.5 24.067 2.067 22.5 4 22.5Z" stroke="#E1E3E8"/>
<path d="M0.96 12H2.088V8.976H3.72C5.82 8.976 6.84 7.956 6.84 6.288C6.84 4.572 5.868 3.6 3.72 3.6H0.96V12ZM3.72 4.632C5.124 4.632 5.676 5.184 5.676 6.288C5.676 7.368 5.1 7.944 3.72 7.944H2.088V4.632H3.72ZM9.47813 12.096C10.3541 12.096 11.0741 11.7 11.5061 11.016L11.6381 12H12.4781V7.92C12.4781 6.684 11.6981 5.904 10.1981 5.904C8.61413 5.904 7.85813 6.66 7.79813 7.68H8.99813C9.05813 7.2 9.39413 6.864 10.1981 6.864C11.0141 6.864 11.3981 7.248 11.3981 7.92V8.364H10.1981C8.29013 8.364 7.55813 9.096 7.55813 10.32C7.55813 11.424 8.23013 12.096 9.47813 12.096ZM9.59813 11.136C9.02213 11.136 8.68613 10.8 8.68613 10.296C8.68613 9.684 9.09413 9.276 10.1981 9.276H11.3981V9.492C11.3981 10.38 10.6421 11.136 9.59813 11.136ZM16.2525 12.096C17.9205 12.096 18.6525 11.364 18.6525 10.32C18.6525 7.86 15.1005 8.904 15.1005 7.62C15.1005 7.152 15.3885 6.864 16.2525 6.864C17.0085 6.864 17.2845 7.152 17.4045 7.74H18.5325C18.4125 6.624 17.6805 5.904 16.2525 5.904C14.7045 5.904 13.9725 6.636 13.9725 7.62C13.9725 9.912 17.5245 8.868 17.5245 10.32C17.5245 10.848 17.2365 11.136 16.2525 11.136C15.3765 11.136 15.1005 10.848 14.9805 10.14H13.8525C13.9725 11.364 14.7045 12.096 16.2525 12.096ZM22.1353 12.096C23.8033 12.096 24.5353 11.364 24.5353 10.32C24.5353 7.86 20.9833 8.904 20.9833 7.62C20.9833 7.152 21.2713 6.864 22.1353 6.864C22.8913 6.864 23.1673 7.152 23.2873 7.74H24.4153C24.2953 6.624 23.5633 5.904 22.1353 5.904C20.5873 5.904 19.8553 6.636 19.8553 7.62C19.8553 9.912 23.4073 8.868 23.4073 10.32C23.4073 10.848 23.1193 11.136 22.1353 11.136C21.2593 11.136 20.9833 10.848 20.8633 10.14H19.7353C19.8553 11.364 20.5873 12.096 22.1353 12.096ZM30.9609 12H32.2809L33.9009 6H32.8209L31.5969 10.728L30.2289 6H28.9089L27.6849 10.668L26.3889 6H25.2609L27.0009 12H28.3209L29.5689 7.224L30.9609 12ZM37.3781 12.096C39.0461 12.096 40.1381 11.004 40.1381 9.228V8.772C40.1381 6.984 39.0581 5.904 37.3781 5.904C35.7101 5.904 34.6181 6.996 34.6181 8.772V9.228C34.6181 11.016 35.6981 12.096 37.3781 12.096ZM37.3781 11.064C36.3821 11.064 35.7461 10.428 35.7461 9.228V8.772C35.7461 7.56 36.3701 6.936 37.3781 6.936C38.3741 6.936 39.0101 7.572 39.0101 8.772V9.228C39.0101 10.44 38.3861 11.064 37.3781 11.064ZM41.5758 12H42.6558V8.4C42.6798 7.536 43.2918 6.936 44.3958 6.936H44.9958V5.904H44.3958C43.6038 5.904 42.9318 6.228 42.5238 6.816L42.4158 6H41.5758V12ZM48.0212 12.096C48.8732 12.096 49.5572 11.784 49.9772 11.148L50.0972 12H50.9372V3.6H49.8572V6.696C49.4252 6.168 48.8012 5.904 48.0332 5.904C46.6652 5.904 45.6572 6.912 45.6572 8.772V9.228C45.6572 11.1 46.6532 12.096 48.0212 12.096ZM48.3212 11.064C47.3852 11.064 46.7852 10.452 46.7852 9.228V8.772C46.7852 7.524 47.3732 6.936 48.3212 6.936C49.1852 6.936 49.8212 7.548 49.8572 8.688V9.324C49.8212 10.452 49.1852 11.064 48.3212 11.064Z" fill="#7E838E"/>
<path d="M15.28 41.888H17.002L16.12 43.428L16.848 43.848L17.73 42.322L18.612 43.848L19.326 43.428L18.444 41.888H20.18V41.048H18.458L19.34 39.508L18.612 39.088L17.73 40.628L16.848 39.088L16.12 39.508L17.002 41.048H15.28V41.888ZM26.3351 41.888H28.0571L27.1751 43.428L27.9031 43.848L28.7851 42.322L29.6671 43.848L30.3811 43.428L29.4991 41.888H31.2351V41.048H29.5131L30.3951 39.508L29.6671 39.088L28.7851 40.628L27.9031 39.088L27.1751 39.508L28.0571 41.048H26.3351V41.888ZM37.3902 41.888H39.1122L38.2302 43.428L38.9582 43.848L39.8402 42.322L40.7222 43.848L41.4362 43.428L40.5542 41.888H42.2902V41.048H40.5682L41.4502 39.508L40.7222 39.088L39.8402 40.628L38.9582 39.088L38.2302 39.508L39.1122 41.048H37.3902V41.888ZM48.4452 41.888H50.1672L49.2852 43.428L50.0132 43.848L50.8952 42.322L51.7772 43.848L52.4912 43.428L51.6092 41.888H53.3452V41.048H51.6232L52.5052 39.508L51.7772 39.088L50.8952 40.628L50.0132 39.088L49.2852 39.508L50.1672 41.048H48.4452V41.888ZM59.5003 41.888H61.2223L60.3403 43.428L61.0683 43.848L61.9503 42.322L62.8323 43.848L63.5463 43.428L62.6643 41.888H64.4003V41.048H62.6783L63.5603 39.508L62.8323 39.088L61.9503 40.628L61.0683 39.088L60.3403 39.508L61.2223 41.048H59.5003V41.888ZM70.5554 41.888H72.2774L71.3954 43.428L72.1234 43.848L73.0054 42.322L73.8874 43.848L74.6014 43.428L73.7194 41.888H75.4554V41.048H73.7334L74.6154 39.508L73.8874 39.088L73.0054 40.628L72.1234 39.088L71.3954 39.508L72.2774 41.048H70.5554V41.888Z" fill="#3A3A3D"/>
<path d="M279.784 38.1797C281.402 41.6473 284.918 44.065 289.002 44.065C293.086 44.065 296.602 41.6569 298.22 38.1797" stroke="#3A3A3D" stroke-miterlimit="10"/>
<path d="M289.002 46.0886V48.9783" stroke="#3A3A3D" stroke-miterlimit="10"/>
<path d="M293.516 44.6721L295.086 47.5618" stroke="#3A3A3D" stroke-miterlimit="10"/>
<path d="M284.491 44.6721L282.921 47.5618" stroke="#3A3A3D" stroke-miterlimit="10"/>
<path d="M297.283 41.9938L299.999 44.8834" stroke="#3A3A3D" stroke-miterlimit="10"/>
<path d="M280.726 41.9938L278 44.8834" stroke="#3A3A3D" stroke-miterlimit="10"/>
</svg>
