<svg width="316" height="62" viewBox="0 0 316 62" fill="none" xmlns="http://www.w3.org/2000/svg">
<path d="M4 22.5H312C313.933 22.5 315.5 24.067 315.5 26V58C315.5 59.933 313.933 61.5 312 61.5H4C2.06701 61.5 0.5 59.933 0.5 58V26C0.5 24.067 2.067 22.5 4 22.5Z" stroke="#E1E3E8"/>
<path d="M0.96 12H2.088V8.976H3.72C5.82 8.976 6.84 7.956 6.84 6.288C6.84 4.572 5.868 3.6 3.72 3.6H0.96V12ZM3.72 4.632C5.124 4.632 5.676 5.184 5.676 6.288C5.676 7.368 5.1 7.944 3.72 7.944H2.088V4.632H3.72ZM9.47813 12.096C10.3541 12.096 11.0741 11.7 11.5061 11.016L11.6381 12H12.4781V7.92C12.4781 6.684 11.6981 5.904 10.1981 5.904C8.61413 5.904 7.85813 6.66 7.79813 7.68H8.99813C9.05813 7.2 9.39413 6.864 10.1981 6.864C11.0141 6.864 11.3981 7.248 11.3981 7.92V8.364H10.1981C8.29013 8.364 7.55813 9.096 7.55813 10.32C7.55813 11.424 8.23013 12.096 9.47813 12.096ZM9.59813 11.136C9.02213 11.136 8.68613 10.8 8.68613 10.296C8.68613 9.684 9.09413 9.276 10.1981 9.276H11.3981V9.492C11.3981 10.38 10.6421 11.136 9.59813 11.136ZM16.2525 12.096C17.9205 12.096 18.6525 11.364 18.6525 10.32C18.6525 7.86 15.1005 8.904 15.1005 7.62C15.1005 7.152 15.3885 6.864 16.2525 6.864C17.0085 6.864 17.2845 7.152 17.4045 7.74H18.5325C18.4125 6.624 17.6805 5.904 16.2525 5.904C14.7045 5.904 13.9725 6.636 13.9725 7.62C13.9725 9.912 17.5245 8.868 17.5245 10.32C17.5245 10.848 17.2365 11.136 16.2525 11.136C15.3765 11.136 15.1005 10.848 14.9805 10.14H13.8525C13.9725 11.364 14.7045 12.096 16.2525 12.096ZM22.1353 12.096C23.8033 12.096 24.5353 11.364 24.5353 10.32C24.5353 7.86 20.9833 8.904 20.9833 7.62C20.9833 7.152 21.2713 6.864 22.1353 6.864C22.8913 6.864 23.1673 7.152 23.2873 7.74H24.4153C24.2953 6.624 23.5633 5.904 22.1353 5.904C20.5873 5.904 19.8553 6.636 19.8553 7.62C19.8553 9.912 23.4073 8.868 23.4073 10.32C23.4073 10.848 23.1193 11.136 22.1353 11.136C21.2593 11.136 20.9833 10.848 20.8633 10.14H19.7353C19.8553 11.364 20.5873 12.096 22.1353 12.096ZM30.9609 12H32.2809L33.9009 6H32.8209L31.5969 10.728L30.2289 6H28.9089L27.6849 10.668L26.3889 6H25.2609L27.0009 12H28.3209L29.5689 7.224L30.9609 12ZM37.3781 12.096C39.0461 12.096 40.1381 11.004 40.1381 9.228V8.772C40.1381 6.984 39.0581 5.904 37.3781 5.904C35.7101 5.904 34.6181 6.996 34.6181 8.772V9.228C34.6181 11.016 35.6981 12.096 37.3781 12.096ZM37.3781 11.064C36.3821 11.064 35.7461 10.428 35.7461 9.228V8.772C35.7461 7.56 36.3701 6.936 37.3781 6.936C38.3741 6.936 39.0101 7.572 39.0101 8.772V9.228C39.0101 10.44 38.3861 11.064 37.3781 11.064ZM41.5758 12H42.6558V8.4C42.6798 7.536 43.2918 6.936 44.3958 6.936H44.9958V5.904H44.3958C43.6038 5.904 42.9318 6.228 42.5238 6.816L42.4158 6H41.5758V12ZM48.0212 12.096C48.8732 12.096 49.5572 11.784 49.9772 11.148L50.0972 12H50.9372V3.6H49.8572V6.696C49.4252 6.168 48.8012 5.904 48.0332 5.904C46.6652 5.904 45.6572 6.912 45.6572 8.772V9.228C45.6572 11.1 46.6532 12.096 48.0212 12.096ZM48.3212 11.064C47.3852 11.064 46.7852 10.452 46.7852 9.228V8.772C46.7852 7.524 47.3732 6.936 48.3212 6.936C49.1852 6.936 49.8212 7.548 49.8572 8.688V9.324C49.8212 10.452 49.1852 11.064 48.3212 11.064Z" fill="#7E838E"/>
<path d="M15.28 42.042L17.324 40.656V49H18.64V39.2H17.324L15.28 40.614V42.042ZM23.9545 49H30.3945V47.796H25.6905L28.2665 45.36C29.6385 44.072 30.3945 43.05 30.3945 42.014C30.3945 40.32 29.1345 39.088 27.1745 39.088C25.2285 39.088 23.9545 40.32 23.9545 42.07H25.3265C25.3265 41.034 26.0545 40.348 27.1745 40.348C28.2945 40.348 29.0225 41.034 29.0225 42.014C29.0225 42.728 28.5045 43.386 27.3005 44.562L23.9545 47.796V49ZM38.5818 49.112C40.7518 49.112 41.9418 47.922 41.9418 46.214C41.9418 45.22 41.4518 44.394 40.4998 43.946C41.3118 43.512 41.7318 42.756 41.7318 41.832C41.7318 40.208 40.6118 39.088 38.5818 39.088C36.6358 39.088 35.4878 40.222 35.4318 42.07H36.8038C36.9018 40.95 37.5178 40.348 38.5818 40.348C39.7578 40.348 40.3598 40.95 40.3598 41.86C40.3598 42.756 39.7578 43.358 38.7078 43.358H37.3918V44.562H38.7078C39.8978 44.562 40.5698 45.22 40.5698 46.186C40.5698 47.18 39.8978 47.852 38.5818 47.852C37.3218 47.852 36.6638 47.18 36.5938 45.85H35.2218C35.2778 47.908 36.4958 49.112 38.5818 49.112ZM46.4929 46.802H51.2249V49H52.5409V46.802H53.7729V45.598H52.5409V39.2H50.8329L46.4929 45.598V46.802ZM47.9349 45.598L51.2249 40.67V45.598H47.9349ZM58.5389 44.562H59.8409C60.1629 44.086 60.7929 43.694 61.6189 43.694C62.8369 43.694 63.6069 44.464 63.6069 45.766C63.6069 47.082 62.8369 47.852 61.6189 47.852C60.6389 47.852 59.9389 47.418 59.6309 46.592H58.2589C58.6089 48.216 59.9249 49.112 61.6189 49.112C63.6629 49.112 64.9789 47.796 64.9789 45.766C64.9789 43.764 63.6629 42.434 61.8569 42.434C61.0869 42.434 60.4429 42.658 59.9389 43.092L60.1629 40.404H64.3489V39.2H58.9589L58.5389 44.562ZM73.3149 49.112C75.1349 49.112 76.5349 47.852 76.5349 45.906V45.654C76.5349 43.638 75.3449 42.448 73.3849 42.448C72.5169 42.448 71.7749 42.798 71.2709 43.414C71.3689 41.062 72.1809 40.348 73.3849 40.348C74.2109 40.348 74.6589 40.81 74.8689 41.37H76.2549C75.9329 40.054 74.9529 39.088 73.3849 39.088C71.3409 39.088 69.9549 40.46 69.9549 44.114V44.926C69.9549 47.908 71.2989 49.112 73.3149 49.112ZM73.3009 43.708C74.4349 43.708 75.1629 44.436 75.1629 45.654V45.906C75.1629 47.11 74.4489 47.852 73.3149 47.852C72.1669 47.852 71.3269 47.152 71.3269 45.836V45.584C71.3269 44.436 72.0689 43.708 73.3009 43.708Z" fill="#3A3A3D"/>
<path d="M298 43.7986C296.382 40.331 292.866 37.9133 288.782 37.9133C284.698 37.9133 281.182 40.3213 279.564 43.7986" stroke="#3A3A3D" stroke-miterlimit="10"/>
<path d="M288.998 35.8896L288.998 33" stroke="#3A3A3D" stroke-miterlimit="10"/>
<path d="M284.483 37.3062L282.913 34.4165" stroke="#3A3A3D" stroke-miterlimit="10"/>
<path d="M293.509 37.3062L295.079 34.4165" stroke="#3A3A3D" stroke-miterlimit="10"/>
<path d="M280.716 39.9844L278 37.0947" stroke="#3A3A3D" stroke-miterlimit="10"/>
<path d="M297.274 39.9844L300 37.0947" stroke="#3A3A3D" stroke-miterlimit="10"/>
<circle cx="289" cy="45" r="2.5" stroke="#3A3A3D"/>
</svg>
