<svg width="316" height="62" viewBox="0 0 316 62" fill="none" xmlns="http://www.w3.org/2000/svg">
<path d="M4 22.5H312C313.933 22.5 315.5 24.067 315.5 26V58C315.5 59.933 313.933 61.5 312 61.5H4C2.06701 61.5 0.5 59.933 0.5 58V26C0.5 24.067 2.067 22.5 4 22.5Z" stroke="#E1E3E8"/>
<path d="M1.056 12H2.184V3.6H1.056V12ZM4.13438 12H5.21438V8.4C5.23838 7.536 5.86238 6.936 6.83438 6.936C7.71038 6.936 8.21438 7.44 8.21438 8.46V12H9.29437V8.46C9.29437 6.804 8.39438 5.904 7.01438 5.904C6.17438 5.904 5.50238 6.24 5.08238 6.828L4.97438 6H4.13438V12ZM13.0407 12.096C13.8927 12.096 14.5767 11.784 14.9967 11.148L15.1167 12H15.9567V3.6H14.8767V6.696C14.4447 6.168 13.8207 5.904 13.0527 5.904C11.6847 5.904 10.6767 6.912 10.6767 8.772V9.228C10.6767 11.1 11.6727 12.096 13.0407 12.096ZM13.3407 11.064C12.4047 11.064 11.8047 10.452 11.8047 9.228V8.772C11.8047 7.524 12.3927 6.936 13.3407 6.936C14.2047 6.936 14.8407 7.548 14.8767 8.688V9.324C14.8407 10.452 14.2047 11.064 13.3407 11.064ZM19.9116 12.096C20.7036 12.096 21.3636 11.76 21.7836 11.172L21.8916 12H22.7316V6H21.6516V9.612C21.6156 10.476 21.0036 11.064 20.0916 11.064C19.2756 11.064 18.7716 10.56 18.7716 9.54V6H17.6916V9.54C17.6916 11.196 18.5916 12.096 19.9116 12.096ZM26.5767 12.096C28.2447 12.096 28.9767 11.364 28.9767 10.32C28.9767 7.86 25.4247 8.904 25.4247 7.62C25.4247 7.152 25.7127 6.864 26.5767 6.864C27.3327 6.864 27.6087 7.152 27.7287 7.74H28.8567C28.7367 6.624 28.0047 5.904 26.5767 5.904C25.0287 5.904 24.2967 6.636 24.2967 7.62C24.2967 9.912 27.8487 8.868 27.8487 10.32C27.8487 10.848 27.5607 11.136 26.5767 11.136C25.7007 11.136 25.4247 10.848 25.3047 10.14H24.1767C24.2967 11.364 25.0287 12.096 26.5767 12.096ZM29.6995 6.984H30.7795V10.236C30.7795 11.364 31.4155 12 32.5435 12H33.5395V11.016H32.6995C32.1475 11.016 31.8595 10.728 31.8595 10.116V6.984H33.4195V6H31.8595V4.32H30.7795V6H29.6995V6.984ZM34.7438 12H35.8238V8.4C35.8478 7.536 36.4598 6.936 37.5638 6.936H38.1638V5.904H37.5638C36.7718 5.904 36.0998 6.228 35.6918 6.816L35.5838 6H34.7438V12ZM40.3167 14.4H41.4687L44.6967 6H43.5447L41.8167 10.644L39.9927 6H38.8167L41.2407 12L40.3167 14.4Z" fill="#7E838E"/>
<path d="M19.27 47.112C21.692 47.112 22.84 45.964 22.84 44.326C22.84 40.602 17.212 42.058 17.212 39.748C17.212 38.964 17.842 38.348 19.27 38.348C20.642 38.348 21.146 38.866 21.3 40.07H22.7C22.56 38.124 21.524 37.088 19.27 37.088C17.002 37.088 15.84 38.236 15.84 39.748C15.84 43.318 21.468 41.876 21.468 44.312C21.468 45.166 20.782 45.852 19.27 45.852C17.856 45.852 17.226 45.278 17.1 43.85H15.7C15.84 46.048 16.974 47.112 19.27 47.112ZM27.9829 47.112C29.5649 47.112 30.7549 45.922 30.7549 43.766V43.234C30.7549 41.064 29.5789 39.888 27.9969 39.888C26.9889 39.888 26.1909 40.266 25.7009 41.008L25.5749 40H24.5949V49.8H25.8549V46.202C26.3449 46.804 27.0729 47.112 27.9829 47.112ZM27.6469 45.908C26.6109 45.908 25.8549 45.138 25.8549 43.766V43.136C25.8829 41.806 26.6389 41.092 27.6469 41.092C28.7529 41.092 29.4389 41.792 29.4389 43.234V43.766C29.4389 45.236 28.7669 45.908 27.6469 45.908ZM34.1789 47.112C35.2009 47.112 36.0409 46.65 36.5449 45.852L36.6989 47H37.6789V42.24C37.6789 40.798 36.7689 39.888 35.0189 39.888C33.1709 39.888 32.2889 40.77 32.2189 41.96H33.6189C33.6889 41.4 34.0809 41.008 35.0189 41.008C35.9709 41.008 36.4189 41.456 36.4189 42.24V42.758H35.0189C32.7929 42.758 31.9389 43.612 31.9389 45.04C31.9389 46.328 32.7229 47.112 34.1789 47.112ZM34.3189 45.992C33.6469 45.992 33.2549 45.6 33.2549 45.012C33.2549 44.298 33.7309 43.822 35.0189 43.822H36.4189V44.074C36.4189 45.11 35.5369 45.992 34.3189 45.992ZM42.4323 47.112C44.0703 47.112 45.0223 46.174 45.3023 44.83H43.9583C43.7483 45.474 43.3143 45.908 42.3623 45.908C41.3263 45.908 40.5983 45.18 40.5983 43.766V43.234C40.5983 41.806 41.3123 41.092 42.3623 41.092C43.3003 41.092 43.7483 41.54 43.9583 42.03H45.3023C45.0223 40.84 44.0703 39.888 42.4323 39.888C40.5143 39.888 39.2823 41.12 39.2823 43.234V43.766C39.2823 45.894 40.5003 47.112 42.4323 47.112ZM49.5007 47.112C51.3907 47.112 52.3007 46.202 52.5807 44.83H51.2927C51.0127 45.558 50.6067 45.964 49.5007 45.964C48.4507 45.964 47.7087 45.264 47.6667 43.906H52.6507V43.234C52.6507 41.176 51.3627 39.888 49.5007 39.888C47.6527 39.888 46.3507 41.19 46.3507 43.234V43.766C46.3507 45.838 47.6247 47.112 49.5007 47.112ZM49.5007 41.036C50.5507 41.036 51.1947 41.582 51.3067 42.814H47.6807C47.8067 41.624 48.5067 41.036 49.5007 41.036Z" fill="#3A3A3D"/>
<path d="M301 41L297.5 44L294 41" stroke="#3A3A3D"/>
</svg>
