<svg width="316" height="62" viewBox="0 0 316 62" fill="none" xmlns="http://www.w3.org/2000/svg">
<path d="M4 22.5H312C313.933 22.5 315.5 24.067 315.5 26V58C315.5 59.933 313.933 61.5 312 61.5H4C2.06701 61.5 0.5 59.933 0.5 58V26C0.5 24.067 2.067 22.5 4 22.5Z" stroke="#E1E3E8"/>
<path d="M0.96 12H2.088V8.256H5.46V7.224H2.088V4.632H6.18V3.6H0.96V12ZM7.47647 12H8.55647V6H7.47647V12ZM8.01647 5.088C8.42447 5.088 8.73647 4.776 8.73647 4.368C8.73647 3.96 8.42447 3.648 8.01647 3.648C7.60847 3.648 7.29647 3.96 7.29647 4.368C7.29647 4.776 7.60847 5.088 8.01647 5.088ZM10.4508 12H11.5308V8.4C11.5548 7.536 12.1668 6.936 13.2708 6.936H13.8708V5.904H13.2708C12.4788 5.904 11.8068 6.228 11.3988 6.816L11.2908 6H10.4508V12ZM16.9322 12.096C18.6002 12.096 19.3322 11.364 19.3322 10.32C19.3322 7.86 15.7802 8.904 15.7802 7.62C15.7802 7.152 16.0682 6.864 16.9322 6.864C17.6882 6.864 17.9642 7.152 18.0842 7.74H19.2122C19.0922 6.624 18.3602 5.904 16.9322 5.904C15.3842 5.904 14.6522 6.636 14.6522 7.62C14.6522 9.912 18.2042 8.868 18.2042 10.32C18.2042 10.848 17.9162 11.136 16.9322 11.136C16.0562 11.136 15.7802 10.848 15.6602 10.14H14.5322C14.6522 11.364 15.3842 12.096 16.9322 12.096ZM20.055 6.984H21.135V10.236C21.135 11.364 21.771 12 22.899 12H23.895V11.016H23.055C22.503 11.016 22.215 10.728 22.215 10.116V6.984H23.775V6H22.215V4.32H21.135V6H20.055V6.984ZM33.5592 12H34.9992L33.4512 10.368C33.8232 9.732 34.0392 8.952 34.0392 8.04H32.9112C32.9112 8.592 32.8032 9.072 32.6352 9.492L30.8232 7.56C32.0112 6.72 32.2992 5.988 32.2992 5.34C32.2992 4.284 31.5192 3.504 30.2592 3.504C29.0112 3.504 28.2192 4.284 28.2192 5.34C28.2192 6.024 28.3632 6.504 29.2152 7.44C28.0752 8.304 27.7992 9 27.7992 9.792C27.7992 11.1 28.7952 12.096 30.4392 12.096C31.3392 12.096 32.1552 11.772 32.7912 11.196L33.5592 12ZM30.4392 11.064C29.5032 11.064 28.9272 10.488 28.9272 9.78C28.9272 9.312 29.0232 8.844 29.8992 8.184L32.0232 10.404C31.5912 10.836 31.0272 11.064 30.4392 11.064ZM29.3472 5.34C29.3472 4.896 29.6952 4.536 30.2592 4.536C30.8112 4.536 31.1712 4.896 31.1712 5.34C31.1712 5.736 31.0392 6.144 30.1152 6.816C29.4552 6.084 29.3472 5.832 29.3472 5.34ZM38.835 12H43.815V10.968H39.963V3.6H38.835V12ZM46.568 12.096C47.444 12.096 48.164 11.7 48.596 11.016L48.728 12H49.568V7.92C49.568 6.684 48.788 5.904 47.288 5.904C45.704 5.904 44.948 6.66 44.888 7.68H46.088C46.148 7.2 46.484 6.864 47.288 6.864C48.104 6.864 48.488 7.248 48.488 7.92V8.364H47.288C45.38 8.364 44.648 9.096 44.648 10.32C44.648 11.424 45.32 12.096 46.568 12.096ZM46.688 11.136C46.112 11.136 45.776 10.8 45.776 10.296C45.776 9.684 46.184 9.276 47.288 9.276H48.488V9.492C48.488 10.38 47.732 11.136 46.688 11.136ZM53.3423 12.096C55.0103 12.096 55.7423 11.364 55.7423 10.32C55.7423 7.86 52.1903 8.904 52.1903 7.62C52.1903 7.152 52.4783 6.864 53.3423 6.864C54.0983 6.864 54.3743 7.152 54.4943 7.74H55.6223C55.5023 6.624 54.7703 5.904 53.3423 5.904C51.7943 5.904 51.0623 6.636 51.0623 7.62C51.0623 9.912 54.6143 8.868 54.6143 10.32C54.6143 10.848 54.3263 11.136 53.3423 11.136C52.4663 11.136 52.1903 10.848 52.0703 10.14H50.9423C51.0623 11.364 51.7943 12.096 53.3423 12.096ZM56.4652 6.984H57.5452V10.236C57.5452 11.364 58.1812 12 59.3092 12H60.3052V11.016H59.4652C58.9132 11.016 58.6252 10.728 58.6252 10.116V6.984H60.1852V6H58.6252V4.32H57.5452V6H56.4652V6.984ZM64.5094 12H65.5894V8.4C65.6134 7.536 66.2374 6.936 67.2094 6.936C68.0854 6.936 68.5894 7.44 68.5894 8.46V12H69.6694V8.46C69.6694 6.804 68.7694 5.904 67.3894 5.904C66.5494 5.904 65.8774 6.24 65.4574 6.828L65.3494 6H64.5094V12ZM72.9117 12.096C73.7877 12.096 74.5077 11.7 74.9397 11.016L75.0717 12H75.9117V7.92C75.9117 6.684 75.1317 5.904 73.6317 5.904C72.0477 5.904 71.2917 6.66 71.2317 7.68H72.4317C72.4917 7.2 72.8277 6.864 73.6317 6.864C74.4477 6.864 74.8317 7.248 74.8317 7.92V8.364H73.6317C71.7237 8.364 70.9917 9.096 70.9917 10.32C70.9917 11.424 71.6637 12.096 72.9117 12.096ZM73.0317 11.136C72.4557 11.136 72.1197 10.8 72.1197 10.296C72.1197 9.684 72.5277 9.276 73.6317 9.276H74.8317V9.492C74.8317 10.38 74.0757 11.136 73.0317 11.136ZM77.6461 12H78.7261V8.4C78.7501 7.512 79.3621 6.936 80.1661 6.936C80.9821 6.936 81.4861 7.44 81.4861 8.46V12H82.5661V8.4C82.5901 7.536 83.2021 6.936 84.0061 6.936C84.8221 6.936 85.3261 7.44 85.3261 8.46V12H86.4061V8.46C86.4061 6.804 85.5061 5.904 84.2461 5.904C83.3821 5.904 82.6621 6.312 82.2541 6.996C81.8821 6.288 81.2221 5.904 80.4061 5.904C79.6381 5.904 79.0021 6.228 78.5941 6.816L78.4861 6H77.6461V12ZM90.4861 12.096C92.1061 12.096 92.8861 11.316 93.1261 10.14H92.0221C91.7821 10.764 91.4341 11.112 90.4861 11.112C89.5861 11.112 88.9501 10.512 88.9141 9.348H93.1861V8.772C93.1861 7.008 92.0821 5.904 90.4861 5.904C88.9021 5.904 87.7861 7.02 87.7861 8.772V9.228C87.7861 11.004 88.8781 12.096 90.4861 12.096ZM90.4861 6.888C91.3861 6.888 91.9381 7.356 92.0341 8.412H88.9261C89.0341 7.392 89.6341 6.888 90.4861 6.888Z" fill="#7E838E"/>
<path d="M19.97 47.112C22.434 47.112 24.17 45.376 24.17 42.506V41.694C24.17 38.796 22.462 37.088 19.97 37.088C17.506 37.088 15.77 38.824 15.77 41.694V42.506C15.77 45.404 17.478 47.112 19.97 47.112ZM19.97 45.852C18.346 45.852 17.142 44.662 17.142 42.506V41.694C17.142 39.51 18.318 38.348 19.97 38.348C21.608 38.348 22.798 39.538 22.798 41.694V42.506C22.798 44.69 21.622 45.852 19.97 45.852ZM28.0335 47H28.6495V45.852H28.2155C27.5715 45.852 27.2495 45.516 27.2495 44.802V37.2H25.9895V44.942C25.9895 46.272 26.7175 47 28.0335 47ZM32.3336 46.832C33.2296 46.832 33.9576 46.524 34.4616 45.936V47C34.4616 48.288 33.9576 48.792 32.7536 48.792C31.6896 48.792 31.3116 48.4 31.1716 47.7H29.9116C30.0516 49.058 30.8916 49.912 32.7536 49.912C34.6996 49.912 35.7216 48.89 35.7216 47V40H34.7416L34.6016 40.994C34.1116 40.266 33.3276 39.888 32.3336 39.888C30.7376 39.888 29.5616 41.064 29.5616 43.094V43.626C29.5616 45.67 30.7236 46.832 32.3336 46.832ZM32.6696 45.628C31.5776 45.628 30.8776 44.942 30.8776 43.626V43.094C30.8776 41.792 31.5636 41.092 32.6696 41.092C33.7056 41.092 34.4616 41.848 34.4616 43.094V43.626C34.4616 44.872 33.7056 45.628 32.6696 45.628ZM39.5656 47.112C40.5876 47.112 41.4276 46.65 41.9316 45.852L42.0856 47H43.0656V42.24C43.0656 40.798 42.1556 39.888 40.4056 39.888C38.5576 39.888 37.6756 40.77 37.6056 41.96H39.0056C39.0756 41.4 39.4676 41.008 40.4056 41.008C41.3576 41.008 41.8056 41.456 41.8056 42.24V42.758H40.4056C38.1796 42.758 37.3256 43.612 37.3256 45.04C37.3256 46.328 38.1096 47.112 39.5656 47.112ZM39.7056 45.992C39.0336 45.992 38.6416 45.6 38.6416 45.012C38.6416 44.298 39.1176 43.822 40.4056 43.822H41.8056V44.074C41.8056 45.11 40.9236 45.992 39.7056 45.992ZM55.0011 47H56.4291L52.8591 37.2H51.3191L47.7491 47H49.1211L50.0731 44.312H54.0491L55.0011 47ZM51.3471 40.756L52.0751 38.67L52.7891 40.756L53.6151 43.108H50.5071L51.3471 40.756ZM61.0965 47.112C62.6645 47.112 63.8545 45.922 63.8545 43.766V43.234C63.8545 41.064 62.6785 39.888 61.0965 39.888C60.1865 39.888 59.4445 40.196 58.9545 40.812V37.2H57.6945V47H58.6745L58.8005 46.006C59.2905 46.748 60.0885 47.112 61.0965 47.112ZM60.7465 45.908C59.7105 45.908 58.9545 45.152 58.9545 43.766V43.136C58.9825 41.806 59.7385 41.092 60.7465 41.092C61.8385 41.092 62.5385 41.792 62.5385 43.234V43.766C62.5385 45.208 61.8525 45.908 60.7465 45.908ZM65.5285 47H66.7885V42.8C66.8165 41.792 67.5305 41.092 68.8185 41.092H69.5185V39.888H68.8185C67.8945 39.888 67.1105 40.266 66.6345 40.952L66.5085 40H65.5285V47ZM72.5969 47.112C73.6189 47.112 74.4589 46.65 74.9629 45.852L75.1169 47H76.0969V42.24C76.0969 40.798 75.1869 39.888 73.4369 39.888C71.5889 39.888 70.7069 40.77 70.6369 41.96H72.0369C72.1069 41.4 72.4989 41.008 73.4369 41.008C74.3889 41.008 74.8369 41.456 74.8369 42.24V42.758H73.4369C71.2109 42.758 70.3569 43.612 70.3569 45.04C70.3569 46.328 71.1409 47.112 72.5969 47.112ZM72.7369 45.992C72.0649 45.992 71.6729 45.6 71.6729 45.012C71.6729 44.298 72.1489 43.822 73.4369 43.822H74.8369V44.074C74.8369 45.11 73.9549 45.992 72.7369 45.992ZM78.1203 47H79.3803V42.8C79.4083 41.764 80.1223 41.092 81.0603 41.092C82.0123 41.092 82.6003 41.68 82.6003 42.87V47H83.8603V42.8C83.8883 41.792 84.6023 41.092 85.5403 41.092C86.4923 41.092 87.0803 41.68 87.0803 42.87V47H88.3403V42.87C88.3403 40.938 87.2903 39.888 85.8203 39.888C84.8123 39.888 83.9723 40.364 83.4963 41.162C83.0623 40.336 82.2923 39.888 81.3403 39.888C80.4443 39.888 79.7023 40.266 79.2263 40.952L79.1003 40H78.1203V47ZM93.1703 47.112C95.1163 47.112 96.3903 45.838 96.3903 43.766V43.234C96.3903 41.148 95.1303 39.888 93.1703 39.888C91.2243 39.888 89.9503 41.162 89.9503 43.234V43.766C89.9503 45.852 91.2103 47.112 93.1703 47.112ZM93.1703 45.908C92.0083 45.908 91.2663 45.166 91.2663 43.766V43.234C91.2663 41.82 91.9943 41.092 93.1703 41.092C94.3323 41.092 95.0743 41.834 95.0743 43.234V43.766C95.0743 45.18 94.3463 45.908 93.1703 45.908ZM99.6141 47H101.154L103.674 40H102.33L100.384 45.6L98.3261 40H96.9541L99.6141 47ZM106.407 47.112C107.429 47.112 108.269 46.65 108.773 45.852L108.927 47H109.907V42.24C109.907 40.798 108.997 39.888 107.247 39.888C105.399 39.888 104.517 40.77 104.447 41.96H105.847C105.917 41.4 106.309 41.008 107.247 41.008C108.199 41.008 108.647 41.456 108.647 42.24V42.758H107.247C105.021 42.758 104.167 43.612 104.167 45.04C104.167 46.328 104.951 47.112 106.407 47.112ZM106.547 45.992C105.875 45.992 105.483 45.6 105.483 45.012C105.483 44.298 105.959 43.822 107.247 43.822H108.647V44.074C108.647 45.11 107.765 45.992 106.547 45.992Z" fill="#3A3A3D"/>
</svg>
