<svg width="160" height="161" viewBox="0 0 160 161" fill="none" xmlns="http://www.w3.org/2000/svg">
<rect y="121" width="160" height="40" rx="4" fill="#F2F3F4"/>
<path d="M45.12 25H46.436V21.472H48.34C50.79 21.472 51.98 20.282 51.98 18.336C51.98 16.334 50.846 15.2 48.34 15.2H45.12V25ZM48.34 16.404C49.978 16.404 50.622 17.048 50.622 18.336C50.622 19.596 49.95 20.268 48.34 20.268H46.436V16.404H48.34ZM53.4445 25H54.7045V20.8C54.7325 19.792 55.4465 19.092 56.7345 19.092H57.4345V17.888H56.7345C55.8105 17.888 55.0265 18.266 54.5505 18.952L54.4245 18H53.4445V25ZM61.4262 25.112C63.3722 25.112 64.6462 23.838 64.6462 21.766V21.234C64.6462 19.148 63.3862 17.888 61.4262 17.888C59.4802 17.888 58.2062 19.162 58.2062 21.234V21.766C58.2062 23.852 59.4662 25.112 61.4262 25.112ZM61.4262 23.908C60.2642 23.908 59.5222 23.166 59.5222 21.766V21.234C59.5222 19.82 60.2502 19.092 61.4262 19.092C62.5882 19.092 63.3302 19.834 63.3302 21.234V21.766C63.3302 23.18 62.6022 23.908 61.4262 23.908ZM64.8954 27.8H65.3574C66.9814 27.8 67.6954 27.086 67.6954 25.21V18H66.4354V25.21C66.4354 26.26 66.0994 26.652 65.3574 26.652H64.8954V27.8ZM67.0654 16.936C67.5414 16.936 67.9054 16.572 67.9054 16.096C67.9054 15.62 67.5414 15.256 67.0654 15.256C66.5894 15.256 66.2254 15.62 66.2254 16.096C66.2254 16.572 66.5894 16.936 67.0654 16.936ZM72.6355 25.112C74.5255 25.112 75.4355 24.202 75.7155 22.83H74.4275C74.1475 23.558 73.7415 23.964 72.6355 23.964C71.5855 23.964 70.8435 23.264 70.8015 21.906H75.7855V21.234C75.7855 19.176 74.4975 17.888 72.6355 17.888C70.7875 17.888 69.4855 19.19 69.4855 21.234V21.766C69.4855 23.838 70.7595 25.112 72.6355 25.112ZM72.6355 19.036C73.6855 19.036 74.3295 19.582 74.4415 20.814H70.8155C70.9415 19.624 71.6415 19.036 72.6355 19.036ZM80.196 25.112C81.834 25.112 82.786 24.174 83.066 22.83H81.722C81.512 23.474 81.078 23.908 80.126 23.908C79.09 23.908 78.362 23.18 78.362 21.766V21.234C78.362 19.806 79.076 19.092 80.126 19.092C81.064 19.092 81.512 19.54 81.722 20.03H83.066C82.786 18.84 81.834 17.888 80.196 17.888C78.278 17.888 77.046 19.12 77.046 21.234V21.766C77.046 23.894 78.264 25.112 80.196 25.112ZM83.6944 19.148H84.9544V22.942C84.9544 24.258 85.6964 25 87.0124 25H88.1744V23.852H87.1944C86.5504 23.852 86.2144 23.516 86.2144 22.802V19.148H88.0344V18H86.2144V16.04H84.9544V18H83.6944V19.148ZM91.9593 25.112C93.9053 25.112 94.7593 24.258 94.7593 23.04C94.7593 20.17 90.6153 21.388 90.6153 19.89C90.6153 19.344 90.9513 19.008 91.9593 19.008C92.8413 19.008 93.1633 19.344 93.3033 20.03H94.6193C94.4793 18.728 93.6253 17.888 91.9593 17.888C90.1533 17.888 89.2993 18.742 89.2993 19.89C89.2993 22.564 93.4433 21.346 93.4433 23.04C93.4433 23.656 93.1073 23.992 91.9593 23.992C90.9373 23.992 90.6153 23.656 90.4753 22.83H89.1593C89.2993 24.258 90.1533 25.112 91.9593 25.112ZM45.12 85H46.436V81.472H48.34C50.79 81.472 51.98 80.282 51.98 78.336C51.98 76.334 50.846 75.2 48.34 75.2H45.12V85ZM48.34 76.404C49.978 76.404 50.622 77.048 50.622 78.336C50.622 79.596 49.95 80.268 48.34 80.268H46.436V76.404H48.34ZM53.4445 85H54.7045V80.8C54.7325 79.792 55.4465 79.092 56.7345 79.092H57.4345V77.888H56.7345C55.8105 77.888 55.0265 78.266 54.5505 78.952L54.4245 78H53.4445V85ZM61.3562 85.112C63.2462 85.112 64.1562 84.202 64.4362 82.83H63.1482C62.8682 83.558 62.4622 83.964 61.3562 83.964C60.3062 83.964 59.5642 83.264 59.5222 81.906H64.5062V81.234C64.5062 79.176 63.2182 77.888 61.3562 77.888C59.5082 77.888 58.2062 79.19 58.2062 81.234V81.766C58.2062 83.838 59.4802 85.112 61.3562 85.112ZM61.3562 79.036C62.4062 79.036 63.0502 79.582 63.1622 80.814H59.5362C59.6622 79.624 60.3622 79.036 61.3562 79.036ZM68.5667 85.112C70.5127 85.112 71.3667 84.258 71.3667 83.04C71.3667 80.17 67.2227 81.388 67.2227 79.89C67.2227 79.344 67.5587 79.008 68.5667 79.008C69.4487 79.008 69.7707 79.344 69.9107 80.03H71.2267C71.0867 78.728 70.2327 77.888 68.5667 77.888C66.7607 77.888 65.9067 78.742 65.9067 79.89C65.9067 82.564 70.0507 81.346 70.0507 83.04C70.0507 83.656 69.7147 83.992 68.5667 83.992C67.5447 83.992 67.2227 83.656 67.0827 82.83H65.7667C65.9067 84.258 66.7607 85.112 68.5667 85.112ZM75.78 85.112C77.67 85.112 78.58 84.202 78.86 82.83H77.572C77.292 83.558 76.886 83.964 75.78 83.964C74.73 83.964 73.988 83.264 73.946 81.906H78.93V81.234C78.93 79.176 77.642 77.888 75.78 77.888C73.932 77.888 72.63 79.19 72.63 81.234V81.766C72.63 83.838 73.904 85.112 75.78 85.112ZM75.78 79.036C76.83 79.036 77.474 79.582 77.586 80.814H73.96C74.086 79.624 74.786 79.036 75.78 79.036ZM79.7705 79.148H81.0305V82.942C81.0305 84.258 81.7725 85 83.0885 85H84.2505V83.852H83.2705C82.6265 83.852 82.2905 83.516 82.2905 82.802V79.148H84.1105V78H82.2905V76.04H81.0305V78H79.7705V79.148ZM88.0355 85.112C89.9815 85.112 90.8355 84.258 90.8355 83.04C90.8355 80.17 86.6915 81.388 86.6915 79.89C86.6915 79.344 87.0275 79.008 88.0355 79.008C88.9175 79.008 89.2395 79.344 89.3795 80.03H90.6955C90.5555 78.728 89.7015 77.888 88.0355 77.888C86.2295 77.888 85.3755 78.742 85.3755 79.89C85.3755 82.564 89.5195 81.346 89.5195 83.04C89.5195 83.656 89.1835 83.992 88.0355 83.992C87.0135 83.992 86.6915 83.656 86.5515 82.83H85.2355C85.3755 84.258 86.2295 85.112 88.0355 85.112ZM48.27 145.112C50.692 145.112 51.84 143.964 51.84 142.326C51.84 138.602 46.212 140.058 46.212 137.748C46.212 136.964 46.842 136.348 48.27 136.348C49.642 136.348 50.146 136.866 50.3 138.07H51.7C51.56 136.124 50.524 135.088 48.27 135.088C46.002 135.088 44.84 136.236 44.84 137.748C44.84 141.318 50.468 139.876 50.468 142.312C50.468 143.166 49.782 143.852 48.27 143.852C46.856 143.852 46.226 143.278 46.1 141.85H44.7C44.84 144.048 45.974 145.112 48.27 145.112ZM53.5949 145H54.8549V140.8C54.8829 139.792 55.6109 139.092 56.7449 139.092C57.7669 139.092 58.3549 139.68 58.3549 140.87V145H59.6149V140.87C59.6149 138.938 58.5649 137.888 56.9549 137.888C56.0449 137.888 55.3169 138.224 54.8549 138.826V135.2H53.5949V145ZM63.3977 145.112C64.4197 145.112 65.2597 144.65 65.7637 143.852L65.9177 145H66.8977V140.24C66.8977 138.798 65.9877 137.888 64.2377 137.888C62.3897 137.888 61.5077 138.77 61.4377 139.96H62.8377C62.9077 139.4 63.2997 139.008 64.2377 139.008C65.1897 139.008 65.6377 139.456 65.6377 140.24V140.758H64.2377C62.0117 140.758 61.1577 141.612 61.1577 143.04C61.1577 144.328 61.9417 145.112 63.3977 145.112ZM63.5377 143.992C62.8657 143.992 62.4737 143.6 62.4737 143.012C62.4737 142.298 62.9497 141.822 64.2377 141.822H65.6377V142.074C65.6377 143.11 64.7557 143.992 63.5377 143.992ZM68.9211 145H70.1811V140.8C70.2091 139.792 70.9231 139.092 72.2111 139.092H72.9111V137.888H72.2111C71.2871 137.888 70.5031 138.266 70.0271 138.952L69.9011 138H68.9211V145ZM74.3515 145H75.6115V138H74.3515V145ZM74.9815 136.936C75.4575 136.936 75.8215 136.572 75.8215 136.096C75.8215 135.62 75.4575 135.256 74.9815 135.256C74.5055 135.256 74.1415 135.62 74.1415 136.096C74.1415 136.572 74.5055 136.936 74.9815 136.936ZM77.8215 145H79.0815V140.8C79.1095 139.792 79.8375 139.092 80.9715 139.092C81.9935 139.092 82.5815 139.68 82.5815 140.87V145H83.8415V140.87C83.8415 138.938 82.7915 137.888 81.1815 137.888C80.2015 137.888 79.4175 138.28 78.9275 138.966L78.8015 138H77.8215V145ZM88.2262 144.832C89.1222 144.832 89.8502 144.524 90.3542 143.936V145C90.3542 146.288 89.8502 146.792 88.6462 146.792C87.5822 146.792 87.2042 146.4 87.0642 145.7H85.8042C85.9442 147.058 86.7842 147.912 88.6462 147.912C90.5922 147.912 91.6142 146.89 91.6142 145V138H90.6342L90.4942 138.994C90.0042 138.266 89.2202 137.888 88.2262 137.888C86.6302 137.888 85.4542 139.064 85.4542 141.094V141.626C85.4542 143.67 86.6162 144.832 88.2262 144.832ZM88.5622 143.628C87.4702 143.628 86.7702 142.942 86.7702 141.626V141.094C86.7702 139.792 87.4562 139.092 88.5622 139.092C89.5982 139.092 90.3542 139.848 90.3542 141.094V141.626C90.3542 142.872 89.5982 143.628 88.5622 143.628Z" fill="#424246"/>
<path d="M13 14.5V25.5L22.4998 31L31.9997 25.5V14.5L22.4998 9L13 14.5Z" stroke="#3A3A3D" stroke-miterlimit="10"/>
<path d="M22.4998 30.9998V19.9998L13 14.4998" stroke="#3A3A3D" stroke-miterlimit="10"/>
<path d="M22.5 19.9998L31.9998 14.4998" stroke="#3A3A3D" stroke-miterlimit="10"/>
<path d="M13 73H17.9609" stroke="#3A3A3D" stroke-miterlimit="10"/>
<path d="M23.3945 73H32.0002" stroke="#3A3A3D" stroke-miterlimit="10"/>
<path d="M23.8486 73C23.8486 74.6575 22.5061 76 20.8486 76C19.1911 76 17.8486 74.6575 17.8486 73C17.8486 71.3425 19.1911 70 20.8486 70C22.5061 70 23.8486 71.3425 23.8486 73Z" stroke="#3A3A3D" stroke-miterlimit="10"/>
<path d="M32 86H27.0391" stroke="#3A3A3D" stroke-miterlimit="10"/>
<path d="M21.6055 86H12.9998" stroke="#3A3A3D" stroke-miterlimit="10"/>
<path d="M21.1514 86C21.1514 87.6575 22.4939 89 24.1514 89C25.8089 89 27.1514 87.6575 27.1514 86C27.1514 84.3425 25.8089 83 24.1514 83C22.4939 83 21.1514 84.3425 21.1514 86Z" stroke="#3A3A3D" stroke-miterlimit="10"/>
<circle cx="23" cy="132" r="2" stroke="#3A3A3D"/>
<circle cx="31" cy="136" r="2" stroke="#3A3A3D"/>
<circle cx="15" cy="136" r="2" stroke="#3A3A3D"/>
<path d="M35 147.996V143C35 141.895 34.1046 141 33 141H29C27.8954 141 27 141.895 27 143V149" stroke="#3A3A3D"/>
<path d="M11 147.996V143C11 141.895 11.8954 141 13 141H17C18.1046 141 19 141.895 19 143V149" stroke="#3A3A3D"/>
<path d="M27 148.996V139C27 137.895 26.1046 137 25 137H21C19.8954 137 19 137.895 19 139V149" stroke="#3A3A3D"/>
</svg>
