<svg width="48" height="18" viewBox="0 0 48 18" fill="none" xmlns="http://www.w3.org/2000/svg">
<path d="M1.12 14H2.436V10.472H4.34C6.79 10.472 7.98 9.282 7.98 7.336C7.98 5.334 6.846 4.2 4.34 4.2H1.12V14ZM4.34 5.404C5.978 5.404 6.622 6.048 6.622 7.336C6.622 8.596 5.95 9.268 4.34 9.268H2.436V5.404H4.34ZM9.44453 14H10.7045V9.8C10.7325 8.792 11.4465 8.092 12.7345 8.092H13.4345V6.888H12.7345C11.8105 6.888 11.0265 7.266 10.5505 7.952L10.4245 7H9.44453V14ZM17.3562 14.112C19.2462 14.112 20.1562 13.202 20.4362 11.83H19.1482C18.8682 12.558 18.4622 12.964 17.3562 12.964C16.3062 12.964 15.5642 12.264 15.5222 10.906H20.5062V10.234C20.5062 8.176 19.2182 6.888 17.3562 6.888C15.5082 6.888 14.2062 8.19 14.2062 10.234V10.766C14.2062 12.838 15.4802 14.112 17.3562 14.112ZM17.3562 8.036C18.4062 8.036 19.0502 8.582 19.1622 9.814H15.5362C15.6622 8.624 16.3622 8.036 17.3562 8.036ZM24.5667 14.112C26.5127 14.112 27.3667 13.258 27.3667 12.04C27.3667 9.17 23.2227 10.388 23.2227 8.89C23.2227 8.344 23.5587 8.008 24.5667 8.008C25.4487 8.008 25.7707 8.344 25.9107 9.03H27.2267C27.0867 7.728 26.2327 6.888 24.5667 6.888C22.7607 6.888 21.9067 7.742 21.9067 8.89C21.9067 11.564 26.0507 10.346 26.0507 12.04C26.0507 12.656 25.7147 12.992 24.5667 12.992C23.5447 12.992 23.2227 12.656 23.0827 11.83H21.7667C21.9067 13.258 22.7607 14.112 24.5667 14.112ZM31.78 14.112C33.67 14.112 34.58 13.202 34.86 11.83H33.572C33.292 12.558 32.886 12.964 31.78 12.964C30.73 12.964 29.988 12.264 29.946 10.906H34.93V10.234C34.93 8.176 33.642 6.888 31.78 6.888C29.932 6.888 28.63 8.19 28.63 10.234V10.766C28.63 12.838 29.904 14.112 31.78 14.112ZM31.78 8.036C32.83 8.036 33.474 8.582 33.586 9.814H29.96C30.086 8.624 30.786 8.036 31.78 8.036ZM35.7705 8.148H37.0305V11.942C37.0305 13.258 37.7725 14 39.0885 14H40.2505V12.852H39.2705C38.6265 12.852 38.2905 12.516 38.2905 11.802V8.148H40.1105V7H38.2905V5.04H37.0305V7H35.7705V8.148ZM44.0355 14.112C45.9815 14.112 46.8355 13.258 46.8355 12.04C46.8355 9.17 42.6915 10.388 42.6915 8.89C42.6915 8.344 43.0275 8.008 44.0355 8.008C44.9175 8.008 45.2395 8.344 45.3795 9.03H46.6955C46.5555 7.728 45.7015 6.888 44.0355 6.888C42.2295 6.888 41.3755 7.742 41.3755 8.89C41.3755 11.564 45.5195 10.346 45.5195 12.04C45.5195 12.656 45.1835 12.992 44.0355 12.992C43.0135 12.992 42.6915 12.656 42.5515 11.83H41.2355C41.3755 13.258 42.2295 14.112 44.0355 14.112Z" fill="#3A3A3D"/>
</svg>
