<svg width="52" height="18" viewBox="0 0 52 18" fill="none" xmlns="http://www.w3.org/2000/svg">
<path d="M1.12 14H2.436V10.472H4.34C6.79 10.472 7.98 9.282 7.98 7.336C7.98 5.334 6.846 4.2 4.34 4.2H1.12V14ZM4.34 5.404C5.978 5.404 6.622 6.048 6.622 7.336C6.622 8.596 5.95 9.268 4.34 9.268H2.436V5.404H4.34ZM9.44453 14H10.7045V9.8C10.7325 8.792 11.4465 8.092 12.7345 8.092H13.4345V6.888H12.7345C11.8105 6.888 11.0265 7.266 10.5505 7.952L10.4245 7H9.44453V14ZM17.4262 14.112C19.3722 14.112 20.6462 12.838 20.6462 10.766V10.234C20.6462 8.148 19.3862 6.888 17.4262 6.888C15.4802 6.888 14.2062 8.162 14.2062 10.234V10.766C14.2062 12.852 15.4662 14.112 17.4262 14.112ZM17.4262 12.908C16.2642 12.908 15.5222 12.166 15.5222 10.766V10.234C15.5222 8.82 16.2502 8.092 17.4262 8.092C18.5882 8.092 19.3302 8.834 19.3302 10.234V10.766C19.3302 12.18 18.6022 12.908 17.4262 12.908ZM20.8954 16.8H21.3574C22.9814 16.8 23.6954 16.086 23.6954 14.21V7H22.4354V14.21C22.4354 15.26 22.0994 15.652 21.3574 15.652H20.8954V16.8ZM23.0654 5.936C23.5414 5.936 23.9054 5.572 23.9054 5.096C23.9054 4.62 23.5414 4.256 23.0654 4.256C22.5894 4.256 22.2254 4.62 22.2254 5.096C22.2254 5.572 22.5894 5.936 23.0654 5.936ZM28.6355 14.112C30.5255 14.112 31.4355 13.202 31.7155 11.83H30.4275C30.1475 12.558 29.7415 12.964 28.6355 12.964C27.5855 12.964 26.8435 12.264 26.8015 10.906H31.7855V10.234C31.7855 8.176 30.4975 6.888 28.6355 6.888C26.7875 6.888 25.4855 8.19 25.4855 10.234V10.766C25.4855 12.838 26.7595 14.112 28.6355 14.112ZM28.6355 8.036C29.6855 8.036 30.3295 8.582 30.4415 9.814H26.8155C26.9415 8.624 27.6415 8.036 28.6355 8.036ZM36.196 14.112C37.834 14.112 38.786 13.174 39.066 11.83H37.722C37.512 12.474 37.078 12.908 36.126 12.908C35.09 12.908 34.362 12.18 34.362 10.766V10.234C34.362 8.806 35.076 8.092 36.126 8.092C37.064 8.092 37.512 8.54 37.722 9.03H39.066C38.786 7.84 37.834 6.888 36.196 6.888C34.278 6.888 33.046 8.12 33.046 10.234V10.766C33.046 12.894 34.264 14.112 36.196 14.112ZM39.6944 8.148H40.9544V11.942C40.9544 13.258 41.6964 14 43.0124 14H44.1744V12.852H43.1944C42.5504 12.852 42.2144 12.516 42.2144 11.802V8.148H44.0344V7H42.2144V5.04H40.9544V7H39.6944V8.148ZM47.9593 14.112C49.9053 14.112 50.7593 13.258 50.7593 12.04C50.7593 9.17 46.6153 10.388 46.6153 8.89C46.6153 8.344 46.9513 8.008 47.9593 8.008C48.8413 8.008 49.1633 8.344 49.3033 9.03H50.6193C50.4793 7.728 49.6253 6.888 47.9593 6.888C46.1533 6.888 45.2993 7.742 45.2993 8.89C45.2993 11.564 49.4433 10.346 49.4433 12.04C49.4433 12.656 49.1073 12.992 47.9593 12.992C46.9373 12.992 46.6153 12.656 46.4753 11.83H45.1593C45.2993 13.258 46.1533 14.112 47.9593 14.112Z" fill="#3A3A3D"/>
</svg>
