<svg width="49" height="18" viewBox="0 0 49 18" fill="none" xmlns="http://www.w3.org/2000/svg">
<path d="M4.27 14.112C6.692 14.112 7.84 12.964 7.84 11.326C7.84 7.602 2.212 9.058 2.212 6.748C2.212 5.964 2.842 5.348 4.27 5.348C5.642 5.348 6.146 5.866 6.3 7.07H7.7C7.56 5.124 6.524 4.088 4.27 4.088C2.002 4.088 0.84 5.236 0.84 6.748C0.84 10.318 6.468 8.876 6.468 11.312C6.468 12.166 5.782 12.852 4.27 12.852C2.856 12.852 2.226 12.278 2.1 10.85H0.7C0.84 13.048 1.974 14.112 4.27 14.112ZM9.59492 14H10.8549V9.8C10.8829 8.792 11.6109 8.092 12.7449 8.092C13.7669 8.092 14.3549 8.68 14.3549 9.87V14H15.6149V9.87C15.6149 7.938 14.5649 6.888 12.9549 6.888C12.0449 6.888 11.3169 7.224 10.8549 7.826V4.2H9.59492V14ZM19.3977 14.112C20.4197 14.112 21.2597 13.65 21.7637 12.852L21.9177 14H22.8977V9.24C22.8977 7.798 21.9877 6.888 20.2377 6.888C18.3897 6.888 17.5077 7.77 17.4377 8.96H18.8377C18.9077 8.4 19.2997 8.008 20.2377 8.008C21.1897 8.008 21.6377 8.456 21.6377 9.24V9.758H20.2377C18.0117 9.758 17.1577 10.612 17.1577 12.04C17.1577 13.328 17.9417 14.112 19.3977 14.112ZM19.5377 12.992C18.8657 12.992 18.4737 12.6 18.4737 12.012C18.4737 11.298 18.9497 10.822 20.2377 10.822H21.6377V11.074C21.6377 12.11 20.7557 12.992 19.5377 12.992ZM24.9211 14H26.1811V9.8C26.2091 8.792 26.9231 8.092 28.2111 8.092H28.9111V6.888H28.2111C27.2871 6.888 26.5031 7.266 26.0271 7.952L25.9011 7H24.9211V14ZM30.3515 14H31.6115V7H30.3515V14ZM30.9815 5.936C31.4575 5.936 31.8215 5.572 31.8215 5.096C31.8215 4.62 31.4575 4.256 30.9815 4.256C30.5055 4.256 30.1415 4.62 30.1415 5.096C30.1415 5.572 30.5055 5.936 30.9815 5.936ZM33.8215 14H35.0815V9.8C35.1095 8.792 35.8375 8.092 36.9715 8.092C37.9935 8.092 38.5815 8.68 38.5815 9.87V14H39.8415V9.87C39.8415 7.938 38.7915 6.888 37.1815 6.888C36.2015 6.888 35.4175 7.28 34.9275 7.966L34.8015 7H33.8215V14ZM44.2262 13.832C45.1222 13.832 45.8502 13.524 46.3542 12.936V14C46.3542 15.288 45.8502 15.792 44.6462 15.792C43.5822 15.792 43.2042 15.4 43.0642 14.7H41.8042C41.9442 16.058 42.7842 16.912 44.6462 16.912C46.5922 16.912 47.6142 15.89 47.6142 14V7H46.6342L46.4942 7.994C46.0042 7.266 45.2202 6.888 44.2262 6.888C42.6302 6.888 41.4542 8.064 41.4542 10.094V10.626C41.4542 12.67 42.6162 13.832 44.2262 13.832ZM44.5622 12.628C43.4702 12.628 42.7702 11.942 42.7702 10.626V10.094C42.7702 8.792 43.4562 8.092 44.5622 8.092C45.5982 8.092 46.3542 8.848 46.3542 10.094V10.626C46.3542 11.872 45.5982 12.628 44.5622 12.628Z" fill="#3A3A3D"/>
</svg>
