<svg width="133" height="46" viewBox="0 0 133 46" fill="none" xmlns="http://www.w3.org/2000/svg">
<path d="M2.88 36H6.264V26.928H11.16C17.46 26.928 20.52 23.868 20.52 18.864C20.52 13.716 17.604 10.8 11.16 10.8H2.88V36ZM11.16 13.896C15.372 13.896 17.028 15.552 17.028 18.864C17.028 22.104 15.3 23.832 11.16 23.832H6.264V13.896H11.16ZM24.2859 36H27.5259V25.2C27.5979 22.608 29.4339 20.808 32.7459 20.808H34.5459V17.712H32.7459C30.3699 17.712 28.3539 18.684 27.1299 20.448L26.8059 18H24.2859V36ZM44.8102 36.288C49.8142 36.288 53.0902 33.012 53.0902 27.684V26.316C53.0902 20.952 49.8502 17.712 44.8102 17.712C39.8062 17.712 36.5302 20.988 36.5302 26.316V27.684C36.5302 33.048 39.7702 36.288 44.8102 36.288ZM44.8102 33.192C41.8222 33.192 39.9142 31.284 39.9142 27.684V26.316C39.9142 22.68 41.7862 20.808 44.8102 20.808C47.7982 20.808 49.7062 22.716 49.7062 26.316V27.684C49.7062 31.32 47.8342 33.192 44.8102 33.192ZM53.7311 43.2H54.9191C59.0951 43.2 60.9311 41.364 60.9311 36.54V18H57.6911V36.54C57.6911 39.24 56.8271 40.248 54.9191 40.248H53.7311V43.2ZM59.3111 15.264C60.5351 15.264 61.4711 14.328 61.4711 13.104C61.4711 11.88 60.5351 10.944 59.3111 10.944C58.0871 10.944 57.1511 11.88 57.1511 13.104C57.1511 14.328 58.0871 15.264 59.3111 15.264ZM73.6341 36.288C78.4941 36.288 80.8341 33.948 81.5541 30.42H78.2421C77.5221 32.292 76.4781 33.336 73.6341 33.336C70.9341 33.336 69.0261 31.536 68.9181 28.044H81.7341V26.316C81.7341 21.024 78.4221 17.712 73.6341 17.712C68.8821 17.712 65.5341 21.06 65.5341 26.316V27.684C65.5341 33.012 68.8101 36.288 73.6341 36.288ZM73.6341 20.664C76.3341 20.664 77.9901 22.068 78.2781 25.236H68.9541C69.2781 22.176 71.0781 20.664 73.6341 20.664ZM93.0755 36.288C97.2875 36.288 99.7355 33.876 100.455 30.42H96.9995C96.4595 32.076 95.3435 33.192 92.8955 33.192C90.2315 33.192 88.3595 31.32 88.3595 27.684V26.316C88.3595 22.644 90.1955 20.808 92.8955 20.808C95.3075 20.808 96.4595 21.96 96.9995 23.22H100.455C99.7355 20.16 97.2875 17.712 93.0755 17.712C88.1435 17.712 84.9755 20.88 84.9755 26.316V27.684C84.9755 33.156 88.1075 36.288 93.0755 36.288ZM102.071 20.952H105.311V30.708C105.311 34.092 107.219 36 110.603 36H113.591V33.048H111.071C109.415 33.048 108.551 32.184 108.551 30.348V20.952H113.231V18H108.551V12.96H105.311V18H102.071V20.952ZM123.324 36.288C128.328 36.288 130.524 34.092 130.524 30.96C130.524 23.58 119.868 26.712 119.868 22.86C119.868 21.456 120.732 20.592 123.324 20.592C125.592 20.592 126.42 21.456 126.78 23.22H130.164C129.804 19.872 127.608 17.712 123.324 17.712C118.68 17.712 116.484 19.908 116.484 22.86C116.484 29.736 127.14 26.604 127.14 30.96C127.14 32.544 126.276 33.408 123.324 33.408C120.696 33.408 119.868 32.544 119.508 30.42H116.124C116.484 34.092 118.68 36.288 123.324 36.288Z" fill="#3A3A3D"/>
</svg>
