<svg width="45" height="40" viewBox="0 0 45 40" fill="none" xmlns="http://www.w3.org/2000/svg">
<path d="M30.4298 24.0116C30.2327 23.9858 30.092 23.8308 30.0732 23.65C29.9981 23.1162 29.8761 21.8937 29.848 19.4573C29.8198 16.4182 28.2245 13.5427 24.5552 12.7764C24.3393 12.7334 24.1798 12.5612 24.1798 12.3632V11.5453C24.1798 10.8135 23.6355 10.142 22.8566 10.0214C21.8525 9.86648 20.9891 10.5724 20.9891 11.4592V12.3546C20.9891 12.5526 20.8296 12.7248 20.6231 12.7678C17.0758 13.5254 15.1802 16.401 15.152 19.4573C15.1333 21.8937 15.0019 23.1162 14.9268 23.65C14.8986 23.8308 14.7579 23.9858 14.5702 24.0116C13.5567 24.158 12.8153 25.0619 13.0405 26.0692C13.2188 26.8785 14.0728 27.4295 14.9737 27.4295H22.1903H22.8097H30.0263C30.9272 27.4295 31.7812 26.8871 31.9595 26.0692C32.1847 25.0619 31.4433 24.158 30.4298 24.0116Z" stroke="#3A3A3D" stroke-miterlimit="10"/>
<path d="M25 27.5V28.0734C25 29.3352 23.8848 30.3669 22.5 30.3669C21.1152 30.3669 20 29.3438 20 28.0734V27.5" stroke="#3A3A3D" stroke-miterlimit="10"/>
</svg>
