<svg width="45" height="40" viewBox="0 0 45 40" fill="none" xmlns="http://www.w3.org/2000/svg">
<path d="M13 13H17.9609" stroke="#3A3A3D" stroke-miterlimit="10"/>
<path d="M23.3945 13L32.0002 13" stroke="#3A3A3D" stroke-miterlimit="10"/>
<path d="M23.8486 13C23.8486 14.6575 22.5061 16 20.8486 16C19.1911 16 17.8486 14.6575 17.8486 13C17.8486 11.3425 19.1911 10 20.8486 10C22.5061 10 23.8486 11.3425 23.8486 13Z" stroke="#3A3A3D" stroke-miterlimit="10"/>
<path d="M32 26H27.0391" stroke="#3A3A3D" stroke-miterlimit="10"/>
<path d="M21.6055 26L12.9998 26" stroke="#3A3A3D" stroke-miterlimit="10"/>
<path d="M21.1514 26C21.1514 27.6575 22.4939 29 24.1514 29C25.8089 29 27.1514 27.6575 27.1514 26C27.1514 24.3425 25.8089 23 24.1514 23C22.4939 23 21.1514 24.3425 21.1514 26Z" stroke="#3A3A3D" stroke-miterlimit="10"/>
</svg>
