<svg width="45" height="40" viewBox="0 0 45 40" fill="none" xmlns="http://www.w3.org/2000/svg">
<circle cx="23" cy="11" r="2" stroke="#3A3A3D"/>
<circle cx="31" cy="15" r="2" stroke="#3A3A3D"/>
<circle cx="15" cy="15" r="2" stroke="#3A3A3D"/>
<path d="M35 26.9959V22C35 20.8954 34.1046 20 33 20H29C27.8954 20 27 20.8954 27 22V28" stroke="#3A3A3D"/>
<path d="M11 26.9959V22C11 20.8954 11.8954 20 13 20H17C18.1046 20 19 20.8954 19 22V28" stroke="#3A3A3D"/>
<path d="M27 27.9959V18C27 16.8954 26.1046 16 25 16H21C19.8954 16 19 16.8954 19 18V28" stroke="#3A3A3D"/>
</svg>
