<svg width="190" height="200" viewBox="0 0 190 200" fill="none" xmlns="http://www.w3.org/2000/svg">
<path d="M154 134V51.7931C154 49.584 152.209 47.7931 150 47.7931H93.3846C92.0269 47.7931 90.7619 47.1044 90.025 45.9641L84.7681 37.829C84.0312 36.6887 82.7662 36 81.4085 36H39C36.7909 36 35 37.7909 35 40V134C35 136.209 36.7909 138 39 138H150C152.209 138 154 136.209 154 134Z" fill="#C3C5CB"/>
<path d="M66.3561 185H68.2321V175.2H66.9161V183.488L66.2021 182.06L62.4081 175.2H60.5321V185H61.8481V176.712L62.5621 178.14L66.3561 185ZM73.1316 185.112C75.0216 185.112 75.9316 184.202 76.2116 182.83H74.9236C74.6436 183.558 74.2376 183.964 73.1316 183.964C72.0816 183.964 71.3396 183.264 71.2976 181.906H76.2816V181.234C76.2816 179.176 74.9936 177.888 73.1316 177.888C71.2836 177.888 69.9816 179.19 69.9816 181.234V181.766C69.9816 183.838 71.2556 185.112 73.1316 185.112ZM73.1316 179.036C74.1816 179.036 74.8256 179.582 74.9376 180.814H71.3116C71.4376 179.624 72.1376 179.036 73.1316 179.036ZM83.7754 185H85.3154L87.2054 178H85.9454L84.5174 183.516L82.9214 178H81.3814L79.9534 183.446L78.4414 178H77.1254L79.1554 185H80.6954L82.1514 179.428L83.7754 185ZM92.1688 185H93.4848V180.632H97.4188V179.428H93.4848V176.404H98.2588V175.2H92.1688V185ZM102.036 185.112C103.982 185.112 105.256 183.838 105.256 181.766V181.234C105.256 179.148 103.996 177.888 102.036 177.888C100.09 177.888 98.8155 179.162 98.8155 181.234V181.766C98.8155 183.852 100.076 185.112 102.036 185.112ZM102.036 183.908C100.874 183.908 100.132 183.166 100.132 181.766V181.234C100.132 179.82 100.86 179.092 102.036 179.092C103.198 179.092 103.94 179.834 103.94 181.234V181.766C103.94 183.18 103.212 183.908 102.036 183.908ZM108.977 185H109.593V183.852H109.159C108.515 183.852 108.193 183.516 108.193 182.802V175.2H106.933V182.942C106.933 184.272 107.661 185 108.977 185ZM113.263 185.112C114.257 185.112 115.055 184.748 115.545 184.006L115.685 185H116.665V175.2H115.405V178.812C114.901 178.196 114.173 177.888 113.277 177.888C111.681 177.888 110.505 179.064 110.505 181.234V181.766C110.505 183.95 111.667 185.112 113.263 185.112ZM113.613 183.908C112.521 183.908 111.821 183.194 111.821 181.766V181.234C111.821 179.778 112.507 179.092 113.613 179.092C114.621 179.092 115.363 179.806 115.405 181.136V181.878C115.363 183.194 114.621 183.908 113.613 183.908ZM121.489 185.112C123.379 185.112 124.289 184.202 124.569 182.83H123.281C123.001 183.558 122.595 183.964 121.489 183.964C120.439 183.964 119.697 183.264 119.655 181.906H124.639V181.234C124.639 179.176 123.351 177.888 121.489 177.888C119.641 177.888 118.339 179.19 118.339 181.234V181.766C118.339 183.838 119.613 185.112 121.489 185.112ZM121.489 179.036C122.539 179.036 123.183 179.582 123.295 180.814H119.669C119.795 179.624 120.495 179.036 121.489 179.036ZM126.32 185H127.58V180.8C127.608 179.792 128.322 179.092 129.61 179.092H130.31V177.888H129.61C128.686 177.888 127.902 178.266 127.426 178.952L127.3 178H126.32V185Z" fill="#3A3A3D"/>
<path fill-rule="evenodd" clip-rule="evenodd" d="M15 175H16.9998V177H15V175ZM15 179H16.9998V181H15V179ZM16.9998 183H15V185H16.9998V183Z" fill="#7E838E"/>
</svg>
