<svg width="52" height="22" viewBox="0 0 52 22" fill="none" xmlns="http://www.w3.org/2000/svg">
<path d="M0.98 14H2.66V10.668H4.34C6.846 10.668 8.12 9.394 8.12 7.434C8.12 5.348 6.972 4.2 4.34 4.2H0.98V14ZM4.34 5.684C5.726 5.684 6.356 6.314 6.356 7.434C6.356 8.498 5.67 9.184 4.34 9.184H2.66V5.684H4.34ZM9.30453 14H10.9285V9.94C10.9285 8.988 11.5305 8.386 12.8045 8.386H13.5045V6.874H12.8045C11.9365 6.874 11.1945 7.196 10.7045 7.784L10.5785 7H9.30453V14ZM17.4262 14.126C19.4982 14.126 20.7862 12.838 20.7862 10.724V10.276C20.7862 8.134 19.5262 6.874 17.4262 6.874C15.3542 6.874 14.0662 8.162 14.0662 10.276V10.724C14.0662 12.866 15.3262 14.126 17.4262 14.126ZM17.4262 12.614C16.4042 12.614 15.7742 11.984 15.7742 10.724V10.276C15.7742 8.988 16.3762 8.386 17.4262 8.386C18.4482 8.386 19.0782 9.016 19.0782 10.276V10.724C19.0782 12.012 18.4762 12.614 17.4262 12.614ZM20.7974 16.8H21.2734C23.1074 16.8 23.8774 16.058 23.8774 14.07V7H22.2534V14.07C22.2534 15.008 21.9454 15.372 21.2734 15.372H20.7974V16.8ZM23.0654 6.16C23.6394 6.16 24.1154 5.698 24.1154 5.11C24.1154 4.522 23.6394 4.06 23.0654 4.06C22.4774 4.06 22.0154 4.522 22.0154 5.11C22.0154 5.698 22.4774 6.16 23.0654 6.16ZM28.6355 14.126C30.5955 14.126 31.5755 13.146 31.8555 11.83H30.1755C30.0355 12.292 29.6295 12.698 28.6355 12.698C27.6415 12.698 27.0535 12.208 26.9695 11.046H31.9255V10.5C31.9255 8.19 30.6655 6.874 28.6355 6.874C26.6335 6.874 25.3455 8.162 25.3455 10.276V10.724C25.3455 12.838 26.6335 14.126 28.6355 14.126ZM28.6355 8.302C29.5875 8.302 30.1475 8.722 30.2735 9.758H26.9975C27.1375 8.75 27.6975 8.302 28.6355 8.302ZM36.196 14.126C37.96 14.126 38.926 13.16 39.206 11.69H37.47C37.33 12.208 36.924 12.614 36.126 12.614C35.328 12.614 34.614 12.04 34.614 10.724V10.276C34.614 8.932 35.3 8.386 36.126 8.386C36.84 8.386 37.33 8.736 37.47 9.24H39.206C38.926 7.84 37.96 6.874 36.196 6.874C34.208 6.874 32.906 8.176 32.906 10.276V10.724C32.906 12.852 34.18 14.126 36.196 14.126ZM39.5544 8.428H40.8144V11.69C40.8144 13.174 41.6404 14 43.1244 14H44.3144V12.572H43.4184C42.7604 12.572 42.4384 12.25 42.4384 11.522V8.428H44.1744V7H42.4384V5.04H40.8144V7H39.5544V8.428ZM47.9593 14.126C50.0033 14.126 50.8993 13.23 50.8993 11.998C50.8993 9.114 46.8673 10.276 46.8673 8.89C46.8673 8.512 47.1613 8.218 47.9593 8.218C48.6453 8.218 48.9113 8.484 49.0513 9.24H50.7593C50.6193 7.756 49.7373 6.874 47.9593 6.874C46.0553 6.874 45.1593 7.77 45.1593 8.932C45.1593 11.662 49.1913 10.5 49.1913 12.04C49.1913 12.488 48.8973 12.782 47.9593 12.782C47.1613 12.782 46.8673 12.488 46.7273 11.69H45.0193C45.1593 13.23 46.0553 14.126 47.9593 14.126Z" fill="#3A3A3D"/>
</svg>
