<svg width="25" height="25" viewBox="0 0 25 25" fill="none" xmlns="http://www.w3.org/2000/svg">
<path d="M16 21.148C19.7543 20.0647 22.5 16.6029 22.5 12.4998C22.5 8.3967 19.7543 4.93491 16 3.85156V4.89817C19.1939 5.94797 21.5 8.95458 21.5 12.4998C21.5 16.045 19.1939 19.0516 16 20.1014V21.148Z" fill="white"/>
<path d="M14 21V4L8 9H3V16H8L14 21Z" fill="white"/>
<path d="M19.5 12.5001C19.5 14.7389 18.0286 16.6341 16 17.2712V16.2093C17.4659 15.616 18.5 14.1788 18.5 12.5001C18.5 10.8214 17.4659 9.38425 16 8.79086V7.729C18.0286 8.36614 19.5 10.2613 19.5 12.5001Z" fill="white"/>
</svg>
