<svg width="20" height="20" viewBox="0 0 20 20" fill="none" xmlns="http://www.w3.org/2000/svg">
<circle cx="10" cy="10" r="7.5" stroke="#3A3B3D"/>
<path d="M15.5773 7.88686C16.4395 8.19582 17.1133 8.57579 17.529 9.00114L17.1715 9.35064C17.4164 9.60122 17.5 9.81885 17.5 9.99986C17.5 10.1809 17.4164 10.3985 17.1715 10.6491L17.529 10.9986C17.1133 11.4239 16.4395 11.8039 15.5773 12.1129L15.4087 11.6422C14.803 11.8592 14.0913 12.0422 13.2992 12.1786L13.384 12.6713C12.683 12.7921 11.9267 12.8764 11.1328 12.9179L11.1068 12.4186C10.7454 12.4375 10.3759 12.4472 10 12.4472C9.62409 12.4472 9.25457 12.4375 8.89324 12.4186L8.86716 12.9179C8.07332 12.8764 7.31697 12.7921 6.61598 12.6713L6.70085 12.1786C5.90873 12.0422 5.19696 11.8592 4.59135 11.6422L4.42268 12.1129C3.56047 11.8039 2.88671 11.4239 2.47096 10.9986L2.82853 10.6491C2.5836 10.3985 2.5 10.1809 2.5 9.99986C2.5 9.81885 2.5836 9.60122 2.82853 9.35064L2.47096 9.00114C2.88671 8.57579 3.56047 8.19582 4.42268 7.88686L4.59135 8.35755C5.19696 8.14054 5.90873 7.95756 6.70085 7.82113L6.61598 7.32839C7.31697 7.20766 8.07332 7.12327 8.86716 7.08181L8.89324 7.58113C9.25457 7.56226 9.62409 7.55249 10 7.55249C10.3759 7.55249 10.7454 7.56226 11.1068 7.58113L11.1328 7.08181C11.9267 7.12327 12.683 7.20766 13.384 7.32839L13.2992 7.82113C14.0913 7.95756 14.803 8.14054 15.4087 8.35755L15.5773 7.88686Z" stroke="#3A3B3D" stroke-dasharray="2 2"/>
<path d="M12.113 15.5773C11.804 16.4395 11.4241 17.1133 10.9987 17.529L10.6492 17.1715C10.3986 17.4164 10.181 17.5 9.99999 17.5C9.81898 17.5 9.60135 17.4164 9.35077 17.1715L9.00127 17.529C8.57592 17.1133 8.19595 16.4395 7.88699 15.5773L8.35768 15.4087C8.14067 14.803 7.95769 14.0913 7.82126 13.2992L7.32852 13.384C7.20779 12.683 7.1234 11.9267 7.08194 11.1328L7.58126 11.1068C7.56239 10.7454 7.55262 10.3759 7.55262 10C7.55262 9.62409 7.56239 9.25457 7.58126 8.89324L7.08194 8.86716C7.1234 8.07332 7.20779 7.31697 7.32852 6.61598L7.82126 6.70085C7.95769 5.90873 8.14067 5.19696 8.35768 4.59135L7.88699 4.42268C8.19595 3.56047 8.57592 2.88671 9.00127 2.47096L9.35077 2.82853C9.60135 2.5836 9.81898 2.5 9.99999 2.5C10.181 2.5 10.3986 2.5836 10.6492 2.82853L10.9987 2.47096C11.4241 2.88671 11.804 3.56047 12.113 4.42268L11.6423 4.59135C11.8593 5.19696 12.0423 5.90873 12.1787 6.70085L12.6715 6.61598C12.7922 7.31697 12.8766 8.07332 12.918 8.86716L12.4187 8.89324C12.4376 9.25457 12.4474 9.62409 12.4474 10C12.4474 10.3759 12.4376 10.7454 12.4187 11.1068L12.918 11.1328C12.8766 11.9267 12.7922 12.683 12.6715 13.384L12.1787 13.2992C12.0423 14.0913 11.8593 14.803 11.6423 15.4087L12.113 15.5773Z" stroke="#3A3B3D" stroke-dasharray="2 2"/>
</svg>
