<svg width="20" height="20" viewBox="0 0 20 20" fill="none" xmlns="http://www.w3.org/2000/svg">
<path d="M6.60969 5.75263C6.54183 5.96885 6.47899 6.19203 6.42151 6.42151C6.19203 6.47899 5.96885 6.54183 5.75263 6.60969L6.05208 7.5638C6.09962 7.54888 6.14758 7.53421 6.19595 7.5198C6.17804 7.62976 6.16129 7.74077 6.14572 7.85276L7.1362 7.99042C7.17098 7.74014 7.21201 7.49603 7.25881 7.25881C7.49603 7.21202 7.74014 7.17098 7.99042 7.1362L7.85276 6.14572C7.74077 6.16129 7.62976 6.17804 7.5198 6.19595C7.53421 6.14758 7.54888 6.09962 7.5638 6.05208L6.60969 5.75263Z" fill="#3A3B3D"/>
<path d="M6 10C6 9.63497 6.01222 9.27566 6.0359 8.9236L7.03364 8.99069C7.01148 9.32033 7 9.65727 7 10C7 10.3427 7.01148 10.6797 7.03364 11.0093L6.0359 11.0764C6.01222 10.7243 6 10.365 6 10Z" fill="#3A3B3D"/>
<path d="M6.19595 12.4802C6.17804 12.3702 6.16129 12.2592 6.14572 12.1472L7.1362 12.0096C7.17098 12.2599 7.21201 12.504 7.25881 12.7412C7.49603 12.788 7.74014 12.829 7.99042 12.8638L7.85276 13.8543C7.74077 13.8387 7.62976 13.822 7.5198 13.804C7.53421 13.8524 7.54888 13.9004 7.5638 13.9479L6.60969 14.2474C6.54183 14.0311 6.47899 13.808 6.42151 13.5785C6.19203 13.521 5.96885 13.4582 5.75263 13.3903L6.05208 12.4362C6.09962 12.4511 6.14758 12.4658 6.19595 12.4802Z" fill="#3A3B3D"/>
<path d="M13.3903 14.2474C13.4582 14.0311 13.521 13.808 13.5785 13.5785C13.808 13.521 14.0311 13.4582 14.2474 13.3903L13.9479 12.4362C13.9004 12.4511 13.8524 12.4658 13.8041 12.4802C13.822 12.3702 13.8387 12.2592 13.8543 12.1472L12.8638 12.0096C12.829 12.2599 12.788 12.504 12.7412 12.7412C12.504 12.788 12.2599 12.829 12.0096 12.8638L12.1472 13.8543C12.2592 13.8387 12.3702 13.822 12.4802 13.804C12.4658 13.8524 12.4511 13.9004 12.4362 13.9479L13.3903 14.2474Z" fill="#3A3B3D"/>
<path d="M14 10C14 10.365 13.9878 10.7243 13.9641 11.0764L12.9664 11.0093C12.9885 10.6797 13 10.3427 13 10C13 9.65727 12.9885 9.32033 12.9664 8.99069L13.9641 8.9236C13.9878 9.27566 14 9.63497 14 10Z" fill="#3A3B3D"/>
<path d="M13.8543 7.85276C13.8387 7.74077 13.822 7.62976 13.8041 7.5198C13.8524 7.53421 13.9004 7.54888 13.9479 7.5638L14.2474 6.60969C14.0311 6.54183 13.808 6.47899 13.5785 6.42151C13.521 6.19203 13.4582 5.96885 13.3903 5.75263L12.4362 6.05208C12.4511 6.09962 12.4658 6.14758 12.4802 6.19595C12.3702 6.17804 12.2592 6.16129 12.1472 6.14572L12.0096 7.1362C12.2599 7.17098 12.504 7.21202 12.7412 7.25881C12.788 7.49603 12.829 7.74014 12.8638 7.99042L13.8543 7.85276Z" fill="#3A3B3D"/>
<path d="M11.0764 6.0359C10.7243 6.01222 10.365 6 10 6C9.63497 6 9.27566 6.01222 8.9236 6.0359L8.99069 7.03364C9.32033 7.01148 9.65727 7 10 7C10.3427 7 10.6797 7.01148 11.0093 7.03364L11.0764 6.0359Z" fill="#3A3B3D"/>
<path d="M8.9236 13.9641C9.27566 13.9878 9.63497 14 10 14C10.365 14 10.7243 13.9878 11.0764 13.9641L11.0093 12.9664C10.6797 12.9885 10.3427 13 10 13C9.65727 13 9.32033 12.9885 8.99069 12.9664L8.9236 13.9641Z" fill="#3A3B3D"/>
<path fill-rule="evenodd" clip-rule="evenodd" d="M2 10C2 5.58172 5.58172 2 10 2C14.4183 2 18 5.58172 18 10C18 14.4183 14.4183 18 10 18C5.58172 18 2 14.4183 2 10ZM10 17C10.1762 17 10.3617 16.9551 10.5615 16.8488L10.6272 16.9723C10.9601 16.9427 11.2863 16.8899 11.6041 16.8154L11.1458 16.3841C11.4824 16.0265 11.8117 15.515 12.0989 14.8565L13.0155 15.2563C12.7868 15.7808 12.5244 16.245 12.235 16.6356C14.3032 15.9393 15.9393 14.3032 16.6356 12.235C16.245 12.5244 15.7808 12.7868 15.2563 13.0155L14.8565 12.0989C15.515 11.8117 16.0265 11.4824 16.3841 11.1458L16.8154 11.6041C16.8899 11.2863 16.9427 10.9601 16.9723 10.6272L16.8488 10.5615C16.9551 10.3617 17 10.1762 17 10C17 9.82382 16.9551 9.63825 16.8488 9.43848L16.9723 9.37277C16.9427 9.03991 16.8899 8.71375 16.8154 8.39593L16.3841 8.85416C16.0265 8.51761 15.515 8.18827 14.8565 7.9011L15.2563 6.98449C15.7808 7.21323 16.245 7.47563 16.6356 7.76495C15.9393 5.69682 14.3032 4.06073 12.235 3.3644C12.5244 3.75497 12.7868 4.21922 13.0155 4.74371L12.0989 5.14348C11.8117 4.48505 11.4824 3.97351 11.1458 3.61589L11.6041 3.18465C11.2863 3.11014 10.9601 3.05728 10.6272 3.02772L10.5615 3.1512C10.3617 3.04488 10.1762 3 10 3C9.82382 3 9.63825 3.04488 9.43848 3.1512L9.37277 3.02772C9.03991 3.05728 8.71375 3.11014 8.39593 3.18465L8.85416 3.6159C8.51761 3.97351 8.18827 4.48505 7.9011 5.14348L6.98449 4.74371C7.21323 4.21922 7.47563 3.75497 7.76495 3.3644C5.69682 4.06073 4.06073 5.69682 3.3644 7.76495C3.75497 7.47563 4.21922 7.21323 4.74371 6.98449L5.14348 7.9011C4.48505 8.18827 3.97351 8.51761 3.61589 8.85416L3.18465 8.39593C3.11014 8.71375 3.05728 9.03991 3.02772 9.37277L3.1512 9.43848C3.04488 9.63825 3 9.82382 3 10C3 10.1762 3.04488 10.3617 3.1512 10.5615L3.02772 10.6272C3.05728 10.9601 3.11014 11.2863 3.18465 11.6041L3.6159 11.1458C3.97351 11.4824 4.48505 11.8117 5.14348 12.0989L4.74371 13.0155C4.21922 12.7868 3.75497 12.5244 3.3644 12.235C4.06073 14.3032 5.69682 15.9393 7.76495 16.6356C7.47563 16.245 7.21323 15.7808 6.98449 15.2563L7.9011 14.8565C8.18827 15.515 8.51761 16.0265 8.85416 16.3841L8.39593 16.8154C8.71375 16.8899 9.03991 16.9427 9.37277 16.9723L9.43848 16.8488C9.63825 16.9551 9.82382 17 10 17Z" fill="#3A3B3D"/>
</svg>
