<svg width="20" height="20" viewBox="0 0 20 20" fill="none" xmlns="http://www.w3.org/2000/svg">
<mask id="path-1-inside-1" fill="white">
<path fill-rule="evenodd" clip-rule="evenodd" d="M10 17C13.866 17 17 13.866 17 10C17 6.13401 13.866 3 10 3C6.13401 3 3 6.13401 3 10C3 13.866 6.13401 17 10 17ZM10 18C14.4183 18 18 14.4183 18 10C18 5.58172 14.4183 2 10 2C5.58172 2 2 5.58172 2 10C2 14.4183 5.58172 18 10 18Z"/>
</mask>
<path fill-rule="evenodd" clip-rule="evenodd" d="M10 17C13.866 17 17 13.866 17 10C17 6.13401 13.866 3 10 3C6.13401 3 3 6.13401 3 10C3 13.866 6.13401 17 10 17ZM10 18C14.4183 18 18 14.4183 18 10C18 5.58172 14.4183 2 10 2C5.58172 2 2 5.58172 2 10C2 14.4183 5.58172 18 10 18Z" fill="#3A3B3D"/>
<path d="M16 10C16 13.3137 13.3137 16 10 16V18C14.4183 18 18 14.4183 18 10H16ZM10 4C13.3137 4 16 6.68629 16 10H18C18 5.58172 14.4183 2 10 2V4ZM4 10C4 6.68629 6.68629 4 10 4V2C5.58172 2 2 5.58172 2 10H4ZM10 16C6.68629 16 4 13.3137 4 10H2C2 14.4183 5.58172 18 10 18V16ZM17 10C17 13.866 13.866 17 10 17V19C14.9706 19 19 14.9706 19 10H17ZM10 3C13.866 3 17 6.13401 17 10H19C19 5.02944 14.9706 1 10 1V3ZM3 10C3 6.13401 6.13401 3 10 3V1C5.02944 1 1 5.02944 1 10H3ZM10 17C6.13401 17 3 13.866 3 10H1C1 14.9706 5.02944 19 10 19V17Z" fill="#3A3B3D" mask="url(#path-1-inside-1)"/>
<path d="M17.5 9.99986C17.5 10.0513 17.4935 10.1032 17.4799 10.1561L17.9643 10.2801C17.9367 10.388 17.8933 10.4942 17.8349 10.5984L17.6997 10.4663L17.5261 10.6439L17.3132 10.4847C17.2953 10.5087 17.2759 10.533 17.255 10.5576L17.0675 10.3978L17.2464 10.2148L17.4264 10.3008C17.4849 10.1784 17.5 10.0759 17.5 9.99986ZM17.5 9.99986C17.5 9.94838 17.4935 9.89654 17.4799 9.84364L17.9643 9.71964C17.9367 9.61174 17.8933 9.50552 17.8349 9.40132L17.6998 9.53346L17.5261 9.35584L17.3132 9.51497C17.2953 9.49097 17.2759 9.46667 17.255 9.4421L17.0675 9.6019L17.2464 9.78491L17.4264 9.69894C17.4849 9.82129 17.5 9.92379 17.5 9.99986ZM2.5 9.99986C2.5 9.94838 2.50652 9.89654 2.52007 9.84364L2.03569 9.71964C2.06331 9.61174 2.10672 9.50552 2.16506 9.40132L2.30025 9.53346L2.47386 9.35584L2.68679 9.51497C2.70472 9.49097 2.7241 9.46667 2.74498 9.4421L2.93253 9.6019L2.75365 9.78491L2.57355 9.69894C2.51515 9.82129 2.5 9.92379 2.5 9.99986ZM2.5 9.99986C2.5 10.0513 2.50652 10.1032 2.52007 10.1561L2.03569 10.2801C2.06331 10.388 2.10672 10.4942 2.16506 10.5984L2.30025 10.4663L2.47386 10.6439L2.68679 10.4847C2.70472 10.5087 2.7241 10.533 2.74498 10.5576L2.93252 10.3978L2.75365 10.2148L2.57355 10.3008C2.51515 10.1784 2.5 10.0759 2.5 9.99986ZM16.8745 10.2334C16.9269 10.1719 16.9575 10.1226 16.9752 10.0854L17.008 10.101L16.8767 10.2353L16.8745 10.2334ZM17.008 9.8987L16.9752 9.91434C16.9575 9.87711 16.9269 9.82781 16.8745 9.7663L16.8767 9.76442L17.008 9.8987ZM13.9406 7.43426C14.328 7.51521 14.6954 7.60773 15.0391 7.71054L14.8958 8.18957C14.8924 8.18857 14.8891 8.18756 14.8857 8.18656L14.7428 8.66572C14.429 8.57218 14.0899 8.48683 13.7283 8.41149L13.8302 7.922C13.8329 7.92256 13.8356 7.92313 13.8383 7.92369L13.9406 7.43426ZM10.2833 7.0543C10.4006 7.05581 10.5173 7.05824 10.6332 7.06159L10.6205 7.3054L10.8402 7.31687L10.8304 7.56854C10.8303 7.56854 10.8302 7.56854 10.8301 7.56853L10.8205 7.81652L10.5944 7.80472L10.5814 8.05438L10.8107 8.06635L10.8107 8.06816C10.6324 8.06122 10.4522 8.05655 10.2703 8.05422L10.2767 7.55426C10.2768 7.55426 10.2768 7.55426 10.2769 7.55426L10.2833 7.0543ZM9.72331 7.55426L9.72971 8.05422C9.54779 8.05655 9.36759 8.06122 9.18932 8.06816L9.18925 8.06635L9.41863 8.05438L9.40559 7.80472L9.17953 7.81652L9.16989 7.56853C9.16981 7.56854 9.16972 7.56854 9.16963 7.56854L9.15984 7.31687L9.37952 7.3054L9.36679 7.06159C9.48274 7.05824 9.59938 7.05581 9.71667 7.0543L9.72308 7.55426C9.72316 7.55426 9.72323 7.55426 9.72331 7.55426ZM4.96093 7.71054C5.30464 7.60773 5.67196 7.51521 6.05942 7.43426L6.16168 7.92369C6.16437 7.92313 6.16706 7.92256 6.16976 7.922L6.27174 8.41149C5.91011 8.48683 5.57095 8.57218 5.25715 8.66572L5.11431 8.18656C5.11095 8.18756 5.10759 8.18857 5.10423 8.18957L4.96093 7.71054ZM2.99201 9.8987L3.12326 9.76441L3.12548 9.7663C3.07307 9.82781 3.04255 9.87711 3.02478 9.91434L2.99201 9.8987ZM2.99201 10.101L3.02478 10.0854C3.04255 10.1226 3.07307 10.1719 3.12548 10.2334L3.12326 10.2353L2.99201 10.101ZM6.05942 12.5655C5.67196 12.4845 5.30464 12.392 4.96093 12.2892L5.10423 11.8101C5.10759 11.8112 5.11095 11.8122 5.11431 11.8132L5.25715 11.334C5.57095 11.4275 5.91011 11.5129 6.27174 11.5882L6.16976 12.0777C6.16706 12.0772 6.16437 12.0766 6.16168 12.076L6.05942 12.5655ZM9.71667 12.9454C9.59938 12.9439 9.48274 12.9415 9.36679 12.9381L9.37952 12.6943L9.15984 12.6828L9.16963 12.4312C9.16972 12.4312 9.16981 12.4312 9.16989 12.4312L9.17953 12.1832L9.40559 12.195L9.41863 11.9453L9.18925 11.9334L9.18932 11.9316C9.36759 11.9385 9.54779 11.9432 9.72971 11.9455L9.72331 12.4455C9.72323 12.4455 9.72316 12.4455 9.72308 12.4455L9.71667 12.9454ZM10.2767 12.4455L10.2703 11.9455C10.4522 11.9432 10.6324 11.9385 10.8107 11.9316L10.8107 11.9334L10.5814 11.9453L10.5944 12.195L10.8205 12.1832L10.8301 12.4312C10.8302 12.4312 10.8303 12.4312 10.8304 12.4312L10.8402 12.6828L10.6205 12.6943L10.6332 12.9381C10.5173 12.9415 10.4006 12.9439 10.2833 12.9454L10.2769 12.4455C10.2768 12.4455 10.2768 12.4455 10.2767 12.4455ZM15.0391 12.2892C14.6954 12.392 14.328 12.4845 13.9406 12.5655L13.8383 12.076C13.8356 12.0766 13.8329 12.0772 13.8302 12.0777L13.7283 11.5882C14.0899 11.5129 14.429 11.4275 14.7429 11.334L14.8857 11.8132C14.8891 11.8122 14.8924 11.8112 14.8958 11.8101L15.0391 12.2892Z" fill="#3A3B3D" stroke="#3A3B3D" stroke-dasharray="2 2"/>
<path d="M9.99999 17.5C9.94851 17.5 9.89667 17.4935 9.84377 17.4799L9.71977 17.9643C9.61186 17.9367 9.50565 17.8933 9.40145 17.8349L9.53359 17.6997L9.35597 17.5261L9.5151 17.3132C9.4911 17.2953 9.4668 17.2759 9.44223 17.255L9.60203 17.0675L9.78504 17.2464L9.69907 17.4264C9.82142 17.4849 9.92392 17.5 9.99999 17.5ZM9.99999 17.5C10.0515 17.5 10.1033 17.4935 10.1562 17.4799L10.2802 17.9643C10.3881 17.9367 10.4943 17.8933 10.5985 17.8349L10.4664 17.6997L10.644 17.5261L10.4849 17.3132C10.5089 17.2953 10.5332 17.2759 10.5578 17.255L10.3979 17.0675L10.2149 17.2464L10.3009 17.4264C10.1786 17.4849 10.0761 17.5 9.99999 17.5ZM9.99999 2.5C10.0515 2.5 10.1033 2.50652 10.1562 2.52007L10.2802 2.03569C10.3881 2.06331 10.4943 2.10672 10.5985 2.16506L10.4664 2.30025L10.644 2.47386L10.4849 2.68679C10.5089 2.70472 10.5332 2.7241 10.5578 2.74498L10.398 2.93252L10.2149 2.75365L10.3009 2.57355C10.1786 2.51515 10.0761 2.5 9.99999 2.5ZM9.99999 2.5C9.94851 2.5 9.89667 2.50652 9.84377 2.52007L9.71977 2.03569C9.61187 2.06331 9.50565 2.10672 9.40145 2.16506L9.53359 2.30025L9.35597 2.47386L9.5151 2.68679C9.4911 2.70472 9.4668 2.7241 9.44223 2.74498L9.60203 2.93252L9.78504 2.75365L9.69907 2.57355C9.82142 2.51515 9.92392 2.5 9.99999 2.5ZM9.76643 16.8745C9.82794 16.9269 9.87724 16.9575 9.91447 16.9752L9.89883 17.008L9.76455 16.8767L9.76643 16.8745ZM10.1011 17.008L10.0855 16.9752C10.1227 16.9575 10.172 16.9269 10.2335 16.8745L10.2354 16.8767L10.1011 17.008ZM12.5656 13.9406C12.4846 14.328 12.3921 14.6954 12.2893 15.0391L11.8103 14.8958C11.8113 14.8924 11.8123 14.8891 11.8133 14.8857L11.3341 14.7428C11.4277 14.429 11.513 14.0899 11.5884 13.7283L12.0778 13.8302C12.0773 13.8329 12.0767 13.8356 12.0762 13.8383L12.5656 13.9406ZM12.9455 10.2833C12.944 10.4006 12.9416 10.5173 12.9383 10.6332L12.6945 10.6205L12.683 10.8402L12.4313 10.8304C12.4313 10.8303 12.4313 10.8302 12.4313 10.8301L12.1833 10.8205L12.1951 10.5944L11.9455 10.5814L11.9335 10.8107L11.9317 10.8107C11.9386 10.6324 11.9433 10.4522 11.9456 10.2703L12.4456 10.2767C12.4456 10.2768 12.4456 10.2768 12.4456 10.2769L12.9455 10.2833ZM12.4456 9.72331L11.9456 9.72971C11.9433 9.54779 11.9386 9.36759 11.9317 9.18932L11.9335 9.18925L11.9455 9.41863L12.1951 9.40559L12.1833 9.17953L12.4313 9.16989C12.4313 9.16981 12.4313 9.16972 12.4313 9.16963L12.683 9.15984L12.6945 9.37952L12.9383 9.36679C12.9416 9.48274 12.944 9.59938 12.9455 9.71667L12.4456 9.72308C12.4456 9.72316 12.4456 9.72323 12.4456 9.72331ZM12.2893 4.96093C12.3921 5.30464 12.4846 5.67196 12.5656 6.05942L12.0762 6.16168C12.0767 6.16437 12.0773 6.16706 12.0778 6.16976L11.5884 6.27174C11.513 5.91011 11.4277 5.57095 11.3341 5.25715L11.8133 5.11431C11.8123 5.11095 11.8113 5.10759 11.8103 5.10423L12.2893 4.96093ZM10.1011 2.99201L10.2354 3.12326L10.2335 3.12548C10.172 3.07307 10.1227 3.04255 10.0855 3.02478L10.1011 2.99201ZM9.89883 2.99201L9.91447 3.02478C9.87724 3.04255 9.82794 3.07307 9.76643 3.12548L9.76455 3.12326L9.89883 2.99201ZM7.43439 6.05942C7.51534 5.67196 7.60786 5.30464 7.71067 4.96093L8.1897 5.10423C8.1887 5.10759 8.18769 5.11095 8.18669 5.11431L8.66585 5.25715C8.57231 5.57095 8.48697 5.91011 8.41162 6.27174L7.92213 6.16976C7.92269 6.16706 7.92326 6.16437 7.92382 6.16168L7.43439 6.05942ZM7.05443 9.71667C7.05594 9.59938 7.05837 9.48274 7.06172 9.36678L7.30553 9.37952L7.317 9.15984L7.56867 9.16963C7.56867 9.16972 7.56867 9.16981 7.56866 9.16989L7.81665 9.17953L7.80485 9.40559L8.05451 9.41863L8.06649 9.18925L8.06829 9.18932C8.06135 9.36758 8.05668 9.54779 8.05435 9.72971L7.55439 9.72331C7.55439 9.72323 7.55439 9.72316 7.55439 9.72308L7.05443 9.71667ZM7.55439 10.2767L8.05435 10.2703C8.05668 10.4522 8.06135 10.6324 8.06829 10.8107L8.06649 10.8107L8.05451 10.5814L7.80485 10.5944L7.81665 10.8205L7.56866 10.8301C7.56867 10.8302 7.56867 10.8303 7.56867 10.8304L7.317 10.8402L7.30553 10.6205L7.06172 10.6332C7.05837 10.5173 7.05594 10.4006 7.05443 10.2833L7.55439 10.2769C7.55439 10.2768 7.55439 10.2768 7.55439 10.2767ZM7.71067 15.0391C7.60786 14.6954 7.51534 14.328 7.43439 13.9406L7.92382 13.8383C7.92326 13.8356 7.92269 13.8329 7.92213 13.8302L8.41162 13.7283C8.48696 14.0899 8.57231 14.429 8.66585 14.7429L8.18669 14.8857C8.18769 14.8891 8.1887 14.8924 8.1897 14.8958L7.71067 15.0391Z" fill="#3A3B3D" stroke="#3A3B3D" stroke-dasharray="2 2"/>
</svg>
