<svg width="20" height="20" viewBox="0 0 20 20" fill="none" xmlns="http://www.w3.org/2000/svg">
<path fill-rule="evenodd" clip-rule="evenodd" d="M10 17C13.866 17 17 13.866 17 10C17 6.13401 13.866 3 10 3C6.13401 3 3 6.13401 3 10C3 13.866 6.13401 17 10 17ZM10 18C14.4183 18 18 14.4183 18 10C18 5.58172 14.4183 2 10 2C5.58172 2 2 5.58172 2 10C2 14.4183 5.58172 18 10 18Z" fill="#3A3B3D"/>
<path fill-rule="evenodd" clip-rule="evenodd" d="M17.529 10.9986L16.8139 10.2996C16.9989 10.1103 17 10.0113 17 9.99986C17 9.98841 16.9989 9.88942 16.8139 9.70013L17.529 9.00114C17.8339 9.31302 18 9.64929 18 9.99986C18 10.3504 17.8339 10.6867 17.529 10.9986ZM15.5773 7.88686L15.24 8.82824C14.6662 8.62264 13.9832 8.4463 13.2143 8.31388L13.384 7.32839C14.1994 7.46882 14.9399 7.65843 15.5773 7.88686ZM11.1328 7.08181L11.0807 8.08045C10.7281 8.06204 10.3673 8.05249 10 8.05249C9.63274 8.05249 9.27192 8.06204 8.91931 8.08045L8.86716 7.08181C9.23723 7.06249 9.61545 7.05249 10 7.05249C10.3846 7.05249 10.7628 7.06249 11.1328 7.08181ZM6.61598 7.32839L6.78571 8.31388C6.01685 8.4463 5.33377 8.62264 4.76001 8.82824L4.42268 7.88686C5.06014 7.65843 5.80062 7.46882 6.61598 7.32839ZM2.47096 9.00114L3.18609 9.70013C3.00108 9.88942 3 9.98841 3 9.99986C3 10.0113 3.00108 10.1103 3.18609 10.2996L2.47096 10.9986C2.16613 10.6867 2 10.3504 2 9.99986C2 9.64929 2.16613 9.31302 2.47096 9.00114ZM4.42268 12.1129L4.76001 11.1715C5.33377 11.3771 6.01685 11.5534 6.78571 11.6858L6.61598 12.6713C5.80062 12.5309 5.06014 12.3413 4.42268 12.1129ZM8.86716 12.9179L8.91931 11.9193C9.27191 11.9377 9.63274 11.9472 10 11.9472C10.3673 11.9472 10.7281 11.9377 11.0807 11.9193L11.1328 12.9179C10.7628 12.9372 10.3846 12.9472 10 12.9472C9.61545 12.9472 9.23723 12.9372 8.86716 12.9179ZM13.384 12.6713L13.2143 11.6858C13.9832 11.5534 14.6662 11.3771 15.24 11.1715L15.5773 12.1129C14.9399 12.3413 14.1994 12.5309 13.384 12.6713Z" fill="#3A3B3D"/>
<path fill-rule="evenodd" clip-rule="evenodd" d="M9.00127 17.529L9.70026 16.8139C9.88955 16.9989 9.98854 17 9.99999 17C10.0114 17 10.1104 16.9989 10.2997 16.8139L10.9987 17.529C10.6868 17.8339 10.3506 18 9.99999 18C9.64942 18 9.31315 17.8339 9.00127 17.529ZM12.113 15.5773L11.1716 15.24C11.3772 14.6662 11.5535 13.9832 11.686 13.2143L12.6715 13.384C12.531 14.1994 12.3414 14.9399 12.113 15.5773ZM12.918 11.1328L11.9194 11.0807C11.9378 10.7281 11.9474 10.3673 11.9474 10C11.9474 9.63274 11.9378 9.27192 11.9194 8.91931L12.918 8.86716C12.9374 9.23723 12.9474 9.61545 12.9474 10C12.9474 10.3846 12.9374 10.7628 12.918 11.1328ZM12.6715 6.61598L11.686 6.78571C11.5535 6.01685 11.3772 5.33377 11.1716 4.76001L12.113 4.42268C12.3414 5.06014 12.531 5.80062 12.6715 6.61598ZM10.9987 2.47096L10.2997 3.18609C10.1104 3.00108 10.0114 3 9.99999 3C9.98854 3 9.88955 3.00108 9.70026 3.18609L9.00127 2.47096C9.31315 2.16613 9.64942 2 9.99999 2C10.3506 2 10.6868 2.16613 10.9987 2.47096ZM7.88699 4.42268L8.82837 4.76001C8.62277 5.33377 8.44643 6.01685 8.31401 6.78571L7.32852 6.61598C7.46895 5.80062 7.65856 5.06014 7.88699 4.42268ZM7.08194 8.86716L8.08058 8.91931C8.06217 9.27191 8.05262 9.63274 8.05262 10C8.05262 10.3673 8.06217 10.7281 8.08058 11.0807L7.08194 11.1328C7.06262 10.7628 7.05262 10.3846 7.05262 10C7.05262 9.61545 7.06262 9.23723 7.08194 8.86716ZM7.32852 13.384L8.31401 13.2143C8.44643 13.9832 8.62277 14.6662 8.82837 15.24L7.88699 15.5773C7.65856 14.9399 7.46895 14.1994 7.32852 13.384Z" fill="#3A3B3D"/>
</svg>
