<svg width="20" height="20" viewBox="0 0 20 20" fill="none" xmlns="http://www.w3.org/2000/svg">
<path d="M15 5H16V7H18V8H16V10H15V8H13V7H15V5Z" fill="#7E818E"/>
<path fill-rule="evenodd" clip-rule="evenodd" d="M15.5 12C17.9853 12 20 9.98528 20 7.5C20 5.01472 17.9853 3 15.5 3C13.0147 3 11 5.01472 11 7.5C11 9.98528 13.0147 12 15.5 12ZM15.5 11C17.433 11 19 9.433 19 7.5C19 5.567 17.433 4 15.5 4C13.567 4 12 5.567 12 7.5C12 9.433 13.567 11 15.5 11Z" fill="#7E818E"/>
<path d="M10.1627 6.16667H7.90698L6.32558 4H0V17H15.814L16.2575 12.9483C16.0099 12.9824 15.757 13 15.5 13C15.415 13 15.3305 12.9981 15.2465 12.9943L14.9175 16H1V5H5.81743L7.39882 7.16667H10.0099C10.0304 6.82393 10.0823 6.48965 10.1627 6.16667Z" fill="#7E818E"/>
</svg>
