<svg width="20" height="20" viewBox="0 0 20 20" fill="none" xmlns="http://www.w3.org/2000/svg">
<path fill-rule="evenodd" clip-rule="evenodd" d="M15.5 15C17.433 15 19 13.433 19 11.5C19 9.56748 17.4338 8.00077 15.5014 8L14.8353 7.99973L14.5789 7.38489C13.7492 5.39537 11.7864 4 9.5 4C6.59569 4 4.21643 6.25173 4.014 9.10392L3.9566 9.91273L3.15339 10.0237C1.93707 10.1918 1 11.2373 1 12.5C1 13.8807 2.11929 15 3.5 15H12H15.5ZM15 16H12H3.5C1.567 16 0 14.433 0 12.5C0 10.731 1.31232 9.26861 3.01651 9.03313C3.25583 5.66119 6.06713 3 9.5 3C12.2039 3 14.5223 4.65105 15.5018 7C17.9863 7.00099 20 9.01533 20 11.5C20 13.9853 17.9853 16 15.5 16C15.331 16 15.1642 15.9907 15 15.9725V16ZM9.85355 12.8536L13.3536 9.35355L12.6464 8.64645L9.46289 11.83L7.31235 10.1096L6.68765 10.8904L9.18765 12.8904L9.53711 13.17L9.85355 12.8536Z" fill="black"/>
</svg>
