<svg width="20" height="20" viewBox="0 0 20 20" fill="none" xmlns="http://www.w3.org/2000/svg">
<path d="M11.875 15.4975V15.8695C11.875 16.7917 11.0355 17.73 10 17.73C8.96447 17.73 8.125 16.7979 8.125 15.8695V15.4975M16.3224 13.0039C16.1746 12.985 16.069 12.8717 16.0549 12.7396C15.9986 12.3496 15.9375 10.712 15.9164 8.93147C15.8953 6.71056 14.4741 4.6029 11.7221 4.04296C11.5602 4.0115 11.5 3.88567 11.5 3.74097V3.08665C11.5 2.4742 10.7926 1.72416 10 1.73001C9.21381 1.73582 8.52226 2.43862 8.52226 3.08665V3.74097C8.52226 3.88567 8.40261 4.0115 8.24776 4.04296C5.58729 4.59661 4.16555 6.69798 4.14444 8.93147C4.13036 10.712 4.0014 12.3496 3.9451 12.7396C3.92398 12.8717 3.81841 12.985 3.67764 13.0039C2.91751 13.1108 2.36148 13.7714 2.5304 14.5075C2.66413 15.0989 3.30461 15.5016 3.98029 15.5016H16.0197C16.6954 15.5016 17.3359 15.1052 17.4696 14.5075C17.6385 13.7714 17.0825 13.1108 16.3224 13.0039Z" stroke="#3A3B3D" stroke-miterlimit="10"/>
</svg>
