<svg width="20" height="20" viewBox="0 0 20 20" fill="none" xmlns="http://www.w3.org/2000/svg">
<path d="M11.9737 15.7478V16.1982C11.9737 17.1895 11.0932 18 10 18C8.90677 18 8.02632 17.1962 8.02632 16.1982V15.7478M16.2604 13.0073C16.1048 12.9871 15.9937 12.8653 15.9788 12.7233C15.9196 12.304 15.8233 11.3436 15.801 9.42952C15.7788 7.04204 14.5193 4.78307 11.6225 4.18113C11.4521 4.14731 11.3262 4.01205 11.3262 3.85649V3.21397C11.3262 2.63908 10.8965 2.11153 10.2815 2.01685C9.4888 1.89511 8.80719 2.4497 8.80719 3.14633V3.84972C8.80719 4.00528 8.68125 4.14055 8.51825 4.17437C5.71775 4.76954 4.22119 7.02852 4.19896 9.42952C4.18415 11.3436 4.08042 12.304 4.02115 12.7233C3.99893 12.8653 3.8878 12.9871 3.73962 13.0073C2.93948 13.1223 2.35419 13.8325 2.532 14.6238C2.67277 15.2596 3.34696 15.6924 4.0582 15.6924H15.9418C16.653 15.6924 17.3272 15.2663 17.468 14.6238C17.6458 13.8325 17.0605 13.1223 16.2604 13.0073Z" stroke="#7E818E" stroke-miterlimit="10"/>
</svg>
