<svg width="25" height="25" viewBox="0 0 25 25" fill="none" xmlns="http://www.w3.org/2000/svg">
<path d="M6 11H17V12H6V11Z" fill="#3A3B3D"/>
<path fill-rule="evenodd" clip-rule="evenodd" d="M18.5618 17.8547C20.0775 16.1715 21 13.9435 21 11.5C21 6.25329 16.7467 2 11.5 2C6.25329 2 2 6.25329 2 11.5C2 16.7467 6.25329 21 11.5 21C13.9434 21 16.1714 20.0775 17.8547 18.5618L22.2949 23.002L23.002 22.2949L18.5618 17.8547ZM11.5 20C16.1944 20 20 16.1944 20 11.5C20 6.80558 16.1944 3 11.5 3C6.80558 3 3 6.80558 3 11.5C3 16.1944 6.80558 20 11.5 20Z" fill="#3A3B3D"/>
<path d="M12 6V17H11V6H12Z" fill="#3A3B3D"/>
</svg>
