<svg width="20" height="20" viewBox="0 0 20 20" fill="none" xmlns="http://www.w3.org/2000/svg">
<path fill-rule="evenodd" clip-rule="evenodd" d="M5.5 8H2V16H14V14L18 16V8L14 10V8H10.5C11.8807 8 13 6.88071 13 5.5C13 4.11929 11.8807 3 10.5 3C9.11929 3 8 4.11929 8 5.5C8 4.11929 6.88071 3 5.5 3C4.11929 3 3 4.11929 3 5.5C3 6.88071 4.11929 8 5.5 8ZM5.5 7C6.32843 7 7 6.32843 7 5.5C7 4.67157 6.32843 4 5.5 4C4.67157 4 4 4.67157 4 5.5C4 6.32843 4.67157 7 5.5 7ZM5.5 8C6.88071 8 8 6.88071 8 5.5C8 6.88071 9.11929 8 10.5 8H5.5ZM13 9V11.618L17 9.61803V14.382L13 12.382V15H3V9H13ZM12 5.5C12 6.32843 11.3284 7 10.5 7C9.67157 7 9 6.32843 9 5.5C9 4.67157 9.67157 4 10.5 4C11.3284 4 12 4.67157 12 5.5Z" fill="#3A3B3D"/>
</svg>
