<svg width="15" height="15" viewBox="0 0 15 15" fill="none" xmlns="http://www.w3.org/2000/svg">
<path fill-rule="evenodd" clip-rule="evenodd" d="M2.5 6H0V14H11V12L15 13.5V6.5L11 8V6H7.5C8.88071 6 10 4.88071 10 3.5C10 2.11929 8.88071 1 7.5 1C6.11929 1 5 2.11929 5 3.5C5 2.11929 3.88071 1 2.5 1C1.11929 1 0 2.11929 0 3.5C0 4.88071 1.11929 6 2.5 6ZM2.5 5C3.32843 5 4 4.32843 4 3.5C4 2.67157 3.32843 2 2.5 2C1.67157 2 1 2.67157 1 3.5C1 4.32843 1.67157 5 2.5 5ZM2.5 6C3.88071 6 5 4.88071 5 3.5C5 4.88071 6.11929 6 7.5 6H2.5ZM10 7H1V13H10V10.557L14 12.057V7.943L10 9.443V7ZM9 3.5C9 4.32843 8.32843 5 7.5 5C6.67157 5 6 4.32843 6 3.5C6 2.67157 6.67157 2 7.5 2C8.32843 2 9 2.67157 9 3.5Z" fill="#3A3B3D"/>
</svg>
