<svg width="15" height="15" viewBox="0 0 15 15" fill="none" xmlns="http://www.w3.org/2000/svg">
<path d="M6.02815 2.74421L4.05754 0.773598L4.12401 0.707129L11.9159 8.5H11.9158L11.0623 7.64645L6.8012 3.38537L6.44765 3.03181L6.38171 3.09776L6.02815 2.74421ZM12.6411 10.7764C12.7668 10.9325 12.9115 11.1192 13.0556 11.3196C13.2535 11.5947 13.443 11.8859 13.5811 12.1542C13.7275 12.4386 13.7821 12.6336 13.7821 12.7351C13.7821 13.3653 13.2712 13.8761 12.6411 13.8761C12.0109 13.8761 11.5 13.3653 11.5 12.7351C11.5 12.6336 11.5546 12.4386 11.701 12.1542C11.8391 11.8859 12.0286 11.5947 12.2265 11.3196C12.3706 11.1192 12.5153 10.9325 12.6411 10.7764Z" fill="#3A3B3D" stroke="#3A3B3D"/>
</svg>
