<svg width="20" height="20" viewBox="0 0 20 20" fill="none" xmlns="http://www.w3.org/2000/svg">
<path fill-rule="evenodd" clip-rule="evenodd" d="M12.4349 4.6032L9.9159 2.08421L7.39684 4.60328L9.0761 6.28254L4.45785 10.9008C3.6391 11.7195 3.39856 12.8975 3.73621 13.9274C3.38586 13.9755 3.04779 14.1342 2.77845 14.4036C2.1226 15.0594 2.1226 16.1227 2.77845 16.7786C3.43429 17.4344 4.49763 17.4344 5.15348 16.7786C5.42282 16.5093 5.58154 16.1712 5.62966 15.8209C6.65952 16.1585 7.83754 15.918 8.6563 15.0992L13.2745 10.481L14.954 12.1605L17.4731 9.64142L14.9493 7.11761L17.4684 4.59852L14.954 2.08411L12.4349 4.6032ZM14.954 3.49832L13.1911 5.26124L14.2913 6.36144L16.0542 4.59852L14.954 3.49832ZM8.81105 4.60328L9.9159 3.49843L16.0589 9.64142L14.954 10.7463L8.81105 4.60328ZM5.16496 11.6079L9.78086 6.99199L12.5651 9.77622L7.94919 14.3921C7.18035 15.161 5.9338 15.161 5.16496 14.3921C4.39611 13.6233 4.39611 12.3767 5.16496 11.6079ZM4.44637 15.1107C4.7117 15.376 4.7117 15.8062 4.44637 16.0715C4.18105 16.3368 3.75088 16.3368 3.48555 16.0715C3.22023 15.8062 3.22023 15.376 3.48555 15.1107C3.75088 14.8453 4.18105 14.8453 4.44637 15.1107Z" fill="#7E818E"/>
</svg>
