<svg width="25" height="25" viewBox="0 0 25 25" fill="none" xmlns="http://www.w3.org/2000/svg">
<path d="M19.5 6.5V4.5H20.5V6.5H22.5V7.5H20.5V9.5H19.5V7.5H17.5V6.5H19.5Z" fill="#7E818E"/>
<path fill-rule="evenodd" clip-rule="evenodd" d="M25 7C25 9.76142 22.7614 12 20 12C17.2386 12 15 9.76142 15 7C15 4.23858 17.2386 2 20 2C22.7614 2 25 4.23858 25 7ZM24 7C24 9.20914 22.2091 11 20 11C17.7909 11 16 9.20914 16 7C16 4.79086 17.7909 3 20 3C22.2091 3 24 4.79086 24 7Z" fill="#7E818E"/>
<path d="M0.5 3.5V21H19.9099L21.4903 13.0981L20.5097 12.9019L19.0901 20H1.5V4.5H7.16148L8.16148 7H13.75V6H8.83852L7.83852 3.5H0.5Z" fill="#7E818E"/>
</svg>
