<svg width="25" height="25" viewBox="0 0 25 25" fill="none" xmlns="http://www.w3.org/2000/svg">
<mask id="path-1-inside-1_886_45" fill="white">
<path d="M17 7H19V5H20V7H22V8H20V10H19V8H17V7Z"/>
<path fill-rule="evenodd" clip-rule="evenodd" d="M19.5 13C22.5376 13 25 10.5376 25 7.5C25 4.46243 22.5376 2 19.5 2C16.4624 2 14 4.46243 14 7.5C14 10.5376 16.4624 13 19.5 13ZM19.5 12C21.9853 12 24 9.98528 24 7.5C24 5.01472 21.9853 3 19.5 3C17.0147 3 15 5.01472 15 7.5C15 9.98528 17.0147 12 19.5 12Z"/>
<path d="M13.1739 6H12L10 3H2V21H22L22.7892 13.1075C22.4556 13.3037 22.1028 13.4709 21.7344 13.6058L21.095 20H3V4H9.46482L11.4648 7H13.0189C13.0449 6.65862 13.0973 6.32461 13.1739 6Z"/>
</mask>
<path d="M17 7H19V5H20V7H22V8H20V10H19V8H17V7Z" fill="#3A3B3D"/>
<path fill-rule="evenodd" clip-rule="evenodd" d="M19.5 13C22.5376 13 25 10.5376 25 7.5C25 4.46243 22.5376 2 19.5 2C16.4624 2 14 4.46243 14 7.5C14 10.5376 16.4624 13 19.5 13ZM19.5 12C21.9853 12 24 9.98528 24 7.5C24 5.01472 21.9853 3 19.5 3C17.0147 3 15 5.01472 15 7.5C15 9.98528 17.0147 12 19.5 12Z" fill="#3A3B3D"/>
<path d="M13.1739 6H12L10 3H2V21H22L22.7892 13.1075C22.4556 13.3037 22.1028 13.4709 21.7344 13.6058L21.095 20H3V4H9.46482L11.4648 7H13.0189C13.0449 6.65862 13.0973 6.32461 13.1739 6Z" fill="#3A3B3D"/>
<path d="M12 6L11.1679 6.5547L11.4648 7H12V6ZM13.1739 6L14.1471 6.22989L14.4377 5H13.1739V6ZM10 3L10.8321 2.4453L10.5352 2H10V3ZM2 3V2H1V3H2ZM2 21H1V22H2V21ZM22 21V22H22.905L22.995 21.0995L22 21ZM22.7892 13.1075L23.7843 13.207L23.9802 11.2474L22.2825 12.2454L22.7892 13.1075ZM21.7344 13.6058L21.3907 12.6667L20.8018 12.8823L20.7394 13.5063L21.7344 13.6058ZM21.095 20V21H22L22.09 20.0995L21.095 20ZM3 20H2V21H3V20ZM3 4V3H2V4H3ZM9.46482 4L10.2969 3.4453L10 3H9.46482V4ZM11.4648 7L10.6328 7.5547L10.9296 8H11.4648V7ZM13.0189 7V8H13.9458L14.0161 7.07585L13.0189 7ZM19 7V8H20V7H19ZM17 7V6H16V7H17ZM19 5V4H18V5H19ZM20 5H21V4H20V5ZM20 7H19V8H20V7ZM22 7H23V6H22V7ZM22 8V9H23V8H22ZM20 8V7H19V8H20ZM20 10V11H21V10H20ZM19 10H18V11H19V10ZM19 8H20V7H19V8ZM17 8H16V9H17V8ZM23 7.5C23 9.433 21.433 11 19.5 11V13C22.5376 13 25 10.5376 25 7.5H23ZM19.5 4C21.433 4 23 5.567 23 7.5H25C25 4.46243 22.5376 2 19.5 2V4ZM16 7.5C16 5.567 17.567 4 19.5 4V2C16.4624 2 14 4.46243 14 7.5H16ZM19.5 11C17.567 11 16 9.433 16 7.5H14C14 10.5376 16.4624 13 19.5 13V11ZM24 7.5C24 9.98528 21.9853 12 19.5 12V14C23.0899 14 26 11.0899 26 7.5H24ZM19.5 3C21.9853 3 24 5.01472 24 7.5H26C26 3.91015 23.0899 1 19.5 1V3ZM15 7.5C15 5.01472 17.0147 3 19.5 3V1C15.9101 1 13 3.91015 13 7.5H15ZM19.5 12C17.0147 12 15 9.98528 15 7.5H13C13 11.0899 15.9101 14 19.5 14V12ZM12 7H13.1739V5H12V7ZM9.16795 3.5547L11.1679 6.5547L12.8321 5.4453L10.8321 2.4453L9.16795 3.5547ZM21.7942 13.008L21.005 20.9005L22.995 21.0995L23.7843 13.207L21.7942 13.008ZM22.0782 14.5448C22.5037 14.3891 22.9109 14.196 23.296 13.9696L22.2825 12.2454C22.0002 12.4114 21.7019 12.5528 21.3907 12.6667L22.0782 14.5448ZM22.09 20.0995L22.7295 13.7053L20.7394 13.5063L20.1 19.9005L22.09 20.0995ZM3 21H21.095V19H3V21ZM2 4V20H4V4H2ZM9.46482 3H3V5H9.46482V3ZM12.2007 5.77011C12.1121 6.14505 12.0518 6.53056 12.0218 6.92415L14.0161 7.07585C14.0381 6.78668 14.0824 6.50416 14.1471 6.22989L12.2007 5.77011ZM19 6H17V8H19V6ZM18 5V7H20V5H18ZM20 4H19V6H20V4ZM21 7V5H19V7H21ZM22 6H20V8H22V6ZM23 8V7H21V8H23ZM20 9H22V7H20V9ZM21 10V8H19V10H21ZM19 11H20V9H19V11ZM18 8V10H20V8H18ZM17 9H19V7H17V9ZM16 7V8H18V7H16ZM2 4H10V2H2V4ZM3 21V3H1V21H3ZM22 20H2V22H22V20ZM12.2969 6.4453L10.2969 3.4453L8.63277 4.5547L10.6328 7.5547L12.2969 6.4453ZM13.0189 6H11.4648V8H13.0189V6Z" fill="#3A3B3D" mask="url(#path-1-inside-1_886_45)"/>
</svg>
