<svg width="20" height="20" viewBox="0 0 20 20" fill="none" xmlns="http://www.w3.org/2000/svg">
<path d="M15.191 3H16.3575L16.1072 4H15.191V3.70429L15.1528 3.69474L15.191 3.54212V3Z" fill="#3A3B3D"/>
<path d="M15.6536 5.8125L15.1844 7.6875L14.2143 7.44474L14.6836 5.56974L15.6536 5.8125Z" fill="#3A3B3D"/>
<path d="M14.7152 9.5625L14.6058 9.99988H18V10.9999H14.3555L14.246 11.4375L13.2759 11.1947L13.3247 10.9999H6.05434L5.88407 11.6803L4.91399 11.4375L5.0235 10.9999H2V9.99988H5.27375L5.38321 9.5625L6.35329 9.80526L6.30459 9.99988H13.5749L13.7451 9.31974L14.7152 9.5625Z" fill="#3A3B3D"/>
<path d="M13.7768 13.3125L13.3076 15.1875L12.3375 14.9447L12.8067 13.0697L13.7768 13.3125Z" fill="#3A3B3D"/>
<path d="M12.6037 17.0038L12.8383 17.0625L12.6037 18H11.4372V17H11.8231L11.8683 16.8197L12.5886 17H12.6037V17.0038Z" fill="#3A3B3D"/>
<path d="M9.10423 18H6.77123V17H9.10423V18Z" fill="#3A3B3D"/>
<path d="M4.43823 18H3.27173L3.52198 17H4.43823V17.2957L4.47642 17.3053L4.43823 17.4579V18Z" fill="#3A3B3D"/>
<path d="M3.97555 15.1875L4.44477 13.3125L5.41486 13.5553L4.94564 15.4303L3.97555 15.1875Z" fill="#3A3B3D"/>
<path d="M5.85242 7.6875L6.32164 5.8125L7.29173 6.05526L6.82251 7.93026L5.85242 7.6875Z" fill="#3A3B3D"/>
<path d="M7.02547 3.99621L6.79086 3.9375L7.02547 3H8.19197V4H7.80605L7.76094 4.18026L7.04061 4H7.02547V3.99621Z" fill="#3A3B3D"/>
<path d="M10.525 3H12.858V4H10.525V3Z" fill="#3A3B3D"/>
</svg>
