<svg width="20" height="20" viewBox="0 0 20 20" fill="none" xmlns="http://www.w3.org/2000/svg">
<path d="M6.3216 5.8125L6.79082 3.9375L7.27586 4.05888L7.41572 3.5H8.19193V3H10.5249V3.5H12.8579V3H15.1909V3.5H15.7169L15.6378 3.81612L16.1228 3.9375L15.6536 5.8125L15.1686 5.69112L14.6993 7.56612L15.1844 7.6875L14.7152 9.5625L14.2301 9.44112L13.7609 11.3161L14.246 11.4375L13.7767 13.3125L13.2917 13.1911L12.8225 15.0661L13.3075 15.1875L12.8383 17.0625L12.3533 16.9411L12.2134 17.5H11.4372V18H9.10419V17.5H6.77119V18H4.43819V17.5H3.91223L3.99134 17.1839L3.5063 17.0625L3.97552 15.1875L4.46056 15.3089L4.92978 13.4339L4.44473 13.3125L4.91395 11.4375L5.39899 11.5589L5.86821 9.68388L5.38317 9.5625L5.85239 7.6875L6.33743 7.80888L6.80665 5.93388L6.3216 5.8125Z" stroke="#3A3B3D" stroke-dasharray="2 2"/>
<path d="M0 10.4998H20" stroke="#3A3B3D"/>
</svg>
