<svg width="20" height="20" viewBox="0 0 20 20" fill="none" xmlns="http://www.w3.org/2000/svg">
<path d="M16.9141 16.8073H11.8908C12.2723 16.4191 17.2091 11.3947 17.3283 11.2734C17.5571 11.0405 17.5571 10.663 17.3283 10.4301L12.1647 5.17465C11.9359 4.94178 11.5647 4.94178 11.3359 5.17465C11.3333 5.17763 2.74756 13.9154 2.67168 13.9929C2.44287 14.2258 2.44287 14.6033 2.67168 14.8362L4.6085 16.8073H3.08594C2.76221 16.8073 2.5 17.0742 2.5 17.4037C2.5 17.7331 2.76221 18 3.08594 18C3.40674 18 16.8016 18 16.9141 18C17.2378 18 17.5 17.7331 17.5 17.4037C17.5 17.0742 17.2378 16.8073 16.9141 16.8073ZM10.2335 16.8073H6.26582L3.91475 14.4145L6.49932 11.7841L10.8344 16.1961L10.2335 16.8073ZM7.32783 10.9406L11.7505 6.43948L16.0855 10.8514L11.6629 15.3526L7.32783 10.9406Z" fill="#D95656"/>
</svg>
