<svg width="25" height="25" viewBox="0 0 25 25" fill="none" xmlns="http://www.w3.org/2000/svg">
<mask id="path-1-inside-1_2009_24" fill="white">
<path d="M12 4V16.7929L8.85355 13.6464L8.14645 14.3536L12.5 18.7071L16.8536 14.3536L16.1464 13.6464L13 16.7929V4H12Z"/>
<path d="M21 21V20H4V21H21Z"/>
</mask>
<path d="M12 4V16.7929L8.85355 13.6464L8.14645 14.3536L12.5 18.7071L16.8536 14.3536L16.1464 13.6464L13 16.7929V4H12Z" fill="black"/>
<path d="M21 21V20H4V21H21Z" fill="black"/>
<path d="M12 16.7929L11.2929 17.5L13 19.2071V16.7929H12ZM12 4V3H11V4H12ZM8.85355 13.6464L9.56066 12.9393L8.85355 12.2322L8.14645 12.9393L8.85355 13.6464ZM8.14645 14.3536L7.43934 13.6464L6.73223 14.3536L7.43934 15.0607L8.14645 14.3536ZM12.5 18.7071L11.7929 19.4142L12.5 20.1213L13.2071 19.4142L12.5 18.7071ZM16.8536 14.3536L17.5607 15.0607L18.2678 14.3536L17.5607 13.6464L16.8536 14.3536ZM16.1464 13.6464L16.8536 12.9393L16.1464 12.2322L15.4393 12.9393L16.1464 13.6464ZM13 16.7929H12V19.2071L13.7071 17.5L13 16.7929ZM13 4H14V3H13V4ZM21 20H22V19H21V20ZM21 21V22H22V21H21ZM4 20V19H3V20H4ZM4 21H3V22H4V21ZM13 16.7929V4H11V16.7929H13ZM8.14645 14.3536L11.2929 17.5L12.7071 16.0858L9.56066 12.9393L8.14645 14.3536ZM8.85355 15.0607L9.56066 14.3536L8.14645 12.9393L7.43934 13.6464L8.85355 15.0607ZM15.4393 14.3536L16.1464 15.0607L17.5607 13.6464L16.8536 12.9393L15.4393 14.3536ZM13.7071 17.5L16.8536 14.3536L15.4393 12.9393L12.2929 16.0858L13.7071 17.5ZM12 4V16.7929H14V4H12ZM12 5H13V3H12V5ZM20 20V21H22V20H20ZM4 21H21V19H4V21ZM5 21V20H3V21H5ZM21 20H4V22H21V20ZM13.2071 18L8.85355 13.6464L7.43934 15.0607L11.7929 19.4142L13.2071 18ZM16.1464 13.6464L11.7929 18L13.2071 19.4142L17.5607 15.0607L16.1464 13.6464Z" fill="#7E818E" mask="url(#path-1-inside-1_2009_24)"/>
</svg>
