<svg width="85" height="60" viewBox="0 0 85 60" fill="none" xmlns="http://www.w3.org/2000/svg">
<path d="M12.5045 28C12.7711 13.0429 24.9792 1 40 1C52.2214 1 62.5807 8.97227 66.1612 20H68C77.3888 20 85 27.6112 85 37C85 46.3888 77.3888 54 68 54H54V53H68C76.8366 53 84 45.8366 84 37C84 28.1634 76.8366 21 68 21H65.4238C62.1889 10.017 52.0307 2 40 2C25.3645 2 13.5 13.8645 13.5 28.5V29H12.5C6.14873 29 1 34.1487 1 40.5V41C1 47.6274 6.37258 53 13 53H30V54H13C5.8203 54 0 48.1797 0 41V40.5C0 33.5964 5.59644 28 12.5 28H12.5045Z" fill="white"/>
<path d="M42.5 30.7929L51.3536 39.6464L50.6464 40.3536L42.9884 32.6955V60H42V32.7071L34.3536 40.3536L33.6464 39.6464L42.5 30.7929Z" fill="white"/>
</svg>
