<svg width="188" height="138" viewBox="0 0 188 138" fill="none" xmlns="http://www.w3.org/2000/svg">
<path d="M87.052 0C53.7805 0 26.7451 27.0301 26.7451 60.4421C26.7451 61.312 26.8069 62.1966 26.8673 63.0604C26.8852 63.3162 26.903 63.5703 26.9189 63.8216C11.8431 65.1508 0 77.7185 0 93.1071C0 107.945 10.8492 121.129 25.1909 122.23L25.1932 122.23C34.5515 122.905 49.6858 123.241 66.0818 123.376L66.0901 122.376C49.6942 122.241 34.5899 121.905 25.2668 121.233C11.5197 120.177 1 107.499 1 93.1071C1 78.0856 12.6867 65.839 27.4824 64.7798L27.9717 64.7447L27.946 64.2548C27.9226 63.8092 27.892 63.3734 27.8618 62.9427C27.8028 62.1008 27.7451 61.2785 27.7451 60.4421C27.7451 27.581 54.3342 1 87.052 1C114.504 1 137.495 19.6988 144.225 45.0125L144.335 45.424L144.758 45.3816C146.085 45.2486 147.48 45.182 148.808 45.182C169.832 45.182 186.947 62.3336 186.947 83.4086C186.947 104.484 169.899 121.635 148.808 121.635L148.796 121.635L148.808 122.135C148.796 121.635 148.796 121.635 148.796 121.635L148.794 121.635L148.268 121.647C148.08 121.652 147.843 121.657 147.559 121.663C147.318 121.668 147.043 121.674 146.736 121.681C145.398 121.709 143.443 121.749 140.978 121.795C136.048 121.888 129.077 122.006 120.914 122.107L120.926 123.107C129.092 123.006 136.065 122.888 140.997 122.795C143.463 122.749 145.418 122.709 146.757 122.68C147.427 122.666 147.942 122.655 148.29 122.647L148.814 122.635C170.458 122.632 187.947 105.031 187.947 83.4086C187.947 61.7834 170.387 44.182 148.808 44.182C147.588 44.182 146.313 44.2368 145.081 44.3466C138.1 18.8163 114.823 0 87.052 0Z" fill="white"/>
<path d="M93.9774 72.288L75.1329 92.6605L75.8671 93.3395L93.5 74.2769V138H94.5V74.1667L114.655 93.3621L115.345 92.6379L93.9774 72.288Z" fill="white"/>
<path d="M42.6 49.72H46.3C46.16 51.56 45.18 52.44 43.7 52.44C42.44 52.44 41.82 51.82 41.52 50.9H39.6C40 52.82 41.36 54.16 43.7 54.16C46.44 54.16 48.2 52.4 48.2 49.28V48.52C48.2 45.6 46.44 43.84 43.7 43.84C41.36 43.84 40 45.2 39.6 46.9H41.52C41.82 46.18 42.5 45.56 43.7 45.56C45.16 45.56 46.14 46.44 46.3 48.08H42.6V49.72ZM49.107 45.64H52.307V54H54.107V45.64H57.307V44H49.107V45.64ZM62.8203 54.16C65.6003 54.16 67.4203 52.34 67.4203 49.38V48.62C67.4203 45.64 65.6203 43.84 62.8203 43.84C60.0403 43.84 58.2203 45.66 58.2203 48.62V49.38C58.2203 52.36 60.0203 54.16 62.8203 54.16ZM62.8203 52.44C61.1603 52.44 60.1003 51.38 60.1003 49.38V48.62C60.1003 46.6 61.1403 45.56 62.8203 45.56C64.4803 45.56 65.5403 46.62 65.5403 48.62V49.38C65.5403 51.4 64.5003 52.44 62.8203 52.44ZM69.8164 54H71.6164V45.64H76.5164V44H69.8164V54ZM82.0195 54.16C84.7995 54.16 86.6195 52.34 86.6195 49.38V48.62C86.6195 45.64 84.8195 43.84 82.0195 43.84C79.2395 43.84 77.4195 45.66 77.4195 48.62V49.38C77.4195 52.36 79.2195 54.16 82.0195 54.16ZM82.0195 52.44C80.3595 52.44 79.2995 51.38 79.2995 49.38V48.62C79.2995 46.6 80.3395 45.56 82.0195 45.56C83.6795 45.56 84.7395 46.62 84.7395 48.62V49.38C84.7395 51.4 83.6995 52.44 82.0195 52.44ZM101.416 56.6H103.216V52.36H101.916V44H94.8756V47C94.8756 49.96 94.6356 51.2 93.7956 52.36H92.7156V56.6H94.5156V54H101.416V56.6ZM96.6356 47V45.64H100.116V52.36H95.7356C96.2756 51.44 96.6356 50.2 96.6356 47ZM109.852 54.16C112.112 54.16 113.812 52.46 113.812 49.38V48.62C113.812 45.52 112.132 43.84 109.872 43.84C108.432 43.84 107.292 44.38 106.592 45.44L106.412 44H105.012V58H106.812V52.86C107.512 53.72 108.552 54.16 109.852 54.16ZM109.372 52.44C107.892 52.44 106.812 51.34 106.812 49.38V48.48C106.852 46.58 107.932 45.56 109.372 45.56C110.952 45.56 111.932 46.56 111.932 48.62V49.38C111.932 51.48 110.972 52.44 109.372 52.44ZM117.113 58H119.033L124.412 44H122.493L119.613 51.74L116.573 44H114.613L118.653 54L117.113 58ZM126.203 54H128.003V45.64H132.903V44H126.203V54ZM138.406 54.16C141.186 54.16 143.006 52.34 143.006 49.38V48.62C143.006 45.64 141.206 43.84 138.406 43.84C135.626 43.84 133.806 45.66 133.806 48.62V49.38C133.806 52.36 135.606 54.16 138.406 54.16ZM138.406 52.44C136.746 52.44 135.686 51.38 135.686 49.38V48.62C135.686 46.6 136.726 45.56 138.406 45.56C140.066 45.56 141.126 46.62 141.126 48.62V49.38C141.126 51.4 140.086 52.44 138.406 52.44ZM149.302 54.16C152.002 54.16 153.302 52.86 153.702 50.9H151.862C151.462 51.94 150.882 52.52 149.302 52.52C147.802 52.52 146.742 51.52 146.682 49.58H153.802V48.62C153.802 45.68 151.962 43.84 149.302 43.84C146.662 43.84 144.802 45.7 144.802 48.62V49.38C144.802 52.34 146.622 54.16 149.302 54.16ZM149.302 45.48C150.802 45.48 151.722 46.26 151.882 48.02H146.702C146.882 46.32 147.882 45.48 149.302 45.48Z" fill="#D013FF"/>
</svg>
