<svg width="188" height="138" viewBox="0 0 188 138" fill="none" xmlns="http://www.w3.org/2000/svg">
<path d="M87.052 0C53.7805 0 26.7451 27.0301 26.7451 60.4421C26.7451 61.312 26.8069 62.1966 26.8673 63.0604C26.8852 63.3162 26.903 63.5703 26.9189 63.8216C11.8431 65.1508 0 77.7185 0 93.1071C0 107.945 10.8492 121.129 25.1909 122.23L25.1932 122.23C34.5515 122.905 49.6858 123.241 66.0818 123.376L66.0901 122.376C49.6942 122.241 34.5899 121.905 25.2668 121.233C11.5197 120.177 1 107.499 1 93.1071C1 78.0856 12.6867 65.839 27.4824 64.7798L27.9717 64.7447L27.946 64.2548C27.9226 63.8092 27.892 63.3734 27.8618 62.9427C27.8028 62.1008 27.7451 61.2785 27.7451 60.4421C27.7451 27.581 54.3342 1 87.052 1C114.504 1 137.495 19.6988 144.225 45.0125L144.335 45.424L144.758 45.3816C146.085 45.2486 147.48 45.182 148.808 45.182C169.832 45.182 186.947 62.3336 186.947 83.4086C186.947 104.484 169.899 121.635 148.808 121.635L148.796 121.635L148.808 122.135C148.796 121.635 148.796 121.635 148.796 121.635L148.794 121.635L148.268 121.647C148.08 121.652 147.843 121.657 147.559 121.663C147.318 121.668 147.043 121.674 146.736 121.681C145.398 121.709 143.443 121.749 140.978 121.795C136.048 121.888 129.077 122.006 120.914 122.107L120.926 123.107C129.092 123.006 136.065 122.888 140.997 122.795C143.463 122.749 145.418 122.709 146.757 122.68C147.427 122.666 147.942 122.655 148.29 122.647L148.814 122.635C170.458 122.632 187.947 105.031 187.947 83.4086C187.947 61.7834 170.387 44.182 148.808 44.182C147.588 44.182 146.313 44.2368 145.081 44.3466C138.1 18.8163 114.823 0 87.052 0Z" fill="white"/>
<path d="M93.9774 72.288L75.1329 92.6605L75.8671 93.3395L93.5 74.2769V138H94.5V74.1667L114.655 93.3621L115.345 92.6379L93.9774 72.288Z" fill="white"/>
</svg>
