<svg width="15" height="13" viewBox="0 0 15 13" fill="none" xmlns="http://www.w3.org/2000/svg">
<path d="M14.4141 11.8073H9.39082C9.77227 11.4191 14.7091 6.39471 14.8283 6.27336C15.0571 6.04049 15.0571 5.66301 14.8283 5.43014L9.66475 0.174651C9.43594 -0.0582171 9.06475 -0.0582171 8.83594 0.174651C8.8333 0.177633 0.247559 8.91541 0.17168 8.99294C-0.0571289 9.2258 -0.0571289 9.60328 0.17168 9.83615L2.1085 11.8073H0.585938C0.262207 11.8073 0 12.0742 0 12.4037C0 12.7331 0.262207 13 0.585938 13C0.906738 13 14.3016 13 14.4141 13C14.7378 13 15 12.7331 15 12.4037C15 12.0742 14.7378 11.8073 14.4141 11.8073ZM7.7335 11.8073H3.76582L1.41475 9.41454L3.99932 6.78412L8.33438 11.1961L7.7335 11.8073ZM4.82783 5.9406L9.25049 1.43948L13.5855 5.85145L9.16289 10.3526L4.82783 5.9406Z" fill="#D95656"/>
</svg>
