<svg width="25" height="25" viewBox="0 0 25 25" fill="none" xmlns="http://www.w3.org/2000/svg">
<path d="M7.36951 8.04715L11.8224 12.5L7.36951 16.9528L8.04715 17.6305L12.5 13.1776L16.9528 17.6305L17.6305 16.9528L13.1776 12.5L17.6305 8.04715L16.9528 7.36951L12.5 11.8224L8.04715 7.36951L7.36951 8.04715Z" fill="#3A3B3D"/>
<path fill-rule="evenodd" clip-rule="evenodd" d="M24 12.5C24 18.8513 18.8513 24 12.5 24C6.14873 24 1 18.8513 1 12.5C1 6.14873 6.14873 1 12.5 1C18.8513 1 24 6.14873 24 12.5ZM23.0417 12.5C23.0417 18.322 18.322 23.0417 12.5 23.0417C6.678 23.0417 1.95833 18.322 1.95833 12.5C1.95833 6.678 6.678 1.95833 12.5 1.95833C18.322 1.95833 23.0417 6.678 23.0417 12.5Z" fill="#3A3B3D"/>
</svg>
