<svg width="15" height="15" viewBox="0 0 15 15" fill="none" xmlns="http://www.w3.org/2000/svg">
<path fill-rule="evenodd" clip-rule="evenodd" d="M7.5 5C6.11929 5 5 6.11929 5 7.5C5 8.88071 6.11929 10 7.5 10C8.88071 10 10 8.88071 10 7.5C10 6.11929 8.88071 5 7.5 5ZM6 7.5C6 6.67157 6.67157 6 7.5 6C8.32843 6 9 6.67157 9 7.5C9 8.32843 8.32843 9 7.5 9C6.67157 9 6 8.32843 6 7.5Z" fill="#7E818E"/>
<path fill-rule="evenodd" clip-rule="evenodd" d="M14.9451 7.72769L14.9445 7.72899L14.9424 7.73296L14.9355 7.74623C14.9319 7.75315 14.9273 7.76184 14.9218 7.77223C14.9184 7.77862 14.9146 7.78566 14.9105 7.79331C14.8888 7.83353 14.8572 7.89103 14.8158 7.96334C14.733 8.10789 14.6108 8.31205 14.4504 8.55597C14.1303 9.04286 13.6546 9.69315 13.0321 10.3452C11.7957 11.6405 9.92351 13 7.5 13C5.07649 13 3.20429 11.6405 1.96787 10.3452C1.34541 9.69315 0.86973 9.04286 0.549558 8.55597C0.389165 8.31205 0.266987 8.10789 0.184195 7.96334C0.14278 7.89103 0.111165 7.83353 0.089497 7.79331C0.0786616 7.7732 0.0703087 7.7574 0.0644571 7.74623L0.0575559 7.73296L0.0555153 7.72899L0.0544169 7.72684C-0.0181411 7.58432 -0.0177097 7.41484 0.0548482 7.27231C0.0548482 7.27231 0.0544169 7.27316 0.499998 7.5L0.0548482 7.27231L0.0555153 7.27101L0.0575559 7.26704L0.0644571 7.25377C0.0703087 7.2426 0.0786616 7.2268 0.089497 7.20669C0.111165 7.16647 0.14278 7.10897 0.184195 7.03666C0.266987 6.89211 0.389165 6.68795 0.549558 6.44403C0.86973 5.95714 1.34541 5.30685 1.96787 4.65476C3.20429 3.35946 5.07649 2 7.5 2C9.92351 2 11.7957 3.35946 13.0321 4.65476C13.6546 5.30685 14.1303 5.95714 14.4504 6.44403C14.6108 6.68795 14.733 6.89211 14.8158 7.03666C14.8572 7.10897 14.8888 7.16647 14.9105 7.20669C14.9213 7.2268 14.9297 7.2426 14.9355 7.25377L14.9424 7.26704L14.9445 7.27101L14.9454 7.27279C15.018 7.41532 15.0177 7.58516 14.9451 7.72769ZM1.3851 8.00653C1.24966 7.80057 1.14473 7.6268 1.07133 7.5C1.14473 7.3732 1.24966 7.19943 1.3851 6.99347C1.6814 6.54286 2.12049 5.94315 2.69122 5.34524C3.84116 4.14054 5.46896 3 7.5 3C9.53103 3 11.1588 4.14054 12.3088 5.34524C12.8795 5.94315 13.3186 6.54286 13.6149 6.99347C13.7503 7.19943 13.8553 7.3732 13.9287 7.5C13.8553 7.62679 13.7503 7.80057 13.6149 8.00653C13.3186 8.45714 12.8795 9.05685 12.3088 9.65476C11.1588 10.8595 9.53103 12 7.5 12C5.46896 12 3.84116 10.8595 2.69122 9.65476C2.12049 9.05685 1.6814 8.45714 1.3851 8.00653ZM14.5 7.5C14.9456 7.27316 14.9454 7.27279 14.9454 7.27279L14.5 7.5ZM14.5 7.5L14.9451 7.72769C14.9451 7.72769 14.9456 7.72684 14.5 7.5Z" fill="#7E818E"/>
</svg>
