<svg width="25" height="25" viewBox="0 0 25 25" fill="none" xmlns="http://www.w3.org/2000/svg">
<path fill-rule="evenodd" clip-rule="evenodd" d="M12.5015 14.5907C8.16334 14.5907 4.43149 12.0551 2.7144 8.4225L3.63145 8C5.18958 11.2963 8.57353 13.5916 12.5015 13.5916C16.43 13.5916 19.8134 11.3054 21.3712 8.00048L22.2887 8.42202C20.5714 12.0652 16.8389 14.5907 12.5015 14.5907ZM1 14.5661L3.75859 11.6791L4.49473 12.3647L1.73614 15.2517L1 14.5661ZM23.2626 15.251L20.5138 12.364L21.2512 11.6797L24 14.5668L23.2626 15.251ZM5.9035 17.3462L7.49237 14.4592L8.38158 14.9362L6.79271 17.8232L5.9035 17.3462ZM18.2148 17.8232L16.626 14.9362L17.5152 14.4592L19.104 17.3462L18.2148 17.8232ZM11.9957 19V16.113H13.0077V19H11.9957Z" fill="#3A3B3D"/>
</svg>
