<svg width="25" height="25" viewBox="0 0 25 25" fill="none" xmlns="http://www.w3.org/2000/svg">
<path d="M13.0043 7.88966V5H11.9923V7.88966H13.0043ZM22.067 15.5872C20.3499 11.9513 16.618 9.41333 12.2799 9.41333C7.94245 9.41333 4.20999 11.9411 2.49264 15.5876L3.41014 16.0096C4.96801 12.7017 8.35136 10.4133 12.2799 10.4133C16.2078 10.4133 19.5918 12.7107 21.1499 16.01L22.067 15.5872ZM8.37407 9.06756L6.7852 6.1779L5.89599 6.65531L7.48486 9.54497L8.37407 9.06756ZM17.5076 9.54497L19.0965 6.65531L18.2073 6.1779L16.6184 9.06756L17.5076 9.54497ZM4.48621 11.642L1.73736 8.75237L1 9.43728L3.74885 12.3269L4.48621 11.642ZM21.2414 12.3276L24 9.43793L23.2639 8.75174L20.5053 11.6414L21.2414 12.3276ZM15.5365 17C15.5365 18.6569 14.1773 20 12.5006 20C10.8239 20 9.46461 18.6569 9.46461 17C9.46461 15.3432 10.8239 14 12.5006 14C14.1773 14 15.5365 15.3432 15.5365 17ZM14.5245 17C14.5245 18.1046 13.6184 19 12.5006 19C11.3828 19 10.4766 18.1046 10.4766 17C10.4766 15.8954 11.3828 15 12.5006 15C13.6184 15 14.5245 15.8954 14.5245 17Z" fill="#3A3B3D"/>
<path d="M13.0043 7.88966V5H11.9923V7.88966H13.0043ZM22.067 15.5872C20.3499 11.9513 16.618 9.41333 12.2799 9.41333C7.94245 9.41333 4.20999 11.9411 2.49264 15.5876L3.41014 16.0096C4.96801 12.7017 8.35136 10.4133 12.2799 10.4133C16.2078 10.4133 19.5918 12.7107 21.1499 16.01L22.067 15.5872ZM8.37407 9.06756L6.7852 6.1779L5.89599 6.65531L7.48486 9.54497L8.37407 9.06756ZM17.5076 9.54497L19.0965 6.65531L18.2073 6.1779L16.6184 9.06756L17.5076 9.54497ZM4.48621 11.642L1.73736 8.75237L1 9.43728L3.74885 12.3269L4.48621 11.642ZM21.2414 12.3276L24 9.43793L23.2639 8.75174L20.5053 11.6414L21.2414 12.3276ZM15.5365 17C15.5365 18.6569 14.1773 20 12.5006 20C10.8239 20 9.46461 18.6569 9.46461 17C9.46461 15.3432 10.8239 14 12.5006 14C14.1773 14 15.5365 15.3432 15.5365 17ZM14.5245 17C14.5245 18.1046 13.6184 19 12.5006 19C11.3828 19 10.4766 18.1046 10.4766 17C10.4766 15.8954 11.3828 15 12.5006 15C13.6184 15 14.5245 15.8954 14.5245 17Z" stroke="#3A3B3D"/>
</svg>
