<svg width="30" height="30" viewBox="0 0 30 30" fill="none" xmlns="http://www.w3.org/2000/svg">
<path fill-rule="evenodd" clip-rule="evenodd" d="M15 30C23.2843 30 30 23.2843 30 15C30 6.71573 23.2843 0 15 0C6.71573 0 0 6.71573 0 15C0 23.2843 6.71573 30 15 30ZM15.6562 17.4917H14.3402C14.3402 15.8382 15.0744 15.2362 15.7249 14.703C16.242 14.2791 16.7062 13.8986 16.7062 13.0677C16.7062 12.2697 16.1322 11.6957 15.0682 11.6957C13.9202 11.6957 13.3602 12.2557 13.2902 13.2777H11.9182C11.9882 11.5837 13.1362 10.4357 14.9982 10.4357C16.9862 10.4357 18.0782 11.5277 18.0782 12.9977C18.0782 14.3118 17.4409 14.8524 16.8202 15.3791C16.2307 15.8791 15.6562 16.3666 15.6562 17.4917ZM15.9782 19.4797C15.9782 20.0257 15.5722 20.4597 14.9982 20.4597C14.4242 20.4597 14.0182 20.0257 14.0182 19.4797C14.0182 18.9337 14.4242 18.4997 14.9982 18.4997C15.5722 18.4997 15.9782 18.9337 15.9782 19.4797Z" fill="#3A3B3D"/>
</svg>
