<svg width="25" height="25" viewBox="0 0 25 25" fill="none" xmlns="http://www.w3.org/2000/svg">
<path d="M0 2.99994V21.0001H10V20.0001H1V3.99994L16.0003 4V8H17.0003V3L0 2.99994Z" fill="#7E818E"/>
<path fill-rule="evenodd" clip-rule="evenodd" d="M15.8136 19.064L24.4172 6.77673L21.1406 4.48242L12.537 16.7697L12.4546 20.3743L15.8136 19.064ZM21.3862 5.87515L23.0245 7.0223L22.1045 8.33627L20.4662 7.18912L21.3862 5.87515ZM21.5309 9.15542L15.1681 18.2424L13.4886 18.8976L13.5298 17.0953L19.8926 8.00827L21.5309 9.15542Z" fill="#7E818E"/>
<path d="M4 8H13V9H4V8Z" fill="#7E818E"/>
<path d="M4 12H10V13H4V12Z" fill="#7E818E"/>
</svg>
