<svg width="24" height="24" viewBox="0 0 24 24" fill="none" xmlns="http://www.w3.org/2000/svg">
<mask id="path-1-inside-1" fill="white">
<path d="M6 16V9H7V12H10V9H11V16H10V13H7V16H6Z"/>
</mask>
<path d="M6 9V8H5V9H6ZM6 16H5V17H6V16ZM7 16V17H8V16H7ZM7 13V12H6V13H7ZM10 13H11V12H10V13ZM10 16H9V17H10V16ZM11 16V17H12V16H11ZM11 9H12V8H11V9ZM10 9V8H9V9H10ZM10 12V13H11V12H10ZM7 12H6V13H7V12ZM7 9H8V8H7V9ZM5 9V16H7V9H5ZM6 17H7V15H6V17ZM8 16V13H6V16H8ZM7 14H10V12H7V14ZM9 13V16H11V13H9ZM10 17H11V15H10V17ZM12 16V9H10V16H12ZM11 8H10V10H11V8ZM9 9V12H11V9H9ZM10 11H7V13H10V11ZM8 12V9H6V12H8ZM7 8H6V10H7V8Z" fill="#3A3B3D" mask="url(#path-1-inside-1)"/>
<path d="M13.5 15.5V9.5H15C15.9843 9.5 16.7056 9.62977 17.1877 10.0154C17.6439 10.3805 18 11.0734 18 12.5C18 13.9266 17.6439 14.6195 17.1877 14.9846C16.7056 15.3702 15.9843 15.5 15 15.5H13.5Z" stroke="#3A3B3D"/>
</svg>
