<svg width="24" height="24" viewBox="0 0 24 24" fill="none" xmlns="http://www.w3.org/2000/svg">
<path d="M12 24C18.6274 24 24 18.6274 24 12C24 10.1474 23.5802 8.39288 22.8305 6.82633C22.1065 7.55142 21.1056 8 20 8C17.7909 8 16 6.20914 16 4C16 2.89437 16.4486 1.89351 17.1737 1.16949C15.6071 0.419809 13.8526 0 12 0C5.37258 0 0 5.37258 0 12C0 18.6274 5.37258 24 12 24Z" fill="#3A3B3D"/>
<path d="M8 11C8.55228 11 9 10.5523 9 10C9 9.44772 8.55228 9 8 9C7.44772 9 7 9.44772 7 10C7 10.5523 7.44772 11 8 11Z" fill="white"/>
<path d="M16 11C16.5523 11 17 10.5523 17 10C17 9.44772 16.5523 9 16 9C15.4477 9 15 9.44772 15 10C15 10.5523 15.4477 11 16 11Z" fill="white"/>
<path fill-rule="evenodd" clip-rule="evenodd" d="M0 12C0 5.37258 5.37258 0 12 0C13.8526 0 15.6071 0.419809 17.1737 1.16949C16.4486 1.89351 16 2.89437 16 4C16 6.20914 17.7909 8 20 8C21.1056 8 22.1065 7.55142 22.8305 6.82633C23.5802 8.39288 24 10.1474 24 12C24 18.6274 18.6274 24 12 24C5.37258 24 0 18.6274 0 12ZM8 12C9.10457 12 10 11.1046 10 10C10 8.89543 9.10457 8 8 8C6.89543 8 6 8.89543 6 10C6 11.1046 6.89543 12 8 12ZM16 12C17.1046 12 18 11.1046 18 10C18 8.89543 17.1046 8 16 8C14.8954 8 14 8.89543 14 10C14 11.1046 14.8954 12 16 12ZM10 15C10 14.4477 9.55228 14 9 14H7C6.44772 14 6 14.4477 6 15V17H5V15C5 13.8954 5.89543 13 7 13H9C10.1046 13 11 13.8954 11 15V17H10V15ZM17 14C17.5523 14 18 14.4477 18 15V17H19V15C19 13.8954 18.1046 13 17 13H15C13.8954 13 13 13.8954 13 15V17H14V15C14 14.4477 14.4477 14 15 14H17Z" fill="white"/>
<circle cx="20" cy="4" r="3" fill="#42BE65"/>
</svg>
