<svg width="24" height="24" viewBox="0 0 24 24" fill="none" xmlns="http://www.w3.org/2000/svg">
<path d="M4.96954 12.0799L3 9.90968C3.24235 9.68046 3.49294 9.4604 3.75125 9.25002L5.6879 11.384C5.43715 11.6035 5.19738 11.8358 4.96954 12.0799Z" fill="#3A3B3D"/>
<path d="M7.90454 9.92357L6.63058 7.46163C6.93453 7.3234 7.24438 7.19655 7.55961 7.08162L8.83178 9.54012C8.515 9.65194 8.2056 9.78008 7.90454 9.92357Z" fill="#3A3B3D"/>
<path d="M11.4949 9.00005V6.30957C11.6607 6.30324 11.8273 6.30005 11.9945 6.30005C12.162 6.30005 12.3289 6.30325 12.4949 6.3096V9.00005H11.4949Z" fill="#3A3B3D"/>
<path d="M15.1565 9.53955L16.4285 7.0813C16.7438 7.19621 17.0536 7.32303 17.3576 7.46125L16.0838 9.92285C15.7827 9.7794 15.4733 9.65131 15.1565 9.53955Z" fill="#3A3B3D"/>
<path d="M18.256 11.344L20.269 9.27557C20.527 9.48694 20.7772 9.70798 21.0191 9.93819L18.9783 12.0352C18.7491 11.7925 18.508 11.5618 18.256 11.344Z" fill="#3A3B3D"/>
<path d="M17.4695 14.5429C16.5308 12.4544 14.4323 11 11.9941 11C9.55586 11 7.45733 12.4544 6.51864 14.5429L5.71984 13.8926C6.86456 11.5857 9.24414 10 11.9941 10C14.744 10 17.1236 11.5857 18.2683 13.8926L17.4695 14.5429Z" fill="#3A3B3D"/>
<path fill-rule="evenodd" clip-rule="evenodd" d="M11.9941 17C13.0986 17 13.9941 16.1046 13.9941 15C13.9941 13.8954 13.0986 13 11.9941 13C10.8895 13 9.99408 13.8954 9.99408 15C9.99408 16.1046 10.8895 17 11.9941 17ZM11.9941 16C12.5464 16 12.9941 15.5523 12.9941 15C12.9941 14.4477 12.5464 14 11.9941 14C11.4418 14 10.9941 14.4477 10.9941 15C10.9941 15.5523 11.4418 16 11.9941 16Z" fill="#3A3B3D"/>
</svg>
