<svg width="24" height="24" viewBox="0 0 24 24" fill="none" xmlns="http://www.w3.org/2000/svg">
<path fill-rule="evenodd" clip-rule="evenodd" d="M12 0C5.37258 0 0 5.37258 0 12C0 18.6274 5.37258 24 12 24C18.6274 24 24 18.6274 24 12C24 10.1474 23.5802 8.39288 22.8305 6.82633C22.1065 7.55142 21.1056 8 20 8C17.7909 8 16 6.20914 16 4C16 2.89437 16.4486 1.89351 17.1737 1.16949C15.6071 0.419809 13.8526 0 12 0Z" fill="white"/>
<circle cx="20" cy="4" r="3" fill="#42BE65"/>
<circle cx="8" cy="10" r="1.5" stroke="#3A3B3D"/>
<circle cx="16" cy="10" r="1.5" stroke="#3A3B3D"/>
<path fill-rule="evenodd" clip-rule="evenodd" d="M7 14H9C9.55228 14 10 14.4477 10 15V17H11V15C11 13.8954 10.1046 13 9 13H7C5.89543 13 5 13.8954 5 15V17H6V15C6 14.4477 6.44772 14 7 14Z" fill="#3A3B3D"/>
<path fill-rule="evenodd" clip-rule="evenodd" d="M15 14H17C17.5523 14 18 14.4477 18 15V17H19V15C19 13.8954 18.1046 13 17 13H15C13.8954 13 13 13.8954 13 15V17H14V15C14 14.4477 14.4477 14 15 14Z" fill="#3A3B3D"/>
</svg>
