<svg width="24" height="24" viewBox="0 0 24 24" fill="none" xmlns="http://www.w3.org/2000/svg">
<rect width="24" height="24" rx="12" fill="white"/>
<path d="M10.3118 12.83H6.69176V16H5.75176V9H6.69176V11.97H10.3118V9H11.2518V16H10.3118V12.83ZM13.0514 9H15.2514C16.298 9 17.1014 9.28 17.6614 9.84C18.2214 10.3933 18.5014 11.18 18.5014 12.2V12.8C18.5014 13.3 18.428 13.75 18.2814 14.15C18.1347 14.5433 17.9214 14.88 17.6414 15.16C17.368 15.4333 17.028 15.6433 16.6214 15.79C16.2214 15.93 15.7647 16 15.2514 16H13.0514V9ZM13.9914 9.86V15.14H15.2514C15.998 15.14 16.5614 14.9467 16.9414 14.56C17.328 14.1733 17.5214 13.5867 17.5214 12.8V12.2C17.5214 11.4267 17.3247 10.8433 16.9314 10.45C16.5447 10.0567 15.9847 9.86 15.2514 9.86H13.9914Z" fill="#3A3B3D"/>
</svg>
