<svg width="24" height="24" viewBox="0 0 24 24" fill="none" xmlns="http://www.w3.org/2000/svg">
<path fill-rule="evenodd" clip-rule="evenodd" d="M10 10C10 11.1046 9.10457 12 8 12C6.89543 12 6 11.1046 6 10C6 8.89543 6.89543 8 8 8C9.10457 8 10 8.89543 10 10ZM9 10C9 10.5523 8.55228 11 8 11C7.44772 11 7 10.5523 7 10C7 9.44772 7.44772 9 8 9C8.55228 9 9 9.44772 9 10Z" fill="#3A3B3D"/>
<path fill-rule="evenodd" clip-rule="evenodd" d="M18 10C18 11.1046 17.1046 12 16 12C14.8954 12 14 11.1046 14 10C14 8.89543 14.8954 8 16 8C17.1046 8 18 8.89543 18 10ZM17 10C17 10.5523 16.5523 11 16 11C15.4477 11 15 10.5523 15 10C15 9.44772 15.4477 9 16 9C16.5523 9 17 9.44772 17 10Z" fill="#3A3B3D"/>
<path d="M9 14C9.55228 14 10 14.4477 10 15V17H11V15C11 13.8954 10.1046 13 9 13H7C5.89543 13 5 13.8954 5 15V17H6V15C6 14.4477 6.44772 14 7 14H9Z" fill="#3A3B3D"/>
<path d="M18 15C18 14.4477 17.5523 14 17 14H15C14.4477 14 14 14.4477 14 15V17H13V15C13 13.8954 13.8954 13 15 13H17C18.1046 13 19 13.8954 19 15V17H18V15Z" fill="#3A3B3D"/>
</svg>
