<svg width="24" height="24" viewBox="0 0 24 24" fill="none" xmlns="http://www.w3.org/2000/svg">
<rect width="24" height="24" rx="12" fill="white"/>
<circle cx="12" cy="15" r="1.5" stroke="#3A3B3D"/>
<path fill-rule="evenodd" clip-rule="evenodd" d="M17.4754 14.5429C16.5368 12.4544 14.4382 11 12 11C9.56178 11 7.46325 12.4544 6.52456 14.5429L5.72576 13.8926C6.87048 11.5857 9.25006 10 12 10C14.7499 10 17.1295 11.5857 18.2742 13.8926L17.4754 14.5429Z" fill="#3A3B3D"/>
<path fill-rule="evenodd" clip-rule="evenodd" d="M3.00592 9.90968L4.97546 12.0799C5.2033 11.8358 5.44307 11.6035 5.69382 11.384L3.75717 9.25002C3.49886 9.4604 3.24827 9.68046 3.00592 9.90968ZM6.6365 7.46163L7.91046 9.92357C8.21152 9.78008 8.52092 9.65194 8.8377 9.54012L7.56553 7.08162C7.2503 7.19655 6.94045 7.3234 6.6365 7.46163ZM11.5009 6.30957V9.00005H12.0009H12.5009V6.3096C12.3348 6.30325 12.1679 6.30005 12.0004 6.30005C11.8332 6.30005 11.6666 6.30324 11.5009 6.30957ZM16.4344 7.0813L15.1624 9.53955C15.4792 9.65131 15.7886 9.7794 16.0897 9.92285L17.3635 7.46125C17.0595 7.32303 16.7497 7.19621 16.4344 7.0813ZM20.275 9.27557L18.2619 11.344C18.5139 11.5618 18.755 11.7925 18.9842 12.0352L21.025 9.93819C20.7831 9.70798 20.5329 9.48694 20.275 9.27557Z" fill="#3A3B3D"/>
</svg>
