<svg width="20" height="20" viewBox="0 0 20 20" fill="none" xmlns="http://www.w3.org/2000/svg">
<path d="M6.72816 14.7058C6.88575 15.4901 6.53905 17.247 3.89154 17.9999" stroke="#3A3B3D"/>
<path d="M17.6638 7.52699C18.0853 8.82696 17.7741 10.2672 16.855 11.562C15.9358 12.8569 14.4246 13.9762 12.5294 14.5851C10.6341 15.1939 8.75062 15.1651 7.24438 14.6493C5.73824 14.1336 4.63996 13.1462 4.21848 11.8462C3.79699 10.5462 4.10816 9.10601 5.02727 7.8112C5.94645 6.5163 7.45768 5.39694 9.35292 4.78811C11.2482 4.17928 13.1317 4.20811 14.6379 4.72387C16.1441 5.23959 17.2423 6.22701 17.6638 7.52699Z" stroke="#3A3B3D"/>
<path d="M6.22816 15.6471C6.22816 16.1485 5.8192 16.5589 5.30985 16.5589C4.8005 16.5589 4.39154 16.1485 4.39154 15.6471C4.39154 15.1457 4.8005 14.7354 5.30985 14.7354C5.8192 14.7354 6.22816 15.1457 6.22816 15.6471Z" stroke="#3A3B3D"/>
</svg>
