<svg width="20" height="20" viewBox="0 0 20 20" fill="none" xmlns="http://www.w3.org/2000/svg">
<path fill-rule="evenodd" clip-rule="evenodd" d="M11.9433 14.0728C15.8809 12.6397 18.2193 9.1323 17.1661 6.23892C16.113 3.34554 12.0673 2.1618 8.12967 3.59497C4.19207 5.02814 1.85373 8.5355 2.90683 11.4289C3.14832 12.0924 3.54718 12.666 4.06601 13.1387C3.43942 13.405 3.00002 14.0262 3.00002 14.75C3.00002 15.7165 3.78352 16.5 4.75002 16.5C4.77954 16.5 4.80889 16.4993 4.83805 16.4978C4.40165 16.9728 3.77993 17.2896 2.87875 17.5149L3.12128 18.4851C4.17529 18.2216 5.03723 17.8089 5.66305 17.0742C6.21801 16.4227 6.54453 15.5682 6.70485 14.4689C8.26812 14.8393 10.1173 14.7374 11.9433 14.0728ZM15.5942 10.1487C16.4097 8.92549 16.6182 7.65718 16.2265 6.58094C15.8347 5.5047 14.8598 4.66709 13.4488 4.25425C12.0384 3.84158 10.2613 3.88331 8.47169 4.53466C6.68212 5.18601 5.29396 6.29633 4.47878 7.51906C3.66324 8.74231 3.45481 10.0106 3.84653 11.0869C4.23824 12.1631 5.21317 13.0007 6.6242 13.4136C8.03462 13.8262 9.81171 13.7845 11.6013 13.1331C13.3909 12.4818 14.779 11.3715 15.5942 10.1487ZM4.75002 15.5C5.16423 15.5 5.50002 15.1642 5.50002 14.75C5.50002 14.3358 5.16423 14 4.75002 14C4.3358 14 4.00002 14.3358 4.00002 14.75C4.00002 15.1642 4.3358 15.5 4.75002 15.5Z" fill="#3A3B3D"/>
</svg>
