<svg width="20" height="20" viewBox="0 0 20 20" fill="none" xmlns="http://www.w3.org/2000/svg">
<path fill-rule="evenodd" clip-rule="evenodd" d="M12.6836 15.0606C16.6593 13.7834 19.1022 10.342 18.1399 7.37398C17.1775 4.40595 13.1744 3.03523 9.19871 4.3124C5.22297 5.58957 2.78012 9.03098 3.74244 11.999C4.03558 12.9032 4.6109 13.6591 5.38166 14.2371C5.35787 14.2359 5.33393 14.2353 5.30985 14.2353C4.52654 14.2353 3.89154 14.8673 3.89154 15.647C3.89154 16.3065 4.34579 16.8603 4.95982 17.0155C4.64068 17.2061 4.24485 17.3795 3.75477 17.5189L4.02831 18.4808C5.44921 18.0767 6.31014 17.3842 6.78476 16.6311C7.10072 16.1298 7.23493 15.6174 7.25683 15.1788C8.84273 15.6766 10.7663 15.6765 12.6836 15.0606ZM16.4465 11.2724C17.2974 10.0738 17.5496 8.79576 17.1878 7.67983C16.826 6.5639 15.8708 5.67374 14.4765 5.19633C13.0821 4.71885 11.3098 4.68457 9.50713 5.26365C7.70451 5.84272 6.2867 6.9018 5.43575 8.10059C4.58492 9.29922 4.3327 10.5772 4.69452 11.6932C5.05633 12.8091 6.01153 13.6993 7.40578 14.1767C8.80023 14.6541 10.5725 14.6884 12.3752 14.1093C14.1778 13.5303 15.5956 12.4712 16.4465 11.2724ZM5.72816 15.647C5.72816 15.8701 5.54525 16.0588 5.30985 16.0588C5.07446 16.0588 4.89154 15.8701 4.89154 15.647C4.89154 15.424 5.07446 15.2353 5.30985 15.2353C5.54525 15.2353 5.72816 15.424 5.72816 15.647Z" fill="#3A3B3D"/>
</svg>
