<svg width="30" height="30" viewBox="0 0 30 30" fill="none" xmlns="http://www.w3.org/2000/svg">
<path d="M15 29V24.9871C15.1656 24.9957 15.3323 25 15.5 25C15.6677 25 15.8344 24.9957 16 24.9871V29H15Z" fill="black"/>
<path d="M15.5 6C15.3323 6 15.1656 6.00435 15 6.01293V2H16V6.01293C15.8344 6.00435 15.6677 6 15.5 6Z" fill="black"/>
<path fill-rule="evenodd" clip-rule="evenodd" d="M15.5 23C19.6421 23 23 19.6421 23 15.5C23 11.3579 19.6421 8 15.5 8C11.3579 8 8 11.3579 8 15.5C8 19.6421 11.3579 23 15.5 23ZM15.5 22C19.0899 22 22 19.0899 22 15.5C22 11.9101 19.0899 9 15.5 9C11.9101 9 9 11.9101 9 15.5C9 19.0899 11.9101 22 15.5 22Z" fill="black"/>
<path d="M24.9871 16C24.9957 15.8344 25 15.6677 25 15.5C25 15.3323 24.9957 15.1656 24.9871 15H29V16H24.9871Z" fill="black"/>
<path d="M6.01293 16H2V15H6.01293C6.00435 15.1656 6 15.3323 6 15.5C6 15.6677 6.00435 15.8344 6.01293 16Z" fill="black"/>
<path d="M8.43814 21.8548L5.60046 24.6924L6.30757 25.3995L9.14525 22.5619C8.89739 22.3387 8.66133 22.1026 8.43814 21.8548Z" fill="black"/>
<path d="M21.8547 8.43824C22.1025 8.66143 22.3386 8.89748 22.5618 9.14534L25.3995 6.30766L24.6923 5.60056L21.8547 8.43824Z" fill="black"/>
<path d="M25.3996 24.6925L22.5619 21.8548C22.3387 22.1027 22.1027 22.3387 21.8548 22.5619L24.6925 25.3996L25.3996 24.6925Z" fill="black"/>
<path d="M6.30769 5.60059L9.14537 8.43827C8.89751 8.66146 8.66146 8.89751 8.43827 9.14537L5.60059 6.30769L6.30769 5.60059Z" fill="black"/>
</svg>
