<svg width="30" height="30" viewBox="0 0 30 30" fill="none" xmlns="http://www.w3.org/2000/svg">
<path d="M15 29V24.9871C15.1656 24.9957 15.3323 25 15.5 25C15.6677 25 15.8344 24.9957 16 24.9871V29H15Z" fill="black"/>
<path d="M15.5 6C15.3323 6 15.1656 6.00435 15 6.01293V2H16V6.01293C15.8344 6.00435 15.6677 6 15.5 6Z" fill="black"/>
<path fill-rule="evenodd" clip-rule="evenodd" d="M15.5 21C18.5376 21 21 18.5376 21 15.5C21 12.4624 18.5376 10 15.5 10C12.4624 10 10 12.4624 10 15.5C10 18.5376 12.4624 21 15.5 21ZM15.5 20C17.9853 20 20 17.9853 20 15.5C20 13.0147 17.9853 11 15.5 11C13.0147 11 11 13.0147 11 15.5C11 17.9853 13.0147 20 15.5 20Z" fill="black"/>
<path d="M24.9871 16C24.9957 15.8344 25 15.6677 25 15.5C25 15.3323 24.9957 15.1656 24.9871 15H29V16H24.9871Z" fill="black"/>
<path d="M6.01293 16H2V15H6.01293C6.00435 15.1656 6 15.3323 6 15.5C6 15.6677 6.00435 15.8344 6.01293 16Z" fill="black"/>
<path d="M8.43819 21.8548L5.60051 24.6924L6.30762 25.3995L9.1453 22.5619C8.89743 22.3387 8.66138 22.1026 8.43819 21.8548Z" fill="black"/>
<path d="M21.8547 8.43824C22.1026 8.66143 22.3386 8.89748 22.5618 9.14534L25.3995 6.30766L24.6924 5.60056L21.8547 8.43824Z" fill="black"/>
<path d="M25.3995 24.6925L22.5618 21.8548C22.3386 22.1027 22.1026 22.3387 21.8547 22.5619L24.6924 25.3996L25.3995 24.6925Z" fill="black"/>
<path d="M6.30763 5.60059L9.14531 8.43827C8.89745 8.66146 8.66139 8.89751 8.4382 9.14537L5.60052 6.30769L6.30763 5.60059Z" fill="black"/>
</svg>
