<svg width="10" height="10" viewBox="0 0 10 10" fill="none" xmlns="http://www.w3.org/2000/svg">
<path fill-rule="evenodd" clip-rule="evenodd" d="M2.18923 7.86368C2.97069 8.63949 4.2331 8.63774 5.0124 7.85844L5.55259 7.31825C5.16594 7.29684 4.78264 7.20096 4.42602 7.03061L4.30529 7.15134C3.91477 7.54186 3.2816 7.54186 2.89108 7.15134C2.50055 6.76081 2.50055 6.12765 2.89108 5.73712L3.59819 5.03002C3.91747 4.71074 4.39893 4.65249 4.77739 4.85528L5.4999 4.13277C4.71669 3.54806 3.60255 3.61144 2.89108 4.32291L2.18397 5.03002C1.60964 5.60435 1.45763 6.44109 1.72796 7.15433C1.82526 7.41101 1.97725 7.65169 2.18395 7.85838L2.18924 7.86366L2.18923 7.86368ZM5.59878 3.02934L5.7195 2.90862C6.11003 2.51809 6.74319 2.51809 7.13372 2.90862C7.52424 3.29914 7.52424 3.93231 7.13372 4.32283L6.42661 5.02994C6.0967 5.35985 5.59362 5.41105 5.20996 5.18355L4.49167 5.90184C5.27633 6.51357 6.41213 6.45863 7.13372 5.73704L7.84082 5.02994C8.07624 4.79452 8.24071 4.51501 8.33421 4.21799C8.55021 3.53179 8.38747 2.75214 7.846 2.20675L7.84602 2.20673C7.8443 2.20499 7.84256 2.20325 7.84082 2.20151C7.05978 1.42046 5.79345 1.42046 5.0124 2.20151L4.47222 2.74168C4.85887 2.7631 5.24217 2.85899 5.59878 3.02934Z" fill="#3A3B3D"/>
</svg>
