<svg width="10" height="10" viewBox="0 0 10 10" fill="none" xmlns="http://www.w3.org/2000/svg">
<path fill-rule="evenodd" clip-rule="evenodd" d="M5.00001 7.82835L4.29291 8.53546C3.51186 9.31651 2.24553 9.31651 1.46448 8.53546C0.683432 7.75441 0.683432 6.48808 1.46448 5.70703L2.87869 4.29282C3.53766 3.63385 4.54206 3.53085 5.30901 3.98382L4.55186 4.74097C4.21825 4.65188 3.84753 4.7382 3.5858 4.99993L2.17159 6.41414C1.78106 6.80466 1.78106 7.43783 2.17159 7.82835C2.56211 8.21888 3.19528 8.21888 3.5858 7.82835L4.29291 7.12125L5.00001 7.82835Z" fill="#3A3B3D"/>
<path fill-rule="evenodd" clip-rule="evenodd" d="M4.99999 2.17152L5.70709 1.46442C6.48814 0.683369 7.75447 0.683369 8.53552 1.46442C9.31657 2.24547 9.31657 3.5118 8.53552 4.29284L7.12131 5.70706C6.46234 6.36603 5.45794 6.46903 4.69099 6.01606L5.44814 5.25891C5.78175 5.348 6.15247 5.26168 6.4142 4.99995L7.82841 3.58574C8.21894 3.19521 8.21894 2.56205 7.82841 2.17152C7.43789 1.781 6.80472 1.781 6.4142 2.17152L5.70709 2.87863L4.99999 2.17152Z" fill="#3A3B3D"/>
</svg>
