<svg width="25" height="25" viewBox="0 0 25 25" fill="none" xmlns="http://www.w3.org/2000/svg">
<path fill-rule="evenodd" clip-rule="evenodd" d="M7.04617 11.595L7.76151 12.3103L4.02858 16.0433C2.67454 17.3973 2.67163 19.6043 4.02865 20.9728C5.38272 22.3261 7.58845 22.3281 8.95674 20.9714L8.9575 20.9707L8.9587 20.9695L12.6897 17.2385C14.0439 15.8842 14.046 13.6774 12.6883 12.3089L13.4064 11.5964C15.1539 13.3577 15.1559 16.203 13.405 17.9538L9.67208 21.6868C9.67042 21.6884 9.67133 21.6875 9.67133 21.6875L9.67001 21.6888C7.90868 23.4363 5.06348 23.4383 3.31259 21.6874L3.31117 21.686C1.56372 19.9247 1.56169 17.0795 3.31259 15.3286L7.04617 11.595Z" fill="#3A3B3D"/>
<path fill-rule="evenodd" clip-rule="evenodd" d="M14.33 4.31117C16.0913 2.56372 18.9365 2.5617 20.6874 4.31258L20.6888 4.314C22.4363 6.07532 22.4383 8.92052 20.6874 10.6714L16.9538 14.405L16.2385 13.6897L19.9714 9.95673C21.3254 8.60271 21.3284 6.39578 19.9714 5.02725C18.6173 3.67386 16.4114 3.67186 15.0431 5.02871L11.3103 8.7615C9.95606 10.1158 9.95404 12.3226 11.3117 13.6911L10.5936 14.4036C8.84613 12.6423 8.8441 9.79705 10.595 8.04616L14.3279 4.31324C14.3279 4.31324 14.3286 4.31258 14.6862 4.67025L14.3279 4.31324L14.33 4.31117Z" fill="#3A3B3D"/>
</svg>
