<svg width="15" height="15" viewBox="0 0 15 15" fill="none" xmlns="http://www.w3.org/2000/svg">
<path d="M11.0996 1.50014C10.1914 1.49181 9.32183 1.86045 8.67688 2.5176L7.66378 3.58009C7.47322 3.77995 7.48077 4.09644 7.68063 4.287C7.88049 4.47755 8.19698 4.47001 8.38753 4.27015L9.393 3.21559C9.85315 2.74802 10.463 2.49434 11.0904 2.5001C11.7189 2.50586 12.3259 2.77163 12.7788 3.24946C13.2326 3.72815 13.4942 4.38104 13.4999 5.06876C13.5056 5.75507 13.2557 6.4116 12.8114 6.89853L11.0562 8.75021C10.8084 9.01175 10.5119 9.2122 10.1877 9.33976C9.86365 9.46729 9.5184 9.51947 9.17493 9.49352C8.83144 9.46757 8.49599 9.36394 8.19126 9.1883C7.88643 9.0126 7.61881 8.76853 7.40788 8.47104C7.24815 8.24577 6.93606 8.19264 6.7108 8.35236C6.48553 8.51208 6.4324 8.82418 6.59212 9.04944C6.88458 9.46192 7.25921 9.8053 7.6919 10.0547C8.1247 10.3041 8.60481 10.4533 9.09959 10.4907C9.5944 10.5281 10.0905 10.4527 10.5539 10.2703C11.0171 10.088 11.4357 9.80351 11.7821 9.43803L13.5403 7.58324L13.5462 7.57685C14.1677 6.89795 14.5076 5.99396 14.4999 5.06053C14.4922 4.12709 14.1375 3.2292 13.5046 2.56151C12.8708 1.89295 12.0078 1.50846 11.0996 1.50014Z" fill="#7E818E"/>
<path d="M6.9004 5.50932C6.4056 5.47193 5.90947 5.54735 5.4461 5.7297C4.98286 5.912 4.56427 6.19649 4.21794 6.56197L2.45968 8.41676L2.45382 8.42315C1.83229 9.10205 1.49244 10.006 1.50013 10.9395C1.50782 11.8729 1.86252 12.7708 2.49543 13.4385C3.12916 14.1071 3.99221 14.4915 4.9004 14.4999C5.80863 14.5082 6.67823 14.1396 7.32317 13.4825L8.33136 12.4189C8.52133 12.2184 8.51287 11.902 8.31246 11.712C8.11204 11.522 7.79557 11.5305 7.6056 11.7309L6.60651 12.7849C6.14642 13.2522 5.53673 13.5057 4.90957 13.4999C4.28106 13.4941 3.67412 13.2284 3.22119 12.7505C2.76744 12.2719 2.50576 11.619 2.50009 10.9312C2.49444 10.2449 2.74428 9.5884 3.18861 9.10147L4.94382 7.24979C5.19164 6.98825 5.48814 6.7878 5.81229 6.66024C6.13634 6.53271 6.4816 6.48053 6.82507 6.50648C7.16856 6.53243 7.50401 6.63606 7.80873 6.8117C8.11357 6.9874 8.38119 7.23147 8.59212 7.52896C8.75184 7.75423 9.06394 7.80736 9.2892 7.64764C9.51446 7.48792 9.5676 7.17583 9.40788 6.95056C9.11542 6.53809 8.74079 6.1947 8.3081 5.94531C7.8753 5.69585 7.39519 5.5467 6.9004 5.50932Z" fill="#7E818E"/>
</svg>
