<svg width="25" height="25" viewBox="0 0 25 25" fill="none" xmlns="http://www.w3.org/2000/svg">
<path d="M13 6L11 3H3V6H4V4H10.4648L12.4648 7H23.395L22.095 20H4V18H3V21H23L24.5 6H13Z" fill="#3A3B3D"/>
<path d="M7.88909 8.64648L11.7782 12.5356L7.88909 16.4247L7.18198 15.7176L9.89953 13H1V12H9.82839L7.18198 9.35359L7.88909 8.64648Z" fill="#3A3B3D"/>
<path d="M13 6L11 3H3V6H4V4H10.4648L12.4648 7H23.395L22.095 20H4V18H3V21H23L24.5 6H13Z" stroke="#3A3B3D"/>
<path d="M7.88909 8.64648L11.7782 12.5356L7.88909 16.4247L7.18198 15.7176L9.89953 13H1V12H9.82839L7.18198 9.35359L7.88909 8.64648Z" stroke="#3A3B3D"/>
</svg>
