<svg width="25" height="25" viewBox="0 0 25 25" fill="none" xmlns="http://www.w3.org/2000/svg">
<path d="M17 19.5V20.0734C17 21.3352 15.8848 22.3669 14.5 22.3669C13.1152 22.3669 12 21.3438 12 20.0734V19.5M22.4298 16.0116C22.2327 15.9858 22.092 15.8308 22.0732 15.65C21.9981 15.1162 21.8761 13.8937 21.848 11.4573C21.8198 8.41817 20.2245 5.54266 16.5552 4.77643C16.3393 4.73338 16.1798 4.5612 16.1798 4.36318V3.5453C16.1798 2.8135 15.6355 2.14198 14.8566 2.02144C13.8525 1.86648 12.9891 2.57244 12.9891 3.4592V4.35457C12.9891 4.55259 12.8296 4.72477 12.6231 4.76782C9.07582 5.52544 7.18017 8.40095 7.15202 11.4573C7.13325 13.8937 7.00187 15.1162 6.9268 15.65C6.89864 15.8308 6.75788 15.9858 6.57019 16.0116C5.55667 16.158 4.81531 17.0619 5.04053 18.0692C5.21884 18.8785 6.07282 19.4295 6.97372 19.4295H22.0263C22.9272 19.4295 23.7812 18.8871 23.9595 18.0692C24.1847 17.0619 23.4433 16.158 22.4298 16.0116Z" stroke="#3A3B3D" stroke-miterlimit="10"/>
</svg>
