<svg width="25" height="25" viewBox="0 0 25 25" fill="none" xmlns="http://www.w3.org/2000/svg">
<path d="M15 20.5V21C15 22.2391 13.8807 23.5 12.5 23.5C11.1193 23.5 10 22.2475 10 21V20.5M20.9298 17.1492C20.7327 17.1239 20.592 16.9717 20.5732 16.7942C20.4981 16.27 20.4167 14.0695 20.3885 11.6769C20.3604 8.6926 18.4654 5.86043 14.7961 5.108C14.5803 5.06573 14.5 4.89665 14.5 4.7022V3.82296C14.5 2.99998 13.5568 1.99211 12.5 1.99998C11.4517 2.00779 10.5297 2.95217 10.5297 3.82296V4.7022C10.5297 4.89665 10.3701 5.06573 10.1637 5.108C6.61638 5.85198 4.72074 8.67569 4.69258 11.6769C4.67382 14.0695 4.50187 16.27 4.4268 16.7942C4.39864 16.9717 4.25788 17.1239 4.07019 17.1492C3.05667 17.2929 2.31531 18.1806 2.54053 19.1698C2.71884 19.9645 3.57282 20.5056 4.47372 20.5056H20.5263C21.4272 20.5056 22.2812 19.9729 22.4595 19.1698C22.6847 18.1806 21.9433 17.2929 20.9298 17.1492Z" stroke="#3A3B3D" stroke-miterlimit="10"/>
</svg>
