<svg width="25" height="25" viewBox="0 0 25 25" fill="none" xmlns="http://www.w3.org/2000/svg">
<path d="M15 19.5V20.0734C15 21.3352 13.8848 22.3669 12.5 22.3669C11.1152 22.3669 10 21.3438 10 20.0734V19.5M20.4298 16.0116C20.2327 15.9858 20.092 15.8308 20.0732 15.65C19.9981 15.1162 19.8761 13.8937 19.848 11.4573C19.8198 8.41817 18.2245 5.54266 14.5552 4.77643C14.3393 4.73338 14.1798 4.5612 14.1798 4.36318V3.5453C14.1798 2.8135 13.6355 2.14198 12.8566 2.02144C11.8525 1.86648 10.9891 2.57244 10.9891 3.4592V4.35457C10.9891 4.55259 10.8296 4.72477 10.6231 4.76782C7.07582 5.52544 5.18017 8.40095 5.15202 11.4573C5.13325 13.8937 5.00187 15.1162 4.9268 15.65C4.89864 15.8308 4.75788 15.9858 4.57019 16.0116C3.55667 16.158 2.81531 17.0619 3.04053 18.0692C3.21884 18.8785 4.07282 19.4295 4.97372 19.4295H20.0263C20.9272 19.4295 21.7812 18.8871 21.9595 18.0692C22.1847 17.0619 21.4433 16.158 20.4298 16.0116Z" stroke="#3A3B3D" stroke-miterlimit="10"/>
</svg>
