<svg width="21" height="18" viewBox="0 0 21 18" fill="none" xmlns="http://www.w3.org/2000/svg">
<path d="M10.2936 17.4347L10.061 17.8779L10.2936 18L10.5263 17.8779L10.2936 17.4347ZM15.7589 8.3788L16.2594 8.37882L16.2595 8.07721L15.9928 7.93628L15.7589 8.3788ZM4.82819 8.3788L4.59667 7.93505L4.32767 8.0754L4.32768 8.37881L4.82819 8.3788ZM10.8291 5.50901V0H9.82807V5.50901H10.8291ZM4.56185 14.1418L7.7565e-07 17.0113L0.532986 17.8587L5.09484 14.9892L4.56185 14.1418ZM15.4907 14.9883L20.019 17.8578L20.5548 17.0122L16.0265 14.1427L15.4907 14.9883ZM15.5259 14.1224L10.061 16.9916L10.5263 17.8779L15.9913 15.0087L15.5259 14.1224ZM10.7941 17.4347V11.2478H9.7931V17.4347H10.7941ZM10.5262 11.6909L15.9916 8.82196L15.5263 7.93564L10.061 10.8046L10.5262 11.6909ZM15.2584 8.37877L15.2581 14.5655L16.2591 14.5655L16.2594 8.37882L15.2584 8.37877ZM10.5263 16.9916L5.06099 14.1224L4.59569 15.0087L10.061 17.8779L10.5263 16.9916ZM5.32885 14.5655L5.3287 8.37878L4.32768 8.37881L4.32783 14.5655L5.32885 14.5655ZM4.59556 8.82196L10.061 11.6909L10.5262 10.8046L5.06082 7.93563L4.59556 8.82196ZM10.0971 5.06527L4.59667 7.93505L5.05971 8.82254L10.5601 5.95276L10.0971 5.06527ZM15.9928 7.93628L10.5624 5.0665L10.0947 5.95153L15.5251 8.82131L15.9928 7.93628Z" fill="#3A3B3D"/>
</svg>
