<svg width="15" height="15" viewBox="0 0 15 15" fill="none" xmlns="http://www.w3.org/2000/svg">
<path fill-rule="evenodd" clip-rule="evenodd" d="M7.38203 13.0702C10.4584 13.1354 13.005 10.6944 13.0702 7.61803C13.1354 4.54171 10.6944 1.99502 7.61803 1.92985C4.54171 1.86468 1.99502 4.3057 1.92985 7.38203C1.86468 10.4584 4.3057 13.005 7.38203 13.0702ZM13.9986 7.6377C13.9225 11.2267 10.9514 14.0746 7.36236 13.9986C3.77332 13.9225 0.925455 10.9514 1.00149 7.36236C1.07752 3.77332 4.04865 0.925455 7.6377 1.00149C11.2267 1.07752 14.0746 4.04865 13.9986 7.6377Z" fill="#3A3B3D"/>
<path d="M5.49992 6.86588C5.0217 7.14198 4.41022 6.97813 4.13412 6.49992C3.85802 6.0217 4.02187 5.41022 4.50008 5.13412C4.9783 4.85802 5.58978 5.02187 5.86588 5.50008C6.14198 5.9783 5.97813 6.58978 5.49992 6.86588Z" fill="#3A3B3D"/>
</svg>
