<svg width="15" height="15" viewBox="0 0 15 15" fill="none" xmlns="http://www.w3.org/2000/svg">
<path fill-rule="evenodd" clip-rule="evenodd" d="M7.38203 13.0702C10.4584 13.1354 13.005 10.6944 13.0702 7.61803C13.1354 4.54171 10.6944 1.99502 7.61803 1.92985C4.54171 1.86468 1.99502 4.3057 1.92985 7.38203C1.86468 10.4584 4.3057 13.005 7.38203 13.0702ZM13.9986 7.6377C13.9225 11.2267 10.9514 14.0746 7.36236 13.9986C3.77332 13.9225 0.925455 10.9514 1.00149 7.36236C1.07752 3.77332 4.04865 0.925455 7.6377 1.00149C11.2267 1.07752 14.0746 4.04865 13.9986 7.6377Z" fill="#C3C5CB"/>
<path d="M5.49992 6.86588C5.0217 7.14198 4.41022 6.97813 4.13412 6.49992C3.85802 6.0217 4.02187 5.41022 4.50008 5.13412C4.9783 4.85802 5.58978 5.02187 5.86588 5.50008C6.14198 5.9783 5.97813 6.58978 5.49992 6.86588Z" fill="#3A3B3D"/>
<path fill-rule="evenodd" clip-rule="evenodd" d="M13.76 9.24988C13.4901 10.2156 13.0004 11.1058 12.3292 11.8507C11.658 12.5957 10.8236 13.1753 9.89119 13.5442C8.95877 13.9131 7.95366 14.0612 6.95446 13.9771C5.95527 13.8929 4.98909 13.5787 4.13152 13.0591L4.61273 12.2649C5.3478 12.7103 6.17595 12.9796 7.0324 13.0518C7.88885 13.1239 8.75038 12.9969 9.54959 12.6807C10.3488 12.3646 11.064 11.8678 11.6393 11.2292C12.2146 10.5906 12.6344 9.82765 12.8658 8.99989C13.0971 8.17214 13.1339 7.30208 12.9731 6.45777C12.8123 5.61345 12.4584 4.81779 11.939 4.13301C11.4195 3.44823 10.7487 2.89291 9.97902 2.51048C9.20931 2.12805 8.36155 1.92889 7.50206 1.92857L7.5024 1C8.50514 1.00037 9.49419 1.23272 10.3922 1.67889C11.2902 2.12506 12.0728 2.77293 12.6788 3.57184C13.2848 4.37075 13.6977 5.29903 13.8853 6.28406C14.0728 7.26909 14.03 8.28416 13.76 9.24988Z" fill="#3A3B3D"/>
</svg>
