<svg width="21" height="20" viewBox="0 0 21 20" fill="none" xmlns="http://www.w3.org/2000/svg">
<path d="M10.2831 17.4169L10.0507 17.8596L10.2831 17.9817L10.5155 17.8596L10.2831 17.4169ZM15.7429 8.37026L16.2429 8.37029L16.2429 8.06898L15.9765 7.9282L15.7429 8.37026ZM4.82327 8.37026L4.59198 7.92697L4.32326 8.06717L4.32327 8.37027L4.82327 8.37026ZM10.8181 5.5034V0H9.81806V5.5034H10.8181ZM4.5572 14.1274L-1.13249e-06 16.994L0.532441 17.8405L5.08964 14.9739L4.5572 14.1274ZM15.4749 14.973L19.9986 17.8396L20.5338 16.9949L16.0102 14.1283L15.4749 14.973ZM15.5101 14.108L10.0507 16.9743L10.5155 17.8596L15.975 14.9934L15.5101 14.108ZM10.7831 17.4169V11.2363H9.78313V17.4169H10.7831ZM10.5155 11.679L15.9753 8.81297L15.5105 7.92755L10.0507 10.7936L10.5155 11.679ZM15.2429 8.37023L15.2425 14.5506L16.2425 14.5507L16.2429 8.37029L15.2429 8.37023ZM10.5155 16.9742L5.05584 14.108L4.59101 14.9934L10.0507 17.8596L10.5155 16.9742ZM5.32342 14.5507L5.32327 8.37025L4.32327 8.37027L4.32342 14.5507L5.32342 14.5507ZM4.59087 8.81297L10.0507 11.679L10.5155 10.7936L5.05566 7.92755L4.59087 8.81297ZM10.0868 5.06011L4.59198 7.92697L5.05455 8.81355L10.5493 5.94669L10.0868 5.06011ZM15.9765 7.9282L10.5517 5.06133L10.0844 5.94547L15.5093 8.81233L15.9765 7.9282Z" fill="#3A3B3D"/>
</svg>
