<svg width="20" height="20" viewBox="0 0 20 20" fill="none" xmlns="http://www.w3.org/2000/svg">
<path d="M1.29298 1.70703L16.293 16.707L16.5304 16.4696L15.4697 17.5303L8.57677 10.6373C7.23387 10.9123 6.03631 11.5861 5.11263 12.5307L4.05194 11.47C4.96203 10.5433 6.08998 9.83004 7.35291 9.41347L4.86297 6.92352C3.7735 7.5891 2.82466 8.46268 2.07149 9.48946L1.00006 8.41807C1.772 7.40955 2.71113 6.53525 3.7761 5.83666L0.469727 2.53029L1.29298 1.70703Z" fill="black"/>
<path d="M6.84513 4.43075C7.82796 4.15021 8.86579 3.99996 9.93873 3.99996C13.5832 3.99996 16.8224 5.73338 18.8773 8.41794L17.8059 9.48935C16.0306 7.06908 13.1678 5.49996 9.93873 5.49996C9.30644 5.49996 8.6882 5.56012 8.08943 5.67505L6.84513 4.43075Z" fill="black"/>
<path d="M14.8548 12.4404L15.8254 11.4699C14.6932 10.317 13.2239 9.49467 11.5771 9.16272L14.8548 12.4404Z" fill="black"/>
<path d="M9.93866 16.75C10.7671 16.75 11.4387 16.0784 11.4387 15.25C11.4387 14.4215 10.7671 13.75 9.93866 13.75C9.11023 13.75 8.43866 14.4215 8.43866 15.25C8.43866 16.0784 9.11023 16.75 9.93866 16.75Z" fill="black"/>
</svg>
