<svg width="20" height="20" viewBox="0 0 20 20" fill="none" xmlns="http://www.w3.org/2000/svg">
<path d="M1.29298 1.70715L16.293 16.7071L16.5304 16.4697L15.4697 17.5304L8.57677 10.6375C7.23387 10.9125 6.03631 11.5863 5.11263 12.5308L4.05194 11.4701C4.96203 10.5434 6.08998 9.83016 7.35291 9.41359L4.86297 6.92365C3.7735 7.58922 2.82466 8.4628 2.07149 9.48958L1.00006 8.41819C1.772 7.40967 2.71113 6.53538 3.7761 5.83678L0.469727 2.53041L1.29298 1.70715Z" fill="black"/>
<path d="M6.84513 4.43087C7.82796 4.15033 8.86579 4.00008 9.93873 4.00008C13.5832 4.00008 16.8224 5.7335 18.8773 8.41807L17.8059 9.48948C16.0306 7.0692 13.1678 5.50008 9.93873 5.50008C9.30644 5.50008 8.6882 5.56024 8.08943 5.67517L6.84513 4.43087Z" fill="black"/>
<path d="M14.8548 12.4405L15.8254 11.47C14.6932 10.3172 13.2239 9.49479 11.5771 9.16285L14.8548 12.4405Z" fill="black"/>
<path d="M9.93866 16.7501C10.7671 16.7501 11.4387 16.0785 11.4387 15.2501C11.4387 14.4216 10.7671 13.7501 9.93866 13.7501C9.11023 13.7501 8.43866 14.4216 8.43866 15.2501C8.43866 16.0785 9.11023 16.7501 9.93866 16.7501Z" fill="black"/>
</svg>
