<svg width="20" height="20" viewBox="0 0 20 20" fill="none" xmlns="http://www.w3.org/2000/svg">
<path fill-rule="evenodd" clip-rule="evenodd" d="M9.93867 5.5C6.70959 5.5 3.84687 7.06909 2.07143 9.48954L1 8.41811C3.05483 5.73356 6.29425 4 9.93867 4C13.5831 4 16.8223 5.73342 18.8772 8.41799L17.8058 9.48941C16.0305 7.06912 13.1677 5.5 9.93867 5.5ZM5.11257 12.5307L4.05188 11.47C5.54807 9.94646 7.6331 9 9.93864 9C12.2441 9 14.3291 9.94642 15.8253 11.4699L14.7646 12.5306C13.5384 11.2767 11.8295 10.5 9.93864 10.5C8.04774 10.5 6.33882 11.2768 5.11257 12.5307ZM9.9386 16.75C10.767 16.75 11.4386 16.0784 11.4386 15.25C11.4386 14.4216 10.767 13.75 9.9386 13.75C9.11017 13.75 8.4386 14.4216 8.4386 15.25C8.4386 16.0784 9.11017 16.75 9.9386 16.75Z" fill="black"/>
</svg>
