<svg width="15" height="15" viewBox="0 0 15 15" fill="none" xmlns="http://www.w3.org/2000/svg">
<mask id="path-1-inside-1_1052_29" fill="white">
<path d="M7 0H8V15H7V0Z"/>
<path d="M15 7V8L0 8L4.37115e-08 7L15 7Z"/>
</mask>
<path d="M7 0H8V15H7V0Z" fill="#3A3B3D"/>
<path d="M15 7V8L0 8L4.37115e-08 7L15 7Z" fill="#3A3B3D"/>
<path d="M7 0V-1H6V0H7ZM8 0H9V-1H8V0ZM8 15V16H9V15H8ZM7 15H6V16H7V15ZM15 7H16V6H15V7ZM15 8V9H16V8H15ZM0 8H-1V9L-3.17891e-08 9L0 8ZM4.37115e-08 7L7.55006e-08 6H-1V7H4.37115e-08ZM7 1H8V-1H7V1ZM7 0V15H9V0H7ZM8 14H7V16H8V14ZM8 15V0H6V15H8ZM14 7V8H16V7H14ZM15 7L3.17891e-08 7L-3.17891e-08 9H15V7ZM1 8V7H-1L-1 8H1ZM1.19223e-08 8L15 8V6L7.55006e-08 6L1.19223e-08 8Z" fill="#3A3B3D" mask="url(#path-1-inside-1_1052_29)"/>
</svg>
