<svg width="25" height="25" viewBox="0 0 25 25" fill="none" xmlns="http://www.w3.org/2000/svg">
<path fill-rule="evenodd" clip-rule="evenodd" d="M10.5 10C12.2632 10 13.7219 8.69615 13.9646 7H23V6H13.9646C13.7219 4.30385 12.2632 3 10.5 3C8.73676 3 7.27806 4.30385 7.03544 6H2V7H7.03544C7.27806 8.69615 8.73676 10 10.5 10ZM10.5 9C11.7095 9 12.7184 8.14112 12.95 7C12.9828 6.83845 13 6.67123 13 6.5C13 6.34898 12.9866 6.2011 12.961 6.05746C12.9575 6.03823 12.9539 6.01907 12.95 6C12.7184 4.85888 11.7095 4 10.5 4C9.29052 4 8.28164 4.85888 8.05001 6C8.01721 6.16155 8 6.32877 8 6.5C8 6.65102 8.01339 6.7989 8.03905 6.94254C8.04248 6.96177 8.04614 6.98093 8.05001 7C8.28164 8.14112 9.29052 9 10.5 9Z" fill="#3A3B3D"/>
<path fill-rule="evenodd" clip-rule="evenodd" d="M14.5 22C16.2632 22 17.7219 20.6961 17.9646 19H23V18H17.9646C17.7219 16.3039 16.2632 15 14.5 15C12.7368 15 11.2781 16.3039 11.0354 18H2V19H11.0354C11.2781 20.6961 12.7368 22 14.5 22ZM14.5 21C15.7095 21 16.7184 20.1411 16.95 19C16.9828 18.8384 17 18.6712 17 18.5C17 18.349 16.9866 18.2011 16.961 18.0575C16.9575 18.0382 16.9539 18.0191 16.95 18C16.7184 16.8589 15.7095 16 14.5 16C13.2905 16 12.2816 16.8589 12.05 18C12.0172 18.1616 12 18.3288 12 18.5C12 18.651 12.0134 18.7989 12.039 18.9425C12.0425 18.9618 12.0461 18.9809 12.05 19C12.2816 20.1411 13.2905 21 14.5 21Z" fill="#3A3B3D"/>
</svg>
