<svg width="25" height="25" viewBox="0 0 25 25" fill="none" xmlns="http://www.w3.org/2000/svg">
<path d="M13.531 6.5L13.4696 6.9292C13.2617 8.38257 12.0109 9.5 10.5 9.5C11.952 9.5 13.162 8.46902 13.44 7.09947C13.4794 6.90536 13.5 6.70483 13.5 6.5C13.5 6.31937 13.484 6.14206 13.4532 5.96954L12.961 6.05746L13.4532 5.96953C13.449 5.94645 13.4446 5.92345 13.44 5.90054L12.95 6L13.44 5.90053C13.2958 5.18999 12.9007 4.57057 12.351 4.13899C12.9444 4.60473 13.3578 5.28918 13.4696 6.0708L13.531 6.5ZM8.64895 8.86101C8.05564 8.39527 7.64221 7.71082 7.53041 6.9292L7.46901 6.5L7.53041 6.0708C7.64221 5.28918 8.05564 4.60473 8.64895 4.13899C8.09934 4.57057 7.70424 5.18999 7.56 5.90053C7.5206 6.09464 7.5 6.29517 7.5 6.5C7.5 6.68063 7.51602 6.85794 7.54684 7.03046C7.55096 7.05355 7.55535 7.07655 7.56 7.09946L8.0225 7.00558L7.56 7.09947C7.70424 7.81001 8.09934 8.42943 8.64895 8.86101ZM17.531 18.5L17.4696 18.9292C17.3586 19.7053 16.9502 20.3855 16.3637 20.851C16.9067 20.4199 17.2969 19.8046 17.44 19.0995C17.4794 18.9054 17.5 18.7048 17.5 18.5C17.5 18.3194 17.484 18.1421 17.4532 17.9695L16.961 18.0575L17.4532 17.9695C17.449 17.9465 17.4446 17.9235 17.44 17.9005L16.95 18L17.44 17.9005C17.2958 17.19 16.9007 16.5706 16.351 16.139C16.9444 16.6047 17.3578 17.2892 17.4696 18.0708L17.531 18.5ZM11.5304 18.0708C11.7383 16.6174 12.9891 15.5 14.5 15.5C13.048 15.5 11.838 16.531 11.56 17.9005C11.5206 18.0946 11.5 18.2952 11.5 18.5C11.5 18.6806 11.516 18.8579 11.5468 19.0305L11.9864 18.9519L11.5468 19.0305C11.551 19.0535 11.5554 19.0765 11.56 19.0995L11.9979 19.0106L11.56 19.0995C11.7042 19.81 12.0993 20.4294 12.649 20.861C12.0556 20.3953 11.6422 19.7108 11.5304 18.9292L11.469 18.5L11.5304 18.0708Z" fill="#3A3B3D" stroke="#3A3B3D"/>
</svg>
