<svg width="15" height="15" viewBox="0 0 15 15" fill="none" xmlns="http://www.w3.org/2000/svg">
<path d="M4.46631 4.02194H6.58947L5.56969 5.74535L6.43031 6.2546L7.47592 4.48754L8.57484 6.26311L9.42516 5.73683L8.36378 4.02194H10.4663V3.02194H8.35557L9.42721 1.25977L8.57279 0.740173L7.47596 2.54378L6.43225 0.748655L5.56775 1.25129L6.59723 3.02194H4.46631V4.02194Z" fill="#3A3B3D"/>
<path d="M1.3639 6.32666L4.00011 4.99999V6.11948L2.61218 6.81796L7.46259 9.25894L12.3761 6.81796L11.0001 6.13438V5.01778L13.6322 6.32539C14.0393 6.52762 14.0393 7.1083 13.6322 7.31052L7.45971 10.377L1.3639 7.30925C0.960225 7.1061 0.960228 6.52981 1.3639 6.32666Z" fill="#3A3B3D"/>
<path d="M1.72372 10.9527C1.47673 10.8292 1.17639 10.9293 1.0529 11.1763C0.929401 11.4233 1.02951 11.7236 1.2765 11.8471L7.50011 14.9589L13.7237 11.8471C13.9707 11.7236 14.0708 11.4233 13.9473 11.1763C13.8238 10.9293 13.5235 10.8292 13.2765 10.9527L7.50011 13.8409L1.72372 10.9527Z" fill="#3A3B3D"/>
<path d="M1.0529 8.87648C1.17639 8.62949 1.47673 8.52938 1.72372 8.65287L7.50011 11.5411L13.2765 8.65287C13.5235 8.52938 13.8238 8.62949 13.9473 8.87648C14.0708 9.12347 13.9707 9.4238 13.7237 9.5473L7.50011 12.6591L1.2765 9.5473C1.02951 9.4238 0.929401 9.12347 1.0529 8.87648Z" fill="#3A3B3D"/>
</svg>
