<svg width="15" height="15" viewBox="0 0 15 15" fill="none" xmlns="http://www.w3.org/2000/svg">
<path fill-rule="evenodd" clip-rule="evenodd" d="M7.5 14C11.0899 14 14 11.0899 14 7.5C14 3.91015 11.0899 1 7.5 1C3.91015 1 1 3.91015 1 7.5C1 11.0899 3.91015 14 7.5 14ZM6.22326 12.0868C6.35388 12.4133 6.48492 12.6942 6.60438 12.9274C4.31775 12.553 2.5055 10.7683 2.08991 8.49576C2.24512 8.58382 2.42114 8.67535 2.61859 8.76648C3.31773 9.08916 4.28058 9.4046 5.53278 9.54666C5.69403 10.5707 5.95781 11.4231 6.22326 12.0868ZM6.55885 9.61911C6.70869 10.4605 6.93092 11.1633 7.15174 11.7154C7.34493 12.1984 7.53703 12.5659 7.67849 12.8095C7.72025 12.8814 7.75758 12.9425 7.78918 12.9925C10.5661 12.8487 12.7982 10.6451 12.9871 7.88028C12.6841 8.06474 12.299 8.27954 11.8431 8.49408C10.6471 9.0569 8.94843 9.625 6.95833 9.625C6.82259 9.625 6.68944 9.62299 6.55885 9.61911ZM12.9445 6.71548C12.8792 6.76115 12.7987 6.81584 12.7038 6.87739C12.4065 7.07027 11.9692 7.32953 11.4173 7.58926C10.3112 8.10977 8.7599 8.625 6.95833 8.625C6.77499 8.625 6.59711 8.62105 6.42462 8.61357C6.39282 8.2609 6.375 7.88951 6.375 7.50002C6.375 5.67681 6.76552 4.25023 7.15174 3.28467C7.34493 2.80168 7.53703 2.43417 7.67849 2.19054C7.72026 2.11859 7.7576 2.0575 7.7892 2.00747C10.4294 2.14425 12.5771 4.14285 12.9445 6.71548ZM5.41373 8.52413C4.38423 8.38396 3.60008 8.1181 3.03765 7.85852C2.62866 7.66975 2.33456 7.48321 2.14697 7.34814C2.09036 7.30738 2.04344 7.2713 2.00598 7.24126C2.12712 4.62534 4.0757 2.48667 6.6044 2.07255C6.48494 2.30581 6.35389 2.58671 6.22326 2.91328C5.79698 3.97898 5.375 5.53157 5.375 7.50002C5.375 7.85506 5.38873 8.19657 5.41373 8.52413Z" fill="#3A3B3D"/>
</svg>
