<svg width="15" height="15" viewBox="0 0 15 15" fill="none" xmlns="http://www.w3.org/2000/svg">
<path fill-rule="evenodd" clip-rule="evenodd" d="M10.0201 10.7261C9.06629 11.5215 7.83903 12 6.5 12C3.46243 12 1 9.53757 1 6.5C1 3.46243 3.46243 1 6.5 1C9.53757 1 12 3.46243 12 6.5C12 7.83847 11.5219 9.06527 10.7271 10.0189L12.5404 11.8327L13.447 12.7397L13.9003 13.1931L13.1931 13.9001L12.7399 13.4467L11.8333 12.5398L10.0201 10.7261ZM11 6.5C11 8.98528 8.98528 11 6.5 11C4.01472 11 2 8.98528 2 6.5C2 4.01472 4.01472 2 6.5 2C8.98528 2 11 4.01472 11 6.5Z" fill="#3A3B3D"/>
</svg>
