<svg width="20" height="20" viewBox="0 0 20 20" fill="none" xmlns="http://www.w3.org/2000/svg">
<path fill-rule="evenodd" clip-rule="evenodd" d="M8.94999 4H19V3H8.94999C8.71836 1.85888 7.70948 1 6.5 1C5.29052 1 4.28164 1.85888 4.05001 3H1V4H4.05001C4.28164 5.14112 5.29052 6 6.5 6C7.70948 6 8.71836 5.14112 8.94999 4ZM8 3.5C8 4.32843 7.32843 5 6.5 5C5.67157 5 5 4.32843 5 3.5C5 2.67157 5.67157 2 6.5 2C7.32843 2 8 2.67157 8 3.5Z" fill="#3A3B3D"/>
<path fill-rule="evenodd" clip-rule="evenodd" d="M1 10H7.05001C7.28164 8.85888 8.29052 8 9.5 8C10.7095 8 11.7184 8.85888 11.95 10H19V11H11.95C11.7184 12.1411 10.7095 13 9.5 13C8.29052 13 7.28164 12.1411 7.05001 11H1V10ZM9.5 12C10.3284 12 11 11.3284 11 10.5C11 9.67157 10.3284 9 9.5 9C8.67157 9 8 9.67157 8 10.5C8 11.3284 8.67157 12 9.5 12Z" fill="#3A3B3D"/>
<path fill-rule="evenodd" clip-rule="evenodd" d="M1 17V18H12.05C12.2816 19.1411 13.2905 20 14.5 20C15.7095 20 16.7184 19.1411 16.95 18H19V17H16.95C16.7184 15.8589 15.7095 15 14.5 15C13.2905 15 12.2816 15.8589 12.05 17H1ZM16 17.5C16 16.6716 15.3284 16 14.5 16C13.6716 16 13 16.6716 13 17.5C13 18.3284 13.6716 19 14.5 19C15.3284 19 16 18.3284 16 17.5Z" fill="#3A3B3D"/>
</svg>
