<svg width="15" height="15" viewBox="0 0 15 15" fill="none" xmlns="http://www.w3.org/2000/svg">
<path fill-rule="evenodd" clip-rule="evenodd" d="M8.90464 13.8478C8.4523 13.9475 7.98229 14 7.5 14C7.01095 14 6.53452 13.946 6.07634 13.8436L6.07078 13.8424C3.16848 13.1912 1 10.5988 1 7.5C1 3.91015 3.91015 1 7.5 1C10.5928 1 13.181 3.16003 13.8385 6.05379C13.8488 6.09902 13.8586 6.14444 13.8679 6.19002C13.9545 6.61316 14 7.05127 14 7.5C14 7.54284 13.9996 7.58559 13.9988 7.62823C13.9904 8.06183 13.9395 8.48504 13.8502 8.89385C13.8491 8.89894 13.848 8.90402 13.8468 8.9091C13.7658 9.27583 13.6538 9.63093 13.5136 9.97151C13.3794 10.2979 13.2193 10.6109 13.036 10.9081C13.03 10.9178 13.0239 10.9275 13.0179 10.9372C12.8446 11.2147 12.6511 11.4782 12.4392 11.7256C12.2221 11.9791 11.9859 12.2157 11.7327 12.4332C11.72 12.4441 11.7073 12.4549 11.6945 12.4657C11.4499 12.6725 11.1898 12.8616 10.9162 13.0309C10.6194 13.2146 10.3068 13.3751 9.98082 13.5098C9.97288 13.5131 9.96492 13.5163 9.95696 13.5196C9.61944 13.6575 9.26774 13.7678 8.90464 13.8478ZM8.03146 12.9747C7.85657 12.9914 7.67929 13 7.5 13C7.18063 13 6.86762 12.9728 6.56315 12.9205L4.67131 11.0287L3.9766 11.7234C2.76856 10.7145 2 9.197 2 7.5C2 4.46243 4.46243 2 7.5 2C9.19701 2 10.7145 2.76857 11.7234 3.97661L11.0353 4.66475L12.9178 6.54725C12.9718 6.85671 13 7.17506 13 7.5C13 7.67518 12.9918 7.84845 12.9758 8.01945L10.3282 5.37183L9.62106 6.07893L12.7347 9.19253C12.6234 9.53696 12.479 9.86654 12.3054 10.1775L8.91395 6.78607L8.20685 7.49318L11.7296 11.0159C11.516 11.2726 11.2795 11.5096 11.0231 11.7236L7.49974 8.20026L6.79263 8.90736L10.1859 12.3007C9.87549 12.4748 9.54641 12.6196 9.20246 12.7314L6.08552 9.6145L5.37842 10.3216L8.03146 12.9747Z" fill="#3A3B3D"/>
</svg>
