<svg width="15" height="15" viewBox="0 0 15 15" fill="none" xmlns="http://www.w3.org/2000/svg">
<path d="M9.78177 13.051L9.78137 13.0512C9.62353 13.1161 9.46228 13.1746 9.29797 13.2261L9.35168 13.2087C9.72742 13.0869 10.0868 12.9291 10.4259 12.7394L10.5056 12.6948C10.2752 12.8282 10.0346 12.9468 9.78557 13.0495L9.78177 13.051ZM8.07264 13.473L8.1024 13.4702C7.95554 13.4848 7.80709 13.4941 7.65724 13.498C7.79688 13.4944 7.9354 13.486 8.07264 13.473ZM11.4034 12.0569C11.3726 12.0833 11.3417 12.1093 11.3106 12.135L11.3397 12.1107C11.6194 11.8775 11.8775 11.6194 12.1107 11.3397L12.1489 11.2938C12.1188 11.3307 12.0881 11.3673 12.057 11.4035L12.0568 11.4038C11.8563 11.6376 11.6378 11.8559 11.4036 12.0567L11.4034 12.0569ZM13.2261 9.29786C13.0975 9.70786 12.9261 10.0988 12.7171 10.4656L12.7394 10.4259C12.9291 10.0869 13.0869 9.72744 13.2087 9.3517L13.2261 9.29786ZM13.4979 7.65854C13.4941 7.80776 13.4848 7.95561 13.4702 8.10189L13.473 8.07267C13.486 7.93584 13.4943 7.79775 13.4979 7.65854ZM7.59935 13.4992L7.59924 13.4992C7.53457 13.5003 7.46989 13.5003 7.40522 13.4993L7.40511 13.4993C7.07463 13.4942 6.75063 13.4623 6.43519 13.4058L6.46989 13.4118C6.80491 13.4698 7.14913 13.5 7.5 13.5C7.53317 13.5 7.56629 13.4997 7.59935 13.4992ZM6.20163 13.2727L6.31118 13.3823C5.47204 13.2136 4.69622 12.8699 4.02347 12.3908L4.33404 12.0802L4.67158 11.7427L6.20163 13.2727ZM3.66033 12.1107L3.67176 12.1202C2.34501 11.0197 1.5 9.3585 1.5 7.5C1.5 9.35342 2.34098 11.0109 3.66033 12.1107ZM13.2727 6.20166L11.7426 4.67159L12.0802 4.33403L12.3908 4.02347C12.8698 4.69623 13.2136 5.47205 13.3823 6.3112L13.2727 6.20166ZM12.1194 3.67078L12.1107 3.66033C11.0109 2.34098 9.35342 1.5 7.5 1.5C9.35805 1.5 11.0188 2.34459 12.1194 3.67078ZM13.4118 6.46992L13.406 6.43649C13.4571 6.72186 13.488 7.01421 13.4971 7.31203C13.4883 7.02607 13.4594 6.74489 13.4118 6.46992ZM13.4998 7.44663C13.5001 7.48182 13.5001 7.51701 13.4998 7.55219L13.4998 7.55225C13.4999 7.53485 13.5 7.51743 13.5 7.5C13.5 7.48219 13.4999 7.4644 13.4998 7.44663Z" fill="#3A3B3D" stroke="#3A3B3D"/>
</svg>
