<svg width="20" height="20" viewBox="0 0 20 20" fill="none" xmlns="http://www.w3.org/2000/svg">
<path fill-rule="evenodd" clip-rule="evenodd" d="M1.5 3H2H7.85366H8.11821L8.26704 3.21872L9.67919 5.29412H18H18.5577L18.497 5.84847L17.3263 16.5544L17.2776 17H16.8293H2H1.5V16.5V3.5V3ZM2.5 4V16H8.5V15C8.5 13.6193 9.61929 12.5 11 12.5H13C14.3807 12.5 15.5 13.6193 15.5 15V16H16.381L17.4423 6.29412H9.41463H9.15008L9.00125 6.07539L7.5891 4H2.5ZM14.5 16V15C14.5 14.1716 13.8284 13.5 13 13.5H11C10.1716 13.5 9.5 14.1716 9.5 15V16H14.5ZM12 11C12.5523 11 13 10.5523 13 10C13 9.44772 12.5523 9 12 9C11.4477 9 11 9.44772 11 10C11 10.5523 11.4477 11 12 11ZM12 12C13.1046 12 14 11.1046 14 10C14 8.89543 13.1046 8 12 8C10.8954 8 10 8.89543 10 10C10 11.1046 10.8954 12 12 12Z" fill="#7E818E"/>
</svg>
