<svg width="20" height="20" viewBox="0 0 20 20" fill="none" xmlns="http://www.w3.org/2000/svg">
<path d="M6 7H3.5C2.67157 7 2 7.67157 2 8.5V16.5C2 17.3284 2.67157 18 3.5 18H16.5C17.3284 18 18 17.3284 18 16.5L17.9999 8.49999C17.9999 7.67157 17.3284 7 16.4999 7H14V8H16.4999C16.7761 8 16.9999 8.22385 16.9999 8.5L17 16.5C17 16.7761 16.7761 17 16.5 17H3.5C3.22386 17 3 16.7761 3 16.5V8.5C3 8.22386 3.22386 8 3.5 8H6V7Z" fill="#7E818E"/>
<path d="M6.14645 4.14646L6.85356 4.85357L9.50001 2.20712V12H10.5V2.20712L13.1465 4.85357L13.8536 4.14646L10 0.292908L6.14645 4.14646Z" fill="#7E818E"/>
</svg>
