<svg width="14" height="10" viewBox="0 0 14 10" fill="none" xmlns="http://www.w3.org/2000/svg">
<path fill-rule="evenodd" clip-rule="evenodd" d="M13.1174 3.64819L11.1174 1.64819L10.4103 2.3553L11.5568 3.50175H10.7639C8.27861 3.50175 6.26389 5.51647 6.26389 8.00175H7.26389C7.26389 6.06875 8.83089 4.50175 10.7639 4.50175H11.5568L10.4103 5.64819L11.1174 6.3553L13.1174 4.3553L13.471 4.00175L13.1174 3.64819Z" fill="#3A3B3D"/>
<path fill-rule="evenodd" clip-rule="evenodd" d="M0.591039 7.86368C1.3725 8.63949 2.63491 8.63774 3.41421 7.85844L3.95441 7.31825C3.56775 7.29684 3.18445 7.20096 2.82784 7.03061L2.70711 7.15134C2.31658 7.54186 1.68342 7.54186 1.29289 7.15134C0.902369 6.76081 0.902369 6.12765 1.29289 5.73712L2 5.03002C2.31928 4.71074 2.80075 4.65249 3.1792 4.85528L3.90171 4.13277C3.1185 3.54806 2.00436 3.61144 1.29289 4.32291L0.585786 5.03002C0.0145007 5.6013 -0.138927 6.43221 0.125503 7.14295C0.222597 7.40389 0.376017 7.64863 0.585763 7.85838L0.591059 7.86366L0.591039 7.86368ZM4.00059 3.02934L4.12132 2.90862C4.51184 2.51809 5.14501 2.51809 5.53553 2.90862C5.92606 3.29914 5.92606 3.93231 5.53553 4.32283L4.82842 5.02994C4.49851 5.35985 3.99544 5.41105 3.61177 5.18355L2.89349 5.90184C3.67814 6.51357 4.81394 6.45863 5.53553 5.73704L6.24264 5.02994C6.47806 4.79452 6.64252 4.51501 6.73602 4.21799C6.95202 3.53179 6.78929 2.75214 6.24781 2.20675L6.24784 2.20673C6.24611 2.20499 6.24438 2.20325 6.24264 2.20151C5.46159 1.42046 4.19526 1.42046 3.41421 2.20151L2.87404 2.74168C3.26069 2.7631 3.64398 2.85899 4.00059 3.02934Z" fill="#3A3B3D"/>
</svg>
