<svg width="25" height="25" viewBox="0 0 25 25" fill="none" xmlns="http://www.w3.org/2000/svg">
<path fill-rule="evenodd" clip-rule="evenodd" d="M5.5 11C7.15685 11 8.5 9.65685 8.5 8C8.5 6.34315 7.15685 5 5.5 5C3.84315 5 2.5 6.34315 2.5 8C2.5 9.65685 3.84315 11 5.5 11ZM5.5 10C6.60457 10 7.5 9.10457 7.5 8C7.5 6.89543 6.60457 6 5.5 6C4.39543 6 3.5 6.89543 3.5 8C3.5 9.10457 4.39543 10 5.5 10Z" fill="#3A3B3D"/>
<path d="M8 15C9.10457 15 10 15.8954 10 17V21H11V17C11 15.3431 9.65685 14 8 14H3C1.34315 14 0 15.3431 0 17V21H1V17C1 15.8954 1.89543 15 3 15H8Z" fill="#3A3B3D"/>
<path d="M24 17C24 15.8954 23.1046 15 22 15H17C15.8954 15 15 15.8954 15 17V21H14V17C14 15.3431 15.3431 14 17 14H22C23.6569 14 25 15.3431 25 17V21H24V17Z" fill="#3A3B3D"/>
<path fill-rule="evenodd" clip-rule="evenodd" d="M22.5 8C22.5 9.65685 21.1569 11 19.5 11C17.8431 11 16.5 9.65685 16.5 8C16.5 6.34315 17.8431 5 19.5 5C21.1569 5 22.5 6.34315 22.5 8ZM21.5 8C21.5 9.10457 20.6046 10 19.5 10C18.3954 10 17.5 9.10457 17.5 8C17.5 6.89543 18.3954 6 19.5 6C20.6046 6 21.5 6.89543 21.5 8Z" fill="#3A3B3D"/>
</svg>
