<svg width="15" height="10" viewBox="0 0 15 10" fill="none" xmlns="http://www.w3.org/2000/svg">
<path fill-rule="evenodd" clip-rule="evenodd" d="M13.8536 3.64819L11.8536 1.64819L11.1464 2.3553L12.2929 3.50175H11.5C9.01472 3.50175 7 5.51647 7 8.00175H8C8 6.06875 9.567 4.50175 11.5 4.50175H12.2929L11.1464 5.64819L11.8536 6.3553L13.8536 4.3553L14.2071 4.00175L13.8536 3.64819Z" fill="#3A3B3D"/>
<path fill-rule="evenodd" clip-rule="evenodd" d="M0.000198653 6.86447C-0.00672412 7.32964 0.167289 7.79701 0.522239 8.15196C1.21856 8.84828 2.34751 8.84828 3.04383 8.15196L4.05424 7.14155C3.67871 7.10784 3.30872 6.99809 2.96926 6.81231L2.33672 7.44486C2.03093 7.75065 1.53514 7.75065 1.22935 7.44486C0.923551 7.13906 0.923551 6.64327 1.22935 6.33748L2.49014 5.07668C2.74559 4.82123 3.13363 4.77918 3.43274 4.95052L4.15081 4.23245C3.45089 3.67681 2.43014 3.72254 1.78303 4.36965L0.522237 5.63045C0.180888 5.9718 0.00687483 6.41712 0.000198653 6.86447ZM4.30471 4.36971L4.31315 4.37816L4.30473 4.36968L4.30471 4.36971ZM4.37913 3.18785L5.0117 2.55527C5.3175 2.24948 5.81329 2.24948 6.11908 2.55527C6.42488 2.86107 6.42488 3.35686 6.11908 3.66265L4.85829 4.92345C4.60399 5.17774 4.21831 5.22057 3.91976 5.05193L3.20115 5.77053C3.90097 6.32321 4.91938 6.27655 5.56539 5.63053L6.82619 4.36973C7.09275 4.10317 7.25727 3.77321 7.31974 3.42838C7.33887 3.32283 7.34843 3.21588 7.34843 3.10894C7.34842 2.65263 7.17434 2.19632 6.82619 1.84817C6.12987 1.15185 5.00092 1.15185 4.3046 1.84817L3.29414 2.85862C3.66967 2.89233 4.03967 3.00208 4.37913 3.18785Z" fill="#3A3B3D"/>
</svg>
