<svg width="25" height="25" viewBox="0 0 25 25" fill="none" xmlns="http://www.w3.org/2000/svg">
<path d="M12.5 2C11.1193 2 10 3.11929 10 4.5C10 5.88071 11.1193 7 12.5 7C13.8807 7 15 5.88071 15 4.5C15 3.11929 13.8807 2 12.5 2ZM11 4.5C11 3.67157 11.6716 3 12.5 3C13.3284 3 14 3.67157 14 4.5C14 5.32843 13.3284 6 12.5 6C11.6716 6 11 5.32843 11 4.5ZM20.5 6C19.1193 6 18 7.11929 18 8.5C18 9.88071 19.1193 11 20.5 11C21.8807 11 23 9.88071 23 8.5C23 7.11929 21.8807 6 20.5 6ZM19 8.5C19 7.67157 19.6716 7 20.5 7C21.3284 7 22 7.67157 22 8.5C22 9.32843 21.3284 10 20.5 10C19.6716 10 19 9.32843 19 8.5ZM4.5 6C3.11929 6 2 7.11929 2 8.5C2 9.88071 3.11929 11 4.5 11C5.88071 11 7 9.88071 7 8.5C7 7.11929 5.88071 6 4.5 6ZM3 8.5C3 7.67157 3.67157 7 4.5 7C5.32843 7 6 7.67157 6 8.5C6 9.32843 5.32843 10 4.5 10C3.67157 10 3 9.32843 3 8.5ZM18.5 13C17.9372 13 17.4178 13.186 17 13.4998V11.5C17 10.1193 15.8807 9 14.5 9H10.5C9.11929 9 8 10.1193 8 11.5V13.4998C7.58217 13.186 7.0628 13 6.5 13H2.5C1.11929 13 0 14.1193 0 15.5V20.4959H1V15.5C1 14.6716 1.67157 14 2.5 14H6.5C7.32843 14 8 14.6716 8 15.5V22H9V11.5C9 10.6716 9.67157 10 10.5 10H14.5C15.3284 10 16 10.6716 16 11.5V22H17V15.5C17 14.6716 17.6716 14 18.5 14H22.5C23.3284 14 24 14.6716 24 15.5V20.4959H25V15.5C25 14.1193 23.8807 13 22.5 13H18.5Z" fill="#3A3B3D"/>
<path d="M12.5 2C11.1193 2 10 3.11929 10 4.5C10 5.88071 11.1193 7 12.5 7C13.8807 7 15 5.88071 15 4.5C15 3.11929 13.8807 2 12.5 2ZM11 4.5C11 3.67157 11.6716 3 12.5 3C13.3284 3 14 3.67157 14 4.5C14 5.32843 13.3284 6 12.5 6C11.6716 6 11 5.32843 11 4.5ZM20.5 6C19.1193 6 18 7.11929 18 8.5C18 9.88071 19.1193 11 20.5 11C21.8807 11 23 9.88071 23 8.5C23 7.11929 21.8807 6 20.5 6ZM19 8.5C19 7.67157 19.6716 7 20.5 7C21.3284 7 22 7.67157 22 8.5C22 9.32843 21.3284 10 20.5 10C19.6716 10 19 9.32843 19 8.5ZM4.5 6C3.11929 6 2 7.11929 2 8.5C2 9.88071 3.11929 11 4.5 11C5.88071 11 7 9.88071 7 8.5C7 7.11929 5.88071 6 4.5 6ZM3 8.5C3 7.67157 3.67157 7 4.5 7C5.32843 7 6 7.67157 6 8.5C6 9.32843 5.32843 10 4.5 10C3.67157 10 3 9.32843 3 8.5ZM18.5 13C17.9372 13 17.4178 13.186 17 13.4998V11.5C17 10.1193 15.8807 9 14.5 9H10.5C9.11929 9 8 10.1193 8 11.5V13.4998C7.58217 13.186 7.0628 13 6.5 13H2.5C1.11929 13 0 14.1193 0 15.5V20.4959H1V15.5C1 14.6716 1.67157 14 2.5 14H6.5C7.32843 14 8 14.6716 8 15.5V22H9V11.5C9 10.6716 9.67157 10 10.5 10H14.5C15.3284 10 16 10.6716 16 11.5V22H17V15.5C17 14.6716 17.6716 14 18.5 14H22.5C23.3284 14 24 14.6716 24 15.5V20.4959H25V15.5C25 14.1193 23.8807 13 22.5 13H18.5Z" stroke="#3A3B3D"/>
</svg>
