<svg width="13" height="10" viewBox="0 0 13 10" fill="none" xmlns="http://www.w3.org/2000/svg">
<path d="M12.1772 1.71875H4.31139C3.85063 1.71875 3.48861 1.375 3.48861 0.9375C3.48861 0.5 3.85063 0.15625 4.31139 0.15625H12.1772C12.638 0.15625 13 0.5 13 0.9375C13 1.375 12.638 1.71875 12.1772 1.71875ZM13 5C13 4.5625 12.638 4.21875 12.1772 4.21875H4.31139C3.85063 4.21875 3.48861 4.5625 3.48861 5C3.48861 5.4375 3.85063 5.78125 4.31139 5.78125H12.1772C12.638 5.78125 13 5.4375 13 5ZM13 9.0625C13 8.625 12.638 8.28125 12.1772 8.28125H4.31139C3.85063 8.28125 3.48861 8.625 3.48861 9.0625C3.48861 9.5 3.85063 9.84375 4.31139 9.84375H12.1772C12.638 9.84375 13 9.5 13 9.0625ZM1.97468 0.9375C1.97468 0.40625 1.54684 0 0.987342 0C0.46076 0 0 0.40625 0 0.9375C0 1.4375 0.427848 1.875 0.987342 1.875C1.54684 1.875 1.97468 1.46875 1.97468 0.9375ZM1.97468 5C1.97468 4.46875 1.54684 4.0625 0.987342 4.0625C0.46076 4.0625 0 4.46875 0 5C0 5.5 0.427848 5.9375 0.987342 5.9375C1.54684 5.9375 1.97468 5.53125 1.97468 5ZM1.97468 9.0625C1.97468 8.53125 1.54684 8.125 0.987342 8.125C0.46076 8.125 0 8.53125 0 9.0625C0 9.5625 0.427848 10 0.987342 10C1.54684 10 1.97468 9.59375 1.97468 9.0625Z" fill="#7E818E"/>
</svg>
