<svg width="22" height="22" viewBox="0 0 22 22" fill="none" xmlns="http://www.w3.org/2000/svg">
<path fill-rule="evenodd" clip-rule="evenodd" d="M5.03511 9.56671H15.1053V10.5737H5.03511V9.56671Z" fill="#3A3B3D"/>
<path fill-rule="evenodd" clip-rule="evenodd" d="M10.0702 19.1334C15.0757 19.1334 19.1334 15.0757 19.1334 10.0702C19.1334 5.06476 15.0757 1.00702 10.0702 1.00702C5.06476 1.00702 1.00702 5.06476 1.00702 10.0702C1.00702 15.0757 5.06476 19.1334 10.0702 19.1334ZM10.0702 20.1405C15.6319 20.1405 20.1405 15.6319 20.1405 10.0702C20.1405 4.50859 15.6319 0 10.0702 0C4.50859 0 0 4.50859 0 10.0702C0 15.6319 4.50859 20.1405 10.0702 20.1405Z" fill="#3A3B3D"/>
<path fill-rule="evenodd" clip-rule="evenodd" d="M20.2879 21.5035L16.2598 17.4754L16.9719 16.7633L21 20.7914L20.2879 21.5035Z" fill="#3A3B3D"/>
</svg>
