<svg width="25" height="25" viewBox="0 0 25 25" fill="none" xmlns="http://www.w3.org/2000/svg">
<path d="M9 12C9.55228 12 10 11.5523 10 11C10 10.4477 9.55228 10 9 10C8.44772 10 8 10.4477 8 11C8 11.5523 8.44772 12 9 12Z" fill="#C3C5CB"/>
<path d="M17 11C17 11.5523 16.5523 12 16 12C15.4477 12 15 11.5523 15 11C15 10.4477 15.4477 10 16 10C16.5523 10 17 10.4477 17 11Z" fill="#C3C5CB"/>
<path d="M8.9 14.7C8.73431 14.4791 8.42091 14.4343 8.2 14.6C7.97909 14.7657 7.93431 15.0791 8.1 15.3C8.65931 16.0457 9.27931 16.6036 10.0144 16.9712C10.7495 17.3387 11.5678 17.5 12.5 17.5C13.4322 17.5 14.2505 17.3387 14.9856 16.9712C15.7207 16.6036 16.3407 16.0457 16.9 15.3C17.0657 15.0791 17.0209 14.7657 16.8 14.6C16.5791 14.4343 16.2657 14.4791 16.1 14.7C15.6114 15.3514 15.1047 15.7936 14.5384 16.0767C13.9721 16.3599 13.3143 16.5 12.5 16.5C11.6857 16.5 11.0279 16.3599 10.4616 16.0767C9.89534 15.7936 9.38858 15.3514 8.9 14.7Z" fill="#C3C5CB"/>
<path fill-rule="evenodd" clip-rule="evenodd" d="M22 12.5C22 17.7467 17.7467 22 12.5 22C7.25329 22 3 17.7467 3 12.5C3 7.25329 7.25329 3 12.5 3C17.7467 3 22 7.25329 22 12.5ZM21 12.5C21 17.1944 17.1944 21 12.5 21C7.80558 21 4 17.1944 4 12.5C4 7.80558 7.80558 4 12.5 4C17.1944 4 21 7.80558 21 12.5Z" fill="#C3C5CB"/>
</svg>
