<svg width="85" height="85" viewBox="0 0 85 85" fill="none" xmlns="http://www.w3.org/2000/svg">
<path fill-rule="evenodd" clip-rule="evenodd" d="M21 38C21 36.3431 22.3431 35 24 35H61C62.6569 35 64 36.3431 64 38V47C64 48.6569 62.6569 50 61 50H24C22.3431 50 21 48.6569 21 47V38ZM22 38C22 36.8954 22.8954 36 24 36H61C62.1046 36 63 36.8954 63 38V47C63 48.1046 62.1046 49 61 49H24C22.8954 49 22 48.1046 22 47V38Z" fill="#3A3B3D"/>
<path fill-rule="evenodd" clip-rule="evenodd" d="M80 42.5C80 63.2107 63.2107 80 42.5 80C21.7893 80 5 63.2107 5 42.5C5 21.7893 21.7893 5 42.5 5C63.2107 5 80 21.7893 80 42.5ZM79 42.5C79 62.6584 62.6584 79 42.5 79C22.3416 79 6 62.6584 6 42.5C6 22.3416 22.3416 6 42.5 6C62.6584 6 79 22.3416 79 42.5Z" fill="#3A3B3D"/>
</svg>
