<svg width="80" height="52" viewBox="0 0 80 52" fill="none" xmlns="http://www.w3.org/2000/svg">
<path fill-rule="evenodd" clip-rule="evenodd" d="M12.2029 25.1231L13.0061 25.0121L13.0635 24.2033C13.9839 11.2353 24.7971 1 38 1C48.3982 1 57.316 7.34852 61.0844 16.3849L61.3408 16.9997L62.0069 17C71.3926 17.0038 79 24.6135 79 34C79 43.3888 71.3888 51 62 51H14C6.8203 51 1 45.1797 1 38C1 31.4304 5.87403 25.9976 12.2029 25.1231ZM38 0C48.8158 0 58.0891 6.60419 62.0073 16C71.9451 16.004 80 24.0613 80 34C80 43.9411 71.9411 52 62 52H14C6.26801 52 0 45.732 0 38C0 30.9242 5.24928 25.0744 12.066 24.1325C13.0233 10.6447 24.2685 0 38 0ZM38.3536 38.3536L52.3536 24.3536L51.6464 23.6464L37.9629 37.33L28.3123 29.6096L27.6877 30.3904L37.6877 38.3904L38.0371 38.67L38.3536 38.3536Z" fill="white"/>
</svg>
