<svg width="115" height="115" viewBox="0 0 115 115" fill="none" xmlns="http://www.w3.org/2000/svg">
<path d="M81.9828 42.3898L81.2372 41.7234L54.1714 72.0069L39.7867 58.4204L39.1 59.1473L54.232 73.4397L81.9828 42.3898Z" fill="#3A3B3D"/>
<path fill-rule="evenodd" clip-rule="evenodd" d="M115 57.5C115 89.2564 89.2564 115 57.5 115C25.7436 115 0 89.2564 0 57.5C0 25.7436 25.7436 0 57.5 0C89.2564 0 115 25.7436 115 57.5ZM114 57.5C114 88.7041 88.7041 114 57.5 114C26.2959 114 1 88.7041 1 57.5C1 26.2959 26.2959 1 57.5 1C88.7041 1 114 26.2959 114 57.5Z" fill="#3A3B3D"/>
</svg>
