<svg width="85" height="85" viewBox="0 0 85 85" fill="none" xmlns="http://www.w3.org/2000/svg">
<path d="M61.3687 32.3377L60.6313 31.6623L40.82 53.2924L30.3389 43.6323L29.6611 44.3677L40.88 54.7076L61.3687 32.3377Z" fill="#3A3B3D"/>
<path fill-rule="evenodd" clip-rule="evenodd" d="M80 42.5C80 63.2107 63.2107 80 42.5 80C21.7893 80 5 63.2107 5 42.5C5 21.7893 21.7893 5 42.5 5C63.2107 5 80 21.7893 80 42.5ZM79 42.5C79 62.6584 62.6584 79 42.5 79C22.3416 79 6 62.6584 6 42.5C6 22.3416 22.3416 6 42.5 6C62.6584 6 79 22.3416 79 42.5Z" fill="#3A3B3D"/>
</svg>
