<svg width="20" height="20" viewBox="0 0 20 20" fill="none" xmlns="http://www.w3.org/2000/svg">
<path d="M10 1V6.66928L8.37629 4.81361L7.62371 5.47211L10.5 8.7593L13.3763 5.47211L12.6237 4.81361L11 6.66928V1H10Z" fill="#7E818E"/>
<path fill-rule="evenodd" clip-rule="evenodd" d="M6 6H2V18H18V6H15V7H17V11.9597L14.9629 10.33L11 14.2929L8 11.2929L3.03387 16.259L3 16V7H6V6ZM3.74098 16.9661C3.74098 16.9661 3.91042 17 4 17H17V13.2403L15.0371 11.67L11 15.7071L8 12.7071L3.74098 16.9661Z" fill="#7E818E"/>
<path d="M13 10C13 10.5523 12.5523 11 12 11C11.4477 11 11 10.5523 11 10C11 9.44771 11.4477 9 12 9C12.5523 9 13 9.44771 13 10Z" fill="#7E818E"/>
</svg>
