<svg width="17" height="19" viewBox="0 0 17 19" fill="none" xmlns="http://www.w3.org/2000/svg">
<path fill-rule="evenodd" clip-rule="evenodd" d="M8.52148 5.84104V0H9.53055V5.76819L10.7826 4.57876L11.4776 5.31034L9.04214 7.624L6.38176 5.32639L7.04131 4.5627L8.52148 5.84104ZM2.52268 6.60633C1.68674 6.60633 1.00907 7.28399 1.00907 8.11994V15.8664C1.00907 16.0599 1.04536 16.2448 1.1115 16.4149L6.39687 11.8299L9.07391 14.1059L13.3282 10.6766L15.9909 13.4929V8.11993C15.9909 7.28399 15.3133 6.60633 14.4773 6.60633H12.4977V5.59726H14.4773C15.8706 5.59726 17 6.7267 17 8.11993V15.8664C17 17.2597 15.8706 18.3891 14.4773 18.3891H2.52268C1.12944 18.3891 0 17.2597 0 15.8664V8.11994C0 6.7267 1.12944 5.59726 2.52268 5.59726H4.50227V6.60633H2.52268ZM15.9909 14.9616L13.2356 12.0474L9.05676 15.4158L6.40349 13.16L1.7697 17.1798C1.99147 17.3072 2.24856 17.38 2.52268 17.38H14.4773C15.3133 17.38 15.9909 16.7024 15.9909 15.8664V14.9616Z" fill="#7E818E"/>
<path d="M10.8633 10.3831C10.8633 10.9641 10.3923 11.4351 9.81126 11.4351C9.23024 11.4351 8.75923 10.9641 8.75923 10.3831C8.75923 9.80209 9.23024 9.33108 9.81126 9.33108C10.3923 9.33108 10.8633 9.80209 10.8633 10.3831Z" fill="#7E818E"/>
</svg>
