<svg width="30" height="30" viewBox="0 0 30 30" fill="none" xmlns="http://www.w3.org/2000/svg">
<path d="M14.2727 28.5333C21.7352 28.5333 27.7848 22.4743 27.7848 15C27.7848 7.52575 21.7352 1.46667 14.2727 1.46667V0.5C22.2683 0.5 28.75 6.99187 28.75 15C28.75 23.0081 22.2683 29.5 14.2727 29.5C8.33606 29.5 3.23401 25.9211 1 20.8L1.89187 20.4294C3.98061 25.2005 8.73805 28.5333 14.2727 28.5333Z" fill="#3A3B3D"/>
<path d="M15.1055 20.2072V11.9143L17.752 14.5607L18.4591 13.8536L14.6055 10L10.752 13.8536L11.4591 14.5607L14.1055 11.9143V20.2072H15.1055Z" fill="#3A3B3D"/>
</svg>
