<svg width="63" height="69" viewBox="0 0 63 69" fill="none" xmlns="http://www.w3.org/2000/svg">
<path d="M33.161 0V25.5646L25.4414 19.2073L24.8026 19.983L33.6842 27.2972L41.5429 19.9624L40.8572 19.2278L34.1659 25.4731V0H33.161Z" fill="white"/>
<path fill-rule="evenodd" clip-rule="evenodd" d="M1.00488 26.6705C1.00488 24.7281 2.57953 23.1534 4.52196 23.1534H16.0012V22.1486H4.52196C2.02455 22.1486 0 24.1731 0 26.6705V64.3121C0 66.8095 2.02455 68.834 4.52196 68.834H58.478C60.9754 68.834 63 66.8095 63 64.3121V26.6705C63 24.1731 60.9754 22.1486 58.478 22.1486H46.9988V23.1534H58.478C60.4205 23.1534 61.9951 24.7281 61.9951 26.6705V54.9586L50.085 42.3617L33.7003 55.5691L23.3559 46.7743L1.36052 65.855C1.13273 65.3892 1.00488 64.8656 1.00488 64.3121V26.6705ZM1.93097 66.6905C2.57384 67.3904 3.49666 67.8292 4.52196 67.8292H58.478C60.4205 67.8292 61.9951 66.2545 61.9951 64.3121V56.4212L49.9927 43.7267L33.6832 56.8735L23.3625 48.0988L1.93097 66.6905Z" fill="white"/>
<path fill-rule="evenodd" clip-rule="evenodd" d="M36.5835 43.328C38.8361 43.328 40.6621 41.5019 40.6621 39.2494C40.6621 36.9968 38.8361 35.1708 36.5835 35.1708C34.3309 35.1708 32.5049 36.9968 32.5049 39.2494C32.5049 41.5019 34.3309 43.328 36.5835 43.328ZM36.5835 42.3231C38.2811 42.3231 39.6572 40.947 39.6572 39.2494C39.6572 37.5518 38.2811 36.1756 36.5835 36.1756C34.8859 36.1756 33.5097 37.5518 33.5097 39.2494C33.5097 40.947 34.8859 42.3231 36.5835 42.3231Z" fill="white"/>
<path d="M33.161 0V25.5646L25.4414 19.2073L24.8026 19.983L33.6842 27.2972L41.5429 19.9624L40.8572 19.2278L34.1659 25.4731V0H33.161Z" stroke="white"/>
<path fill-rule="evenodd" clip-rule="evenodd" d="M1.00488 26.6705C1.00488 24.7281 2.57953 23.1534 4.52196 23.1534H16.0012V22.1486H4.52196C2.02455 22.1486 0 24.1731 0 26.6705V64.3121C0 66.8095 2.02455 68.834 4.52196 68.834H58.478C60.9754 68.834 63 66.8095 63 64.3121V26.6705C63 24.1731 60.9754 22.1486 58.478 22.1486H46.9988V23.1534H58.478C60.4205 23.1534 61.9951 24.7281 61.9951 26.6705V54.9586L50.085 42.3617L33.7003 55.5691L23.3559 46.7743L1.36052 65.855C1.13273 65.3892 1.00488 64.8656 1.00488 64.3121V26.6705ZM1.93097 66.6905C2.57384 67.3904 3.49666 67.8292 4.52196 67.8292H58.478C60.4205 67.8292 61.9951 66.2545 61.9951 64.3121V56.4212L49.9927 43.7267L33.6832 56.8735L23.3625 48.0988L1.93097 66.6905Z" stroke="white"/>
<path fill-rule="evenodd" clip-rule="evenodd" d="M36.5835 43.328C38.8361 43.328 40.6621 41.5019 40.6621 39.2494C40.6621 36.9968 38.8361 35.1708 36.5835 35.1708C34.3309 35.1708 32.5049 36.9968 32.5049 39.2494C32.5049 41.5019 34.3309 43.328 36.5835 43.328ZM36.5835 42.3231C38.2811 42.3231 39.6572 40.947 39.6572 39.2494C39.6572 37.5518 38.2811 36.1756 36.5835 36.1756C34.8859 36.1756 33.5097 37.5518 33.5097 39.2494C33.5097 40.947 34.8859 42.3231 36.5835 42.3231Z" stroke="white"/>
</svg>
