<svg width="60" height="65" viewBox="0 0 60 65" fill="none" xmlns="http://www.w3.org/2000/svg">
<path d="M30 0V23.2929L23.3536 16.6464L22.6464 17.3536L30.5 25.2071L38.3536 17.3536L37.6464 16.6464L31 23.2929V0H30Z" fill="white"/>
<path fill-rule="evenodd" clip-rule="evenodd" d="M5 20H15V21H5C2.79086 21 1 22.7909 1 25V60C1 60.9305 1.31773 61.7868 1.85061 62.4663L21.9875 44.8466L32.5042 53.3601L49.0558 40.3195L59 51.2108V25C59 22.7909 57.2091 21 55 21H45V20H55C57.7614 20 60 22.2386 60 25V60C60 62.7614 57.7614 65 55 65H5C2.23858 65 0 62.7614 0 60V25C0 22.2386 2.23858 20 5 20ZM5 64C4.08272 64 3.23755 63.6912 2.56275 63.172L22.0125 46.1534L32.4958 54.6399L48.9442 41.6805L59 52.6939V60C59 62.2091 57.2091 64 55 64H5Z" fill="white"/>
<path fill-rule="evenodd" clip-rule="evenodd" d="M40 36.5C40 38.9853 37.9853 41 35.5 41C33.0147 41 31 38.9853 31 36.5C31 34.0147 33.0147 32 35.5 32C37.9853 32 40 34.0147 40 36.5ZM39 36.5C39 38.433 37.433 40 35.5 40C33.567 40 32 38.433 32 36.5C32 34.567 33.567 33 35.5 33C37.433 33 39 34.567 39 36.5Z" fill="white"/>
</svg>
