<svg width="20" height="20" viewBox="0 0 20 20" fill="none" xmlns="http://www.w3.org/2000/svg">
<path fill-rule="evenodd" clip-rule="evenodd" d="M15.5 14C17.433 14 19 12.433 19 10.5C19 8.56748 17.4338 7.00077 15.5014 7L14.8353 6.99973L14.5789 6.38489C13.7492 4.39537 11.7864 3 9.5 3C6.59569 3 4.21643 5.25173 4.014 8.10392L3.9566 8.91273L3.15339 9.02372C1.93707 9.19178 1 10.2373 1 11.5C1 12.8807 2.11929 14 3.5 14H7V15H3.5C1.567 15 0 13.433 0 11.5C0 9.73105 1.31232 8.26861 3.01651 8.03313C3.25583 4.66119 6.06713 2 9.5 2C12.2039 2 14.5223 3.65105 15.5018 6C17.9863 6.00099 20 8.01533 20 10.5C20 12.9853 17.9853 15 15.5 15C15.331 15 15.1642 14.9907 15 14.9725V15H12V14H15.5ZM12.3841 10.6799L9.50002 7.21899L6.61591 10.6799L7.38413 11.3201L9.00002 9.38104V17H10V9.38104L11.6159 11.3201L12.3841 10.6799Z" fill="#3A3B3D"/>
</svg>
