<svg width="85" height="85" viewBox="0 0 85 85" fill="none" xmlns="http://www.w3.org/2000/svg">
<mask id="path-1-inside-1" fill="white">
<path d="M10 15H35.75L41.75 23H78.0525L73.9525 64H53V63H73.0475L76.9475 24H41.25L35.25 16H11V63H32V64H10V15Z"/>
<path d="M50.8782 51.6573L42.5141 42.7704L34.15 51.6573L34.8782 52.3427L42.0141 44.7608V70H43.0141V44.7608L50.15 52.3427L50.8782 51.6573Z"/>
</mask>
<path d="M35.75 15L36.55 14.4L36.25 14H35.75V15ZM10 15V14H9V15H10ZM41.75 23L40.95 23.6L41.25 24H41.75V23ZM78.0525 23L79.0475 23.0995L79.1575 22H78.0525V23ZM73.9525 64V65H74.8575L74.9475 64.0995L73.9525 64ZM53 64H52V65H53V64ZM53 63V62H52V63H53ZM73.0475 63V64H73.9525L74.0425 63.0995L73.0475 63ZM76.9475 24L77.9426 24.0995L78.0525 23H76.9475V24ZM41.25 24L40.45 24.6L40.75 25H41.25V24ZM35.25 16L36.05 15.4L35.75 15H35.25V16ZM11 16V15H10V16H11ZM11 63H10V64H11V63ZM32 63H33V62H32V63ZM32 64V65H33V64H32ZM10 64H9V65H10V64ZM42.5141 42.7704L43.2423 42.0851L42.5141 41.3114L41.7859 42.0851L42.5141 42.7704ZM50.8782 51.6573L51.5636 52.3855L52.2918 51.7001L51.6064 50.9719L50.8782 51.6573ZM34.15 51.6573L33.4218 50.9719L32.7364 51.7001L33.4646 52.3855L34.15 51.6573ZM34.8782 52.3427L34.1928 53.0709L34.921 53.7562L35.6064 53.028L34.8782 52.3427ZM42.0141 44.7608H43.0141V42.2392L41.2859 44.0754L42.0141 44.7608ZM42.0141 70H41.0141V71H42.0141V70ZM43.0141 70V71H44.0141V70H43.0141ZM43.0141 44.7608L43.7423 44.0754L42.0141 42.2392V44.7608H43.0141ZM50.15 52.3427L49.4218 53.028L50.1072 53.7562L50.8354 53.0709L50.15 52.3427ZM35.75 14H10V16H35.75V14ZM42.55 22.4L36.55 14.4L34.95 15.6L40.95 23.6L42.55 22.4ZM78.0525 22H41.75V24H78.0525V22ZM74.9475 64.0995L79.0475 23.0995L77.0574 22.9005L72.9575 63.9005L74.9475 64.0995ZM53 65H73.9525V63H53V65ZM52 63V64H54V63H52ZM73.0475 62H53V64H73.0475V62ZM75.9525 23.9005L72.0525 62.9005L74.0425 63.0995L77.9426 24.0995L75.9525 23.9005ZM41.25 25H76.9475V23H41.25V25ZM34.45 16.6L40.45 24.6L42.05 23.4L36.05 15.4L34.45 16.6ZM11 17H35.25V15H11V17ZM12 63V16H10V63H12ZM32 62H11V64H32V62ZM33 64V63H31V64H33ZM10 65H32V63H10V65ZM9 15V64H11V15H9ZM41.7859 43.4558L50.15 52.3427L51.6064 50.9719L43.2423 42.0851L41.7859 43.4558ZM34.8782 52.3427L43.2423 43.4558L41.7859 42.0851L33.4218 50.9719L34.8782 52.3427ZM35.5636 51.6145L34.8354 50.9291L33.4646 52.3855L34.1928 53.0709L35.5636 51.6145ZM41.2859 44.0754L34.15 51.6573L35.6064 53.028L42.7423 45.4461L41.2859 44.0754ZM43.0141 70V44.7608H41.0141V70H43.0141ZM43.0141 69H42.0141V71H43.0141V69ZM42.0141 44.7608V70H44.0141V44.7608H42.0141ZM50.8782 51.6573L43.7423 44.0754L42.2859 45.4461L49.4218 53.028L50.8782 51.6573ZM50.1928 50.9291L49.4646 51.6145L50.8354 53.0709L51.5636 52.3855L50.1928 50.9291Z" fill="#3A3B3D" mask="url(#path-1-inside-1)"/>
</svg>
