<svg width="20" height="20" viewBox="0 0 20 20" fill="none" xmlns="http://www.w3.org/2000/svg">
<path d="M11 6.29291V1H10V6.29291L8.35355 4.64648L7.64645 5.35359L10.5 8.2071L13.3536 5.35359L12.6464 4.64648L11 6.29291Z" fill="#7E818E"/>
<path fill-rule="evenodd" clip-rule="evenodd" d="M4 6H6V7H4C3.44772 7 3 7.44772 3 8V16C3 16.0896 3.01178 16.1764 3.03387 16.259L8 11.2929L11 14.2929L14.9629 10.33L17 11.9597V8C17 7.44772 16.5523 7 16 7H15V6H16C17.1046 6 18 6.89543 18 8V16C18 17.1046 17.1046 18 16 18H4C2.89543 18 2 17.1046 2 16V8C2 6.89543 2.89543 6 4 6ZM4 17C3.91042 17 3.82359 16.9882 3.74098 16.9661L8 12.7071L11 15.7071L15.0371 11.67L17 13.2403V16C17 16.5523 16.5523 17 16 17H4Z" fill="#7E818E"/>
<path d="M12 11C12.5523 11 13 10.5523 13 10C13 9.44771 12.5523 9 12 9C11.4477 9 11 9.44771 11 10C11 10.5523 11.4477 11 12 11Z" fill="#7E818E"/>
</svg>
