<svg width="15" height="15" viewBox="0 0 15 15" fill="none" xmlns="http://www.w3.org/2000/svg">
<path fill-rule="evenodd" clip-rule="evenodd" d="M6.60788 1.50484C7.0044 0.83171 7.99569 0.831711 8.39222 1.50485L14.8604 12.4853C15.257 13.1585 14.7613 13.9999 13.9683 13.9999H1.03181C0.238777 13.9999 -0.256872 13.1585 0.139648 12.4853L6.60788 1.50484Z" fill="#F2C94C"/>
<path fill-rule="evenodd" clip-rule="evenodd" d="M7.0368 11.0959C7.15947 11.2186 7.31413 11.2799 7.50079 11.2799C7.68746 11.2799 7.83946 11.2186 7.95679 11.0959C8.07946 10.9679 8.14079 10.8159 8.14079 10.6399C8.14079 10.4639 8.07946 10.3146 7.95679 10.1919C7.83946 10.0639 7.68746 9.99994 7.50079 9.99994C7.31413 9.99994 7.15947 10.0639 7.0368 10.1919C6.91947 10.3146 6.8608 10.4639 6.8608 10.6399C6.8608 10.8159 6.91947 10.9679 7.0368 11.0959ZM7.99989 4.99997H6.9999V8.99995H7.99989V4.99997Z" fill="black"/>
</svg>
