<svg width="115" height="115" viewBox="0 0 115 115" fill="none" xmlns="http://www.w3.org/2000/svg">
<path d="M38.9687 74.6795L56.2928 57.3553L38.9687 40.0312L39.6758 39.3241L56.9999 56.6482L74.3241 39.3241L75.0312 40.0312L57.707 57.3553L75.0312 74.6795L74.3241 75.3866L56.9999 58.0625L39.6758 75.3866L38.9687 74.6795Z" fill="#3A3B3D"/>
<path fill-rule="evenodd" clip-rule="evenodd" d="M115 57.5C115 89.2564 89.2564 115 57.5 115C25.7436 115 0 89.2564 0 57.5C0 25.7436 25.7436 0 57.5 0C89.2564 0 115 25.7436 115 57.5ZM114 57.5C114 88.7041 88.7041 114 57.5 114C26.2959 114 1 88.7041 1 57.5C1 26.2959 26.2959 1 57.5 1C88.7041 1 114 26.2959 114 57.5Z" fill="#3A3B3D"/>
</svg>
