<svg width="20" height="20" viewBox="0 0 20 20" fill="none" xmlns="http://www.w3.org/2000/svg">
<path fill-rule="evenodd" clip-rule="evenodd" d="M15.5 11C17.433 11 19 9.433 19 7.5C19 5.567 17.433 4 15.5 4C13.567 4 12 5.567 12 7.5C12 9.433 13.567 11 15.5 11ZM15.5 12C17.9853 12 20 9.98528 20 7.5C20 5.01472 17.9853 3 15.5 3C13.0147 3 11 5.01472 11 7.5C11 9.98528 13.0147 12 15.5 12Z" fill="#3A3B3D"/>
<path fill-rule="evenodd" clip-rule="evenodd" d="M0 4H5.5314L6.5708 6.15674L10.2199 6.20853L10.2087 7.20847L5.93929 7.14977L4.90326 5H1V16H14.6209L15.0021 12.8423L15.9979 12.9336L15.5334 17H0V4Z" fill="#3A3B3D"/>
<path d="M13 7H18V8H13V7Z" fill="#3A3B3D"/>
<path d="M16 5V10H15V5H16Z" fill="#3A3B3D"/>
</svg>
