<svg width="25" height="25" viewBox="0 0 25 25" fill="none" xmlns="http://www.w3.org/2000/svg">
<path fill-rule="evenodd" clip-rule="evenodd" d="M13.3652 14.5967C9.07849 14.5967 5.39084 12.0588 3.69409 8.42289L4.60028 8C6.13996 11.2993 9.48383 13.5967 13.3652 13.5967C17.2473 13.5967 20.5905 11.3084 22.1299 8.00048L23.0366 8.4224C21.3396 12.069 17.6513 14.5967 13.3652 14.5967ZM2 14.5721L4.72592 11.6825L5.45334 12.3687L2.72742 15.2583L2 14.5721ZM23.9989 15.2577L21.2827 12.368L22.0113 11.6831L24.7276 14.5728L23.9989 15.2577ZM6.84542 17.3548L8.41547 14.4651L9.29415 14.9425L7.7241 17.8322L6.84542 17.3548ZM19.0109 17.8322L17.4409 14.9425L18.3196 14.4651L19.8896 17.3548L19.0109 17.8322ZM12.8655 19.0101V16.1204H13.8655V19.0101H12.8655Z" fill="#3A3B3D"/>
</svg>
