<svg width="20" height="20" viewBox="0 0 20 20" fill="none" xmlns="http://www.w3.org/2000/svg">
<path fill-rule="evenodd" clip-rule="evenodd" d="M4.9881 8.49612L5.69521 9.20323L2.00524 12.8932C0.666781 14.2317 0.663905 16.4132 2.0053 17.766C3.3438 19.1037 5.52414 19.1058 6.87669 17.7647L6.87744 17.7639L6.87863 17.7627L10.5667 14.0747C11.9053 12.736 11.9074 10.5546 10.5653 9.20183L11.2752 8.49752C13.0025 10.2386 13.0045 13.051 11.2738 14.7818L7.5838 18.4718C7.58216 18.4734 7.58306 18.4725 7.58306 18.4725L7.58175 18.4738C5.84069 20.2012 3.02823 20.2032 1.29748 18.4724L1.29609 18.471C-0.431261 16.73 -0.433262 13.9175 1.29748 12.1867L4.9881 8.49612Z" fill="#3A3B3D"/>
<path fill-rule="evenodd" clip-rule="evenodd" d="M12.1881 1.29609C13.9292 -0.431261 16.7416 -0.433262 18.4724 1.29748L18.4738 1.29888C20.2011 3.03994 20.2031 5.85241 18.4724 7.58315L14.7818 11.2738L14.0747 10.5667L17.7646 6.87669C19.1031 5.53825 19.106 3.35671 17.7646 2.00393C16.4261 0.666108 14.2456 0.664126 12.893 2.00537L9.2032 5.69521C7.86451 7.03389 7.86251 9.21534 9.20459 10.5681L8.4947 11.2724C6.76735 9.53131 6.76535 6.71885 8.49609 4.9881L12.1861 1.29813C12.1861 1.29813 12.1867 1.29748 12.5403 1.65104L12.1861 1.29813L12.1881 1.29609Z" fill="#3A3B3D"/>
</svg>
