<svg width="25" height="25" viewBox="0 0 25 25" fill="none" xmlns="http://www.w3.org/2000/svg">
<path d="M22.4298 16.0116L22.5013 15.5167L22.4948 15.5158L22.4298 16.0116ZM22.0732 15.65L22.5705 15.5984L22.5696 15.5894L22.5683 15.5804L22.0732 15.65ZM21.848 11.4573L21.348 11.4619L21.348 11.463L21.848 11.4573ZM16.5552 4.77643L16.6574 4.28697L16.653 4.28609L16.5552 4.77643ZM14.8566 2.02144L14.9331 1.52733L14.9329 1.5273L14.8566 2.02144ZM12.6231 4.76782L12.5211 4.27834L12.5187 4.27885L12.6231 4.76782ZM7.15202 11.4573L6.65204 11.4527L6.65204 11.4534L7.15202 11.4573ZM6.9268 15.65L7.4209 15.7269L7.42192 15.7196L6.9268 15.65ZM6.57019 16.0116L6.50202 15.5163L6.49873 15.5167L6.57019 16.0116ZM5.04053 18.0692L5.52882 17.9616L5.52848 17.9601L5.04053 18.0692ZM23.9595 18.0692L23.4715 17.9601L23.4709 17.9627L23.9595 18.0692ZM22.4948 15.5158C22.5319 15.5207 22.5659 15.5535 22.5705 15.5984L21.5759 15.7016C21.6181 16.1081 21.9336 16.4508 22.3648 16.5074L22.4948 15.5158ZM22.5683 15.5804C22.4972 15.0747 22.376 13.875 22.3479 11.4515L21.348 11.463C21.3763 13.9124 21.499 15.1577 21.5781 15.7196L22.5683 15.5804ZM22.348 11.4526C22.3331 9.85003 21.905 8.26564 20.9726 6.97216C20.0352 5.67161 18.6084 4.6944 16.6574 4.28699L16.453 5.26587C18.1713 5.62469 19.3768 6.46835 20.1614 7.55689C20.9511 8.65249 21.3347 10.0254 21.348 11.4619L22.348 11.4526ZM16.653 4.28609C16.6463 4.28476 16.6486 4.28286 16.6557 4.29065C16.6635 4.29919 16.6798 4.32393 16.6798 4.36318H15.6798C15.6798 4.84413 16.0543 5.18638 16.4574 5.26677L16.653 4.28609ZM16.6798 4.36318V3.5453H15.6798V4.36318H16.6798ZM16.6798 3.5453C16.6798 2.5702 15.959 1.68607 14.9331 1.52733L14.7801 2.51556C15.3121 2.59788 15.6798 3.05681 15.6798 3.5453H16.6798ZM14.9329 1.5273C13.6704 1.33246 12.4891 2.22239 12.4891 3.4592H13.4891C13.4891 2.9225 14.0345 2.40049 14.7803 2.51559L14.9329 1.5273ZM12.4891 3.4592V4.35457H13.4891V3.4592H12.4891ZM12.4891 4.35457C12.4891 4.31579 12.505 4.2925 12.5115 4.28531C12.5172 4.27889 12.5205 4.27847 12.5211 4.27835L12.7252 5.25729C13.1211 5.17474 13.4891 4.83013 13.4891 4.35457H12.4891ZM12.5187 4.27885C8.719 5.09037 6.68212 8.18697 6.65204 11.4527L7.652 11.4619C7.67822 8.61494 9.43265 5.96051 12.7276 5.25679L12.5187 4.27885ZM6.65204 11.4534C6.63339 13.8735 6.50298 15.0733 6.43167 15.5804L7.42192 15.7196C7.50076 15.1591 7.63311 13.9139 7.65201 11.4611L6.65204 11.4534ZM6.43275 15.5731C6.43464 15.5609 6.43968 15.5509 6.44814 15.5421C6.45773 15.5322 6.47616 15.5198 6.50203 15.5163L6.63835 16.5069C7.06727 16.4479 7.36233 16.1027 7.42084 15.7269L6.43275 15.5731ZM6.49873 15.5167C5.24713 15.6975 4.25326 16.8397 4.55258 18.1783L5.52848 17.9601C5.37735 17.2842 5.86622 16.6184 6.64165 16.5065L6.49873 15.5167ZM4.55224 18.1768C4.79434 19.2756 5.90602 19.9295 6.97372 19.9295V18.9295C6.23961 18.9295 5.64334 18.4814 5.52882 17.9616L4.55224 18.1768ZM22.0263 19.9295C23.0913 19.9295 24.2059 19.2862 24.448 18.1757L23.4709 17.9627C23.3564 18.4881 22.763 18.9295 22.0263 18.9295V19.9295ZM24.4474 18.1783C24.7467 16.8397 23.7529 15.6975 22.5013 15.5167L22.3583 16.5065C23.1338 16.6184 23.6226 17.2842 23.4715 17.9601L24.4474 18.1783ZM16.5 20.0734C16.5 21.0206 15.6488 21.8669 14.5 21.8669V22.8669C16.1207 22.8669 17.5 21.6499 17.5 20.0734H16.5ZM14.5 21.8669C13.3499 21.8669 12.5 21.0279 12.5 20.0734H11.5C11.5 21.6596 12.8805 22.8669 14.5 22.8669V21.8669ZM17.5 20.0734V19.5H16.5V20.0734H17.5ZM12.5 20.0734V19.5H11.5V20.0734H12.5ZM6.97372 19.9295H22.0263V18.9295H6.97372V19.9295Z" fill="#3A3B3D"/>
</svg>
