<svg width="25" height="25" viewBox="0 0 25 25" fill="none" xmlns="http://www.w3.org/2000/svg">
<path fill-rule="evenodd" clip-rule="evenodd" d="M2.5 6.5H6.8838C7.12626 8.19661 8.58451 9.5 10.3484 9.5C12.1123 9.5 13.5705 8.19661 13.813 6.5H22.5V5.5H13.813C13.5705 3.80339 12.1123 2.5 10.3484 2.5C8.58451 2.5 7.12626 3.80339 6.8838 5.5H2.5V6.5ZM10.3484 3.5C8.96703 3.5 7.84839 4.61864 7.84839 6C7.84839 7.38136 8.96703 8.5 10.3484 8.5C11.7297 8.5 12.8484 7.38136 12.8484 6C12.8484 4.61864 11.7297 3.5 10.3484 3.5Z" fill="#3A3B3D"/>
<path fill-rule="evenodd" clip-rule="evenodd" d="M18.1162 18.5C17.8737 16.8034 16.4155 15.5 14.6516 15.5C12.8877 15.5 11.4295 16.8034 11.187 18.5H2.50005V19.5H11.187C11.4295 21.1966 12.8877 22.5 14.6516 22.5C16.4155 22.5 17.8737 21.1966 18.1162 19.5H22.5V18.5H18.1162ZM17.1516 19C17.1516 17.6186 16.033 16.5 14.6516 16.5C13.2703 16.5 12.1516 17.6186 12.1516 19C12.1516 20.3814 13.2703 21.5 14.6516 21.5C16.033 21.5 17.1516 20.3814 17.1516 19Z" fill="#3A3B3D"/>
</svg>
