<svg width="20" height="20" viewBox="0 0 20 20" fill="none" xmlns="http://www.w3.org/2000/svg">
<path fill-rule="evenodd" clip-rule="evenodd" d="M15.5 5C14.6716 5 14 5.67157 14 6.5C14 7.32843 14.6716 8 15.5 8C16.3284 8 17 7.32843 17 6.5C17 5.67157 16.3284 5 15.5 5ZM13 6.5C13 5.11929 14.1193 4 15.5 4C16.8807 4 18 5.11929 18 6.5C18 7.88071 16.8807 9 15.5 9C14.1193 9 13 7.88071 13 6.5Z" fill="#7E818E"/>
<path fill-rule="evenodd" clip-rule="evenodd" d="M4.5 5C3.67157 5 3 5.67157 3 6.5C3 7.32843 3.67157 8 4.5 8C5.32843 8 6 7.32843 6 6.5C6 5.67157 5.32843 5 4.5 5ZM2 6.5C2 5.11929 3.11929 4 4.5 4C5.88071 4 7 5.11929 7 6.5C7 7.88071 5.88071 9 4.5 9C3.11929 9 2 7.88071 2 6.5Z" fill="#7E818E"/>
<path fill-rule="evenodd" clip-rule="evenodd" d="M11 13.5C11 12.1193 12.1193 11 13.5 11H17.5C18.8807 11 20 12.1193 20 13.5V17H19V13.5C19 12.6716 18.3284 12 17.5 12H13.5C12.6716 12 12 12.6716 12 13.5V17H11V13.5Z" fill="#7E818E"/>
<path fill-rule="evenodd" clip-rule="evenodd" d="M9 13.5C9 12.1193 7.88071 11 6.5 11H2.5C1.11929 11 0 12.1193 0 13.5V17H1V13.5C1 12.6716 1.67157 12 2.5 12H6.5C7.32843 12 8 12.6716 8 13.5V17H9V13.5Z" fill="#7E818E"/>
</svg>
