<svg width="25" height="25" viewBox="0 0 25 25" fill="none" xmlns="http://www.w3.org/2000/svg">
<path fill-rule="evenodd" clip-rule="evenodd" d="M12.5 1.5C11.1193 1.5 10 2.61929 10 4C10 5.38071 11.1193 6.5 12.5 6.5C13.8807 6.5 15 5.38071 15 4C15 2.61929 13.8807 1.5 12.5 1.5ZM11 4C11 3.17157 11.6716 2.5 12.5 2.5C13.3284 2.5 14 3.17157 14 4C14 4.82843 13.3284 5.5 12.5 5.5C11.6716 5.5 11 4.82843 11 4Z" fill="#3A3B3D"/>
<path fill-rule="evenodd" clip-rule="evenodd" d="M20.5 5.5C19.1193 5.5 18 6.61929 18 8C18 9.38071 19.1193 10.5 20.5 10.5C21.8807 10.5 23 9.38071 23 8C23 6.61929 21.8807 5.5 20.5 5.5ZM19 8C19 7.17157 19.6716 6.5 20.5 6.5C21.3284 6.5 22 7.17157 22 8C22 8.82843 21.3284 9.5 20.5 9.5C19.6716 9.5 19 8.82843 19 8Z" fill="#3A3B3D"/>
<path fill-rule="evenodd" clip-rule="evenodd" d="M2 8C2 6.61929 3.11929 5.5 4.5 5.5C5.88071 5.5 7 6.61929 7 8C7 9.38071 5.88071 10.5 4.5 10.5C3.11929 10.5 2 9.38071 2 8ZM4.5 6.5C3.67157 6.5 3 7.17157 3 8C3 8.82843 3.67157 9.5 4.5 9.5C5.32843 9.5 6 8.82843 6 8C6 7.17157 5.32843 6.5 4.5 6.5Z" fill="#3A3B3D"/>
<path d="M18.5 12.5C17.9372 12.5 17.4178 12.686 17 12.9998V11C17 9.61929 15.8807 8.5 14.5 8.5H10.5C9.11929 8.5 8 9.61929 8 11V12.9998C7.58217 12.686 7.0628 12.5 6.5 12.5H2.5C1.11929 12.5 0 13.6193 0 15V19.9959H1V15C1 14.1716 1.67157 13.5 2.5 13.5H6.5C7.32843 13.5 8 14.1716 8 15V21.5H9V11C9 10.1716 9.67157 9.5 10.5 9.5H14.5C15.3284 9.5 16 10.1716 16 11V21.5H17V15C17 14.1716 17.6716 13.5 18.5 13.5H22.5C23.3284 13.5 24 14.1716 24 15V19.9959H25V15C25 13.6193 23.8807 12.5 22.5 12.5H18.5Z" fill="#3A3B3D"/>
</svg>
