<svg width="25" height="25" viewBox="0 0 25 25" fill="none" xmlns="http://www.w3.org/2000/svg">
<path fill-rule="evenodd" clip-rule="evenodd" d="M8.75 8.125C8.75 9.85089 7.35089 11.25 5.625 11.25C3.89911 11.25 2.5 9.85089 2.5 8.125C2.5 6.39911 3.89911 5 5.625 5C7.35089 5 8.75 6.39911 8.75 8.125ZM7.75 8.125C7.75 9.2986 6.7986 10.25 5.625 10.25C4.4514 10.25 3.5 9.2986 3.5 8.125C3.5 6.95139 4.4514 6 5.625 6C6.7986 6 7.75 6.95139 7.75 8.125Z" fill="#7E818E"/>
<path fill-rule="evenodd" clip-rule="evenodd" d="M22.5 8.125C22.5 9.85089 21.1009 11.25 19.375 11.25C17.6491 11.25 16.25 9.85089 16.25 8.125C16.25 6.39911 17.6491 5 19.375 5C21.1009 5 22.5 6.39911 22.5 8.125ZM21.5 8.125C21.5 9.2986 20.5486 10.25 19.375 10.25C18.2014 10.25 17.25 9.2986 17.25 8.125C17.25 6.95139 18.2014 6 19.375 6C20.5486 6 21.5 6.95139 21.5 8.125Z" fill="#7E818E"/>
<path d="M8.25 14.75C9.35457 14.75 10.25 15.6454 10.25 16.75V21H11.25V16.75C11.25 15.0931 9.90685 13.75 8.25 13.75H3C1.34315 13.75 0 15.0931 0 16.75V21H1V16.75C1 15.6454 1.89543 14.75 3 14.75H8.25Z" fill="#7E818E"/>
<path d="M21.95 14.75H16.7C15.5954 14.75 14.7 15.6454 14.7 16.75V21H13.7V16.75C13.7 15.0931 15.0431 13.75 16.7 13.75H21.95C23.6069 13.75 24.95 15.0931 24.95 16.75V21H23.95V16.75C23.95 15.6454 23.0546 14.75 21.95 14.75Z" fill="#7E818E"/>
</svg>
