<svg width="1037" height="40" viewBox="0 0 1037 40" fill="none" xmlns="http://www.w3.org/2000/svg">
<rect y="39" width="1030" height="1" fill="#E1E3E8"/>
<path d="M1029.31 25.1179L1015.16 10.9758" stroke="#C3C5CB"/>
<path d="M1015.16 25.3048L1029.3 11.1626" stroke="#C3C5CB"/>
<path d="M8.405 25.168C12.038 25.168 13.76 23.446 13.76 20.989C13.76 15.403 5.318 17.587 5.318 14.122C5.318 12.946 6.263 12.022 8.405 12.022C10.463 12.022 11.219 12.799 11.45 14.605H13.55C13.34 11.686 11.786 10.132 8.405 10.132C5.003 10.132 3.26 11.854 3.26 14.122C3.26 19.477 11.702 17.314 11.702 20.968C11.702 22.249 10.673 23.278 8.405 23.278C6.284 23.278 5.339 22.417 5.15 20.275H3.05C3.26 23.572 4.961 25.168 8.405 25.168ZM14.7222 16.222H16.6122V21.913C16.6122 23.887 17.7252 25 19.6992 25H21.4422V23.278H19.9722C19.0062 23.278 18.5022 22.774 18.5022 21.703V16.222H21.2322V14.5H18.5022V11.56H16.6122V14.5H14.7222V16.222ZM26.3797 25.168C27.9127 25.168 29.1727 24.475 29.9287 23.278L30.1597 25H31.6297V17.86C31.6297 15.697 30.2647 14.332 27.6397 14.332C24.8677 14.332 23.5447 15.655 23.4397 17.44H25.5397C25.6447 16.6 26.2327 16.012 27.6397 16.012C29.0677 16.012 29.7397 16.684 29.7397 17.86V18.637H27.6397C24.3007 18.637 23.0197 19.918 23.0197 22.06C23.0197 23.992 24.1957 25.168 26.3797 25.168ZM26.5897 23.488C25.5817 23.488 24.9937 22.9 24.9937 22.018C24.9937 20.947 25.7077 20.233 27.6397 20.233H29.7397V20.611C29.7397 22.165 28.4167 23.488 26.5897 23.488ZM34.6648 25H36.5548V18.7C36.5968 17.188 37.6678 16.138 39.5998 16.138H40.6498V14.332H39.5998C38.2138 14.332 37.0378 14.899 36.3238 15.928L36.1348 14.5H34.6648V25ZM41.7925 16.222H43.6825V21.913C43.6825 23.887 44.7955 25 46.7695 25H48.5125V23.278H47.0425C46.0765 23.278 45.5725 22.774 45.5725 21.703V16.222H48.3025V14.5H45.5725V11.56H43.6825V14.5H41.7925V16.222ZM54.6099 16.222H56.4999V21.913C56.4999 23.887 57.6129 25 59.5869 25H61.3299V23.278H59.8599C58.8939 23.278 58.3899 22.774 58.3899 21.703V16.222H61.1199V14.5H58.3899V11.56H56.4999V14.5H54.6099V16.222ZM65.2125 29.2H67.2285L72.8775 14.5H70.8615L67.8375 22.627L64.6455 14.5H62.5875L66.8295 25L65.2125 29.2ZM79.8396 25.168C82.2126 25.168 83.9976 23.383 83.9976 20.149V19.351C83.9976 16.096 82.2336 14.332 79.8606 14.332C78.3486 14.332 77.1516 14.899 76.4166 16.012L76.2276 14.5H74.7576V29.2H76.6476V23.803C77.3826 24.706 78.4746 25.168 79.8396 25.168ZM79.3356 23.362C77.7816 23.362 76.6476 22.207 76.6476 20.149V19.204C76.6896 17.209 77.8236 16.138 79.3356 16.138C80.9946 16.138 82.0236 17.188 82.0236 19.351V20.149C82.0236 22.354 81.0156 23.362 79.3356 23.362ZM86.6766 25H88.5666V14.5H86.6766V25ZM87.6216 12.904C88.3356 12.904 88.8816 12.358 88.8816 11.644C88.8816 10.93 88.3356 10.384 87.6216 10.384C86.9076 10.384 86.3616 10.93 86.3616 11.644C86.3616 12.358 86.9076 12.904 87.6216 12.904ZM91.8816 25H93.7716V18.7C93.8136 17.188 94.9056 16.138 96.6066 16.138C98.1396 16.138 99.0216 17.02 99.0216 18.805V25H100.912V18.805C100.912 15.907 99.3366 14.332 96.9216 14.332C95.4516 14.332 94.2756 14.92 93.5406 15.949L93.3516 14.5H91.8816V25ZM107.489 24.748C108.833 24.748 109.925 24.286 110.681 23.404V25C110.681 26.932 109.925 27.688 108.119 27.688C106.523 27.688 105.956 27.1 105.746 26.05H103.856C104.066 28.087 105.326 29.368 108.119 29.368C111.038 29.368 112.571 27.835 112.571 25V14.5H111.101L110.891 15.991C110.156 14.899 108.98 14.332 107.489 14.332C105.095 14.332 103.331 16.096 103.331 19.141V19.939C103.331 23.005 105.074 24.748 107.489 24.748ZM107.993 22.942C106.355 22.942 105.305 21.913 105.305 19.939V19.141C105.305 17.188 106.334 16.138 107.993 16.138C109.547 16.138 110.681 17.272 110.681 19.141V19.939C110.681 21.808 109.547 22.942 107.993 22.942Z" fill="#E1E3E8"/>
<path d="M1 35L1 0" stroke="#3A3A3D"/>
</svg>
