<svg width="1037" height="40" viewBox="0 0 1037 40" fill="none" xmlns="http://www.w3.org/2000/svg">
<rect y="39" width="1030" height="1" fill="#E1E3E8"/>
<path d="M1029.31 25.1179L1015.16 10.9758" stroke="#C3C5CB"/>
<path d="M1015.16 25.3048L1029.3 11.1626" stroke="#C3C5CB"/>
<path d="M6.518 20.905H8.492L11.411 14.71L12.356 12.484V25H14.33V10.3H11.558L7.547 18.805L3.494 10.3H0.68V25H2.654V12.505L3.578 14.71L6.518 20.905ZM20.201 25.168C21.734 25.168 22.994 24.475 23.75 23.278L23.981 25H25.451V17.86C25.451 15.697 24.086 14.332 21.461 14.332C18.689 14.332 17.366 15.655 17.261 17.44H19.361C19.466 16.6 20.054 16.012 21.461 16.012C22.889 16.012 23.561 16.684 23.561 17.86V18.637H21.461C18.122 18.637 16.841 19.918 16.841 22.06C16.841 23.992 18.017 25.168 20.201 25.168ZM20.411 23.488C19.403 23.488 18.815 22.9 18.815 22.018C18.815 20.947 19.529 20.233 21.461 20.233H23.561V20.611C23.561 22.165 22.238 23.488 20.411 23.488Z" fill="#3A3A3D"/>
<path d="M28 35L28 0" stroke="#3A3A3D"/>
</svg>
