<svg width="25" height="25" viewBox="0 0 25 25" fill="none" xmlns="http://www.w3.org/2000/svg">
<circle cx="13" cy="13" r="8.5" stroke="#3A3B3D"/>
<path d="M20.4401 11.1338C21.0345 11.4549 21.4799 11.8164 21.7394 12.2048L21.3237 12.4826C21.4489 12.67 21.5 12.8413 21.5 13.0001C21.5 13.1589 21.4489 13.3302 21.3237 13.5176L21.7394 13.7954C21.4799 14.1839 21.0345 14.5454 20.4401 14.8664L20.2025 14.4265C19.7914 14.6485 19.2937 14.8546 18.7209 15.0364L18.8722 15.513C18.3685 15.6729 17.8162 15.8126 17.2247 15.9286L17.1284 15.438C16.6127 15.5392 16.0648 15.6222 15.4911 15.6844L15.545 16.1815C14.9997 16.2406 14.4329 16.2812 13.8499 16.3013L13.8326 15.8016C13.5586 15.8111 13.2809 15.8159 13 15.8159C12.7191 15.8159 12.4414 15.8111 12.1674 15.8016L12.1501 16.3013C11.5671 16.2812 11.0003 16.2406 10.455 16.1815L10.5089 15.6844C9.93522 15.6222 9.38727 15.5392 8.87161 15.438L8.77534 15.9286C8.18376 15.8126 7.63151 15.6729 7.12785 15.513L7.27914 15.0364C6.70633 14.8546 6.20865 14.6485 5.7975 14.4265L5.5599 14.8664C4.96546 14.5454 4.52011 14.1839 4.26056 13.7954L4.67629 13.5176C4.55106 13.3302 4.5 13.1589 4.5 13.0001C4.5 12.8413 4.55106 12.67 4.67629 12.4826L4.26056 12.2048C4.52011 11.8164 4.96546 11.4549 5.5599 11.1338L5.79749 11.5738C6.20864 11.3517 6.70632 11.1457 7.27914 10.9638L7.12785 10.4873C7.63151 10.3274 8.18376 10.1877 8.77534 10.0716L8.87161 10.5622C9.38727 10.4611 9.93522 10.378 10.5089 10.3158L10.455 9.81875C11.0003 9.75964 11.5671 9.71903 12.1501 9.69892L12.1674 10.1986C12.4414 10.1892 12.7191 10.1843 13 10.1843C13.2809 10.1843 13.5586 10.1892 13.8326 10.1986L13.8499 9.69892C14.4329 9.71903 14.9997 9.75964 15.545 9.81875L15.4911 10.3158C16.0648 10.378 16.6127 10.4611 17.1284 10.5622L17.2247 10.0716C17.8162 10.1877 18.3685 10.3274 18.8722 10.4873L18.7209 10.9638C19.2937 11.1457 19.7914 11.3517 20.2025 11.5738L20.4401 11.1338Z" stroke="#3A3B3D" stroke-dasharray="2 2"/>
<path d="M14.8663 20.4401C14.5453 21.0345 14.1838 21.4799 13.7953 21.7394L13.5175 21.3237C13.3301 21.4489 13.1588 21.5 13 21.5C12.8412 21.5 12.6699 21.4489 12.4825 21.3237L12.2047 21.7394C11.8163 21.4799 11.4548 21.0345 11.1337 20.4401L11.5737 20.2025C11.3516 19.7914 11.1456 19.2937 10.9637 18.7209L10.4872 18.8722C10.3273 18.3685 10.1876 17.8162 10.0715 17.2247L10.5621 17.1284C10.4609 16.6127 10.3779 16.0648 10.3157 15.4911L9.81864 15.545C9.75953 14.9997 9.71893 14.4329 9.69881 13.8499L10.1985 13.8326C10.1891 13.5586 10.1842 13.2809 10.1842 13C10.1842 12.7191 10.1891 12.4414 10.1985 12.1674L9.69881 12.1501C9.71893 11.5671 9.75953 11.0003 9.81864 10.455L10.3157 10.5089C10.3779 9.93522 10.4609 9.38727 10.5621 8.87161L10.0715 8.77534C10.1876 8.18376 10.3273 7.63151 10.4872 7.12785L10.9637 7.27914C11.1456 6.70632 11.3516 6.20865 11.5737 5.7975L11.1337 5.5599C11.4548 4.96546 11.8163 4.52011 12.2047 4.26056L12.4825 4.67629C12.6699 4.55106 12.8412 4.5 13 4.5C13.1588 4.5 13.3301 4.55106 13.5175 4.67629L13.7953 4.26056C14.1838 4.52011 14.5453 4.96546 14.8663 5.5599L14.4264 5.7975C14.6484 6.20865 14.8544 6.70632 15.0363 7.27914L15.5129 7.12785C15.6728 7.63151 15.8125 8.18376 15.9285 8.77534L15.4379 8.87161C15.5391 9.38727 15.6221 9.93522 15.6843 10.5089L16.1814 10.455C16.2405 11.0003 16.2811 11.5671 16.3012 12.1501L15.8015 12.1674C15.811 12.4414 15.8158 12.7191 15.8158 13C15.8158 13.2809 15.811 13.5586 15.8015 13.8326L16.3012 13.8499C16.2811 14.4329 16.2405 14.9997 16.1814 15.545L15.6843 15.4911C15.6221 16.0648 15.5391 16.6127 15.4379 17.1284L15.9285 17.2247C15.8125 17.8162 15.6728 18.3685 15.5129 18.8722L15.0363 18.7209C14.8544 19.2937 14.6484 19.7914 14.4263 20.2025L14.8663 20.4401Z" stroke="#3A3B3D" stroke-dasharray="2 2"/>
</svg>
