<svg width="30" height="30" viewBox="0 0 30 30" fill="none" xmlns="http://www.w3.org/2000/svg">
<circle cx="15" cy="15" r="8.5" stroke="#3A3B3D"/>
<path d="M22.4401 13.1338C23.0345 13.4549 23.4799 13.8164 23.7394 14.2048L23.3237 14.4826C23.4489 14.67 23.5 14.8413 23.5 15.0001C23.5 15.1589 23.4489 15.3302 23.3237 15.5176L23.7394 15.7954C23.4799 16.1839 23.0345 16.5454 22.4401 16.8664L22.2025 16.4265C21.7914 16.6485 21.2937 16.8546 20.7209 17.0364L20.8722 17.513C20.3685 17.6729 19.8162 17.8126 19.2247 17.9286L19.1284 17.438C18.6127 17.5392 18.0648 17.6222 17.4911 17.6844L17.545 18.1815C16.9997 18.2406 16.4329 18.2812 15.8499 18.3013L15.8326 17.8016C15.5586 17.8111 15.2809 17.8159 15 17.8159C14.7191 17.8159 14.4414 17.8111 14.1674 17.8016L14.1501 18.3013C13.5671 18.2812 13.0003 18.2406 12.455 18.1815L12.5089 17.6844C11.9352 17.6222 11.3873 17.5392 10.8716 17.438L10.7753 17.9286C10.1838 17.8126 9.63151 17.6729 9.12785 17.513L9.27914 17.0364C8.70633 16.8546 8.20865 16.6485 7.7975 16.4265L7.5599 16.8664C6.96546 16.5454 6.52011 16.1839 6.26056 15.7954L6.67629 15.5176C6.55106 15.3302 6.5 15.1589 6.5 15.0001C6.5 14.8413 6.55106 14.67 6.67629 14.4826L6.26056 14.2048C6.52011 13.8164 6.96546 13.4549 7.5599 13.1338L7.79749 13.5738C8.20864 13.3517 8.70632 13.1457 9.27914 12.9638L9.12785 12.4873C9.63151 12.3274 10.1838 12.1877 10.7753 12.0716L10.8716 12.5622C11.3873 12.4611 11.9352 12.378 12.5089 12.3158L12.455 11.8188C13.0003 11.7596 13.5671 11.719 14.1501 11.6989L14.1674 12.1986C14.4414 12.1892 14.7191 12.1843 15 12.1843C15.2809 12.1843 15.5586 12.1892 15.8326 12.1986L15.8499 11.6989C16.4329 11.719 16.9997 11.7596 17.545 11.8188L17.4911 12.3158C18.0648 12.378 18.6127 12.4611 19.1284 12.5622L19.2247 12.0716C19.8162 12.1877 20.3685 12.3274 20.8722 12.4873L20.7209 12.9638C21.2937 13.1457 21.7914 13.3517 22.2025 13.5738L22.4401 13.1338Z" stroke="#3A3B3D" stroke-dasharray="2 2"/>
<path d="M16.8663 22.4401C16.5453 23.0345 16.1838 23.4799 15.7953 23.7394L15.5175 23.3237C15.3301 23.4489 15.1588 23.5 15 23.5C14.8412 23.5 14.6699 23.4489 14.4825 23.3237L14.2047 23.7394C13.8163 23.4799 13.4548 23.0345 13.1337 22.4401L13.5737 22.2025C13.3516 21.7914 13.1456 21.2937 12.9637 20.7209L12.4872 20.8722C12.3273 20.3685 12.1876 19.8162 12.0715 19.2247L12.5621 19.1284C12.4609 18.6127 12.3779 18.0648 12.3157 17.4911L11.8186 17.545C11.7595 16.9997 11.7189 16.4329 11.6988 15.8499L12.1985 15.8326C12.1891 15.5586 12.1842 15.2809 12.1842 15C12.1842 14.7191 12.1891 14.4414 12.1985 14.1674L11.6988 14.1501C11.7189 13.5671 11.7595 13.0003 11.8186 12.455L12.3157 12.5089C12.3779 11.9352 12.4609 11.3873 12.5621 10.8716L12.0715 10.7753C12.1876 10.1838 12.3273 9.63151 12.4872 9.12785L12.9637 9.27914C13.1456 8.70632 13.3516 8.20865 13.5737 7.7975L13.1337 7.5599C13.4548 6.96546 13.8163 6.52011 14.2047 6.26056L14.4825 6.67629C14.6699 6.55106 14.8412 6.5 15 6.5C15.1588 6.5 15.3301 6.55106 15.5175 6.67629L15.7953 6.26056C16.1838 6.52011 16.5453 6.96546 16.8663 7.5599L16.4264 7.7975C16.6484 8.20865 16.8544 8.70632 17.0363 9.27914L17.5129 9.12785C17.6728 9.63151 17.8125 10.1838 17.9285 10.7753L17.4379 10.8716C17.5391 11.3873 17.6221 11.9352 17.6843 12.5089L18.1814 12.455C18.2405 13.0003 18.2811 13.5671 18.3012 14.1501L17.8015 14.1674C17.811 14.4414 17.8158 14.7191 17.8158 15C17.8158 15.2809 17.811 15.5586 17.8015 15.8326L18.3012 15.8499C18.2811 16.4329 18.2405 16.9997 18.1814 17.545L17.6843 17.4911C17.6221 18.0648 17.5391 18.6127 17.4379 19.1284L17.9285 19.2247C17.8125 19.8162 17.6728 20.3685 17.5129 20.8722L17.0363 20.7209C16.8544 21.2937 16.6484 21.7914 16.4263 22.2025L16.8663 22.4401Z" stroke="#3A3B3D" stroke-dasharray="2 2"/>
</svg>
