<svg width="30" height="30" viewBox="0 0 30 30" fill="none" xmlns="http://www.w3.org/2000/svg">
<path d="M18.0059 9.06199C17.7344 8.36675 17.416 7.76648 17.0618 7.28621L16.257 7.87971C16.5474 8.27354 16.8269 8.79183 17.0744 9.42576L18.0059 9.06199Z" fill="black"/>
<path d="M18.8309 12.4026L18.8416 12.4839L17.8498 12.612C17.8322 12.4755 17.8131 12.3406 17.7926 12.2074C17.6594 12.1869 17.5245 12.1678 17.388 12.1502L17.5161 11.1584L17.5974 11.1691C17.5656 11.0273 17.5321 10.8881 17.497 10.7516L18.4656 10.5027C18.5354 10.7745 18.599 11.0551 18.6562 11.3438C18.9449 11.401 19.2255 11.4646 19.4973 11.5344L19.2484 12.503C19.1119 12.4679 18.9727 12.4344 18.8309 12.4026Z" fill="black"/>
<path d="M19 15C19 15.341 18.9916 15.6777 18.9752 16.0089L17.9764 15.9593C17.992 15.6447 18 15.3246 18 15C18 14.6754 17.992 14.3553 17.9764 14.0407L18.9752 13.9911C18.9916 14.3223 19 14.659 19 15Z" fill="black"/>
<path d="M12.9382 7.2862C12.584 7.76648 12.2656 8.36675 11.9941 9.06199L12.9256 9.42576C13.1731 8.79182 13.4526 8.27354 13.743 7.87971L12.9382 7.2862Z" fill="black"/>
<path d="M11.3438 11.3438C11.401 11.0551 11.4646 10.7745 11.5344 10.5027L12.503 10.7516C12.4679 10.8881 12.4344 11.0273 12.4026 11.1691L12.4839 11.1584L12.612 12.1502C12.4755 12.1678 12.3406 12.1869 12.2074 12.2074C12.1869 12.3406 12.1678 12.4755 12.1502 12.612L11.1584 12.4839L11.1691 12.4026C11.0273 12.4344 10.8881 12.4679 10.7516 12.503L10.5027 11.5344C10.7745 11.4646 11.0551 11.401 11.3438 11.3438Z" fill="black"/>
<path d="M11 15C11 14.659 11.0084 14.3223 11.0248 13.9911L12.0236 14.0407C12.008 14.3553 12 14.6754 12 15C12 15.3246 12.008 15.6447 12.0236 15.9593L11.0248 16.0089C11.0084 15.6777 11 15.341 11 15Z" fill="black"/>
<path d="M11.1691 17.5974L11.1584 17.5161L12.1502 17.388C12.1678 17.5245 12.1869 17.6594 12.2074 17.7926C12.3406 17.8131 12.4755 17.8322 12.612 17.8498L12.4839 18.8416L12.4026 18.8309C12.4344 18.9727 12.4679 19.1119 12.503 19.2484L11.5344 19.4973C11.4646 19.2255 11.401 18.9449 11.3438 18.6562C11.0551 18.599 10.7745 18.5354 10.5027 18.4656L10.7516 17.497C10.8881 17.5321 11.0273 17.5656 11.1691 17.5974Z" fill="black"/>
<path d="M11.9941 20.938C12.2656 21.6332 12.584 22.2335 12.9382 22.7138L13.743 22.1203C13.4526 21.7265 13.1731 21.2082 12.9256 20.5742L11.9941 20.938Z" fill="black"/>
<path d="M17.0618 22.7138C17.416 22.2335 17.7344 21.6333 18.0059 20.938L17.0744 20.5742C16.8269 21.2082 16.5474 21.7265 16.257 22.1203L17.0618 22.7138Z" fill="black"/>
<path d="M18.6562 18.6562C18.599 18.9449 18.5354 19.2255 18.4656 19.4973L17.497 19.2484C17.5321 19.1119 17.5656 18.9727 17.5974 18.8309L17.5161 18.8416L17.388 17.8498C17.5245 17.8322 17.6594 17.8131 17.7926 17.7926C17.8131 17.6594 17.8322 17.5245 17.8498 17.388L18.8416 17.5161L18.8309 17.5974C18.9727 17.5656 19.1119 17.5321 19.2484 17.497L19.4973 18.4656C19.2255 18.5354 18.9449 18.599 18.6562 18.6562Z" fill="black"/>
<path d="M16.0089 11.0248C15.6777 11.0084 15.341 11 15 11C14.659 11 14.3223 11.0084 13.9911 11.0248L14.0407 12.0236C14.3553 12.008 14.6754 12 15 12C15.3246 12 15.6447 12.008 15.9593 12.0236L16.0089 11.0248Z" fill="black"/>
<path d="M7.28621 12.9382C7.76648 12.584 8.36675 12.2656 9.06199 11.9941L9.42576 12.9256C8.79183 13.1731 8.27354 13.4526 7.87971 13.743L7.28621 12.9382Z" fill="black"/>
<path d="M9.06199 18.0059C8.36675 17.7344 7.76648 17.416 7.2862 17.0618L7.87971 16.257C8.27354 16.5474 8.79182 16.8269 9.42576 17.0744L9.06199 18.0059Z" fill="black"/>
<path d="M15 19C14.659 19 14.3223 18.9916 13.9911 18.9752L14.0407 17.9764C14.3553 17.992 14.6754 18 15 18C15.3246 18 15.6447 17.992 15.9593 17.9764L16.0089 18.9752C15.6777 18.9916 15.341 19 15 19Z" fill="black"/>
<path d="M22.7138 17.0618C22.2335 17.416 21.6332 17.7344 20.938 18.0059L20.5742 17.0744C21.2082 16.8269 21.7265 16.5474 22.1203 16.257L22.7138 17.0618Z" fill="black"/>
<path d="M20.938 11.9941C21.6333 12.2656 22.2335 12.584 22.7138 12.9382L22.1203 13.743C21.7265 13.4526 21.2082 13.1731 20.5742 12.9256L20.938 11.9941Z" fill="black"/>
<path fill-rule="evenodd" clip-rule="evenodd" d="M6 15C6 10.0294 10.0294 6 15 6C19.9706 6 24 10.0294 24 15C24 19.9706 19.9706 24 15 24C10.0294 24 6 19.9706 6 15ZM15 23C15.1423 23 15.299 22.9625 15.4768 22.8636L15.5425 22.9819C19.5285 22.715 22.715 19.5285 22.9819 15.5425L22.8636 15.4768C22.9625 15.299 23 15.1423 23 15C23 14.8577 22.9625 14.701 22.8636 14.5232L22.9819 14.4575C22.715 10.4715 19.5285 7.28502 15.5425 7.0181L15.4768 7.13636C15.299 7.03753 15.1423 7 15 7C14.8577 7 14.701 7.03753 14.5232 7.13636L14.4575 7.0181C10.4715 7.28502 7.28502 10.4715 7.0181 14.4575L7.13636 14.5232C7.03753 14.701 7 14.8577 7 15C7 15.1423 7.03753 15.299 7.13636 15.4768L7.0181 15.5425C7.28502 19.5285 10.4715 22.715 14.4575 22.9819L14.5232 22.8636C14.701 22.9625 14.8577 23 15 23Z" fill="black"/>
</svg>
