<svg width="164" height="164" viewBox="0 0 164 164" fill="none" xmlns="http://www.w3.org/2000/svg">
<path d="M120.237 0.519355C120.249 0.244357 120.036 0.0120352 119.762 0.000449975C119.488 -0.0111353 119.257 0.202403 119.245 0.477401L118.504 18.1381C118.492 18.4131 118.705 18.6454 118.979 18.657C119.253 18.6686 119.485 18.4551 119.496 18.1801L120.237 0.519355Z" fill="#3A3B3D"/>
<path d="M143.282 19.55C143.401 19.3019 143.297 19.0041 143.05 18.8848C142.803 18.7654 142.506 18.8697 142.387 19.1177L134.801 34.9377C134.682 35.1858 134.786 35.4836 135.033 35.6029C135.28 35.7223 135.577 35.618 135.696 35.37L143.282 19.55Z" fill="#3A3B3D"/>
<path d="M162.614 46.0065C162.869 45.9053 162.994 45.6158 162.893 45.3598C162.792 45.1039 162.503 44.9784 162.248 45.0796L146.521 51.32C146.266 51.4212 146.141 51.7107 146.242 51.9667C146.343 52.2226 146.631 52.3481 146.886 52.2469L162.614 46.0065Z" fill="#3A3B3D"/>
<path d="M148.712 70.9062C148.462 70.7928 148.168 70.9042 148.055 71.155C147.942 71.4058 148.053 71.701 148.303 71.8144L163.299 78.6184C163.549 78.7318 163.843 78.6204 163.956 78.3696C164.069 78.1188 163.958 77.8236 163.708 77.7102L148.712 70.9062Z" fill="#3A3B3D"/>
<path d="M147.58 95.3059C147.392 95.106 147.077 95.0974 146.878 95.2866C146.679 95.4758 146.67 95.7912 146.859 95.9911L158.533 108.368C158.721 108.568 159.035 108.577 159.235 108.388C159.434 108.198 159.442 107.883 159.254 107.683L147.58 95.3059Z" fill="#3A3B3D"/>
<path d="M61.7609 39.8288C63.4649 37.4165 66.5256 36.2108 68.8722 36.6019C70.0281 36.7946 70.9832 37.3673 71.5511 38.3456C72.1234 39.3315 72.3481 40.8084 71.8706 42.8927C70.2903 49.7904 67.1061 60.2449 65.7099 64.6139L65.3639 65.6968L105.056 47.2147C107.06 46.2817 108.781 46.2917 110.126 46.8284C111.479 47.3679 112.503 48.4607 113.066 49.7865C114.191 52.4334 113.46 55.939 109.863 57.6138L96.9588 63.6226C97.1435 63.8964 97.3163 64.1824 97.476 64.4805L119.42 54.2626C124.159 52.0558 127.593 53.7211 128.755 56.2348C129.917 58.7486 128.967 62.4549 124.227 64.6617L104.162 74.005C104.447 74.2262 104.721 74.4654 104.982 74.7217L115.507 69.8212C119.902 67.7746 123.902 69.1996 125.398 71.6024C126.139 72.792 126.295 74.2497 125.585 75.746C124.867 77.2588 123.239 78.8585 120.314 80.2203L107.523 86.1763C107.492 86.3034 107.459 86.4307 107.425 86.5583L107.193 87.4288L108.078 87.0165C112.801 84.8174 116.512 86.5547 117.846 89.2324C118.519 90.5829 118.614 92.2059 117.931 93.783C117.624 94.491 117.157 95.1976 116.504 95.8689C116.608 96.2387 116.694 96.6164 116.762 97.0014C117.726 96.131 118.412 95.173 118.842 94.1805C119.644 92.3294 119.537 90.3977 118.734 88.7866C117.645 86.6013 115.323 85.0657 112.359 85.0234L120.732 81.1245C123.783 79.7039 125.631 77.9676 126.482 76.1745C127.34 74.3648 127.157 72.5466 126.24 71.0741C125.036 69.1412 122.621 67.855 119.75 67.8453L124.645 65.5658C129.748 63.1899 131.106 58.9532 129.656 55.8153C128.205 52.6775 124.105 50.9824 119.002 53.3584L113.372 55.9801C114.757 53.9635 114.854 51.4522 113.98 49.3954C113.325 47.8545 112.12 46.551 110.493 45.9021C108.859 45.2502 106.852 45.2794 104.638 46.3105L66.9984 63.8369C68.5226 58.9945 71.3673 49.5375 72.8385 43.1161C73.3518 40.8756 73.1487 39.1177 72.4093 37.8438C71.6654 36.5623 70.4247 35.8503 69.0349 35.6186C66.2903 35.1611 62.8609 36.5481 60.9507 39.2523C59.8176 40.8565 54.5989 49.0493 49.2621 58.0076C43.9345 66.9505 38.4395 76.7374 36.7915 81.5036C35.5493 85.0961 35.6728 89.0163 36.5391 92.8472C36.8404 92.7075 37.1527 92.5844 37.475 92.481C36.6686 88.8302 36.5792 85.158 37.7297 81.8304C39.337 77.1821 44.7688 67.4925 50.1145 58.5191C55.4511 49.5612 60.6524 41.3981 61.7609 39.8288Z" fill="#3A3B3D"/>
<path fill-rule="evenodd" clip-rule="evenodd" d="M80.4974 74.9012L82.0436 69.11C83.3666 64.1545 87.2375 62.2724 90.5101 63.0817C92.1329 63.483 93.5803 64.5454 94.4388 66.1781C95.2979 67.812 95.5472 69.9761 94.8584 72.5561L93.4026 78.0089C95.2075 75.9544 97.6528 75.2091 99.8362 75.7195C101.476 76.1028 102.921 77.1933 103.758 78.9026C104.594 80.6093 104.805 82.8936 104.068 85.6554L101.648 94.718C103.573 92.4402 106.206 91.6123 108.55 92.1672C110.284 92.5775 111.808 93.743 112.688 95.5648C113.567 97.3838 113.787 99.8197 113 102.766C112.368 105.134 111.545 108.414 110.621 112.095C108.384 121.004 105.558 132.263 103.425 138.628C99.0906 151.563 89.7146 160.287 79.4881 163.056C69.239 165.832 58.1891 162.607 50.6306 151.759C49.1638 149.654 47.4722 145.937 45.7518 141.533C44.0257 137.115 42.2537 131.961 40.6324 126.95C37.3904 116.929 34.7426 107.455 34.2619 105.54C33.4501 102.304 34.5988 98.7278 36.6961 96.8736C37.758 95.9348 39.0903 95.4176 40.5381 95.6614C41.9771 95.9037 43.4334 96.8815 44.7917 98.7284C48.68 104.015 53.9708 112.328 56.6444 116.65L67.5419 75.8329C68.1815 73.4372 69.4533 71.7994 70.9967 70.8719C72.5355 69.9472 74.311 69.7494 75.918 70.1741C77.5252 70.5988 78.9697 71.6479 79.8438 73.2197C80.1278 73.7304 80.3495 74.2924 80.4974 74.9012ZM37.3526 97.6215C35.5518 99.2135 34.4981 102.399 35.225 105.296C35.6988 107.185 38.3398 116.636 41.577 126.642C43.1953 131.643 44.9605 136.777 46.6764 141.169C48.3979 145.576 50.0529 149.191 51.4445 151.188C58.7626 161.691 69.3832 164.76 79.2294 162.094C89.0983 159.422 98.2423 150.968 102.483 138.311C104.604 131.984 107.409 120.81 109.642 111.914L109.643 111.909L109.643 111.907C110.572 108.21 111.401 104.906 112.041 102.508C112.781 99.7363 112.546 97.5556 111.795 95.9996C111.044 94.4464 109.763 93.4785 108.322 93.1373C105.466 92.461 101.776 94.2414 100.404 99.3785L94.5011 121.488C94.4301 121.754 94.1578 121.912 93.8929 121.84C93.628 121.769 93.4708 121.496 93.5418 121.23L103.109 85.3974C103.799 82.8116 103.573 80.7845 102.867 79.3422C102.162 77.9023 100.961 77.006 99.6109 76.6902C96.9337 76.0644 93.4807 77.7163 92.2123 82.4672L83.8669 113.725C83.7959 113.991 83.5236 114.149 83.2587 114.078C82.9938 114.007 82.8366 113.733 82.9076 113.467L93.8991 72.2981C94.5359 69.9128 94.2815 68.0146 93.5604 66.6433C92.8388 65.2708 91.6296 64.3851 90.2725 64.0495C87.5852 63.385 84.2026 64.8742 83.0029 69.3679L73.0291 106.725C72.9581 106.991 72.6858 107.149 72.4209 107.078C72.156 107.006 71.9988 106.733 72.0698 106.467L79.3974 79.0211C79.9864 76.8153 79.7098 75.024 78.9766 73.7054C78.2409 72.3825 77.0252 71.4974 75.6651 71.138C74.3047 70.7784 72.8059 70.9464 71.5069 71.7271C70.2124 72.505 69.0829 73.9122 68.5012 76.0909L57.0076 119.141L56.4035 118.155C54.0076 114.243 48.1745 105.006 43.9927 99.3203C42.729 97.6021 41.4759 96.83 40.3738 96.6444C39.2804 96.4603 38.2397 96.8372 37.3526 97.6215Z" fill="#3A3B3D"/>
</svg>
