<svg width="20" height="20" viewBox="0 0 20 20" fill="none" xmlns="http://www.w3.org/2000/svg">
<path fill-rule="evenodd" clip-rule="evenodd" d="M6 5C6 2.79086 7.79086 1 10 1C12.2091 1 14 2.79086 14 5V14.6538H15V5C15 2.23858 12.7614 0 10 0C7.23858 0 5 2.23858 5 5V16.4062C5 18.391 6.60898 20 8.59375 20C10.5785 20 12.1875 18.391 12.1875 16.4062V5.57212C12.1875 4.36399 11.2081 3.38462 10 3.38462C8.79188 3.38462 7.8125 4.36399 7.8125 5.57212V13.6538H8.8125V5.57212C8.8125 4.91628 9.34416 4.38462 10 4.38462C10.6558 4.38462 11.1875 4.91628 11.1875 5.57212V16.4062C11.1875 17.8387 10.0262 19 8.59375 19C7.16126 19 6 17.8387 6 16.4062V5Z" fill="#3A3B3D"/>
</svg>
