<svg width="30" height="30" viewBox="0 0 30 30" fill="none" xmlns="http://www.w3.org/2000/svg">
<circle cx="15" cy="15" r="15" fill="#FC8B34"/>
<path d="M8.83645 13.48L8.34445 12.208V19H6.90445V10.6H9.06445L10.9365 15.148L12.8085 10.6H14.9445V19H13.5045V12.196L13.0005 13.48L11.6445 16.78H10.2045L8.83645 13.48ZM16.6193 10.6H19.3793C20.6993 10.6 21.6993 10.936 22.3793 11.608C23.0593 12.272 23.3993 13.224 23.3993 14.464V15.136C23.3993 16.36 23.0553 17.312 22.3673 17.992C21.6793 18.664 20.6833 19 19.3793 19H16.6193V10.6ZM18.0593 11.872V17.728H19.3793C20.2113 17.728 20.8353 17.516 21.2513 17.092C21.6753 16.668 21.8873 16.016 21.8873 15.136V14.464C21.8873 13.592 21.6753 12.944 21.2513 12.52C20.8273 12.088 20.2033 11.872 19.3793 11.872H18.0593Z" fill="white"/>
</svg>
