<svg width="128" height="84" viewBox="0 0 128 84" fill="none" xmlns="http://www.w3.org/2000/svg">
<path d="M83.5695 38.9899L82.8624 38.2828L60.641 60.5042L44.8919 47.905L44.2672 48.6859L60.7152 61.8442L83.5695 38.9899Z" fill="#3A3B3D"/>
<path fill-rule="evenodd" clip-rule="evenodd" d="M60.8 0C78.1053 0 92.9426 10.6683 99.2118 25.8462C115.112 25.8526 128 38.8683 128 54.9231C128 70.9818 115.106 84 99.2 84H22.4C10.0288 84 0 73.8747 0 61.3846C0 49.9545 8.39885 40.5048 19.3057 38.9833C20.8373 17.1954 38.8297 0 60.8 0ZM19.4438 39.9737L20.2464 39.8617L20.3032 39.0534C21.7988 17.7774 39.3666 1 60.8 1C77.6821 1 92.1657 11.407 98.2875 26.2279L98.5427 26.8459L99.2114 26.8462C114.551 26.8523 127 39.4114 127 54.9231C127 70.4386 114.545 83 99.2 83H22.4C10.5901 83 1 73.3315 1 61.3846C1 50.453 9.0315 41.4263 19.4438 39.9737Z" fill="#3A3B3D"/>
</svg>
