<svg width="108" height="84" viewBox="0 0 108 84" fill="none" xmlns="http://www.w3.org/2000/svg">
<path fill-rule="evenodd" clip-rule="evenodd" d="M0 80C0 82.2091 1.79086 84 4 84H104C106.209 84 108 82.2091 108 80V14.1004C108 11.8913 106.209 10.1004 104 10.1004L48.4017 10.1004C47.0766 10.1004 45.8374 9.44419 45.0928 8.34803L40.6126 1.75241C39.8681 0.656258 38.6289 0 37.3038 0H4C1.79086 0 0 1.79086 0 4V80ZM107 14.1004V80C107 81.6569 105.657 83 104 83H4C2.34314 83 1 81.6569 1 80V4C1 2.34315 2.34315 1 4 1H37.3038C38.2977 1 39.227 1.49219 39.7854 2.31431L44.2656 8.90993C45.1964 10.2801 46.7453 11.1004 48.4017 11.1004L104 11.1004C105.657 11.1004 107 12.4436 107 14.1004Z" fill="#3A3B3D"/>
</svg>
