<svg width="15" height="15" viewBox="0 0 15 15" fill="none" xmlns="http://www.w3.org/2000/svg">
<path opacity="0.4" fill-rule="evenodd" clip-rule="evenodd" d="M7.99999 7.20438L12.741 9.81191L12.259 10.6881L7.49999 8.07065L2.74095 10.6881L2.25903 9.81191L6.99999 7.20438V2.20001H7.99999V7.20438Z" fill="#725BFF"/>
<path fill-rule="evenodd" clip-rule="evenodd" d="M7.99999 2.19993V0H6.99999V2.19993L2.08499 4.82005L2.085 10.0876L0.0854492 11.213L0.575935 12.0844L2.59152 10.95L7.5 13.5666L12.4085 10.95L14.4944 12.124L14.9849 11.2526L12.915 10.0876L12.915 4.82005L7.99999 2.19993ZM7 12.1668L3.085 10.0798L3.08499 5.96123L7 7.81637V12.1668ZM8 12.1669L11.915 10.0798L11.915 5.96123L8 7.81637V12.1669ZM11.3534 5.12078L7.5 6.94671L3.64663 5.12077L7.49999 3.06661L11.3534 5.12078Z" fill="#725BFF"/>
</svg>
