<svg width="122" height="97" viewBox="0 0 122 97" fill="none" xmlns="http://www.w3.org/2000/svg">
<path fill-rule="evenodd" clip-rule="evenodd" d="M4.03007 84.6315C1.80432 84.6315 0 82.8272 0 80.6015V4.03007C0 1.80433 1.80433 0 4.03007 0H37.5843C38.9194 0 40.1678 0.661192 40.918 1.76559L45.4319 8.4108C46.1821 9.51519 47.4305 10.1764 48.7656 10.1764L104.782 10.1764C107.008 10.1764 108.812 11.9807 108.812 14.2065V67.4935L107.804 67.0996V14.2065C107.804 12.5371 106.451 11.1839 104.782 11.1839L48.7656 11.1839C47.0967 11.1839 45.5362 10.3574 44.5985 8.97692L40.0846 2.33171C39.5219 1.50341 38.5856 1.00752 37.5843 1.00752H4.03007C2.36076 1.00752 1.00752 2.36076 1.00752 4.03007V80.6015C1.00752 82.2708 2.36076 83.624 4.03007 83.624H92.9081L93.3134 84.6315H4.03007ZM103.753 84.6315H99.8294L99.4241 83.624H104.672C104.32 83.8965 104.008 84.2332 103.753 84.6315ZM108.812 73.9843V79.4125C107.991 80.368 107.678 81.6515 107.925 82.8557C107.575 82.7871 107.219 82.7657 106.866 82.7902C107.444 82.2397 107.804 81.4627 107.804 80.6015V73.5904L108.812 73.9843Z" fill="#3A3B3D"/>
<path d="M100.207 93.668L88.5245 64.6298C88.1949 63.8106 89.0037 62.9938 89.8261 63.3154L119.054 74.7437C119.837 75.0498 119.923 76.1233 119.199 76.5501L111.362 81.1693C110.795 81.5032 110.695 82.2815 111.159 82.7478L121.203 92.8463C121.594 93.2393 121.594 93.8743 121.203 94.2673L119.465 96.0148C119.075 96.4064 118.443 96.4114 118.048 96.0261L107.846 86.0892C107.373 85.6288 106.593 85.7395 106.267 86.3131L102.017 93.7898C101.601 94.5229 100.522 94.4503 100.207 93.668Z" fill="white"/>
<path fill-rule="evenodd" clip-rule="evenodd" d="M89.6427 63.7846C89.2315 63.6238 88.8271 64.0322 88.9919 64.4418L100.674 93.48C100.832 93.8712 101.371 93.9075 101.58 93.5409L105.829 86.0642C106.318 85.2038 107.488 85.0378 108.197 85.7284L118.399 95.6652C118.597 95.8579 118.913 95.8554 119.108 95.6596L120.846 93.9121C121.041 93.7156 121.041 93.3981 120.846 93.2016L110.802 83.103C110.106 82.4037 110.256 81.2362 111.106 80.7354L118.943 76.1161C119.305 75.9027 119.262 75.366 118.871 75.2129L89.6427 63.7846ZM88.0572 64.8178C87.5629 63.589 88.776 62.3639 90.0096 62.8463L119.238 74.2746C120.412 74.7337 120.541 76.3439 119.455 76.9841L111.618 81.6033C111.334 81.7703 111.284 82.1594 111.516 82.3926L121.56 92.4911C122.147 93.0806 122.147 94.0331 121.56 94.6226L119.822 96.3701C119.238 96.9575 118.29 96.9651 117.696 96.387L107.494 86.4501C107.258 86.2199 106.868 86.2753 106.705 86.5621L102.455 94.0387C101.83 95.1385 100.212 95.0296 99.7395 93.8561L88.0572 64.8178Z" fill="#3A3B3D"/>
<path fill-rule="evenodd" clip-rule="evenodd" d="M77.5388 51.6384L83.2382 57.3378L82.5257 58.0502L76.8264 52.3509L77.5388 51.6384Z" fill="#3A3B3D"/>
<path fill-rule="evenodd" clip-rule="evenodd" d="M89.1969 46.896V54.9561H88.1893V46.896H89.1969Z" fill="#3A3B3D"/>
<path fill-rule="evenodd" clip-rule="evenodd" d="M72.0838 64.0089H80.144V63.0014H72.0838V64.0089Z" fill="#3A3B3D"/>
<path fill-rule="evenodd" clip-rule="evenodd" d="M99.98 53.4195L94.2807 59.1188L93.5682 58.4064L99.2676 52.707L99.98 53.4195Z" fill="#3A3B3D"/>
<path fill-rule="evenodd" clip-rule="evenodd" d="M78.6074 74.7922L84.3068 69.0928L83.5944 68.3804L77.895 74.0798L78.6074 74.7922Z" fill="#3A3B3D"/>
</svg>
