<svg width="161" height="88" viewBox="0 0 161 88" fill="none" xmlns="http://www.w3.org/2000/svg">
<path fill-rule="evenodd" clip-rule="evenodd" d="M57.3997 40.9078C58.8452 18.5626 75.8135 1 96.45 1C112.708 1 126.681 11.8926 132.594 27.4469L132.716 27.7691L133.061 27.7692C147.897 27.7757 160 40.9879 160 57.3846C160 73.7853 147.891 87 133.05 87H66.5H59.85C48.3775 87 39 76.7816 39 64.0769C39 52.4542 46.8544 42.9042 56.9757 41.3699L57.3737 41.3095L57.3997 40.9078ZM53.574 87C44.5444 84.0432 38 74.8705 38 64.0769C38 52.1727 45.9544 42.2481 56.4291 40.4454C56.5403 38.9218 56.7224 37.4198 56.9718 35.9434C52.8573 32.8235 47.8714 31 42.5 31C31.9204 31 22.8152 38.0828 18.96 48.2163L18.8375 48.5383L18.4929 48.5385C8.87335 48.5427 1 57.1068 1 67.7692C1 78.4343 8.87722 87 18.5 87H53.574ZM57.1706 34.8452C61.0109 14.9674 77.1079 0 96.45 0C113.068 0 127.298 11.0558 133.406 26.7717C148.72 26.9804 161 40.6502 161 57.3846C161 74.2484 148.529 88 133.05 88H66.5H59.85H18.5C8.24051 88 0 78.8982 0 67.7692C0 56.7676 8.05299 47.747 18.1486 47.542C22.199 37.2459 31.5605 30 42.5 30C47.9281 30 52.9729 31.7861 57.1706 34.8452Z" fill="#3A3B3D"/>
</svg>
