<svg width="161" height="88" viewBox="0 0 161 88" fill="none" xmlns="http://www.w3.org/2000/svg">
<path d="M66.5 87.5C74.232 87.5 80.5 80.6293 80.5 72.1538C80.5 64.3977 75.2507 57.9854 68.434 56.9529C67.4767 42.1683 56.2315 30.5 42.5 30.5C31.6842 30.5 22.4109 37.7392 18.4927 48.0385C8.5549 48.0428 0.499996 56.8749 0.499996 67.7692C0.499996 78.6662 8.55887 87.5 18.5 87.5H66.5Z" stroke="#3A3B3D"/>
<path d="M59.85 87.5C48.0587 87.5 38.5 77.0131 38.5 64.0769C38.5 52.2385 46.5052 42.4514 56.9007 40.8755C58.3605 18.3095 75.5095 0.5 96.45 0.5C112.944 0.5 127.086 11.5493 133.061 27.2692C148.216 27.2759 160.5 40.7564 160.5 57.3846C160.5 74.0169 148.21 87.5 133.05 87.5H59.85Z" fill="white" stroke="#3A3B3D"/>
</svg>
