<svg width="20" height="20" viewBox="0 0 20 20" fill="none" xmlns="http://www.w3.org/2000/svg">
<path d="M4.5185 6.96875H9.55437" stroke="#7E818E"/>
<path d="M4.51845 9.04688H9.55432" stroke="#7E818E"/>
<path d="M8.27196 16.2207L8.72871 16.4241L8.83963 16.1751L8.69035 15.9469L8.27196 16.2207ZM7.03588 18.9961L6.57913 18.7927L6.15042 19.7553L7.16718 19.4786L7.03588 18.9961ZM10.3851 18.0846L10.6044 17.6352L10.4353 17.5527L10.2538 17.6021L10.3851 18.0846ZM17.4998 13.3366C17.4998 15.9767 15.355 18.1186 12.7069 18.1186V19.1186C15.9053 19.1186 18.4998 16.5309 18.4998 13.3366H17.4998ZM12.7069 8.55469C15.355 8.55469 17.4998 10.6966 17.4998 13.3366H18.4998C18.4998 10.1424 15.9053 7.55469 12.7069 7.55469V8.55469ZM7.91402 13.3366C7.91402 10.6966 10.0589 8.55469 12.7069 8.55469V7.55469C9.50857 7.55469 6.91402 10.1424 6.91402 13.3366H7.91402ZM8.69035 15.9469C8.19937 15.1966 7.91402 14.3006 7.91402 13.3366H6.91402C6.91402 14.5011 7.25941 15.5865 7.85357 16.4945L8.69035 15.9469ZM7.81521 16.0173L6.57913 18.7927L7.49262 19.1996L8.72871 16.4241L7.81521 16.0173ZM7.16718 19.4786L10.5164 18.567L10.2538 17.6021L6.90457 18.5137L7.16718 19.4786ZM12.7069 18.1186C11.9517 18.1186 11.2386 17.9446 10.6044 17.6352L10.1659 18.534C10.9337 18.9086 11.7965 19.1186 12.7069 19.1186V18.1186Z" fill="#7E818E"/>
<path d="M6.98347 13.9327H2V4.63731L5.4501 1H6.98347H11.9669V8.27462" stroke="#7E818E"/>
<path d="M5.58806 1V4.58131H2" stroke="#7E818E"/>
</svg>
