<svg width="20" height="20" viewBox="0 0 20 20" fill="none" xmlns="http://www.w3.org/2000/svg">
<path fill-rule="evenodd" clip-rule="evenodd" d="M9.55438 7.46875H4.5185V6.46875H9.55438V7.46875Z" fill="#7E818E"/>
<path fill-rule="evenodd" clip-rule="evenodd" d="M9.55432 9.54688H4.51845V8.54688H9.55432V9.54688Z" fill="#7E818E"/>
<path fill-rule="evenodd" clip-rule="evenodd" d="M12.7069 8.55469C10.0589 8.55469 7.91402 10.6966 7.91402 13.3366C7.91402 14.3006 8.19937 15.1966 8.69035 15.9469L8.83963 16.1751L7.92134 18.237L10.4353 17.5527L10.6044 17.6352C11.2386 17.9446 11.9517 18.1186 12.7069 18.1186C15.355 18.1186 17.4998 15.9767 17.4998 13.3366C17.4998 10.6966 15.355 8.55469 12.7069 8.55469ZM6.91402 13.3366C6.91402 10.1424 9.50857 7.55469 12.7069 7.55469C15.9053 7.55469 18.4998 10.1424 18.4998 13.3366C18.4998 16.5309 15.9053 19.1186 12.7069 19.1186C11.8645 19.1186 11.0629 18.9388 10.3396 18.6152L6.15042 19.7553L7.7075 16.2591C7.20319 15.4014 6.91402 14.4021 6.91402 13.3366Z" fill="#7E818E"/>
<path fill-rule="evenodd" clip-rule="evenodd" d="M5.23521 0.5H12.4669V8.27462H11.4669V1.5H5.66498L2.5 4.83672V13.4327H6.98347V14.4327H1.5V4.4379L5.23521 0.5Z" fill="#7E818E"/>
<path d="M5.58806 1V4.58131H2" stroke="#7E818E"/>
</svg>
