<svg width="15" height="15" viewBox="0 0 15 15" fill="none" xmlns="http://www.w3.org/2000/svg">
<path fill-rule="evenodd" clip-rule="evenodd" d="M7.5 0.5L1 11.2917C1.5 12.5 4.46667 14 7.5 14C10.5333 14 13.5 12.5 14 11.2917L7.5 0.5ZM7.5 2.43816L2.19452 11.2466C2.25582 11.3049 2.32939 11.3689 2.41725 11.4378C2.73497 11.6871 3.1727 11.948 3.70621 12.1852C4.77583 12.6607 6.13799 13 7.5 13C8.86201 13 10.2242 12.6607 11.2938 12.1852C11.8273 11.948 12.265 11.6871 12.5828 11.4378C12.6706 11.3689 12.7442 11.3049 12.8055 11.2466L7.5 2.43816Z" fill="#00B607"/>
<path opacity="0.5" fill-rule="evenodd" clip-rule="evenodd" d="M4.06894 9.9499C3.07501 10.2773 2.37657 10.7838 2.05691 11.5031L1.1431 11.0969C1.62343 10.0162 2.62499 9.37269 3.75607 9.0001C4.88971 8.62667 6.22416 8.5 7.5 8.5C8.77585 8.5 10.1103 8.62667 11.2439 9.0001C12.375 9.37269 13.3766 10.0162 13.8569 11.0969L12.9431 11.5031C12.6234 10.7838 11.925 10.2773 10.9311 9.9499C9.9397 9.62333 8.72416 9.5 7.5 9.5C6.27585 9.5 5.0603 9.62333 4.06894 9.9499Z" fill="#00B607"/>
</svg>
