<svg width="15" height="15" viewBox="0 0 15 15" fill="none" xmlns="http://www.w3.org/2000/svg">
<path fill-rule="evenodd" clip-rule="evenodd" d="M9.51254 3.41964C9.51261 3.41967 9.51216 3.42079 9.51095 3.42296C9.51186 3.42071 9.51246 3.41962 9.51254 3.41964ZM9.17412 3.33377C9.30738 3.40039 9.38965 3.45754 9.43964 3.5C9.38965 3.54246 9.30738 3.59961 9.17412 3.66623C8.79735 3.85462 8.20686 4 7.50001 4C6.79317 4 6.20268 3.85462 5.82591 3.66623C5.69265 3.59961 5.61038 3.54246 5.56039 3.5C5.61038 3.45754 5.69265 3.40039 5.82591 3.33377C6.20268 3.14538 6.79317 3 7.50001 3C8.20686 3 8.79735 3.14538 9.17412 3.33377ZM5.48749 3.41964C5.48757 3.41962 5.48817 3.42071 5.48908 3.42296C5.48787 3.42079 5.48741 3.41966 5.48749 3.41964ZM5.48749 3.58036C5.48741 3.58034 5.48787 3.57921 5.48908 3.57704C5.48817 3.57929 5.48757 3.58038 5.48749 3.58036ZM9.51095 3.57704C9.51216 3.57921 9.51261 3.58033 9.51254 3.58036C9.51246 3.58038 9.51186 3.57929 9.51095 3.57704ZM9.86616 4.42225C9.31713 4.7739 8.46138 5 7.50001 5C6.53865 5 5.6829 4.7739 5.13387 4.42225L2.05591 11.2744C2.29828 11.6401 2.8452 12.0472 3.72719 12.3814C4.72068 12.7579 6.03441 13 7.50001 13C8.96562 13 10.2793 12.7579 11.2728 12.3814C12.1548 12.0472 12.7018 11.6401 12.9441 11.2744L9.86616 4.42225ZM10.4884 3.36694C10.3537 2.60084 9.06719 2 7.50001 2C5.93284 2 4.64633 2.60084 4.51166 3.36694L1.04392 11.0868L0.955536 11.2835L1.03801 11.4828C1.37003 12.2852 2.28092 12.9027 3.37284 13.3165C4.49601 13.7421 5.93229 14 7.50001 14C9.06774 14 10.504 13.7421 11.6272 13.3165C12.7191 12.9027 13.63 12.2852 13.962 11.4828L14.0445 11.2835L13.9561 11.0868L10.4884 3.36694Z" fill="#00B607"/>
<path opacity="0.5" fill-rule="evenodd" clip-rule="evenodd" d="M4.06894 9.9499C3.07501 10.2773 2.37657 10.7838 2.05691 11.5031L1.1431 11.0969C1.62343 10.0162 2.62499 9.37269 3.75607 9.0001C4.88971 8.62667 6.22416 8.5 7.5 8.5C8.77585 8.5 10.1103 8.62667 11.2439 9.0001C12.375 9.37269 13.3766 10.0162 13.8569 11.0969L12.9431 11.5031C12.6234 10.7838 11.925 10.2773 10.9311 9.9499C9.9397 9.62333 8.72416 9.5 7.5 9.5C6.27585 9.5 5.0603 9.62333 4.06894 9.9499Z" fill="#00B607"/>
</svg>
