<svg width="30" height="30" viewBox="0 0 30 30" fill="none" xmlns="http://www.w3.org/2000/svg">
<path d="M23.6875 7.0625L24 6H22.9167V6.13932L22.7281 6.78033L22.9167 6.83578V7H23.475L23.6875 7.0625Z" fill="black"/>
<path d="M12.0833 6H11L10.6875 7.0625L11.6469 7.34467L11.7482 7H12.0833V6Z" fill="black"/>
<path d="M10.0625 9.1875L11.0219 9.46967L10.3969 11.5947L9.4375 11.3125L10.0625 9.1875Z" fill="black"/>
<path d="M20.8524 13.1579H20.8619L20.8531 13.1553L20.8524 13.1579Z" fill="black"/>
<path d="M9.13826 15.8421H9.14761L9.14687 15.8447L9.13826 15.8421Z" fill="black"/>
<path d="M7.5625 17.6875L8.52187 17.9697L7.89687 20.0947L6.9375 19.8125L7.5625 17.6875Z" fill="black"/>
<path d="M17.9167 23V22H18.2518L18.3531 21.6553L19.3125 21.9375L19 23H17.9167Z" fill="black"/>
<path d="M19.9375 19.8125L18.9781 19.5303L19.6031 17.4053L20.5625 17.6875L19.9375 19.8125Z" fill="black"/>
<path d="M22.4375 11.3125L21.4781 11.0303L22.1031 8.90533L23.0625 9.1875L22.4375 11.3125Z" fill="black"/>
<path d="M15.75 23V22H13.5833V23H15.75Z" fill="black"/>
<path d="M11.4167 23V22H9.25V23H11.4167Z" fill="black"/>
<path d="M7.08333 23V22.8607L7.27187 22.2197L7.08333 22.1642V22H6.525L6.3125 21.9375L6 23H7.08333Z" fill="black"/>
<path d="M14.25 6V7H16.4167V6H14.25Z" fill="black"/>
<path d="M18.5833 6V7H20.75V6H18.5833Z" fill="black"/>
<path d="M26 14H4V15H26V14Z" fill="black"/>
</svg>
