<svg width="30" height="30" viewBox="0 0 30 30" fill="none" xmlns="http://www.w3.org/2000/svg">
<path d="M11.1347 8.65625L11.5963 6.88542L12.0802 7.01154L12.2135 6.5H12.7835V6H14.6962V6.5H16.6088V6H18.5215V6.5H20.4341V6H22.3468V6.5H22.6561L22.5885 6.75929L23.0723 6.88542L22.6107 8.65625L22.1269 8.53013L21.6653 10.301L22.1491 10.4271L21.6875 12.1979L21.2037 12.0718L20.742 13.8426L21.2259 13.9688L20.7643 15.7396L20.2804 15.6135L19.8188 17.3843L20.3027 17.5104L19.841 19.2812L19.3572 19.1551L18.8956 20.926L19.3794 21.0521L18.9178 22.8229L18.434 22.6968L18.3006 23.2083H17.7307V23.7083H15.818V23.2083H13.9053V23.7083H11.9927V23.2083H10.08V23.7083H8.16735V23.2083H7.85806L7.92565 22.949L7.44182 22.8229L7.90344 21.0521L8.38727 21.1782L8.84888 19.4074L8.36505 19.2812L8.82666 17.5104L9.3105 17.6365L9.77211 15.8657L9.28828 15.7396L9.74989 13.9688L10.2337 14.0949L10.6953 12.324L10.2115 12.1979L10.6731 10.4271L11.157 10.5532L11.6186 8.78237L11.1347 8.65625Z" stroke="#3A3B3D" stroke-dasharray="2 2"/>
<path d="M3 14.8542H28" stroke="#3A3B3D"/>
</svg>
