<svg width="25" height="25" viewBox="0 0 25 25" fill="none" xmlns="http://www.w3.org/2000/svg">
<path d="M8.13474 6.65625L8.59635 4.88542L9.08018 5.01154L9.21353 4.5H9.78349V4H11.6962V4.5H13.6088V4H15.5215V4.5H17.4341V4H19.3468V4.5H19.6561L19.5885 4.75929L20.0723 4.88542L19.6107 6.65625L19.1269 6.53013L18.6653 8.30096L19.1491 8.42708L18.6875 10.1979L18.2037 10.0718L17.742 11.8426L18.2259 11.9688L17.7643 13.7396L17.2804 13.6135L16.8188 15.3843L17.3027 15.5104L16.841 17.2812L16.3572 17.1551L15.8956 18.926L16.3794 19.0521L15.9178 20.8229L15.434 20.6968L15.3006 21.2083H14.7307V21.7083H12.818V21.2083H10.9053V21.7083H8.99268V21.2083H7.08001V21.7083H5.16735V21.2083H4.85806L4.92565 20.949L4.44182 20.8229L4.90344 19.0521L5.38727 19.1782L5.84888 17.4074L5.36505 17.2812L5.82666 15.5104L6.3105 15.6365L6.77211 13.8657L6.28828 13.7396L6.74989 11.9688L7.23372 12.0949L7.69534 10.324L7.21151 10.1979L7.67312 8.42708L8.15695 8.55321L8.61857 6.78237L8.13474 6.65625Z" stroke="#3A3B3D" stroke-dasharray="2 2"/>
<path d="M0 12.8542H25" stroke="#3A3B3D"/>
</svg>
