<svg width="15" height="15" viewBox="0 0 15 15" fill="none" xmlns="http://www.w3.org/2000/svg">
<path opacity="0.5" fill-rule="evenodd" clip-rule="evenodd" d="M3 11.5H2C2 11.0594 2.23988 10.6869 2.54306 10.4015C2.84997 10.1127 3.26929 9.86536 3.75272 9.66358C4.72271 9.25871 6.0401 9 7.5 9C8.9599 9 10.2773 9.25871 11.2473 9.66358C11.7307 9.86536 12.15 10.1127 12.4569 10.4015C12.7601 10.6869 13 11.0594 13 11.5H12C12 11.0525 11.1774 10.718 10.8621 10.5864C10.0352 10.2413 8.8526 10 7.5 10C6.1474 10 4.96479 10.2413 4.13791 10.5864C3.82262 10.718 3 11.0525 3 11.5Z" fill="#00B607"/>
<path fill-rule="evenodd" clip-rule="evenodd" d="M2 3C2 1.5 4.46243 0.5 7.5 0.5C10.5376 0.5 13 1.5 13 3L13 3.00162V11.872C12.9551 12.0245 12.9074 12.1537 12.7549 12.3615C12.5993 12.5735 12.3488 12.8295 11.9527 13.075C11.1627 13.5646 9.81531 14 7.5141 14C5.21252 14 3.8593 13.5645 3.06338 13.0762C2.66439 12.8314 2.41088 12.5765 2.25272 12.3658C2.13964 12.2151 2.05576 12.0554 2 11.8759V3ZM12 3.00064C11.9996 3.12984 11.8815 3.50372 10.9867 3.89704C10.1538 4.26313 8.92531 4.5 7.5 4.5C6.07469 4.5 4.84617 4.26313 4.01332 3.89704C3.11704 3.50307 3 3.1286 3 3C3 2.8714 3.11704 2.49693 4.01332 2.10296C4.84617 1.73687 6.07469 1.5 7.5 1.5C8.92531 1.5 10.1538 1.73687 10.9867 2.10296C11.883 2.49693 12 2.87203 12 3.00064ZM12 4.48978C11.0046 5.12499 9.36016 5.5 7.5 5.5C5.63984 5.5 3.99537 5.12499 3 4.48978V11.688C3.05643 11.782 3.20934 11.9926 3.58629 12.2238C4.17595 12.5855 5.32978 13 7.5141 13C9.69879 13 10.8444 12.5854 11.4259 12.225C11.7991 11.9937 11.9466 11.784 12 11.6921V4.48978Z" fill="#00B607"/>
</svg>
