<svg width="15" height="15" viewBox="0 0 15 15" fill="none" xmlns="http://www.w3.org/2000/svg">
<path fill-rule="evenodd" clip-rule="evenodd" d="M12.6689 6.26433C12.9029 4.91244 12.5997 3.80409 11.8978 3.10219C11.1959 2.40028 10.0875 2.09705 8.73563 2.33102C7.38701 2.56442 5.88982 3.32714 4.60851 4.60846C3.32719 5.88978 2.56447 7.38696 2.33106 8.73559C2.0971 10.0875 2.40032 11.1958 3.10223 11.8977C3.80414 12.5996 4.91249 12.9029 6.26437 12.6689C7.613 12.4355 9.11018 11.6728 10.3915 10.3915C11.6728 9.11014 12.4355 7.61295 12.6689 6.26433ZM11.0986 11.0986C13.918 8.27921 14.5923 4.38253 12.6049 2.39508C10.6174 0.407625 6.72075 1.08201 3.9014 3.90135C1.08205 6.7207 0.407671 10.6174 2.39512 12.6048C4.38258 14.5923 8.27926 13.9179 11.0986 11.0986ZM10.6716 5.91172C10.7796 5.28722 10.628 4.85822 10.385 4.61524C10.1421 4.37226 9.71307 4.22064 9.08856 4.32872C8.46732 4.43623 7.74554 4.79558 7.11524 5.42588C6.48495 6.05618 6.12559 6.77796 6.01808 7.3992C5.91 8.02371 6.06162 8.4527 6.3046 8.69568C6.54758 8.93866 6.97658 9.09029 7.60108 8.98221C8.22232 8.87469 8.9441 8.51534 9.5744 7.88504C10.2047 7.25474 10.5641 6.53296 10.6716 5.91172ZM10.2815 8.59215C11.7988 7.07484 12.1618 4.97773 11.0922 3.90813C10.0225 2.83853 7.92544 3.20147 6.40814 4.71878C4.89083 6.23608 4.52789 8.33319 5.59749 9.40279C6.6671 10.4724 8.7642 10.1095 10.2815 8.59215ZM9.48706 6.59001C9.86464 6.21243 9.95496 5.69056 9.68879 5.42439C9.42261 5.15822 8.90075 5.24853 8.52317 5.62612C8.14558 6.0037 8.05526 6.52557 8.32144 6.79174C8.58761 7.05791 9.10947 6.96759 9.48706 6.59001Z" fill="#3A3B3D"/>
</svg>
