<svg width="20" height="20" viewBox="0 0 20 20" fill="none" xmlns="http://www.w3.org/2000/svg">
<path d="M7 5C7.55228 5 8 4.55228 8 4C8 3.44772 7.55228 3 7 3C6.44772 3 6 3.44772 6 4C6 4.55228 6.44772 5 7 5Z" fill="#7E818E"/>
<path d="M13 5C13.5523 5 14 4.55228 14 4C14 3.44772 13.5523 3 13 3C12.4477 3 12 3.44772 12 4C12 4.55228 12.4477 5 13 5Z" fill="#7E818E"/>
<path d="M8 10C8 10.5523 7.55228 11 7 11C6.44772 11 6 10.5523 6 10C6 9.44772 6.44772 9 7 9C7.55228 9 8 9.44772 8 10Z" fill="#7E818E"/>
<path d="M13 11C13.5523 11 14 10.5523 14 10C14 9.44772 13.5523 9 13 9C12.4477 9 12 9.44772 12 10C12 10.5523 12.4477 11 13 11Z" fill="#7E818E"/>
<path d="M8 16C8 16.5523 7.55228 17 7 17C6.44772 17 6 16.5523 6 16C6 15.4477 6.44772 15 7 15C7.55228 15 8 15.4477 8 16Z" fill="#7E818E"/>
<path d="M13 17C13.5523 17 14 16.5523 14 16C14 15.4477 13.5523 15 13 15C12.4477 15 12 15.4477 12 16C12 16.5523 12.4477 17 13 17Z" fill="#7E818E"/>
</svg>
