<svg width="15" height="15" viewBox="0 0 15 15" fill="none" xmlns="http://www.w3.org/2000/svg">
<mask id="path-1-inside-1_2341_92" fill="white">
<path fill-rule="evenodd" clip-rule="evenodd" d="M11.6 0.580017L14.4284 3.40844L5.18165 12.6552L0.993405 14.015L2.35323 9.8268L11.6 0.580017ZM11.6 1.99423L13.0142 3.40844L11.6 4.82266L10.1858 3.40844L11.6 1.99423ZM10.8929 5.52976L4.64439 11.7783L2.55027 12.4582L3.23018 10.3641L9.47869 4.11555L10.8929 5.52976Z"/>
</mask>
<path fill-rule="evenodd" clip-rule="evenodd" d="M11.6 0.580017L14.4284 3.40844L5.18165 12.6552L0.993405 14.015L2.35323 9.8268L11.6 0.580017ZM11.6 1.99423L13.0142 3.40844L11.6 4.82266L10.1858 3.40844L11.6 1.99423ZM10.8929 5.52976L4.64439 11.7783L2.55027 12.4582L3.23018 10.3641L9.47869 4.11555L10.8929 5.52976Z" fill="#A8AAB3"/>
<path d="M13.0142 3.40844L13.7213 4.11555L14.4284 3.40844L13.7213 2.70134L13.0142 3.40844ZM11.6 1.99423L12.3071 1.28712L11.6 0.580017L10.8929 1.28712L11.6 1.99423ZM11.6 4.82266L10.8929 5.52976L11.6 6.23687L12.3071 5.52976L11.6 4.82266ZM10.1858 3.40844L9.47869 2.70134L8.77158 3.40844L9.47869 4.11555L10.1858 3.40844ZM11.6 0.580017L12.3071 -0.12709L11.6 -0.834196L10.8929 -0.12709L11.6 0.580017ZM14.4284 3.40844L15.1355 4.11555L15.8426 3.40844L15.1355 2.70134L14.4284 3.40844ZM5.18165 12.6552L5.49046 13.6064L5.71892 13.5322L5.88876 13.3623L5.18165 12.6552ZM0.993405 14.015L0.0422799 13.7062L-0.563457 15.5719L1.30221 14.9662L0.993405 14.015ZM2.35323 9.8268L1.64612 9.11969L1.47627 9.28954L1.4021 9.51799L2.35323 9.8268ZM4.64439 11.7783L4.9532 12.7294L5.18165 12.6552L5.3515 12.4854L4.64439 11.7783ZM10.8929 5.52976L11.6 6.23687L12.3071 5.52976L11.6 4.82266L10.8929 5.52976ZM2.55027 12.4582L1.59914 12.1494L0.993405 14.015L2.85907 13.4093L2.55027 12.4582ZM3.23018 10.3641L2.52307 9.65695L2.35323 9.8268L2.27905 10.0553L3.23018 10.3641ZM9.47869 4.11555L10.1858 3.40844L9.47869 2.70134L8.77158 3.40844L9.47869 4.11555ZM13.7213 2.70134L12.3071 1.28712L10.8929 2.70134L12.3071 4.11555L13.7213 2.70134ZM12.3071 5.52976L13.7213 4.11555L12.3071 2.70134L10.8929 4.11555L12.3071 5.52976ZM9.47869 4.11555L10.8929 5.52976L12.3071 4.11555L10.8929 2.70134L9.47869 4.11555ZM10.8929 1.28712L9.47869 2.70134L10.8929 4.11555L12.3071 2.70134L10.8929 1.28712ZM5.3515 12.4854L11.6 6.23687L10.1858 4.82266L3.93728 11.0712L5.3515 12.4854ZM2.85907 13.4093L4.9532 12.7294L4.33558 10.8272L2.24146 11.5071L2.85907 13.4093ZM2.27905 10.0553L1.59914 12.1494L3.50139 12.767L4.1813 10.6729L2.27905 10.0553ZM8.77158 3.40844L2.52307 9.65695L3.93728 11.0712L10.1858 4.82266L8.77158 3.40844ZM11.6 4.82266L10.1858 3.40844L8.77158 4.82266L10.1858 6.23687L11.6 4.82266ZM3.06033 10.5339L12.3071 1.28712L10.8929 -0.12709L1.64612 9.11969L3.06033 10.5339ZM10.8929 1.28712L13.7213 4.11555L15.1355 2.70134L12.3071 -0.12709L10.8929 1.28712ZM13.7213 2.70134L4.47455 11.9481L5.88876 13.3623L15.1355 4.11555L13.7213 2.70134ZM4.87285 11.7041L0.684598 13.0639L1.30221 14.9662L5.49046 13.6064L4.87285 11.7041ZM1.94453 14.3239L3.30435 10.1356L1.4021 9.51799L0.0422799 13.7062L1.94453 14.3239Z" fill="#A8AAB3" mask="url(#path-1-inside-1_2341_92)"/>
</svg>
