<svg width="205" height="240" viewBox="0 0 205 240" fill="none" xmlns="http://www.w3.org/2000/svg">
<mask id="path-2-inside-1" fill="white">
<path fill-rule="evenodd" clip-rule="evenodd" d="M205 52.4019L152.84 104.804V57.4091H1.52588e-05V47.3946H152.84V0L205 52.4019Z"/>
</mask>
<path d="M152.84 104.804H151.84V107.226L153.549 105.509L152.84 104.804ZM205 52.4019L205.709 53.1074L206.411 52.4019L205.709 51.6964L205 52.4019ZM152.84 57.4091H153.84V56.4091H152.84V57.4091ZM1.52588e-05 57.4091H-0.999984V58.4091H1.52588e-05V57.4091ZM1.52588e-05 47.3946V46.3946H-0.999984V47.3946H1.52588e-05ZM152.84 47.3946V48.3946H153.84V47.3946H152.84ZM152.84 0L153.549 -0.70547L151.84 -2.42213V0H152.84ZM153.549 105.509L205.709 53.1074L204.291 51.6964L152.131 104.098L153.549 105.509ZM151.84 57.4091V104.804H153.84V57.4091H151.84ZM152.84 56.4091H1.52588e-05V58.4091H152.84V56.4091ZM1.00001 57.4091V47.3946H-0.999984V57.4091H1.00001ZM1.52588e-05 48.3946H152.84V46.3946H1.52588e-05V48.3946ZM151.84 0V47.3946H153.84V0H151.84ZM205.709 51.6964L153.549 -0.70547L152.131 0.70547L204.291 53.1074L205.709 51.6964Z" fill="white" mask="url(#path-2-inside-1)"/>
<mask id="path-4-inside-2" fill="white">
<path fill-rule="evenodd" clip-rule="evenodd" d="M-4.55998e-06 187.598L52.1601 135.196L52.1601 182.591L205 182.591L205 192.605L52.1601 192.605L52.1601 240L-4.55998e-06 187.598Z"/>
</mask>
<path d="M52.1601 135.196L53.1601 135.196L53.1601 132.774L51.4514 134.491L52.1601 135.196ZM-4.55998e-06 187.598L-0.708744 186.893L-1.41097 187.598L-0.708744 188.303L-4.55998e-06 187.598ZM52.1601 182.591L51.1601 182.591L51.1601 183.591L52.1601 183.591L52.1601 182.591ZM205 182.591L206 182.591L206 181.591L205 181.591L205 182.591ZM205 192.605L205 193.605L206 193.605L206 192.605L205 192.605ZM52.1601 192.605L52.1601 191.605L51.1601 191.605L51.1601 192.605L52.1601 192.605ZM52.1601 240L51.4514 240.705L53.1601 242.422L53.1601 240L52.1601 240ZM51.4514 134.491L-0.708744 186.893L0.708735 188.303L52.8689 135.902L51.4514 134.491ZM53.1601 182.591L53.1601 135.196L51.1601 135.196L51.1601 182.591L53.1601 182.591ZM52.1601 183.591L205 183.591L205 181.591L52.1601 181.591L52.1601 183.591ZM204 182.591L204 192.605L206 192.605L206 182.591L204 182.591ZM205 191.605L52.1601 191.605L52.1601 193.605L205 193.605L205 191.605ZM53.1601 240L53.1601 192.605L51.1601 192.605L51.1601 240L53.1601 240ZM-0.708744 188.303L51.4514 240.705L52.8689 239.294L0.708735 186.893L-0.708744 188.303Z" fill="white" mask="url(#path-4-inside-2)"/>
</svg>
