<svg width="20" height="20" viewBox="0 0 20 20" fill="none" xmlns="http://www.w3.org/2000/svg">
<path d="M9.5 11V6H10.5V11H9.5Z" fill="#C3C5CB"/>
<path d="M9.5 15V13H10.5V15H9.5Z" fill="#C3C5CB"/>
<path fill-rule="evenodd" clip-rule="evenodd" d="M8.15035 2.95522C8.97242 1.68159 11.0276 1.68159 11.8497 2.95522L19.7107 15.1343C20.5327 16.408 19.5052 18 17.861 18H2.13898C0.494846 18 -0.532739 16.408 0.289328 15.1343L8.15035 2.95522ZM11.0095 3.49752L18.8705 15.6766C19.0519 15.9576 19.0341 16.2489 18.8705 16.5025C18.6996 16.7672 18.352 17 17.861 17H2.13898C1.64797 17 1.3004 16.7672 1.12951 16.5025C0.965861 16.2489 0.948141 15.9576 1.12951 15.6766L8.99053 3.49752C9.18679 3.19347 9.55972 3 10 3C10.4403 3 10.8132 3.19347 11.0095 3.49752Z" fill="#C3C5CB"/>
</svg>
