<svg width="20" height="20" viewBox="0 0 20 20" fill="none" xmlns="http://www.w3.org/2000/svg">
<path d="M9.5 12V7H10.5V12H9.5Z" fill="#C3C5CB"/>
<path d="M9.5 14V16H10.5V14H9.5Z" fill="#C3C5CB"/>
<path fill-rule="evenodd" clip-rule="evenodd" d="M8.15035 2.95522C8.97242 1.68159 11.0276 1.68159 11.8497 2.95522L19.7107 16.1343C20.5327 17.408 19.5052 19 17.861 19H2.13898C0.494846 19 -0.532739 17.408 0.289328 16.1343L8.15035 2.95522ZM1.1391 16.6618L1.12951 16.6766C0.948141 16.9576 0.965861 17.2489 1.12951 17.5025C1.3004 17.7672 1.64797 18 2.13898 18H17.861C18.352 18 18.6996 17.7672 18.8705 17.5025C19.0341 17.2489 19.0519 16.9576 18.8705 16.6766L18.8609 16.6618L11.0015 3.48537C10.8032 3.18833 10.4344 3 10 3C9.56561 3 9.19678 3.18833 8.99851 3.48537L1.1391 16.6618Z" fill="#C3C5CB"/>
</svg>
