<svg width="15" height="15" viewBox="0 0 15 15" fill="none" xmlns="http://www.w3.org/2000/svg">
<path fill-rule="evenodd" clip-rule="evenodd" d="M13 4.7C13 4.7 11.5 2 7.5 2C3.5 2 2 4.7 2 4.7V13.5256C2 13.7431 2.36526 13.8386 2.48949 13.66C2.51997 13.6162 2.55197 13.5714 2.5855 13.5256C2.67861 13.3986 2.78355 13.2647 2.90084 13.1276C2.93296 13.09 2.96601 13.0522 3 13.0143C3.85357 12.0607 5.29796 11 7.5 11C9.70204 11 11.1464 12.0607 12 13.0143C12.034 13.0522 12.067 13.09 12.0992 13.1276C12.2164 13.2647 12.3214 13.3986 12.4145 13.5256C12.448 13.5714 12.48 13.6162 12.5105 13.66C12.6347 13.8386 13 13.7431 13 13.5256V4.7ZM12 11.6235V5.00308C11.9774 4.97288 11.9519 4.93971 11.9232 4.90399C11.7613 4.70224 11.5042 4.42333 11.1392 4.14178C10.4197 3.58677 9.25561 3 7.5 3C5.74439 3 4.58026 3.58677 3.8608 4.14178C3.49583 4.42333 3.23871 4.70224 3.0768 4.90399C3.04814 4.93971 3.02257 4.97288 3 5.00308V11.6235C4.0169 10.7643 5.48827 10 7.5 10C9.51173 10 10.9831 10.7643 12 11.6235Z" fill="#00B607"/>
<path opacity="0.6" d="M6.99999 7.01423V10.5H7.99999V7.01434C9.59031 7.1073 10.5823 7.63631 11.1798 8.13414C11.5127 8.41154 11.7316 8.68637 11.8652 8.88674C11.932 8.98691 11.9773 9.06816 12.0046 9.12126C12.0182 9.14779 12.0273 9.16722 12.0324 9.17837L12.037 9.18872L12.036 9.18629C12.0359 9.186 12.0357 9.1857 12.5 9C12.9642 8.8143 12.9641 8.81398 12.964 8.81365L12.963 8.81134L12.9614 8.80744L12.957 8.79694C12.9535 8.78875 12.9489 8.77821 12.9432 8.76547C12.9316 8.74001 12.9154 8.70572 12.8938 8.66389C12.8508 8.58028 12.7867 8.46622 12.6972 8.33201C12.5183 8.06363 12.2371 7.71346 11.8199 7.36586C11.0461 6.72109 9.83173 6.10823 7.99999 6.01283V2.5H6.99999V6.01273C5.16719 6.10779 3.95265 6.72087 3.17893 7.36597C2.76196 7.71361 2.48102 8.06382 2.30227 8.33224C2.21289 8.46646 2.14884 8.58055 2.1059 8.66418C2.08442 8.70601 2.06817 8.7403 2.05664 8.76578C2.05088 8.77852 2.04629 8.78906 2.04281 8.79725L2.03841 8.80776L2.03682 8.81165L2.03617 8.81326C2.03604 8.81359 2.03562 8.81462 2.49999 9C2.96435 9.18538 2.96423 9.18568 2.96411 9.18597L2.96313 9.1884L2.9677 9.17807C2.97274 9.16692 2.98185 9.1475 2.99547 9.12098C3.02273 9.06789 3.06791 8.98666 3.1346 8.88651C3.26802 8.68618 3.48664 8.41139 3.8193 8.13403C4.41653 7.63609 5.4086 7.10686 6.99999 7.01423Z" fill="#00B607"/>
</svg>
