<svg width="20" height="20" viewBox="0 0 20 20" fill="none" xmlns="http://www.w3.org/2000/svg">
<path fill-rule="evenodd" clip-rule="evenodd" d="M17.9998 9.99982C17.9998 14.4181 14.4181 17.9998 9.99982 17.9998C5.58154 17.9998 1.99982 14.4181 1.99982 9.99982C1.99982 5.58154 5.58154 1.99982 9.99982 1.99982C14.4181 1.99982 17.9998 5.58154 17.9998 9.99982ZM18.9998 9.99982C18.9998 14.9704 14.9704 18.9998 9.99982 18.9998C5.02925 18.9998 0.999817 14.9704 0.999817 9.99982C0.999817 5.02925 5.02925 0.999817 9.99982 0.999817C14.9704 0.999817 18.9998 5.02925 18.9998 9.99982ZM9.59982 10.5898C9.51982 10.8165 9.47982 11.1065 9.47982 11.4598H10.4198C10.4198 11.1865 10.4632 10.9598 10.5498 10.7798C10.6365 10.5998 10.7432 10.4431 10.8698 10.3098C10.9965 10.1698 11.1332 10.0431 11.2798 9.92982C11.4332 9.80982 11.5732 9.67648 11.6998 9.52982C11.8265 9.38315 11.9332 9.20982 12.0198 9.00982C12.1065 8.80982 12.1498 8.55648 12.1498 8.24982C12.1498 7.98982 12.0998 7.74982 11.9998 7.52982C11.9065 7.30315 11.7665 7.10982 11.5798 6.94982C11.3932 6.78315 11.1632 6.65315 10.8898 6.55982C10.6165 6.46648 10.3032 6.41982 9.94982 6.41982C9.61648 6.41982 9.31648 6.46982 9.04982 6.56982C8.78315 6.66315 8.55648 6.79982 8.36982 6.97982C8.18315 7.15982 8.03648 7.37648 7.92982 7.62982C7.82315 7.87648 7.76315 8.14982 7.74982 8.44982H8.72982C8.75648 8.08315 8.86982 7.80315 9.06982 7.60982C9.27648 7.41648 9.58648 7.31982 9.99982 7.31982C10.3798 7.31982 10.6698 7.41315 10.8698 7.59982C11.0698 7.77982 11.1698 8.01315 11.1698 8.29982C11.1698 8.52648 11.1265 8.71315 11.0398 8.85982C10.9598 8.99982 10.8565 9.12982 10.7298 9.24982C10.6032 9.36315 10.4665 9.47648 10.3198 9.58982C10.1798 9.70315 10.0465 9.83982 9.91982 9.99982C9.79315 10.1598 9.68648 10.3565 9.59982 10.5898ZM9.43982 13.3798C9.57315 13.5132 9.74315 13.5798 9.94982 13.5798C10.1565 13.5798 10.3232 13.5132 10.4498 13.3798C10.5832 13.2398 10.6498 13.0732 10.6498 12.8798C10.6498 12.6865 10.5832 12.5232 10.4498 12.3898C10.3232 12.2498 10.1565 12.1798 9.94982 12.1798C9.74315 12.1798 9.57315 12.2498 9.43982 12.3898C9.31315 12.5232 9.24982 12.6865 9.24982 12.8798C9.24982 13.0732 9.31315 13.2398 9.43982 13.3798Z" fill="#7E818E"/>
</svg>
