<svg width="20" height="20" viewBox="0 0 20 20" fill="none" xmlns="http://www.w3.org/2000/svg">
<circle cx="10" cy="10" r="7.5" stroke="#7E818E"/>
<path d="M9.42553 11.6008H10.2298C10.2298 10.0825 11.71 10.331 11.71 8.64712C11.71 7.68097 11.0426 6.96326 9.82767 6.96326C8.6897 6.96326 7.98809 7.71778 7.94531 8.83115H8.78382C8.8266 8.15944 9.16884 7.79139 9.87045 7.79139C10.5207 7.79139 10.8715 8.16865 10.8715 8.69313C10.8715 9.92612 9.42553 9.65008 9.42553 11.6008ZM9.82767 13.5515C10.1785 13.5515 10.4266 13.2662 10.4266 12.9074C10.4266 12.5485 10.1785 12.2633 9.82767 12.2633C9.47686 12.2633 9.22874 12.5485 9.22874 12.9074C9.22874 13.2662 9.47686 13.5515 9.82767 13.5515Z" fill="#7E818E"/>
</svg>
