<svg width="20" height="20" viewBox="0 0 20 20" fill="none" xmlns="http://www.w3.org/2000/svg">
<circle cx="10" cy="10" r="7.5" stroke="#7E818E"/>
<path d="M9.42553 11.6007H10.2298C10.2298 10.0824 11.71 10.3309 11.71 8.647C11.71 7.68085 11.0426 6.96313 9.82767 6.96313C8.6897 6.96313 7.98809 7.71765 7.94531 8.83103H8.78382C8.8266 8.15932 9.16884 7.79126 9.87045 7.79126C10.5207 7.79126 10.8715 8.16852 10.8715 8.69301C10.8715 9.926 9.42553 9.64996 9.42553 11.6007ZM9.82767 13.5514C10.1785 13.5514 10.4266 13.2661 10.4266 12.9073C10.4266 12.5484 10.1785 12.2632 9.82767 12.2632C9.47686 12.2632 9.22874 12.5484 9.22874 12.9073C9.22874 13.2661 9.47686 13.5514 9.82767 13.5514Z" fill="#7E818E"/>
</svg>
