<svg width="20" height="20" viewBox="0 0 20 20" fill="none" xmlns="http://www.w3.org/2000/svg">
<circle cx="10" cy="10" r="7.5" stroke="#7E818E"/>
<path d="M9.415 11.074C9.415 10.768 9.451 10.516 9.523 10.318C9.595 10.114 9.682 9.943 9.784 9.805C9.892 9.661 10.006 9.541 10.126 9.445C10.252 9.349 10.366 9.256 10.468 9.166C10.576 9.07 10.666 8.965 10.738 8.851C10.81 8.731 10.846 8.584 10.846 8.41C10.846 8.17 10.771 7.981 10.621 7.843C10.477 7.699 10.27 7.627 10 7.627C9.718 7.627 9.496 7.705 9.334 7.861C9.178 8.017 9.088 8.23 9.064 8.5H7.93C7.942 8.224 7.996 7.972 8.092 7.744C8.194 7.516 8.332 7.318 8.506 7.15C8.686 6.982 8.896 6.853 9.136 6.763C9.382 6.667 9.655 6.619 9.955 6.619C10.285 6.619 10.576 6.661 10.828 6.745C11.08 6.829 11.29 6.946 11.458 7.096C11.632 7.246 11.761 7.426 11.845 7.636C11.935 7.84 11.98 8.068 11.98 8.32C11.98 8.578 11.944 8.794 11.872 8.968C11.8 9.142 11.707 9.295 11.593 9.427C11.485 9.553 11.365 9.667 11.233 9.769C11.107 9.871 10.987 9.982 10.873 10.102C10.765 10.222 10.675 10.357 10.603 10.507C10.531 10.657 10.495 10.846 10.495 11.074H9.415ZM9.955 13.081C9.745 13.081 9.571 13.012 9.433 12.874C9.301 12.73 9.235 12.559 9.235 12.361C9.235 12.163 9.301 11.995 9.433 11.857C9.571 11.713 9.745 11.641 9.955 11.641C10.165 11.641 10.336 11.713 10.468 11.857C10.606 11.995 10.675 12.163 10.675 12.361C10.675 12.559 10.606 12.73 10.468 12.874C10.336 13.012 10.165 13.081 9.955 13.081Z" fill="#7E818E"/>
</svg>
