<svg width="20" height="20" viewBox="0 0 20 20" fill="none" xmlns="http://www.w3.org/2000/svg">
<path d="M17.0001 10C17.0001 13.866 13.866 17 10.0001 17C7.09039 17 4.59536 15.2247 3.53902 12.6983L2.59739 13.0388C3.79374 15.9501 6.6575 18 10.0001 18C14.4183 18 18.0001 14.4183 18.0001 10C18.0001 5.58172 14.4183 2 10.0001 2C6.80621 2 4.04949 3.87161 2.76686 6.57788L2.11199 4.99689L1.18811 5.37957L2.5275 8.61315L5.76108 7.27376L5.3784 6.34988L3.64115 7.06947C4.75012 4.66713 7.1804 3 10.0001 3C13.866 3 17.0001 6.13401 17.0001 10Z" fill="#7E818E"/>
<path d="M10 6V10.2929L7.14647 13.1464L7.85358 13.8536L11 10.7071V6H10Z" fill="#7E818E"/>
</svg>
