<svg width="15" height="15" viewBox="0 0 15 15" fill="none" xmlns="http://www.w3.org/2000/svg">
<path d="M8.30104 3.699C8.09151 3.48948 7.82437 3.38472 7.49961 3.38472C7.17485 3.38472 6.91294 3.48948 6.71389 3.699C6.50437 3.919 6.39961 4.18091 6.39961 4.48472C6.39961 4.78853 6.50437 5.04519 6.71389 5.25472C6.91294 5.47472 7.17485 5.58472 7.49961 5.58472C7.82437 5.58472 8.09151 5.47472 8.30104 5.25472C8.50009 5.04519 8.59961 4.78853 8.59961 4.48472C8.59961 4.18091 8.50009 3.919 8.30104 3.699Z" fill="#7E818E"/>
<path d="M8.25 11.1355V6.6355H6.75V11.1355H8.25Z" fill="#7E818E"/>
<path fill-rule="evenodd" clip-rule="evenodd" d="M7.5 15C11.6421 15 15 11.6421 15 7.5C15 3.35786 11.6421 0 7.5 0C3.35786 0 0 3.35786 0 7.5C0 11.6421 3.35786 15 7.5 15ZM7.5 13.5C10.8137 13.5 13.5 10.8137 13.5 7.5C13.5 4.18629 10.8137 1.5 7.5 1.5C4.18629 1.5 1.5 4.18629 1.5 7.5C1.5 10.8137 4.18629 13.5 7.5 13.5Z" fill="#7E818E"/>
</svg>
