<svg width="25" height="25" viewBox="0 0 25 25" fill="none" xmlns="http://www.w3.org/2000/svg">
<path d="M8.0232 16.5C8.19064 17.3333 7.82227 19.2 5.00928 20" stroke="#3A3B3D"/>
<path d="M19.6726 8.86287C20.1242 10.2556 19.7899 11.7959 18.809 13.1777C17.8282 14.5595 16.2166 15.7526 14.1971 16.4014C12.1776 17.0501 10.1695 17.0198 8.56208 16.4694C6.95481 15.9191 5.77895 14.8639 5.32738 13.4711C4.87582 12.0784 5.21013 10.5381 6.19096 9.15631C7.17185 7.77446 8.78337 6.58137 10.8029 5.93263C12.8224 5.28388 14.8305 5.31418 16.4379 5.86457C18.0452 6.41492 19.2211 7.47014 19.6726 8.86287Z" stroke="#3A3B3D"/>
<path d="M7.5232 17.5C7.5232 18.0501 7.07455 18.5 6.51624 18.5C5.95792 18.5 5.50928 18.0501 5.50928 17.5C5.50928 16.9499 5.95792 16.5 6.51624 16.5C7.07455 16.5 7.5232 16.9499 7.5232 17.5Z" stroke="#3A3B3D"/>
</svg>
