<svg width="30" height="30" viewBox="0 0 30 30" fill="none" xmlns="http://www.w3.org/2000/svg">
<g filter="url(#filter0_d_730_217)">
<mask id="path-1-outside-1_730_217" maskUnits="userSpaceOnUse" x="5.62866" y="6.94926" width="19" height="18" fill="black">
<rect fill="white" x="5.62866" y="6.94926" width="19" height="18"/>
<path fill-rule="evenodd" clip-rule="evenodd" d="M21.4006 15.8883C22.3131 14.6027 22.5885 13.2245 22.1966 12.0159C21.8047 10.8072 20.7719 9.84921 19.2765 9.33717C17.7809 8.82506 15.8839 8.78932 13.9571 9.40831C12.0302 10.0273 10.5121 11.1601 9.59943 12.4458C8.68689 13.7314 8.41154 15.1096 8.80343 16.3183C9.19532 17.527 10.2281 18.4849 11.7235 18.997C13.2191 19.5091 15.1161 19.5448 17.0429 18.9258C18.9698 18.3068 20.4879 17.174 21.4006 15.8883ZM17.3513 19.8771C21.5756 18.5201 24.1711 14.8635 23.1487 11.71C22.1262 8.55646 17.8729 7.10007 13.6487 8.45706C9.42442 9.81406 6.82888 13.4706 7.85135 16.6241C8.1628 17.5847 8.77404 18.3879 9.59293 19.002C9.56753 19.0007 9.54196 19.0001 9.51624 19.0001C8.68397 19.0001 8.00928 19.6716 8.00928 20.5001C8.00928 21.2163 8.51355 21.8152 9.18795 21.9644C8.84161 22.1749 8.40979 22.3663 7.8725 22.5191L8.14605 23.481C9.64968 23.0534 10.5574 22.3217 11.0569 21.5292C11.3917 20.9979 11.5324 20.4553 11.5541 19.9927C13.2451 20.5316 15.3016 20.5355 17.3513 19.8771ZM10.0232 20.5001C10.0232 20.7718 9.80059 21.0001 9.51624 21.0001C9.23188 21.0001 9.00928 20.7718 9.00928 20.5001C9.00928 20.2283 9.23188 20.0001 9.51624 20.0001C9.80059 20.0001 10.0232 20.2283 10.0232 20.5001Z"/>
</mask>
<path fill-rule="evenodd" clip-rule="evenodd" d="M21.4006 15.8883C22.3131 14.6027 22.5885 13.2245 22.1966 12.0159C21.8047 10.8072 20.7719 9.84921 19.2765 9.33717C17.7809 8.82506 15.8839 8.78932 13.9571 9.40831C12.0302 10.0273 10.5121 11.1601 9.59943 12.4458C8.68689 13.7314 8.41154 15.1096 8.80343 16.3183C9.19532 17.527 10.2281 18.4849 11.7235 18.997C13.2191 19.5091 15.1161 19.5448 17.0429 18.9258C18.9698 18.3068 20.4879 17.174 21.4006 15.8883ZM17.3513 19.8771C21.5756 18.5201 24.1711 14.8635 23.1487 11.71C22.1262 8.55646 17.8729 7.10007 13.6487 8.45706C9.42442 9.81406 6.82888 13.4706 7.85135 16.6241C8.1628 17.5847 8.77404 18.3879 9.59293 19.002C9.56753 19.0007 9.54196 19.0001 9.51624 19.0001C8.68397 19.0001 8.00928 19.6716 8.00928 20.5001C8.00928 21.2163 8.51355 21.8152 9.18795 21.9644C8.84161 22.1749 8.40979 22.3663 7.8725 22.5191L8.14605 23.481C9.64968 23.0534 10.5574 22.3217 11.0569 21.5292C11.3917 20.9979 11.5324 20.4553 11.5541 19.9927C13.2451 20.5316 15.3016 20.5355 17.3513 19.8771ZM10.0232 20.5001C10.0232 20.7718 9.80059 21.0001 9.51624 21.0001C9.23188 21.0001 9.00928 20.7718 9.00928 20.5001C9.00928 20.2283 9.23188 20.0001 9.51624 20.0001C9.80059 20.0001 10.0232 20.2283 10.0232 20.5001Z" fill="black"/>
<path d="M22.1966 12.0159L21.2453 12.3243L22.1966 12.0159ZM21.4006 15.8883L20.5851 15.3094L21.4006 15.8883ZM19.2765 9.33717L18.9526 10.2832V10.2832L19.2765 9.33717ZM13.9571 9.40831L14.2629 10.3604L13.9571 9.40831ZM9.59943 12.4458L8.78399 11.867L9.59943 12.4458ZM8.80343 16.3183L7.85218 16.6267H7.85218L8.80343 16.3183ZM11.7235 18.997L12.0474 18.0509H12.0474L11.7235 18.997ZM17.0429 18.9258L16.7371 17.9737L17.0429 18.9258ZM23.1487 11.71L24.0999 11.4016L23.1487 11.71ZM17.3513 19.8771L17.0455 18.925L17.3513 19.8771ZM13.6487 8.45706L13.9545 9.40914L13.6487 8.45706ZM7.85135 16.6241L6.9001 16.9325H6.9001L7.85135 16.6241ZM9.59293 19.002L9.5431 20.0007L12.8088 20.1637L10.1929 18.2019L9.59293 19.002ZM9.18795 21.9644L9.70741 22.8189L11.8349 21.5255L9.40388 20.988L9.18795 21.9644ZM7.8725 22.5191L7.59895 21.5573L6.63709 21.8308L6.91064 22.7927L7.8725 22.5191ZM8.14605 23.481L7.18419 23.7545L7.45774 24.7164L8.41959 24.4428L8.14605 23.481ZM11.0569 21.5292L11.9029 22.0623L11.0569 21.5292ZM11.5541 19.9927L11.8577 19.0399L10.6163 18.6444L10.5552 19.9459L11.5541 19.9927ZM21.2453 12.3243C21.5182 13.1657 21.3595 14.2185 20.5851 15.3094L22.216 16.4671C23.2667 14.9869 23.6588 13.2833 23.1478 11.7074L21.2453 12.3243ZM18.9526 10.2832C20.2239 10.7186 20.9723 11.4821 21.2453 12.3243L23.1478 11.7074C22.6371 10.1322 21.3199 8.97986 19.6005 8.3911L18.9526 10.2832ZM14.2629 10.3604C16.0044 9.80095 17.6796 9.84735 18.9526 10.2832L19.6005 8.3911C17.8823 7.80277 15.7635 7.7777 13.6512 8.45623L14.2629 10.3604ZM10.4149 13.0247C11.1906 11.9319 12.5214 10.9198 14.2629 10.3604L13.6512 8.45623C11.539 9.13475 9.8336 10.3884 8.78399 11.867L10.4149 13.0247ZM9.75468 16.0099C9.48185 15.1684 9.6405 14.1156 10.4149 13.0247L8.78399 11.867C7.73327 13.3472 7.34122 15.0508 7.85218 16.6267L9.75468 16.0099ZM12.0474 18.0509C10.7761 17.6156 10.0277 16.852 9.75468 16.0099L7.85218 16.6267C8.36291 18.2019 9.68009 19.3543 11.3995 19.943L12.0474 18.0509ZM16.7371 17.9737C14.9956 18.5332 13.3204 18.4868 12.0474 18.0509L11.3995 19.943C13.1177 20.5314 15.2365 20.5564 17.3488 19.8779L16.7371 17.9737ZM20.5851 15.3094C19.8094 16.4023 18.4786 17.4143 16.7371 17.9737L17.3488 19.8779C19.461 19.1994 21.1664 17.9458 22.216 16.4671L20.5851 15.3094ZM22.1974 12.0184C22.5892 13.2268 22.3139 14.6038 21.4021 15.8884C20.49 17.1734 18.9724 18.306 17.0455 18.925L17.6572 20.8291C19.9545 20.0911 21.8469 18.717 23.033 17.0461C24.2193 15.3747 24.7306 13.3468 24.0999 11.4016L22.1974 12.0184ZM13.9545 9.40914C15.8814 8.79016 17.7789 8.82573 19.2754 9.33815C20.7719 9.85059 21.8054 10.8094 22.1974 12.0184L24.0999 11.4016C23.4694 9.45707 21.865 8.1109 19.9233 7.446C17.9814 6.78109 15.6402 6.76697 13.3428 7.50498L13.9545 9.40914ZM8.8026 16.3157C8.41082 15.1074 8.6861 13.7303 9.59793 12.4457C10.51 11.1608 12.0276 10.0281 13.9545 9.40914L13.3428 7.50498C11.0455 8.24298 9.15314 9.61711 7.96704 11.2881C6.78066 12.9594 6.2694 14.9873 6.9001 16.9325L8.8026 16.3157ZM10.1929 18.2019C9.52016 17.6974 9.04355 17.0589 8.8026 16.3157L6.9001 16.9325C7.28205 18.1106 8.02793 19.0783 8.99297 19.802L10.1929 18.2019ZM9.64276 18.0032C9.60083 18.0011 9.55864 18.0001 9.51624 18.0001V20.0001C9.52527 20.0001 9.53422 20.0003 9.5431 20.0007L9.64276 18.0032ZM9.51624 18.0001C8.13605 18.0001 7.00928 19.115 7.00928 20.5001H9.00928C9.00928 20.2283 9.23188 20.0001 9.51624 20.0001V18.0001ZM7.00928 20.5001C7.00928 21.6984 7.85243 22.6932 8.97203 22.9408L9.40388 20.988C9.17467 20.9373 9.00928 20.7342 9.00928 20.5001H7.00928ZM8.14605 23.481C8.75905 23.3067 9.27533 23.0815 9.70741 22.8189L8.66849 21.1099C8.40789 21.2683 8.06054 21.426 7.59895 21.5573L8.14605 23.481ZM9.10791 23.2074L8.83436 22.2456L6.91064 22.7927L7.18419 23.7545L9.10791 23.2074ZM10.2109 20.996C9.86492 21.5449 9.18208 22.1467 7.8725 22.5191L8.41959 24.4428C10.1173 23.96 11.2499 23.0985 11.9029 22.0623L10.2109 20.996ZM10.5552 19.9459C10.5411 20.2455 10.4486 20.6189 10.2109 20.996L11.9029 22.0623C12.3348 21.377 12.5236 20.6652 12.553 20.0396L10.5552 19.9459ZM17.0455 18.925C15.1762 19.5255 13.3334 19.5102 11.8577 19.0399L11.2505 20.9455C13.1568 21.553 15.4271 21.5455 17.6572 20.8291L17.0455 18.925ZM9.51624 22.0001C10.3511 22.0001 11.0232 21.3259 11.0232 20.5001H9.0232C9.0232 20.2178 9.25005 20.0001 9.51624 20.0001V22.0001ZM8.00928 20.5001C8.00928 21.3259 8.68134 22.0001 9.51624 22.0001V20.0001C9.78242 20.0001 10.0093 20.2178 10.0093 20.5001H8.00928ZM9.51624 19.0001C8.68134 19.0001 8.00928 19.6742 8.00928 20.5001H10.0093C10.0093 20.7823 9.78242 21.0001 9.51624 21.0001V19.0001ZM11.0232 20.5001C11.0232 19.6742 10.3511 19.0001 9.51624 19.0001V21.0001C9.25005 21.0001 9.0232 20.7823 9.0232 20.5001H11.0232Z" fill="white" mask="url(#path-1-outside-1_730_217)"/>
</g>
<defs>
<filter id="filter0_d_730_217" x="3.62808" y="4.94926" width="23.7438" height="23.7671" filterUnits="userSpaceOnUse" color-interpolation-filters="sRGB">
<feFlood flood-opacity="0" result="BackgroundImageFix"/>
<feColorMatrix in="SourceAlpha" type="matrix" values="0 0 0 0 0 0 0 0 0 0 0 0 0 0 0 0 0 0 127 0" result="hardAlpha"/>
<feOffset dy="1"/>
<feGaussianBlur stdDeviation="1.5"/>
<feColorMatrix type="matrix" values="0 0 0 0 0 0 0 0 0 0 0 0 0 0 0 0 0 0 0.35 0"/>
<feBlend mode="normal" in2="BackgroundImageFix" result="effect1_dropShadow_730_217"/>
<feBlend mode="normal" in="SourceGraphic" in2="effect1_dropShadow_730_217" result="shape"/>
</filter>
</defs>
</svg>
