<svg width="30" height="30" viewBox="0 0 30 30" fill="none" xmlns="http://www.w3.org/2000/svg">
<path d="M11.0232 19.5C11.1906 20.3333 10.8223 22.2 8.00928 23" stroke="#3A3B3D"/>
<path d="M22.6726 11.8629C23.1242 13.2556 22.7899 14.7959 21.809 16.1777C20.8282 17.5595 19.2166 18.7526 17.1971 19.4014C15.1776 20.0501 13.1695 20.0198 11.5621 19.4694C9.95481 18.9191 8.77895 17.8639 8.32738 16.4711C7.87582 15.0784 8.21013 13.5381 9.19096 12.1563C10.1718 10.7745 11.7834 9.58137 13.8029 8.93263C15.8224 8.28388 17.8305 8.31418 19.4379 8.86457C21.0452 9.41492 22.2211 10.4701 22.6726 11.8629Z" stroke="#3A3B3D"/>
<path d="M10.5232 20.5C10.5232 21.0501 10.0745 21.5 9.51624 21.5C8.95792 21.5 8.50928 21.0501 8.50928 20.5C8.50928 19.9499 8.95792 19.5 9.51624 19.5C10.0745 19.5 10.5232 19.9499 10.5232 20.5Z" stroke="#3A3B3D"/>
</svg>
