<svg width="25" height="25" viewBox="0 0 25 25" fill="none" xmlns="http://www.w3.org/2000/svg">
<path fill-rule="evenodd" clip-rule="evenodd" d="M8.50014 9.43808L21.6958 13.6222L9.43763 20.9392L8.50014 9.43808Z" fill="#F2F2F4"/>
<path fill-rule="evenodd" clip-rule="evenodd" d="M6.15605 4.14577L8.49978 9.44064L16.4684 3L6.15605 4.14577Z" fill="#B8B9C0"/>
<path fill-rule="evenodd" clip-rule="evenodd" d="M20.6869 13.5811L23.4995 12.062L16.4682 3L20.6869 13.5811Z" fill="#A8AAB3"/>
<path fill-rule="evenodd" clip-rule="evenodd" d="M8.50014 9.44064L20.6875 13.5811L16.4688 3L8.50014 9.44064Z" fill="#D2D4DA"/>
<path fill-rule="evenodd" clip-rule="evenodd" d="M9.43744 20.9358L18.3436 22.9927L20.6873 13.5751L9.43744 20.9358Z" fill="#D2D4DA"/>
<path fill-rule="evenodd" clip-rule="evenodd" d="M1 14.9586L9.43751 20.9423L8.49992 9.43808L1 14.9586Z" fill="#D2D4DA"/>
<path fill-rule="evenodd" clip-rule="evenodd" d="M8.50014 23.0003H18.3438L9.43763 20.9435L8.50014 23.0003Z" fill="#A8AAB3"/>
<path fill-rule="evenodd" clip-rule="evenodd" d="M1 14.9652L8.49992 9.44467L6.15619 4.15054L1 14.9652Z" fill="#A0A2AA"/>
<path fill-rule="evenodd" clip-rule="evenodd" d="M8.49992 22.9983L9.43741 20.9406L1 14.96L8.49992 22.9983Z" fill="#8F919C"/>
<path fill-rule="evenodd" clip-rule="evenodd" d="M20.6876 13.5826L18.3439 22.9993L23.5 12.0623L20.6876 13.5826Z" fill="#C3C5CB"/>
</svg>
