<svg width="20" height="20" viewBox="0 0 20 20" fill="none" xmlns="http://www.w3.org/2000/svg">
<path fill-rule="evenodd" clip-rule="evenodd" d="M8.5 0.456421L2 3.22822V11.5898L6.80809 13.2616C6.86603 13.4988 6.98232 13.7238 7.15524 13.914L11.3325 18.509C11.6167 18.8217 12.0198 19 12.4424 19H16.0194C16.4751 19 16.906 18.7928 17.1907 18.437L18.6713 16.5862C18.8841 16.3203 19 15.9898 19 15.6492V9.49998C19 8.67156 18.3284 7.99998 17.5 7.99998C17.3247 7.99998 17.1564 8.03006 17 8.08534V7.99998C17 7.17156 16.3284 6.49998 15.5 6.49998C15.3247 6.49998 15.1564 6.53006 15 6.58534L15 3.22822L8.5 0.456421ZM14 6.99998C14 7.00031 14 6.99965 14 6.99998C13.9995 6.72429 13.7758 6.49998 13.5 6.49998C13.2239 6.49998 13 6.72384 13 6.99998V12H12V8.49998C12 8.22384 11.7761 7.99998 11.5 7.99998C11.2239 7.99998 11 8.22384 11 8.49998V12.6467C11 13.1908 10.4064 13.5269 9.93985 13.247L8.56038 12.4193C8.33152 12.282 8.03516 12.3486 7.88711 12.5707L7.84912 12.6277C7.72186 12.8186 7.74084 13.0716 7.89518 13.2414L12.0724 17.8363C12.1672 17.9406 12.3015 18 12.4424 18H16.0194C16.1713 18 16.3149 17.9309 16.4098 17.8123L17.8904 15.9615C17.9614 15.8729 18 15.7627 18 15.6492V9.49998C18 9.22384 17.7761 8.99998 17.5 8.99998C17.2239 8.99998 17 9.22384 17 9.49998V12H16V7.99998C16 7.72384 15.7761 7.49998 15.5 7.49998C15.2239 7.49998 15 7.72384 15 7.99998V12H14L14 6.99998ZM14 5.58534V4.30162L9 6.33633V11.5197C9.0252 11.533 9.05017 11.547 9.07488 11.5618L10 12.1169V8.49998C10 7.67156 10.6716 6.99998 11.5 6.99998C11.6753 6.99998 11.8436 7.03006 12 7.08534V6.99998C12 6.17156 12.6716 5.49998 13.5 5.49998C13.6753 5.49998 13.8436 5.53006 14 5.58534ZM8 11.379V6.33633L3 4.30162V10.8788L6.9197 12.2417C6.94818 12.184 6.98063 12.1277 7.01707 12.073L7.05506 12.016C7.2824 11.675 7.62633 11.4561 8 11.379ZM13.1997 3.54766L8.5 1.54355L3.80028 3.54766L8.5 5.46017L13.1997 3.54766Z" fill="#7E818E"/>
</svg>
