<svg width="30" height="30" viewBox="0 0 30 30" fill="none" xmlns="http://www.w3.org/2000/svg">
<path fill-rule="evenodd" clip-rule="evenodd" d="M18.249 9.04818C17.6476 7.96576 16 8.39271 16 9.63095V22C16 22.5523 16.4477 23 17 23H24.3005C25.063 23 25.5449 22.1809 25.1746 21.5144L18.249 9.04818ZM17 9.63095V22H24.3005L17.3748 9.53382C17.3377 9.46701 17.303 9.44885 17.2818 9.44062C17.2515 9.42884 17.2045 9.42317 17.1498 9.43734C17.0951 9.45152 17.0568 9.47929 17.036 9.50431C17.0215 9.5218 17 9.55452 17 9.63095Z" fill="#3A3B3D"/>
<path d="M5.2024 22.8693C5.34617 22.9518 5.51459 23 5.69951 23H6.1558V22H5.69951L5.94686 21.5548L5.0727 21.0691L4.82536 21.5144C4.73555 21.676 4.69587 21.8466 4.69817 22.0124L5.69807 21.9985L5.69804 22C5.69423 21.9999 5.69506 21.9999 5.69506 21.9999L5.69804 22L5.69747 22.004C5.69747 22.004 5.69705 22.0047 5.69882 22.0013L5.70011 22.002L5.2024 22.8693Z" fill="#3A3B3D"/>
<path d="M12.5437 23H13C13.1356 23 13.2649 22.973 13.3828 22.9241L13 22.001V22H13.001L13.9241 22.3828C13.973 22.2649 14 22.1356 14 22V21.4846H13V22H12.5437V23Z" fill="#3A3B3D"/>
<path d="M14 10.1463V9.63095C14 9.48991 13.9786 9.3594 13.9399 9.24045L12.9891 9.55033C12.9943 9.56626 13 9.59199 13 9.63095V10.1463H14Z" fill="#3A3B3D"/>
<path d="M13.4629 8.62705C13.2401 8.48404 12.9723 8.41463 12.7081 8.43146L12.7716 9.42944C12.823 9.42616 12.8793 9.44075 12.9227 9.46857L13.4629 8.62705Z" fill="#3A3B3D"/>
<path d="M11.9932 8.73603C11.9016 8.82119 11.8195 8.92489 11.751 9.04818L11.5037 9.4934L12.3778 9.97904L12.6252 9.53382C12.6441 9.49977 12.6616 9.48005 12.6739 9.46865L11.9932 8.73603Z" fill="#3A3B3D"/>
<path d="M11.009 10.3838L10.5143 11.2743L11.3884 11.7599L11.8831 10.8695L11.009 10.3838Z" fill="#3A3B3D"/>
<path d="M10.0196 12.1647L9.52491 13.0552L10.3991 13.5408L10.8938 12.6504L10.0196 12.1647Z" fill="#3A3B3D"/>
<path d="M9.03022 13.9456L8.53553 14.836L9.40969 15.3217L9.90438 14.4312L9.03022 13.9456Z" fill="#3A3B3D"/>
<path d="M8.04084 15.7265L7.54615 16.6169L8.42031 17.1026L8.915 16.2121L8.04084 15.7265Z" fill="#3A3B3D"/>
<path d="M7.05146 17.5074L6.55677 18.3978L7.43093 18.8835L7.92562 17.993L7.05146 17.5074Z" fill="#3A3B3D"/>
<path d="M5.56739 20.1787L6.06208 19.2883L6.93624 19.7739L6.44155 20.6643L5.56739 20.1787Z" fill="#3A3B3D"/>
<path d="M14 11.1771V12.2078H13V11.1771H14Z" fill="#3A3B3D"/>
<path d="M14 13.2386V14.2693H13V13.2386H14Z" fill="#3A3B3D"/>
<path d="M14 15.3001V16.3309H13V15.3001H14Z" fill="#3A3B3D"/>
<path d="M14 17.3616V18.3924H13V17.3616H14Z" fill="#3A3B3D"/>
<path d="M14 19.4231V20.4539H13V19.4231H14Z" fill="#3A3B3D"/>
<path d="M11.6312 23H10.7186V22H11.6312V23Z" fill="#3A3B3D"/>
<path d="M9.80604 23H8.89348V22H9.80604V23Z" fill="#3A3B3D"/>
<path d="M7.98092 23H7.06836V22H7.98092V23Z" fill="#3A3B3D"/>
</svg>
