<svg width="15" height="15" viewBox="0 0 15 15" fill="none" xmlns="http://www.w3.org/2000/svg">
<path d="M7.5 3.5H8.5V4.5H7.5V3.5Z" fill="#3A3B3D"/>
<path fill-rule="evenodd" clip-rule="evenodd" d="M1 2C1 1.44772 1.44772 1 2 1H11C11.5523 1 12 1.44772 12 2V11C12 11.5523 11.5523 12 11 12H2C1.44771 12 1 11.5523 1 11V2ZM3.94128 4.30021L7.04727 6.88854L9.57751 5.3704L11 6.79289V2H2V6.56504L3.94128 4.30021ZM11 8.20711V11H2L2 8.10163L4.05872 5.69979L6.95273 8.11146L9.42249 6.6296L11 8.20711Z" fill="#3A3B3D"/>
<path d="M14 12.5V3H13V12.5C13 12.7761 12.7761 13 12.5 13L3 13L3 14L12.5 14C13.3284 14 14 13.3284 14 12.5Z" fill="#3A3B3D"/>
</svg>
