<svg width="15" height="15" viewBox="0 0 15 15" fill="none" xmlns="http://www.w3.org/2000/svg">
<path d="M4.75 10.5C4.75 11.0523 4.30228 11.5 3.75 11.5C3.19772 11.5 2.75 11.0523 2.75 10.5C2.75 9.94772 3.19772 9.5 3.75 9.5C4.30228 9.5 4.75 9.94772 4.75 10.5ZM8.5 4.5C8.5 5.05228 8.05228 5.5 7.5 5.5C6.94772 5.5 6.5 5.05228 6.5 4.5C6.5 3.94772 6.94772 3.5 7.5 3.5C8.05228 3.5 8.5 3.94772 8.5 4.5ZM12.25 10.5C12.25 11.0523 11.8023 11.5 11.25 11.5C10.6977 11.5 10.25 11.0523 10.25 10.5C10.25 9.94772 10.6977 9.5 11.25 9.5C11.8023 9.5 12.25 9.94772 12.25 10.5Z" fill="#C3C5CB" stroke="#C3C5CB"/>
</svg>
