<svg width="30" height="30" viewBox="0 0 30 30" fill="none" xmlns="http://www.w3.org/2000/svg">
<path fill-rule="evenodd" clip-rule="evenodd" d="M18 15C18 16.6569 16.6569 18 15 18C13.3431 18 12 16.6569 12 15C12 13.3431 13.3431 12 15 12C16.6569 12 18 13.3431 18 15ZM17 15C17 16.1046 16.1046 17 15 17C13.8954 17 13 16.1046 13 15C13 13.8954 13.8954 13 15 13C16.1046 13 17 13.8954 17 15Z" fill="#3A3B3D"/>
<path fill-rule="evenodd" clip-rule="evenodd" d="M14.5 4V7.01537C10.48 7.26327 7.26327 10.48 7.01537 14.5H4V15.5H7.01537C7.26327 19.52 10.48 22.7367 14.5 22.9846V26H15.5V22.9846C19.52 22.7367 22.7367 19.52 22.9846 15.5H26V14.5H22.9846C22.7367 10.48 19.52 7.26327 15.5 7.01537V4H14.5ZM15 8C11.134 8 8 11.134 8 15C8 18.866 11.134 22 15 22C18.866 22 22 18.866 22 15C22 11.134 18.866 8 15 8Z" fill="#3A3B3D"/>
</svg>
