<svg width="25" height="25" viewBox="0 0 25 25" fill="none" xmlns="http://www.w3.org/2000/svg">
<path fill-rule="evenodd" clip-rule="evenodd" d="M15 8.5C15 9.88071 13.8807 11 12.5 11C11.1193 11 10 9.88071 10 8.5C10 7.11929 11.1193 6 12.5 6C13.8807 6 15 7.11929 15 8.5ZM14 8.5C14 9.32843 13.3284 10 12.5 10C11.6716 10 11 9.32843 11 8.5C11 7.67157 11.6716 7 12.5 7C13.3284 7 14 7.67157 14 8.5Z" fill="#3A3B3D"/>
<path d="M10.5 13C9.11929 13 8 14.1193 8 15.5V18H9V15.5C9 14.6716 9.67157 14 10.5 14H14.5C15.3284 14 16 14.6716 16 15.5V18H17V15.5C17 14.1193 15.8807 13 14.5 13H10.5Z" fill="#3A3B3D"/>
<path fill-rule="evenodd" clip-rule="evenodd" d="M23 12.5C23 18.299 18.299 23 12.5 23C6.70101 23 2 18.299 2 12.5C2 6.70101 6.70101 2 12.5 2C18.299 2 23 6.70101 23 12.5ZM22 12.5C22 17.7467 17.7467 22 12.5 22C7.25329 22 3 17.7467 3 12.5C3 7.25329 7.25329 3 12.5 3C17.7467 3 22 7.25329 22 12.5Z" fill="#3A3B3D"/>
</svg>
