<svg width="20" height="20" viewBox="0 0 20 20" fill="none" xmlns="http://www.w3.org/2000/svg">
<path d="M2.1881 10C2.1881 13.866 5.32211 17 9.1881 17C12.0978 17 14.5928 15.2247 15.6491 12.6983L16.5908 13.0388C15.3944 15.9501 12.5307 18 9.1881 18C4.76982 18 1.1881 14.4183 1.1881 10C1.1881 5.58172 4.76982 2 9.1881 2C12.3819 2 15.1387 3.87161 16.4213 6.57788L17.0762 4.99689L18 5.37957L16.6607 8.61315L13.4271 7.27376L13.8098 6.34988L15.547 7.06947C14.438 4.66713 12.0078 3 9.1881 3C5.32211 3 2.1881 6.13401 2.1881 10Z" fill="#C3C5CB"/>
</svg>
