<svg width="164" height="164" viewBox="0 0 164 164" fill="none" xmlns="http://www.w3.org/2000/svg">
<path d="M68 111C75.732 111 82 104.129 82 95.6538C82 87.8977 76.7507 81.4854 69.934 80.4529C68.9767 65.6683 57.7315 54 44 54C33.1842 54 23.9109 61.2392 19.9927 71.5385C10.0549 71.5428 2 80.3749 2 91.2692C2 102.166 10.0589 111 20 111H68Z" stroke="#3A3B3D"/>
<path d="M61.35 111C49.5587 111 40 100.513 40 87.5769C40 75.7385 48.0052 65.9514 58.4007 64.3755C59.8605 41.8095 77.0095 24 97.95 24C114.444 24 128.586 35.0493 134.561 50.7692C149.716 50.7759 162 64.2564 162 80.8846C162 97.5169 149.71 111 134.55 111H61.35Z" fill="white" stroke="#3A3B3D"/>
<circle cx="96" cy="111" r="20" fill="white" stroke="#3A3B3D"/>
<path d="M110.5 125L126 140.5" stroke="#3A3B3D" stroke-linecap="round"/>
</svg>
