<svg width="15" height="15" viewBox="0 0 15 15" fill="none" xmlns="http://www.w3.org/2000/svg">
<path fill-rule="evenodd" clip-rule="evenodd" d="M7.50004 5.02749C6.13292 5.02749 5.02465 6.13577 5.02465 7.50289C5.02465 8.87002 6.13292 9.97829 7.50004 9.97829C8.86717 9.97829 9.97544 8.87002 9.97544 7.50289C9.97544 6.13577 8.86717 5.02749 7.50004 5.02749ZM5.78935 7.50289C5.78935 6.5581 6.55526 5.7922 7.50004 5.7922C8.44483 5.7922 9.21074 6.5581 9.21074 7.50289C9.21074 8.44768 8.44483 9.21359 7.50004 9.21359C6.55526 9.21359 5.78935 8.44768 5.78935 7.50289Z" fill="#7E818E"/>
<path fill-rule="evenodd" clip-rule="evenodd" d="M6.43692 1L6.14355 2.34771C5.67309 2.47155 5.22673 2.65767 4.81565 2.89785L3.65569 2.15247L2.15247 3.65569L2.89782 4.81561C2.65764 5.22637 2.47142 5.67188 2.34754 6.14359L1 6.43692V8.56308L2.34771 8.85645C2.47155 9.32691 2.65767 9.77327 2.89785 10.1843L2.15247 11.3443L3.65569 12.8475L4.81561 12.1022C5.22637 12.3424 5.67188 12.5286 6.14359 12.6525L6.43692 14H8.56308L8.85645 12.6523C9.32691 12.5285 9.77327 12.3423 10.1843 12.1022L11.3443 12.8475L12.8475 11.3443L12.1022 10.1844C12.3424 9.77363 12.5286 9.32812 12.6525 8.85641L14 8.56308V6.43692L12.6523 6.14355C12.5285 5.67309 12.3423 5.22673 12.1022 4.81565L12.8475 3.65569L11.3443 2.15247L10.1844 2.89782C9.77363 2.65764 9.32812 2.47142 8.85641 2.34754L8.56308 1H6.43692ZM7.05307 1.76471H7.94693L8.21282 2.98623L8.45418 3.03771C9.00766 3.15576 9.52202 3.37237 9.98033 3.67018L10.1875 3.8048L11.2393 3.12892L11.8711 3.76069L11.1952 4.8125L11.3298 5.01967C11.6275 5.47775 11.8442 5.99426 11.9623 6.54609L12.014 6.78722L13.2353 7.05307V7.94693L12.0138 8.21282L11.9623 8.45418C11.8442 9.00766 11.6276 9.52202 11.3298 9.98033L11.1952 10.1875L11.8711 11.2393L11.2393 11.8711L10.1875 11.1952L9.98033 11.3298C9.52225 11.6275 9.00574 11.8442 8.45391 11.9623L8.21278 12.014L7.94693 13.2353H7.05307L6.78718 12.0138L6.54582 11.9623C5.99234 11.8442 5.47798 11.6276 5.01967 11.3298L4.8125 11.1952L3.76069 11.8711L3.12892 11.2393L3.8048 10.1875L3.67018 9.98033C3.37252 9.52225 3.15576 9.00574 3.03765 8.45392L2.98604 8.21278L1.76471 7.94693V7.05307L2.98623 6.78718L3.03771 6.54582C3.15576 5.99234 3.37237 5.47798 3.67018 5.01967L3.8048 4.8125L3.12892 3.76069L3.76069 3.12892L4.8125 3.8048L5.01967 3.67018C5.47775 3.37252 5.99426 3.15576 6.54609 3.03765L6.78722 2.98604L7.05307 1.76471Z" fill="#7E818E"/>
</svg>
