<svg width="20" height="20" viewBox="0 0 20 20" fill="none" xmlns="http://www.w3.org/2000/svg">
<path d="M18 10.9873V9.01268L16.3243 8.64793C16.157 7.8663 15.8498 7.13404 15.4275 6.48406L16.3545 5.04148L14.9585 3.64553L13.5159 4.57251C12.866 4.15015 12.1364 3.84299 11.3521 3.67569L10.9873 2H9.01269L8.64793 3.67569C7.8663 3.84299 7.13404 4.15015 6.48406 4.57251L5.04148 3.64553L3.64553 5.04148L4.57251 6.48406C4.15015 7.13404 3.84299 7.86356 3.67569 8.64793L2 9.01268V10.9873L3.67569 11.3521C3.84299 12.1337 4.15015 12.866 4.57251 13.5159L3.64553 14.9585L5.04148 16.3545L6.48406 15.4275C7.13404 15.8498 7.86356 16.157 8.64793 16.3243L9.01269 18H10.9873L11.3521 16.3243C12.1337 16.157 12.866 15.8498 13.5159 15.4275L14.9585 16.3545L16.3545 14.9585L15.4275 13.5159C15.8498 12.866 16.157 12.1364 16.3243 11.3521L18 10.9873Z" stroke="#7E818E" stroke-miterlimit="10"/>
<path d="M10.0001 12.7408C11.5117 12.7408 12.7372 11.5154 12.7372 10.0038C12.7372 8.49215 11.5117 7.26672 10.0001 7.26672C8.48845 7.26672 7.26303 8.49215 7.26303 10.0038C7.26303 11.5154 8.48845 12.7408 10.0001 12.7408Z" stroke="#7E818E" stroke-miterlimit="10"/>
</svg>
