<svg width="20" height="20" viewBox="0 0 20 20" fill="none" xmlns="http://www.w3.org/2000/svg">
<path fill-rule="evenodd" clip-rule="evenodd" d="M10.0001 6.76672C8.21228 6.76672 6.763 8.216 6.763 10.0038C6.763 11.7916 8.21228 13.2408 10.0001 13.2408C11.7878 13.2408 13.2371 11.7916 13.2371 10.0038C13.2371 8.216 11.7878 6.76672 10.0001 6.76672ZM7.763 10.0038C7.763 8.76829 8.76457 7.76672 10.0001 7.76672C11.2356 7.76672 12.2371 8.76829 12.2371 10.0038C12.2371 11.2393 11.2356 12.2408 10.0001 12.2408C8.76457 12.2408 7.763 11.2393 7.763 10.0038Z" fill="#3A3B3D"/>
<path fill-rule="evenodd" clip-rule="evenodd" d="M8.60981 1.5L8.22618 3.26239C7.61097 3.42434 7.02727 3.66772 6.4897 3.9818L4.97282 3.00708L3.00708 4.97282L3.98176 6.48965C3.66769 7.02679 3.42417 7.60938 3.26217 8.22623L1.5 8.60981V11.3902L3.26239 11.7738C3.42434 12.389 3.66772 12.9727 3.9818 13.5103L3.00708 15.0272L4.97282 16.9929L6.48965 16.0182C7.02679 16.3323 7.60938 16.5758 8.22623 16.7378L8.60981 18.5H11.3902L11.7738 16.7376C12.389 16.5757 12.9727 16.3323 13.5103 16.0182L15.0272 16.9929L16.9929 15.0272L16.0182 13.5104C16.3323 12.9732 16.5758 12.3906 16.7378 11.7738L18.5 11.3902V8.60981L16.7376 8.22618C16.5757 7.61097 16.3323 7.02727 16.0182 6.4897L16.9929 4.97282L15.0272 3.00708L13.5104 3.98176C12.9732 3.66769 12.3906 3.42417 11.7738 3.26217L11.3902 1.5H8.60981ZM9.41556 2.5H10.5844L10.9322 4.09738L11.2478 4.1647C11.9716 4.31907 12.6442 4.60233 13.2435 4.99177L13.5144 5.16781L14.8899 4.28398L15.716 5.11014L14.8322 6.48557L15.0082 6.75649C15.3975 7.35552 15.6809 8.03096 15.8354 8.75257L15.9029 9.0679L17.5 9.41556V10.5844L15.9026 10.9322L15.8353 11.2478C15.6809 11.9716 15.3977 12.6442 15.0082 13.2435L14.8322 13.5144L15.716 14.8899L14.8899 15.716L13.5144 14.8322L13.2435 15.0082C12.6445 15.3975 11.969 15.6809 11.2474 15.8354L10.9321 15.9029L10.5844 17.5H9.41556L9.06785 15.9026L8.75222 15.8353C8.02845 15.6809 7.35582 15.3977 6.75649 15.0082L6.48557 14.8322L5.11014 15.716L4.28398 14.8899L5.16781 13.5144L4.99177 13.2435C4.60253 12.6445 4.31907 11.969 4.16462 11.2474L4.09713 10.9321L2.5 10.5844V9.41556L4.09738 9.06784L4.1647 8.75222C4.31907 8.02845 4.60233 7.35582 4.99177 6.75649L5.16781 6.48557L4.28398 5.11014L5.11014 4.28398L6.48557 5.16781L6.75649 4.99177C7.35552 4.60252 8.03096 4.31907 8.75257 4.16462L9.0679 4.09713L9.41556 2.5Z" fill="#3A3B3D"/>
</svg>
