<svg width="25" height="25" viewBox="0 0 25 25" fill="none" xmlns="http://www.w3.org/2000/svg">
<path fill-rule="evenodd" clip-rule="evenodd" d="M9.01386 10.9153C8.97705 10.5319 8.98126 10.149 9.02418 9.77245L5 11.9522V19.0478L11.5 22.5687L18 19.0478V11.9522L13.221 9.36359C13.0575 9.66093 12.9465 9.98627 12.895 10.3243L16.4502 12.25L11.5 14.9314L6.5498 12.25L9.01386 10.9153ZM6 13.0895L11 15.7978V21.1605L6 18.4522V13.0895ZM12 21.1605L17 18.4522V13.0895L12 15.7978V21.1605Z" fill="#C3C5CB"/>
<path d="M13.538 2.5374L14.1318 4.23677C14.1318 4.23677 11.5395 5.14258 10.761 7.35329C9.93044 9.14875 10.4581 11.3419 10.6531 12.0117C10.6582 12.029 10.6907 12.0216 10.6891 12.0037C10.6425 11.4784 10.6494 10.0616 11.8227 8.72715C12.9648 7.55261 15.0374 6.82838 15.0374 6.82838L15.9331 9.39162C15.9371 9.40306 15.9525 9.40479 15.9589 9.39453L19.0446 4.47078C19.0495 4.46294 19.0459 4.45256 19.0372 4.44948L13.5565 2.51901C13.5451 2.51499 13.5341 2.52597 13.538 2.5374Z" fill="#3A3B3D"/>
</svg>
