<svg width="15" height="15" viewBox="0 0 15 15" fill="none" xmlns="http://www.w3.org/2000/svg">
<mask id="path-1-outside-1" maskUnits="userSpaceOnUse" x="-0.273892" y="-0.46172" width="15.9009" height="14.6725" fill="black">
<rect fill="white" x="-0.273892" y="-0.46172" width="15.9009" height="14.6725"/>
<path d="M6.53805 2.5374L7.13184 4.23677C7.13184 4.23677 4.53952 5.14258 3.76104 7.35329C2.93044 9.14875 3.45813 11.3419 3.65312 12.0117C3.65815 12.029 3.69067 12.0216 3.68908 12.0037C3.64252 11.4784 3.64945 10.0616 4.8227 8.72715C5.96476 7.55261 8.03741 6.82838 8.03741 6.82838L8.93306 9.39162C8.93706 9.40306 8.9525 9.40479 8.95894 9.39453L12.0446 4.47078C12.0495 4.46294 12.0459 4.45256 12.0372 4.44948L6.55648 2.51901C6.54506 2.51499 6.53405 2.52597 6.53805 2.5374Z"/>
</mask>
<path d="M6.53805 2.5374L7.13184 4.23677C7.13184 4.23677 4.53952 5.14258 3.76104 7.35329C2.93044 9.14875 3.45813 11.3419 3.65312 12.0117C3.65815 12.029 3.69067 12.0216 3.68908 12.0037C3.64252 11.4784 3.64945 10.0616 4.8227 8.72715C5.96476 7.55261 8.03741 6.82838 8.03741 6.82838L8.93306 9.39162C8.93706 9.40306 8.9525 9.40479 8.95894 9.39453L12.0446 4.47078C12.0495 4.46294 12.0459 4.45256 12.0372 4.44948L6.55648 2.51901C6.54506 2.51499 6.53405 2.52597 6.53805 2.5374Z" fill="#3A3B3D"/>
<path d="M7.13184 4.23677L7.46171 5.1808L8.40574 4.85093L8.07587 3.9069L7.13184 4.23677ZM6.55648 2.51901L6.22424 3.4622L6.22426 3.46221L6.55648 2.51901ZM12.0372 4.44948L12.3694 3.50629L12.3694 3.50628L12.0372 4.44948ZM12.0446 4.47078L11.1973 3.93974L11.1973 3.93975L12.0446 4.47078ZM8.95894 9.39453L9.80629 9.92556L9.80629 9.92556L8.95894 9.39453ZM8.03741 6.82838L8.98144 6.49852L8.65157 5.55449L7.70755 5.88435L8.03741 6.82838ZM3.65312 12.0117L2.69297 12.2912L2.69297 12.2912L3.65312 12.0117ZM3.76104 7.35329L4.66863 7.77315L4.68852 7.73014L4.70427 7.68544L3.76104 7.35329ZM4.8227 8.72715L4.10575 8.03002L4.08826 8.04801L4.07169 8.06686L4.8227 8.72715ZM3.68908 12.0037L4.68518 11.9154L4.68518 11.9154L3.68908 12.0037ZM8.07587 3.9069L7.48208 2.20754L5.59402 2.86726L6.18782 4.56663L8.07587 3.9069ZM6.22426 3.46221L11.7049 5.39269L12.3694 3.50628L6.88871 1.57581L6.22426 3.46221ZM11.1973 3.93975L8.11158 8.8635L9.80629 9.92556L12.892 5.00181L11.1973 3.93975ZM9.87709 9.06176L8.98144 6.49852L7.09338 7.15825L7.98903 9.72148L9.87709 9.06176ZM4.61326 11.7322C4.52818 11.4399 4.36703 10.8012 4.32061 10.0435C4.27368 9.27746 4.34875 8.46462 4.66863 7.77315L2.85345 6.93343C2.34273 8.03742 2.26634 9.21886 2.32435 10.1658C2.38287 11.1209 2.58307 11.9137 2.69297 12.2912L4.61326 11.7322ZM4.70427 7.68544C4.99314 6.8651 5.6407 6.23813 6.29758 5.79504C6.61808 5.57886 6.91918 5.42123 7.1386 5.31852C7.24766 5.26747 7.33476 5.23081 7.3917 5.20793C7.42012 5.19652 7.44088 5.18859 7.45293 5.18409C7.45895 5.18183 7.46278 5.18044 7.46429 5.17989C7.46505 5.17962 7.46522 5.17956 7.46479 5.17971C7.46458 5.17979 7.46422 5.17991 7.46371 5.1801C7.46345 5.18019 7.46316 5.18029 7.46282 5.18041C7.46266 5.18046 7.46238 5.18056 7.46229 5.18059C7.46201 5.18069 7.46171 5.1808 7.13184 4.23677C6.80198 3.29274 6.80166 3.29285 6.80134 3.29296C6.80121 3.29301 6.80088 3.29313 6.80063 3.29321C6.80014 3.29338 6.79961 3.29357 6.79904 3.29377C6.7979 3.29417 6.79659 3.29464 6.79513 3.29515C6.79221 3.29619 6.78865 3.29747 6.78448 3.29897C6.77613 3.30199 6.76531 3.30595 6.75215 3.31088C6.72585 3.32072 6.69015 3.33441 6.64617 3.35208C6.55831 3.38738 6.4368 3.43876 6.29066 3.50717C5.99969 3.64338 5.60406 3.85038 5.17917 4.13699C4.34527 4.69948 3.30742 5.63077 2.81781 7.02114L4.70427 7.68544ZM8.03741 6.82838C7.70755 5.88435 7.70738 5.88441 7.70721 5.88447C7.70715 5.88449 7.70697 5.88455 7.70684 5.8846C7.70657 5.8847 7.70627 5.8848 7.70593 5.88492C7.70527 5.88515 7.70447 5.88543 7.70356 5.88575C7.70172 5.8864 7.69938 5.88723 7.69655 5.88823C7.69088 5.89025 7.68325 5.89298 7.67375 5.89642C7.65474 5.90329 7.6282 5.91301 7.59489 5.92551C7.5283 5.95049 7.43437 5.98666 7.31911 6.03352C7.08921 6.12698 6.77113 6.26428 6.41392 6.44149C5.71927 6.7861 4.79523 7.32093 4.10575 8.03002L5.53965 9.42427C5.99223 8.95882 6.67555 8.54428 7.30273 8.23314C7.60644 8.08247 7.87791 7.9653 8.07232 7.88627C8.16921 7.84688 8.24613 7.8173 8.29735 7.79808C8.32294 7.78848 8.34205 7.7815 8.35396 7.77719C8.35991 7.77504 8.36406 7.77356 8.36631 7.77276C8.36744 7.77236 8.36809 7.77213 8.36825 7.77207C8.36833 7.77204 8.36829 7.77205 8.36813 7.77211C8.36805 7.77214 8.36794 7.77218 8.3678 7.77223C8.36772 7.77225 8.36759 7.7723 8.36756 7.77231C8.36742 7.77236 8.36727 7.77241 8.03741 6.82838ZM4.07169 8.06686C2.64993 9.68398 2.63315 11.417 2.69299 12.092L4.68518 11.9154C4.65188 11.5398 4.64896 10.4393 5.57372 9.38743L4.07169 8.06686ZM8.11158 8.8635C8.55045 8.16321 9.60448 8.28159 9.87709 9.06176L7.98903 9.72148C8.26963 10.5245 9.35456 10.6464 9.80629 9.92556L8.11158 8.8635ZM11.7049 5.39268C11.1093 5.18288 10.8619 4.47487 11.1973 3.93974L12.892 5.00182C13.2372 4.45101 12.9825 3.72224 12.3694 3.50629L11.7049 5.39268ZM7.48208 2.20754C7.75468 2.98768 7.00377 3.7368 6.22424 3.4622L6.88873 1.57582C6.08635 1.29318 5.31343 2.06425 5.59402 2.86726L7.48208 2.20754ZM2.69297 12.2912C2.79175 12.6305 3.04191 12.8517 3.29623 12.9513C3.5229 13.0401 3.7364 13.0316 3.89212 12.9967C4.11318 12.9472 4.75139 12.6623 4.68518 11.9154L2.69299 12.092C2.62837 11.363 3.25111 11.0907 3.45505 11.0451C3.60221 11.0121 3.80673 11.0033 4.02594 11.0892C4.27279 11.1859 4.517 11.4015 4.61326 11.7322L2.69297 12.2912Z" fill="white" mask="url(#path-1-outside-1)"/>
</svg>
