<svg width="15" height="15" viewBox="0 0 15 15" fill="none" xmlns="http://www.w3.org/2000/svg">
<path d="M11 6C12.1046 6 13 5.10457 13 4C13 2.89543 12.1046 2 11 2C9.89543 2 9 2.89543 9 4C9 5.10457 9.89543 6 11 6Z" stroke="#A8AAB3" stroke-linecap="round" stroke-linejoin="round"/>
<path d="M4 10C5.10457 10 6 9.10457 6 8C6 6.89543 5.10457 6 4 6C2.89543 6 2 6.89543 2 8C2 9.10457 2.89543 10 4 10Z" stroke="#A8AAB3" stroke-linecap="round" stroke-linejoin="round"/>
<path d="M11 14C12.1046 14 13 13.1046 13 12C13 10.8954 12.1046 10 11 10C9.89543 10 9 10.8954 9 12C9 13.1046 9.89543 14 11 14Z" stroke="#A8AAB3" stroke-linecap="round" stroke-linejoin="round"/>
<path d="M9.17337 10.9207L5.59265 9.22815" stroke="#A8AAB3" stroke-linecap="round" stroke-linejoin="round"/>
<path d="M8.99999 5L5.62024 6.68987" stroke="#A8AAB3" stroke-linecap="round" stroke-linejoin="round"/>
</svg>
