<svg width="10" height="10" viewBox="0 0 10 10" fill="none" xmlns="http://www.w3.org/2000/svg">
<path d="M3.86072 0.267528L4.45451 1.9669C4.45451 1.9669 1.86219 2.87271 1.08371 5.08342C0.253101 6.87887 0.780794 9.072 0.975784 9.74181C0.980817 9.7591 1.01334 9.75176 1.01175 9.73382C0.965186 9.20854 0.972114 7.79174 2.14537 6.45727C3.28743 5.28274 5.36008 4.55851 5.36008 4.55851L6.25573 7.12175C6.25972 7.13318 6.27517 7.13492 6.2816 7.12466L9.36728 2.20091C9.3722 2.19307 9.36857 2.18269 9.35984 2.17961L3.87915 0.24914C3.86773 0.245115 3.85672 0.256094 3.86072 0.267528Z" fill="#3A3B3D"/>
</svg>
