<svg width="25" height="25" viewBox="0 0 25 25" fill="none" xmlns="http://www.w3.org/2000/svg">
<path d="M13.538 2.5374L14.1318 4.23677C14.1318 4.23677 11.5395 5.14258 10.761 7.35329C9.93044 9.14875 10.4581 11.3419 10.6531 12.0117C10.6582 12.029 10.6907 12.0216 10.6891 12.0037C10.6425 11.4784 10.6494 10.0616 11.8227 8.72715C12.9648 7.55261 15.0374 6.82838 15.0374 6.82838L15.9331 9.39162C15.9371 9.40306 15.9525 9.40479 15.9589 9.39453L19.0446 4.47078C19.0495 4.46294 19.0459 4.45256 19.0372 4.44948L13.5565 2.51901C13.5451 2.51499 13.5341 2.52597 13.538 2.5374Z" fill="#3A3B3D"/>
<path fill-rule="evenodd" clip-rule="evenodd" d="M8.99643 10.6807L4.38774 13L11.4598 16.559L18.6238 13L12.9232 10.168C12.8481 10.5269 12.8407 10.9033 12.9098 11.278L16.3762 13L11.4627 15.441L6.61226 13L9.15282 11.7215C9.06626 11.3761 9.0147 11.0277 8.99643 10.6807ZM7.92444 16.2202L9.0367 16.7799L6.61221 18L11.4626 20.441L16.3761 18L13.9187 16.7792L15.0425 16.2209L18.6238 18L11.4597 21.5591L4.3877 18L7.92444 16.2202Z" fill="#C3C5CB"/>
</svg>
