<svg width="30" height="30" viewBox="0 0 30 30" fill="none" xmlns="http://www.w3.org/2000/svg">
<path fill-rule="evenodd" clip-rule="evenodd" d="M22 17.5C22 18.3284 21.3284 19 20.5 19C19.6716 19 19 18.3284 19 17.5C19 16.6716 19.6716 16 20.5 16C21.3284 16 22 16.6716 22 17.5ZM21.2 17.5C21.2 17.8866 20.8866 18.2 20.5 18.2C20.1134 18.2 19.8 17.8866 19.8 17.5C19.8 17.1134 20.1134 16.8 20.5 16.8C20.8866 16.8 21.2 17.1134 21.2 17.5Z" fill="#3A3B3D"/>
<path fill-rule="evenodd" clip-rule="evenodd" d="M21 8H10V12H18.5L19 14H7.5L4 21H26L21 8ZM20.2808 15H8.11803L5.61803 20H24.544L20.3132 9H11V11H19.2808L20.2808 15Z" fill="#3A3B3D"/>
<path d="M4 22H26V23H4V22Z" fill="#3A3B3D"/>
</svg>
