<svg width="15" height="15" viewBox="0 0 15 15" fill="none" xmlns="http://www.w3.org/2000/svg">
<path fill-rule="evenodd" clip-rule="evenodd" d="M7.5 13C10.5376 13 13 10.5376 13 7.5C13 4.46243 10.5376 2 7.5 2C4.46243 2 2 4.46243 2 7.5C2 10.5376 4.46243 13 7.5 13ZM7.5 14C11.0899 14 14 11.0899 14 7.5C14 3.91015 11.0899 1 7.5 1C3.91015 1 1 3.91015 1 7.5C1 11.0899 3.91015 14 7.5 14Z" fill="#00B607"/>
<g opacity="0.5">
<path fill-rule="evenodd" clip-rule="evenodd" d="M2.2974 7.83065C2.01156 7.62181 2 7.5 2 7.5H1C1 7.99813 1.35172 8.37819 1.70748 8.6381C2.08514 8.91402 2.59768 9.15261 3.18023 9.34884C4.3506 9.74307 5.90516 10 7.5 10C9.09484 10 10.6494 9.74307 11.8198 9.34884C12.4023 9.15261 12.9149 8.91402 13.2925 8.6381C13.6483 8.37819 14 7.99813 14 7.5H13C13 7.5 12.9884 7.62181 12.7026 7.83065C12.4387 8.02348 12.0313 8.22239 11.5005 8.40116C10.4443 8.75693 8.99891 9 7.5 9C6.00109 9 4.55565 8.75693 3.49945 8.40116C2.96872 8.22239 2.56134 8.02348 2.2974 7.83065Z" fill="#00B607"/>
<path fill-rule="evenodd" clip-rule="evenodd" d="M7.83065 12.7026C7.62181 12.9884 7.5 13 7.5 13V14C7.99813 14 8.37819 13.6483 8.6381 13.2925C8.91402 12.9149 9.15261 12.4023 9.34884 11.8198C9.74307 10.6494 10 9.09484 10 7.5C10 5.90516 9.74307 4.3506 9.34884 3.18023C9.15261 2.59768 8.91402 2.08514 8.6381 1.70748C8.37819 1.35172 7.99813 1 7.5 1V2C7.5 2 7.62181 2.01156 7.83065 2.2974C8.02348 2.56135 8.22239 2.96872 8.40116 3.49945C8.75693 4.55565 9 6.00109 9 7.5C9 8.99891 8.75693 10.4443 8.40116 11.5005C8.22239 12.0313 8.02348 12.4387 7.83065 12.7026Z" fill="#00B607"/>
</g>
</svg>
