<svg width="20" height="20" viewBox="0 0 20 20" fill="none" xmlns="http://www.w3.org/2000/svg">
<path fill-rule="evenodd" clip-rule="evenodd" d="M19 9.5C19 11.433 17.433 13 15.5 13H12H3.5C2.11929 13 1 11.8807 1 10.5C1 9.2373 1.93707 8.19178 3.15339 8.02372L3.9566 7.91273L4.014 7.10392C4.21643 4.25173 6.59569 2 9.5 2C11.7864 2 13.7492 3.39537 14.5789 5.38489L14.8353 5.99973L15.5014 6C17.4338 6.00077 19 7.56748 19 9.5ZM12 14H15V13.9725C15.1642 13.9907 15.331 14 15.5 14C17.9853 14 20 11.9853 20 9.5C20 7.01533 17.9863 5.00099 15.5018 5C14.5223 2.65105 12.2039 1 9.5 1C6.06713 1 3.25583 3.66119 3.01651 7.03313C1.31232 7.26861 0 8.73105 0 10.5C0 12.433 1.567 14 3.5 14H12ZM4 15H16V16H4V15ZM13 17H7V18H13V17Z" fill="#3A3B3D"/>
</svg>
