<svg width="30" height="30" viewBox="0 0 30 30" fill="none" xmlns="http://www.w3.org/2000/svg">
<path fill-rule="evenodd" clip-rule="evenodd" d="M14.8056 6L5 16.2199L9.35806 20.7621L19.1637 10.5422L17.1828 8.47762L18.0966 7.52553L21.2557 10.8177L15.4777 16.8399L17.3898 18.8328L16.3755 19.89L21.2783 25L24.0021 22.1611L19.0993 17.0512L18.0828 18.1106L16.8635 16.8399L22.6415 10.8177L18.0966 6.08128L16.4899 7.75542L14.8056 6ZM17.779 10.5422L14.8056 7.44316L6.38466 16.2199L9.35806 19.319L17.779 10.5422ZM17.7602 19.89L19.0993 18.4943L22.6174 22.1611L21.2783 23.5568L17.7602 19.89Z" fill="#3A3B3D"/>
</svg>
