<svg width="15" height="15" viewBox="0 0 15 15" fill="none" xmlns="http://www.w3.org/2000/svg">
<path fill-rule="evenodd" clip-rule="evenodd" d="M7.50002 5C5.98388 4.99995 4.38041 5.60942 3.56669 7.24806C3.48463 7.38905 3.4731 7.56737 3.55166 7.72408C3.85334 8.32583 4.41244 8.88996 5.091 9.3023C5.77408 9.71737 6.6128 10 7.50001 10C8.3872 10 9.22595 9.71738 9.90875 9.30223C10.574 8.89774 11.1243 8.34701 11.4286 7.75764C11.5126 7.61758 11.5264 7.43917 11.4496 7.28133C10.6406 5.61776 9.02639 5.00005 7.50002 5ZM7.49998 6C6.30897 5.99996 5.19452 6.43936 4.57176 7.49133C4.7956 7.82619 5.15351 8.17013 5.61031 8.4477C6.16147 8.78263 6.82276 9 7.50001 9C8.17727 9 8.8385 8.78262 9.38923 8.44777C9.84673 8.16961 10.2045 7.82494 10.4272 7.48978C9.8038 6.43885 8.6902 6.00004 7.49998 6Z" fill="#00B607"/>
<path fill-rule="evenodd" clip-rule="evenodd" d="M15 7.5C15 11.0899 11.6421 14 7.5 14C3.35786 14 0 11.0899 0 7.5C0 3.91015 3.35786 1 7.5 1C11.6421 1 15 3.91015 15 7.5ZM14 7.5C14 10.408 11.229 13 7.5 13C3.77101 13 1 10.408 1 7.5C1 4.59199 3.77101 2 7.5 2C11.229 2 14 4.59199 14 7.5Z" fill="#00B607"/>
<path opacity="0.6" d="M3.95821 6.16797C3.915 6.45958 3.99245 6.82322 4.32001 7.25998C4.45256 7.43671 4.41674 7.68743 4.24001 7.81998C4.06327 7.95252 3.81255 7.9167 3.68001 7.73997C3.25759 7.17673 3.08504 6.60287 3.16684 6.05073C3.24778 5.5044 3.56766 5.04793 3.99394 4.69269C4.83641 3.99063 6.18727 3.59998 7.50001 3.59998C8.81275 3.59998 10.1636 3.99063 11.0061 4.69269C11.4324 5.04792 11.7523 5.5044 11.8332 6.05073C11.915 6.60287 11.7425 7.17674 11.32 7.73998C11.1875 7.91671 10.9368 7.95252 10.76 7.81997C10.5833 7.68743 10.5475 7.4367 10.68 7.25997C11.0076 6.82321 11.0851 6.45958 11.0419 6.16797C10.9978 5.87055 10.8177 5.57703 10.494 5.30727C9.83642 4.75932 8.68728 4.39998 7.50001 4.39998C6.31274 4.39998 5.16362 4.75932 4.50609 5.30726C4.18238 5.57702 4.00227 5.87055 3.95821 6.16797Z" fill="#00B607"/>
</svg>
