<svg width="30" height="30" viewBox="0 0 30 30" fill="none" xmlns="http://www.w3.org/2000/svg">
<path fill-rule="evenodd" clip-rule="evenodd" d="M15 6.37838L13.0248 8.35357L12.3177 7.64646L15.4997 4.46448L18.6817 7.64646L17.9746 8.35357L16 6.379V11.6558L22 13.9474V20.3316L26.3631 21.9182L25.2336 19.1915L26.1575 18.8088L27.8796 22.9662L23.7221 24.6883L23.3394 23.7644L25.7585 22.7624L21.5399 21.2284L15.5 23.5352L9.46015 21.2284L5.36205 22.7186L7.88701 23.7644L7.50433 24.6883L3.34687 22.9662L5.06894 18.8088L5.99282 19.1915L4.90354 21.8212L9 20.3316V13.9474L15 11.6558V6.37838ZM16 18.1498L21 19.968V15.0179L16 16.9276L16 18.1498ZM26.5191 22.4474L26.5486 22.3662L26.573 22.4251L26.5191 22.4474ZM16 19.2139L20.1041 20.7063L16 22.2738V19.2139ZM15 16.9276L15 18.1498L10 19.968V15.0179L15 16.9276ZM15 19.2139L10.8959 20.7063L15 22.2738V19.2139ZM20.0987 14.2917L16 15.8571V12.7262L20.0987 14.2917ZM15 15.8571V12.7262L10.9013 14.2917L15 15.8571Z" fill="#3A3B3D"/>
</svg>
