<svg width="20" height="20" viewBox="0 0 20 20" fill="none" xmlns="http://www.w3.org/2000/svg">
<path fill-rule="evenodd" clip-rule="evenodd" d="M8 8.5C9.4865 8.5 10.7205 7.41886 10.9585 6H19V5H10.9585C10.7205 3.58114 9.4865 2.5 8 2.5C6.5135 2.5 5.27952 3.58114 5.04148 5H1V6H5.04148C5.27952 7.41886 6.5135 8.5 8 8.5ZM10 5.5C10 6.60457 9.10457 7.5 8 7.5C6.89543 7.5 6 6.60457 6 5.5C6 4.39543 6.89543 3.5 8 3.5C9.10457 3.5 10 4.39543 10 5.5Z" fill="#7E818E"/>
<path fill-rule="evenodd" clip-rule="evenodd" d="M15.9585 15C15.7205 16.4189 14.4865 17.5 13 17.5C11.5135 17.5 10.2795 16.4189 10.0415 15H1V14H10.0415C10.2795 12.5811 11.5135 11.5 13 11.5C14.4865 11.5 15.7205 12.5811 15.9585 14H19V15H15.9585ZM15 14.5C15 15.6046 14.1046 16.5 13 16.5C11.8954 16.5 11 15.6046 11 14.5C11 13.3954 11.8954 12.5 13 12.5C14.1046 12.5 15 13.3954 15 14.5Z" fill="#7E818E"/>
</svg>
