<svg width="20" height="20" viewBox="0 0 20 20" fill="none" xmlns="http://www.w3.org/2000/svg">
<path fill-rule="evenodd" clip-rule="evenodd" d="M8 9.5C9.4865 9.5 10.7205 8.41886 10.9585 7H19V6H10.9585C10.7205 4.58114 9.4865 3.5 8 3.5C6.5135 3.5 5.27952 4.58114 5.04148 6H1V7H5.04148C5.27952 8.41886 6.5135 9.5 8 9.5ZM10 6.5C10 7.60457 9.10457 8.5 8 8.5C6.89543 8.5 6 7.60457 6 6.5C6 5.39543 6.89543 4.5 8 4.5C9.10457 4.5 10 5.39543 10 6.5Z" fill="#7E818E"/>
<path fill-rule="evenodd" clip-rule="evenodd" d="M15.9585 16C15.7205 17.4189 14.4865 18.5 13 18.5C11.5135 18.5 10.2795 17.4189 10.0415 16H1V15H10.0415C10.2795 13.5811 11.5135 12.5 13 12.5C14.4865 12.5 15.7205 13.5811 15.9585 15H19V16H15.9585ZM15 15.5C15 16.6046 14.1046 17.5 13 17.5C11.8954 17.5 11 16.6046 11 15.5C11 14.3954 11.8954 13.5 13 13.5C14.1046 13.5 15 14.3954 15 15.5Z" fill="#7E818E"/>
</svg>
