<svg width="20" height="20" viewBox="0 0 20 20" fill="none" xmlns="http://www.w3.org/2000/svg">
<path d="M10.5 6V12H9.5V6H10.5Z" fill="black"/>
<path d="M10.5 14V13H9.5V14H10.5Z" fill="black"/>
<path fill-rule="evenodd" clip-rule="evenodd" d="M10 2C5.58172 2 2 5.58172 2 10C2 14.4183 5.58172 18 10 18C14.4183 18 18 14.4183 18 10C18 5.58172 14.4183 2 10 2ZM2.94118 10C2.94118 13.8985 6.10152 17.0588 10 17.0588C13.8985 17.0588 17.0588 13.8985 17.0588 10C17.0588 6.10152 13.8985 2.94118 10 2.94118C6.10152 2.94118 2.94118 6.10152 2.94118 10Z" fill="black"/>
</svg>
