<svg width="160" height="160" viewBox="0 0 160 160" fill="none" xmlns="http://www.w3.org/2000/svg">
<rect width="160" height="160" rx="4" fill="#EFB75B"/>
<path d="M81.56 107.648C94.88 107.648 103.88 98.72 103.88 83.672V79.928C103.88 64.808 95.024 55.952 81.56 55.952C68.24 55.952 59.24 64.952 59.24 79.928V83.672C59.24 98.792 68.096 107.648 81.56 107.648ZM81.56 99.584C73.784 99.584 68.312 94.112 68.312 83.672V79.928C68.312 69.344 73.64 64.016 81.56 64.016C89.264 64.016 94.808 69.56 94.808 79.928V83.672C94.808 94.256 89.408 99.584 81.56 99.584Z" fill="white"/>
</svg>
