<svg width="30" height="30" viewBox="0 0 30 30" fill="none" xmlns="http://www.w3.org/2000/svg">
<circle cx="15" cy="15" r="15" fill="#EFB75B"/>
<path d="M15.0003 20.112C17.4643 20.112 19.2003 18.376 19.2003 15.506V14.694C19.2003 11.796 17.4923 10.088 15.0003 10.088C12.5363 10.088 10.8003 11.824 10.8003 14.694V15.506C10.8003 18.404 12.5083 20.112 15.0003 20.112ZM15.0003 18.852C13.3763 18.852 12.1723 17.662 12.1723 15.506V14.694C12.1723 12.51 13.3483 11.348 15.0003 11.348C16.6383 11.348 17.8283 12.538 17.8283 14.694V15.506C17.8283 17.69 16.6523 18.852 15.0003 18.852Z" fill="white"/>
</svg>
