<svg width="190" height="29" viewBox="0 0 190 29" fill="none" xmlns="http://www.w3.org/2000/svg">
<path d="M47.7694 14H50.8494C53.7334 14 55.3994 12.334 55.3994 9.52V8.68C55.3994 5.838 53.7614 4.2 50.8494 4.2H47.7694V14ZM50.8494 5.404C52.8934 5.404 54.0274 6.524 54.0274 8.68V9.52C54.0274 11.704 52.9214 12.796 50.8494 12.796H49.0854V5.404H50.8494ZM57.327 14H58.587V7H57.327V14ZM57.957 5.936C58.433 5.936 58.797 5.572 58.797 5.096C58.797 4.62 58.433 4.256 57.957 4.256C57.481 4.256 57.117 4.62 57.117 5.096C57.117 5.572 57.481 5.936 57.957 5.936ZM60.7971 14H62.0571V9.8C62.0851 8.792 62.8131 8.092 63.9471 8.092C64.9691 8.092 65.5571 8.68 65.5571 9.87V14H66.8171V9.87C66.8171 7.938 65.7671 6.888 64.1571 6.888C63.1771 6.888 62.3931 7.28 61.9031 7.966L61.7771 7H60.7971V14ZM71.6498 14.112C73.5958 14.112 74.8698 12.838 74.8698 10.766V10.234C74.8698 8.148 73.6098 6.888 71.6498 6.888C69.7038 6.888 68.4298 8.162 68.4298 10.234V10.766C68.4298 12.852 69.6898 14.112 71.6498 14.112ZM71.6498 12.908C70.4878 12.908 69.7458 12.166 69.7458 10.766V10.234C69.7458 8.82 70.4738 8.092 71.6498 8.092C72.8118 8.092 73.5538 8.834 73.5538 10.234V10.766C73.5538 12.18 72.8258 12.908 71.6498 12.908ZM79.2771 5.404H82.3991V14H83.7151V5.404H86.8371V4.2H79.2771V5.404ZM88.9431 14.112C90.8331 14.112 91.7431 13.202 92.0231 11.83H90.7351C90.4551 12.558 90.0491 12.964 88.9431 12.964C87.8931 12.964 87.1511 12.264 87.1091 10.906H92.0931V10.234C92.0931 8.176 90.8051 6.888 88.9431 6.888C87.0951 6.888 85.7931 8.19 85.7931 10.234V10.766C85.7931 12.838 87.0671 14.112 88.9431 14.112ZM88.9431 8.036C89.9931 8.036 90.6371 8.582 90.7491 9.814H87.1231C87.2491 8.624 87.9491 8.036 88.9431 8.036ZM97.7842 14H99.2402L96.7342 10.43L99.1002 7H97.7002L95.9502 9.534L94.2282 7H92.8002L95.1662 10.416L92.6602 14H94.0882L95.9502 11.326L97.7842 14ZM99.9336 8.148H101.194V11.942C101.194 13.258 101.936 14 103.252 14H104.414V12.852H103.434C102.79 12.852 102.454 12.516 102.454 11.802V8.148H104.274V7H102.454V5.04H101.194V7H99.9336V8.148ZM108.339 14.112C109.263 14.112 110.033 13.72 110.523 13.034L110.649 14H111.629V7H110.369V11.214C110.327 12.222 109.613 12.908 108.549 12.908C107.597 12.908 107.009 12.32 107.009 11.13V7H105.749V11.13C105.749 13.062 106.799 14.112 108.339 14.112ZM113.735 14H114.995V9.8C115.023 8.792 115.737 8.092 117.025 8.092H117.725V6.888H117.025C116.101 6.888 115.317 7.266 114.841 7.952L114.715 7H113.735V14ZM119.165 14H120.425V7H119.165V14ZM119.795 5.936C120.271 5.936 120.635 5.572 120.635 5.096C120.635 4.62 120.271 4.256 119.795 4.256C119.319 4.256 118.955 4.62 118.955 5.096C118.955 5.572 119.319 5.936 119.795 5.936ZM122.215 8.148H126.079L122.075 12.852V14H127.535V12.852H123.531L127.535 8.148V7H122.215V8.148ZM131.736 14.112C133.626 14.112 134.536 13.202 134.816 11.83H133.528C133.248 12.558 132.842 12.964 131.736 12.964C130.686 12.964 129.944 12.264 129.902 10.906H134.886V10.234C134.886 8.176 133.598 6.888 131.736 6.888C129.888 6.888 128.586 8.19 128.586 10.234V10.766C128.586 12.838 129.86 14.112 131.736 14.112ZM131.736 8.036C132.786 8.036 133.43 8.582 133.542 9.814H129.916C130.042 8.624 130.742 8.036 131.736 8.036ZM138.905 14.112C139.899 14.112 140.697 13.748 141.187 13.006L141.327 14H142.307V4.2H141.047V7.812C140.543 7.196 139.815 6.888 138.919 6.888C137.323 6.888 136.147 8.064 136.147 10.234V10.766C136.147 12.95 137.309 14.112 138.905 14.112ZM139.255 12.908C138.163 12.908 137.463 12.194 137.463 10.766V10.234C137.463 8.778 138.149 8.092 139.255 8.092C140.263 8.092 141.005 8.806 141.047 10.136V10.878C141.005 12.194 140.263 12.908 139.255 12.908Z" fill="#3A3A3D"/>
</svg>
