<svg width="190" height="29" viewBox="0 0 190 29" fill="none" xmlns="http://www.w3.org/2000/svg">
<path d="M85.9542 14H87.2702V4.2H85.9542V8.358H80.8862V4.2H79.5702V14H80.8862V9.562H85.9542V14ZM91.1896 14.112C92.2116 14.112 93.0516 13.65 93.5556 12.852L93.7096 14H94.6896V9.24C94.6896 7.798 93.7796 6.888 92.0296 6.888C90.1816 6.888 89.2996 7.77 89.2296 8.96H90.6296C90.6996 8.4 91.0916 8.008 92.0296 8.008C92.9816 8.008 93.4296 8.456 93.4296 9.24V9.758H92.0296C89.8036 9.758 88.9496 10.612 88.9496 12.04C88.9496 13.328 89.7336 14.112 91.1896 14.112ZM91.3296 12.992C90.6576 12.992 90.2656 12.6 90.2656 12.012C90.2656 11.298 90.7416 10.822 92.0296 10.822H93.4296V11.074C93.4296 12.11 92.5476 12.992 91.3296 12.992ZM96.7131 14H97.9731V9.8C98.0011 8.792 98.7291 8.092 99.8631 8.092C100.885 8.092 101.473 8.68 101.473 9.87V14H102.733V9.87C102.733 7.938 101.683 6.888 100.073 6.888C99.0931 6.888 98.3091 7.28 97.8191 7.966L97.6931 7H96.7131V14ZM107.104 14.112C108.098 14.112 108.896 13.748 109.386 13.006L109.526 14H110.506V4.2H109.246V7.812C108.742 7.196 108.014 6.888 107.118 6.888C105.522 6.888 104.346 8.064 104.346 10.234V10.766C104.346 12.95 105.508 14.112 107.104 14.112ZM107.454 12.908C106.362 12.908 105.662 12.194 105.662 10.766V10.234C105.662 8.778 106.348 8.092 107.454 8.092C108.462 8.092 109.204 8.806 109.246 10.136V10.878C109.204 12.194 108.462 12.908 107.454 12.908Z" fill="#3A3A3D"/>
</svg>
