<svg width="190" height="29" viewBox="0 0 190 29" fill="none" xmlns="http://www.w3.org/2000/svg">
<path d="M86.6819 11.27H87.9979L89.9439 7.14L90.5739 5.656V14H91.8899V4.2H90.0419L87.3679 9.87L84.6659 4.2H82.7899V14H84.1059V5.67L84.7219 7.14L86.6819 11.27ZM95.8039 14.112C96.8259 14.112 97.6659 13.65 98.1699 12.852L98.3239 14H99.3039V9.24C99.3039 7.798 98.3939 6.888 96.6439 6.888C94.7959 6.888 93.9139 7.77 93.8439 8.96H95.2439C95.3139 8.4 95.7059 8.008 96.6439 8.008C97.5959 8.008 98.0439 8.456 98.0439 9.24V9.758H96.6439C94.4179 9.758 93.5639 10.612 93.5639 12.04C93.5639 13.328 94.3479 14.112 95.8039 14.112ZM95.9439 12.992C95.2719 12.992 94.8799 12.6 94.8799 12.012C94.8799 11.298 95.3559 10.822 96.6439 10.822H98.0439V11.074C98.0439 12.11 97.1619 12.992 95.9439 12.992ZM101.327 14H102.587V9.8C102.615 8.792 103.343 8.092 104.477 8.092C105.499 8.092 106.087 8.68 106.087 9.87V14H107.347V9.87C107.347 7.938 106.297 6.888 104.687 6.888C103.707 6.888 102.923 7.28 102.433 7.966L102.307 7H101.327V14Z" fill="#3A3A3D"/>
</svg>
