<svg width="190" height="29" viewBox="0 0 190 29" fill="none" xmlns="http://www.w3.org/2000/svg">
<path d="M66.3561 14H68.2321V4.2H66.9161V12.488L66.2021 11.06L62.4081 4.2H60.5321V14H61.8481V5.712L62.5621 7.14L66.3561 14ZM73.1316 14.112C75.0216 14.112 75.9316 13.202 76.2116 11.83H74.9236C74.6436 12.558 74.2376 12.964 73.1316 12.964C72.0816 12.964 71.3396 12.264 71.2976 10.906H76.2816V10.234C76.2816 8.176 74.9936 6.888 73.1316 6.888C71.2836 6.888 69.9816 8.19 69.9816 10.234V10.766C69.9816 12.838 71.2556 14.112 73.1316 14.112ZM73.1316 8.036C74.1816 8.036 74.8256 8.582 74.9376 9.814H71.3116C71.4376 8.624 72.1376 8.036 73.1316 8.036ZM83.7754 14H85.3154L87.2054 7H85.9454L84.5174 12.516L82.9214 7H81.3814L79.9534 12.446L78.4414 7H77.1254L79.1554 14H80.6954L82.1514 8.428L83.7754 14ZM92.1688 14H93.4848V9.632H97.4188V8.428H93.4848V5.404H98.2588V4.2H92.1688V14ZM102.036 14.112C103.982 14.112 105.256 12.838 105.256 10.766V10.234C105.256 8.148 103.996 6.888 102.036 6.888C100.09 6.888 98.8155 8.162 98.8155 10.234V10.766C98.8155 12.852 100.076 14.112 102.036 14.112ZM102.036 12.908C100.874 12.908 100.132 12.166 100.132 10.766V10.234C100.132 8.82 100.86 8.092 102.036 8.092C103.198 8.092 103.94 8.834 103.94 10.234V10.766C103.94 12.18 103.212 12.908 102.036 12.908ZM108.977 14H109.593V12.852H109.159C108.515 12.852 108.193 12.516 108.193 11.802V4.2H106.933V11.942C106.933 13.272 107.661 14 108.977 14ZM113.263 14.112C114.257 14.112 115.055 13.748 115.545 13.006L115.685 14H116.665V4.2H115.405V7.812C114.901 7.196 114.173 6.888 113.277 6.888C111.681 6.888 110.505 8.064 110.505 10.234V10.766C110.505 12.95 111.667 14.112 113.263 14.112ZM113.613 12.908C112.521 12.908 111.821 12.194 111.821 10.766V10.234C111.821 8.778 112.507 8.092 113.613 8.092C114.621 8.092 115.363 8.806 115.405 10.136V10.878C115.363 12.194 114.621 12.908 113.613 12.908ZM121.489 14.112C123.379 14.112 124.289 13.202 124.569 11.83H123.281C123.001 12.558 122.595 12.964 121.489 12.964C120.439 12.964 119.697 12.264 119.655 10.906H124.639V10.234C124.639 8.176 123.351 6.888 121.489 6.888C119.641 6.888 118.339 8.19 118.339 10.234V10.766C118.339 12.838 119.613 14.112 121.489 14.112ZM121.489 8.036C122.539 8.036 123.183 8.582 123.295 9.814H119.669C119.795 8.624 120.495 8.036 121.489 8.036ZM126.32 14H127.58V9.8C127.608 8.792 128.322 8.092 129.61 8.092H130.31V6.888H129.61C128.686 6.888 127.902 7.266 127.426 7.952L127.3 7H126.32V14Z" fill="#3A3A3D"/>
</svg>
