<svg width="190" height="29" viewBox="0 0 190 29" fill="none" xmlns="http://www.w3.org/2000/svg">
<path d="M58.2624 14H60.1384V4.2H58.8224V12.488L58.1084 11.06L54.3144 4.2H52.4384V14H53.7544V5.712L54.4684 7.14L58.2624 14ZM65.0378 14.112C66.9278 14.112 67.8378 13.202 68.1178 11.83H66.8298C66.5498 12.558 66.1438 12.964 65.0378 12.964C63.9878 12.964 63.2458 12.264 63.2038 10.906H68.1878V10.234C68.1878 8.176 66.8998 6.888 65.0378 6.888C63.1898 6.888 61.8878 8.19 61.8878 10.234V10.766C61.8878 12.838 63.1618 14.112 65.0378 14.112ZM65.0378 8.036C66.0878 8.036 66.7318 8.582 66.8438 9.814H63.2178C63.3438 8.624 64.0438 8.036 65.0378 8.036ZM75.6816 14H77.2216L79.1116 7H77.8516L76.4236 12.516L74.8276 7H73.2876L71.8596 12.446L70.3476 7H69.0316L71.0616 14H72.6016L74.0576 8.428L75.6816 14ZM84.0751 14H85.3911V10.472H87.2951C89.7451 10.472 90.9351 9.282 90.9351 7.336C90.9351 5.334 89.8011 4.2 87.2951 4.2H84.0751V14ZM87.2951 5.404C88.9331 5.404 89.5771 6.048 89.5771 7.336C89.5771 8.596 88.9051 9.268 87.2951 9.268H85.3911V5.404H87.2951ZM92.3996 14H93.6596V9.8C93.6876 8.792 94.4016 8.092 95.6896 8.092H96.3896V6.888H95.6896C94.7656 6.888 93.9816 7.266 93.5056 7.952L93.3796 7H92.3996V14ZM100.381 14.112C102.327 14.112 103.601 12.838 103.601 10.766V10.234C103.601 8.148 102.341 6.888 100.381 6.888C98.4353 6.888 97.1613 8.162 97.1613 10.234V10.766C97.1613 12.852 98.4213 14.112 100.381 14.112ZM100.381 12.908C99.2193 12.908 98.4773 12.166 98.4773 10.766V10.234C98.4773 8.82 99.2053 8.092 100.381 8.092C101.543 8.092 102.285 8.834 102.285 10.234V10.766C102.285 12.18 101.557 12.908 100.381 12.908ZM103.851 16.8H104.313C105.937 16.8 106.651 16.086 106.651 14.21V7H105.391V14.21C105.391 15.26 105.055 15.652 104.313 15.652H103.851V16.8ZM106.021 5.936C106.497 5.936 106.861 5.572 106.861 5.096C106.861 4.62 106.497 4.256 106.021 4.256C105.545 4.256 105.181 4.62 105.181 5.096C105.181 5.572 105.545 5.936 106.021 5.936ZM111.591 14.112C113.481 14.112 114.391 13.202 114.671 11.83H113.383C113.103 12.558 112.697 12.964 111.591 12.964C110.541 12.964 109.799 12.264 109.757 10.906H114.741V10.234C114.741 8.176 113.453 6.888 111.591 6.888C109.743 6.888 108.441 8.19 108.441 10.234V10.766C108.441 12.838 109.715 14.112 111.591 14.112ZM111.591 8.036C112.641 8.036 113.285 8.582 113.397 9.814H109.771C109.897 8.624 110.597 8.036 111.591 8.036ZM119.151 14.112C120.789 14.112 121.741 13.174 122.021 11.83H120.677C120.467 12.474 120.033 12.908 119.081 12.908C118.045 12.908 117.317 12.18 117.317 10.766V10.234C117.317 8.806 118.031 8.092 119.081 8.092C120.019 8.092 120.467 8.54 120.677 9.03H122.021C121.741 7.84 120.789 6.888 119.151 6.888C117.233 6.888 116.001 8.12 116.001 10.234V10.766C116.001 12.894 117.219 14.112 119.151 14.112ZM122.649 8.148H123.909V11.942C123.909 13.258 124.651 14 125.967 14H127.129V12.852H126.149C125.505 12.852 125.169 12.516 125.169 11.802V8.148H126.989V7H125.169V5.04H123.909V7H122.649V8.148ZM131.544 14H137.984V12.796H133.28L135.856 10.36C137.228 9.072 137.984 8.05 137.984 7.014C137.984 5.32 136.724 4.088 134.764 4.088C132.818 4.088 131.544 5.32 131.544 7.07H132.916C132.916 6.034 133.644 5.348 134.764 5.348C135.884 5.348 136.612 6.034 136.612 7.014C136.612 7.728 136.094 8.386 134.89 9.562L131.544 12.796V14Z" fill="#3A3A3D"/>
</svg>
