<svg width="284" height="46" viewBox="0 0 284 46" fill="none" xmlns="http://www.w3.org/2000/svg">
<path d="M2.88 36H6.264V26.928H11.16C17.46 26.928 20.52 23.868 20.52 18.864C20.52 13.716 17.604 10.8 11.16 10.8H2.88V36ZM11.16 13.896C15.372 13.896 17.028 15.552 17.028 18.864C17.028 22.104 15.3 23.832 11.16 23.832H6.264V13.896H11.16ZM30.9544 36.288C35.8144 36.288 38.1544 33.948 38.8744 30.42H35.5624C34.8424 32.292 33.7984 33.336 30.9544 33.336C28.2544 33.336 26.3464 31.536 26.2384 28.044H39.0544V26.316C39.0544 21.024 35.7424 17.712 30.9544 17.712C26.2024 17.712 22.8544 21.06 22.8544 26.316V27.684C22.8544 33.012 26.1304 36.288 30.9544 36.288ZM30.9544 20.664C33.6544 20.664 35.3104 22.068 35.5984 25.236H26.2744C26.5984 22.176 28.3984 20.664 30.9544 20.664ZM43.3758 36H46.6158V25.2C46.6878 22.608 48.5238 20.808 51.8358 20.808H53.6358V17.712H51.8358C49.4598 17.712 47.4438 18.684 46.2198 20.448L45.8958 18H43.3758V36ZM62.82 36.288C67.824 36.288 70.02 34.092 70.02 30.96C70.02 23.58 59.364 26.712 59.364 22.86C59.364 21.456 60.228 20.592 62.82 20.592C65.088 20.592 65.916 21.456 66.276 23.22H69.66C69.3 19.872 67.104 17.712 62.82 17.712C58.176 17.712 55.98 19.908 55.98 22.86C55.98 29.736 66.636 26.604 66.636 30.96C66.636 32.544 65.772 33.408 62.82 33.408C60.192 33.408 59.364 32.544 59.004 30.42H55.62C55.98 34.092 58.176 36.288 62.82 36.288ZM81.5484 36.288C86.5524 36.288 89.8284 33.012 89.8284 27.684V26.316C89.8284 20.952 86.5884 17.712 81.5484 17.712C76.5444 17.712 73.2684 20.988 73.2684 26.316V27.684C73.2684 33.048 76.5084 36.288 81.5484 36.288ZM81.5484 33.192C78.5604 33.192 76.6524 31.284 76.6524 27.684V26.316C76.6524 22.68 78.5244 20.808 81.5484 20.808C84.5364 20.808 86.4444 22.716 86.4444 26.316V27.684C86.4444 31.32 84.5724 33.192 81.5484 33.192ZM94.1414 36H97.3814V25.2C97.4534 22.608 99.3254 20.808 102.241 20.808C104.869 20.808 106.381 22.32 106.381 25.38V36H109.621V25.38C109.621 20.412 106.921 17.712 102.781 17.712C100.261 17.712 98.2454 18.72 96.9854 20.484L96.6614 18H94.1414V36ZM119.348 36.288C121.976 36.288 124.136 35.1 125.432 33.048L125.828 36H128.348V23.76C128.348 20.052 126.008 17.712 121.508 17.712C116.756 17.712 114.488 19.98 114.308 23.04H117.908C118.088 21.6 119.096 20.592 121.508 20.592C123.956 20.592 125.108 21.744 125.108 23.76V25.092H121.508C115.784 25.092 113.588 27.288 113.588 30.96C113.588 34.272 115.604 36.288 119.348 36.288ZM119.708 33.408C117.98 33.408 116.972 32.4 116.972 30.888C116.972 29.052 118.196 27.828 121.508 27.828H125.108V28.476C125.108 31.14 122.84 33.408 119.708 33.408ZM138.808 36H140.392V33.048H139.276C137.62 33.048 136.792 32.184 136.792 30.348V10.8H133.552V30.708C133.552 34.128 135.424 36 138.808 36ZM169.305 36H172.977L163.797 10.8H159.837L150.657 36H154.185L156.633 29.088H166.857L169.305 36ZM159.909 19.944L161.781 14.58L163.617 19.944L165.741 25.992H157.749L159.909 19.944ZM182.9 36.288C187.112 36.288 189.56 33.876 190.28 30.42H186.824C186.284 32.076 185.168 33.192 182.72 33.192C180.056 33.192 178.184 31.32 178.184 27.684V26.316C178.184 22.644 180.02 20.808 182.72 20.808C185.132 20.808 186.284 21.96 186.824 23.22H190.28C189.56 20.16 187.112 17.712 182.9 17.712C177.968 17.712 174.8 20.88 174.8 26.316V27.684C174.8 33.156 177.932 36.288 182.9 36.288ZM201.075 36.288C205.287 36.288 207.735 33.876 208.455 30.42H204.999C204.459 32.076 203.343 33.192 200.895 33.192C198.231 33.192 196.359 31.32 196.359 27.684V26.316C196.359 22.644 198.195 20.808 200.895 20.808C203.307 20.808 204.459 21.96 204.999 23.22H208.455C207.735 20.16 205.287 17.712 201.075 17.712C196.143 17.712 192.975 20.88 192.975 26.316V27.684C192.975 33.156 196.107 36.288 201.075 36.288ZM219.431 36.288C224.435 36.288 227.711 33.012 227.711 27.684V26.316C227.711 20.952 224.471 17.712 219.431 17.712C214.427 17.712 211.151 20.988 211.151 26.316V27.684C211.151 33.048 214.391 36.288 219.431 36.288ZM219.431 33.192C216.443 33.192 214.535 31.284 214.535 27.684V26.316C214.535 22.68 216.407 20.808 219.431 20.808C222.419 20.808 224.327 22.716 224.327 26.316V27.684C224.327 31.32 222.455 33.192 219.431 33.192ZM238.504 36.288C240.88 36.288 242.86 35.28 244.12 33.516L244.444 36H246.964V18H243.724V28.836C243.616 31.428 241.78 33.192 239.044 33.192C236.596 33.192 235.084 31.68 235.084 28.62V18H231.844V28.62C231.844 33.588 234.544 36.288 238.504 36.288ZM252.38 36H255.62V25.2C255.692 22.608 257.564 20.808 260.48 20.808C263.108 20.808 264.62 22.32 264.62 25.38V36H267.86V25.38C267.86 20.412 265.16 17.712 261.02 17.712C258.5 17.712 256.484 18.72 255.224 20.484L254.9 18H252.38V36ZM270.575 20.952H273.815V30.708C273.815 34.092 275.723 36 279.107 36H282.095V33.048H279.575C277.919 33.048 277.055 32.184 277.055 30.348V20.952H281.735V18H277.055V12.96H273.815V18H270.575V20.952Z" fill="#3A3A3D"/>
</svg>
