<svg width="284" height="46" viewBox="0 0 284 46" fill="none" xmlns="http://www.w3.org/2000/svg">
<path d="M10.98 36.288C17.208 36.288 20.16 33.336 20.16 29.124C20.16 19.548 5.688 23.292 5.688 17.352C5.688 15.336 7.308 13.752 10.98 13.752C14.508 13.752 15.804 15.084 16.2 18.18H19.8C19.44 13.176 16.776 10.512 10.98 10.512C5.148 10.512 2.16 13.464 2.16 17.352C2.16 26.532 16.632 22.824 16.632 29.088C16.632 31.284 14.868 33.048 10.98 33.048C7.344 33.048 5.724 31.572 5.4 27.9H1.8C2.16 33.552 5.076 36.288 10.98 36.288ZM24.6727 36H27.9127V25.2C27.9847 22.608 29.8567 20.808 32.7727 20.808C35.4007 20.808 36.9127 22.32 36.9127 25.38V36H40.1527V25.38C40.1527 20.412 37.4527 17.712 33.3127 17.712C30.9727 17.712 29.1007 18.576 27.9127 20.124V10.8H24.6727V36ZM49.8797 36.288C52.5077 36.288 54.6677 35.1 55.9637 33.048L56.3597 36H58.8797V23.76C58.8797 20.052 56.5397 17.712 52.0397 17.712C47.2877 17.712 45.0197 19.98 44.8397 23.04H48.4397C48.6197 21.6 49.6277 20.592 52.0397 20.592C54.4877 20.592 55.6397 21.744 55.6397 23.76V25.092H52.0397C46.3157 25.092 44.1197 27.288 44.1197 30.96C44.1197 34.272 46.1357 36.288 49.8797 36.288ZM50.2397 33.408C48.5117 33.408 47.5037 32.4 47.5037 30.888C47.5037 29.052 48.7277 27.828 52.0397 27.828H55.6397V28.476C55.6397 31.14 53.3717 33.408 50.2397 33.408ZM64.0828 36H67.3228V25.2C67.3948 22.608 69.2308 20.808 72.5428 20.808H74.3428V17.712H72.5428C70.1668 17.712 68.1508 18.684 66.9268 20.448L66.6028 18H64.0828V36ZM78.0466 36H81.2866V18H78.0466V36ZM79.6666 15.264C80.8906 15.264 81.8266 14.328 81.8266 13.104C81.8266 11.88 80.8906 10.944 79.6666 10.944C78.4426 10.944 77.5066 11.88 77.5066 13.104C77.5066 14.328 78.4426 15.264 79.6666 15.264ZM86.9695 36H90.2095V25.2C90.2815 22.608 92.1535 20.808 95.0695 20.808C97.6975 20.808 99.2095 22.32 99.2095 25.38V36H102.45V25.38C102.45 20.412 99.7495 17.712 95.6095 17.712C93.0895 17.712 91.0735 18.72 89.8135 20.484L89.4895 18H86.9695V36ZM113.725 35.568C116.029 35.568 117.901 34.776 119.197 33.264V36C119.197 39.312 117.901 40.608 114.805 40.608C112.069 40.608 111.097 39.6 110.737 37.8H107.497C107.857 41.292 110.017 43.488 114.805 43.488C119.809 43.488 122.437 40.86 122.437 36V18H119.917L119.557 20.556C118.297 18.684 116.281 17.712 113.725 17.712C109.621 17.712 106.597 20.736 106.597 25.956V27.324C106.597 32.58 109.585 35.568 113.725 35.568ZM114.589 32.472C111.781 32.472 109.981 30.708 109.981 27.324V25.956C109.981 22.608 111.745 20.808 114.589 20.808C117.253 20.808 119.197 22.752 119.197 25.956V27.324C119.197 30.528 117.253 32.472 114.589 32.472Z" fill="#3A3A3D"/>
</svg>
