<svg width="30" height="30" viewBox="0 0 30 30" fill="none" xmlns="http://www.w3.org/2000/svg">
<circle cx="15" cy="15" r="15" fill="#3A3A3D"/>
<path d="M14.3402 17.4917H15.6562C15.6562 15.1817 18.0782 15.5597 18.0782 12.9977C18.0782 11.5277 16.9862 10.4357 14.9982 10.4357C13.1362 10.4357 11.9882 11.5837 11.9182 13.2777H13.2902C13.3602 12.2557 13.9202 11.6957 15.0682 11.6957C16.1322 11.6957 16.7062 12.2697 16.7062 13.0677C16.7062 14.9437 14.3402 14.5237 14.3402 17.4917ZM14.9982 20.4597C15.5722 20.4597 15.9782 20.0257 15.9782 19.4797C15.9782 18.9337 15.5722 18.4997 14.9982 18.4997C14.4242 18.4997 14.0182 18.9337 14.0182 19.4797C14.0182 20.0257 14.4242 20.4597 14.9982 20.4597Z" fill="white"/>
</svg>
