<svg width="1038" height="37" viewBox="0 0 1038 37" fill="none" xmlns="http://www.w3.org/2000/svg">
<path d="M4.27 21.112C6.692 21.112 7.84 19.964 7.84 18.326C7.84 14.602 2.212 16.058 2.212 13.748C2.212 12.964 2.842 12.348 4.27 12.348C5.642 12.348 6.146 12.866 6.3 14.07H7.7C7.56 12.124 6.524 11.088 4.27 11.088C2.002 11.088 0.84 12.236 0.84 13.748C0.84 17.318 6.468 15.876 6.468 18.312C6.468 19.166 5.782 19.852 4.27 19.852C2.856 19.852 2.226 19.278 2.1 17.85H0.7C0.84 20.048 1.974 21.112 4.27 21.112ZM12.3249 21.112C14.2149 21.112 15.1249 20.202 15.4049 18.83H14.1169C13.8369 19.558 13.4309 19.964 12.3249 19.964C11.2749 19.964 10.5329 19.264 10.4909 17.906H15.4749V17.234C15.4749 15.176 14.1869 13.888 12.3249 13.888C10.4769 13.888 9.17492 15.19 9.17492 17.234V17.766C9.17492 19.838 10.4489 21.112 12.3249 21.112ZM12.3249 15.036C13.3749 15.036 14.0189 15.582 14.1309 16.814H10.5049C10.6309 15.624 11.3309 15.036 12.3249 15.036ZM19.1995 21H19.8155V19.852H19.3815C18.7375 19.852 18.4155 19.516 18.4155 18.802V11.2H17.1555V18.942C17.1555 20.272 17.8835 21 19.1995 21ZM23.8777 21.112C25.7677 21.112 26.6777 20.202 26.9577 18.83H25.6697C25.3897 19.558 24.9837 19.964 23.8777 19.964C22.8277 19.964 22.0857 19.264 22.0437 17.906H27.0277V17.234C27.0277 15.176 25.7397 13.888 23.8777 13.888C22.0297 13.888 20.7277 15.19 20.7277 17.234V17.766C20.7277 19.838 22.0017 21.112 23.8777 21.112ZM23.8777 15.036C24.9277 15.036 25.5717 15.582 25.6837 16.814H22.0577C22.1837 15.624 22.8837 15.036 23.8777 15.036ZM31.4382 21.112C33.0762 21.112 34.0282 20.174 34.3082 18.83H32.9642C32.7542 19.474 32.3202 19.908 31.3682 19.908C30.3322 19.908 29.6042 19.18 29.6042 17.766V17.234C29.6042 15.806 30.3182 15.092 31.3682 15.092C32.3062 15.092 32.7542 15.54 32.9642 16.03H34.3082C34.0282 14.84 33.0762 13.888 31.4382 13.888C29.5202 13.888 28.2882 15.12 28.2882 17.234V17.766C28.2882 19.894 29.5062 21.112 31.4382 21.112ZM34.9366 15.148H36.1966V18.942C36.1966 20.258 36.9386 21 38.2546 21H39.4166V19.852H38.4366C37.7926 19.852 37.4566 19.516 37.4566 18.802V15.148H39.2766V14H37.4566V12.04H36.1966V14H34.9366V15.148ZM50.7335 21H52.1615L48.5915 11.2H47.0515L43.4815 21H44.8535L45.8055 18.312H49.7815L50.7335 21ZM47.0795 14.756L47.8075 12.67L48.5215 14.756L49.3475 17.108H46.2395L47.0795 14.756ZM55.1975 21H55.8135V19.852H55.3795C54.7355 19.852 54.4135 19.516 54.4135 18.802V11.2H53.1535V18.942C53.1535 20.272 53.8815 21 55.1975 21ZM59.1897 21H59.8057V19.852H59.3717C58.7277 19.852 58.4057 19.516 58.4057 18.802V11.2H57.1457V18.942C57.1457 20.272 57.8737 21 59.1897 21Z" fill="#3A3A3D"/>
<path d="M115.012 18.27H116.328L118.274 14.14L118.904 12.656V21H120.22V11.2H118.372L115.698 16.87L112.996 11.2H111.12V21H112.436V12.67L113.052 14.14L115.012 18.27ZM125.184 21.112C127.13 21.112 128.404 19.838 128.404 17.766V17.234C128.404 15.148 127.144 13.888 125.184 13.888C123.238 13.888 121.964 15.162 121.964 17.234V17.766C121.964 19.852 123.224 21.112 125.184 21.112ZM125.184 19.908C124.022 19.908 123.28 19.166 123.28 17.766V17.234C123.28 15.82 124.008 15.092 125.184 15.092C126.346 15.092 127.088 15.834 127.088 17.234V17.766C127.088 19.18 126.36 19.908 125.184 19.908ZM131.628 21H133.168L135.688 14H134.344L132.398 19.6L130.34 14H128.968L131.628 21ZM139.401 21.112C141.291 21.112 142.201 20.202 142.481 18.83H141.193C140.913 19.558 140.507 19.964 139.401 19.964C138.351 19.964 137.609 19.264 137.567 17.906H142.551V17.234C142.551 15.176 141.263 13.888 139.401 13.888C137.553 13.888 136.251 15.19 136.251 17.234V17.766C136.251 19.838 137.525 21.112 139.401 21.112ZM139.401 15.036C140.451 15.036 141.095 15.582 141.207 16.814H137.581C137.707 15.624 138.407 15.036 139.401 15.036ZM146.892 15.148H148.152V18.942C148.152 20.258 148.894 21 150.21 21H151.372V19.852H150.392C149.748 19.852 149.412 19.516 149.412 18.802V15.148H151.232V14H149.412V12.04H148.152V14H146.892V15.148ZM155.577 21.112C157.523 21.112 158.797 19.838 158.797 17.766V17.234C158.797 15.148 157.537 13.888 155.577 13.888C153.631 13.888 152.357 15.162 152.357 17.234V17.766C152.357 19.852 153.617 21.112 155.577 21.112ZM155.577 19.908C154.415 19.908 153.673 19.166 153.673 17.766V17.234C153.673 15.82 154.401 15.092 155.577 15.092C156.739 15.092 157.481 15.834 157.481 17.234V17.766C157.481 19.18 156.753 19.908 155.577 19.908ZM164.044 21H165.36V16.632H169.294V15.428H165.36V12.404H170.134V11.2H164.044V21ZM173.911 21.112C175.857 21.112 177.131 19.838 177.131 17.766V17.234C177.131 15.148 175.871 13.888 173.911 13.888C171.965 13.888 170.691 15.162 170.691 17.234V17.766C170.691 19.852 171.951 21.112 173.911 21.112ZM173.911 19.908C172.749 19.908 172.007 19.166 172.007 17.766V17.234C172.007 15.82 172.735 15.092 173.911 15.092C175.073 15.092 175.815 15.834 175.815 17.234V17.766C175.815 19.18 175.087 19.908 173.911 19.908ZM180.852 21H181.468V19.852H181.034C180.39 19.852 180.068 19.516 180.068 18.802V11.2H178.808V18.942C178.808 20.272 179.536 21 180.852 21ZM185.138 21.112C186.132 21.112 186.93 20.748 187.42 20.006L187.56 21H188.54V11.2H187.28V14.812C186.776 14.196 186.048 13.888 185.152 13.888C183.556 13.888 182.38 15.064 182.38 17.234V17.766C182.38 19.95 183.542 21.112 185.138 21.112ZM185.488 19.908C184.396 19.908 183.696 19.194 183.696 17.766V17.234C183.696 15.778 184.382 15.092 185.488 15.092C186.496 15.092 187.238 15.806 187.28 17.136V17.878C187.238 19.194 186.496 19.908 185.488 19.908ZM193.364 21.112C195.254 21.112 196.164 20.202 196.444 18.83H195.156C194.876 19.558 194.47 19.964 193.364 19.964C192.314 19.964 191.572 19.264 191.53 17.906H196.514V17.234C196.514 15.176 195.226 13.888 193.364 13.888C191.516 13.888 190.214 15.19 190.214 17.234V17.766C190.214 19.838 191.488 21.112 193.364 21.112ZM193.364 15.036C194.414 15.036 195.058 15.582 195.17 16.814H191.544C191.67 15.624 192.37 15.036 193.364 15.036ZM198.195 21H199.455V16.8C199.483 15.792 200.197 15.092 201.485 15.092H202.185V13.888H201.485C200.561 13.888 199.777 14.266 199.301 14.952L199.175 14H198.195V21Z" fill="#3A3A3D"/>
<path d="M253.12 21H256.2C259.084 21 260.75 19.334 260.75 16.52V15.68C260.75 12.838 259.112 11.2 256.2 11.2H253.12V21ZM256.2 12.404C258.244 12.404 259.378 13.524 259.378 15.68V16.52C259.378 18.704 258.272 19.796 256.2 19.796H254.436V12.404H256.2ZM265.296 21.112C267.186 21.112 268.096 20.202 268.376 18.83H267.088C266.808 19.558 266.402 19.964 265.296 19.964C264.246 19.964 263.504 19.264 263.462 17.906H268.446V17.234C268.446 15.176 267.158 13.888 265.296 13.888C263.448 13.888 262.146 15.19 262.146 17.234V17.766C262.146 19.838 263.42 21.112 265.296 21.112ZM265.296 15.036C266.346 15.036 266.99 15.582 267.102 16.814H263.476C263.602 15.624 264.302 15.036 265.296 15.036ZM272.506 21.112C274.452 21.112 275.306 20.258 275.306 19.04C275.306 16.17 271.162 17.388 271.162 15.89C271.162 15.344 271.498 15.008 272.506 15.008C273.388 15.008 273.71 15.344 273.85 16.03H275.166C275.026 14.728 274.172 13.888 272.506 13.888C270.7 13.888 269.846 14.742 269.846 15.89C269.846 18.564 273.99 17.346 273.99 19.04C273.99 19.656 273.654 19.992 272.506 19.992C271.484 19.992 271.162 19.656 271.022 18.83H269.706C269.846 20.258 270.7 21.112 272.506 21.112ZM279.719 21.112C281.609 21.112 282.519 20.202 282.799 18.83H281.511C281.231 19.558 280.825 19.964 279.719 19.964C278.669 19.964 277.927 19.264 277.885 17.906H282.869V17.234C282.869 15.176 281.581 13.888 279.719 13.888C277.871 13.888 276.569 15.19 276.569 17.234V17.766C276.569 19.838 277.843 21.112 279.719 21.112ZM279.719 15.036C280.769 15.036 281.413 15.582 281.525 16.814H277.899C278.025 15.624 278.725 15.036 279.719 15.036ZM286.594 21H287.21V19.852H286.776C286.132 19.852 285.81 19.516 285.81 18.802V11.2H284.55V18.942C284.55 20.272 285.278 21 286.594 21ZM291.272 21.112C293.162 21.112 294.072 20.202 294.352 18.83H293.064C292.784 19.558 292.378 19.964 291.272 19.964C290.222 19.964 289.48 19.264 289.438 17.906H294.422V17.234C294.422 15.176 293.134 13.888 291.272 13.888C289.424 13.888 288.122 15.19 288.122 17.234V17.766C288.122 19.838 289.396 21.112 291.272 21.112ZM291.272 15.036C292.322 15.036 292.966 15.582 293.078 16.814H289.452C289.578 15.624 290.278 15.036 291.272 15.036ZM298.833 21.112C300.471 21.112 301.423 20.174 301.703 18.83H300.359C300.149 19.474 299.715 19.908 298.763 19.908C297.727 19.908 296.999 19.18 296.999 17.766V17.234C296.999 15.806 297.713 15.092 298.763 15.092C299.701 15.092 300.149 15.54 300.359 16.03H301.703C301.423 14.84 300.471 13.888 298.833 13.888C296.915 13.888 295.683 15.12 295.683 17.234V17.766C295.683 19.894 296.901 21.112 298.833 21.112ZM302.331 15.148H303.591V18.942C303.591 20.258 304.333 21 305.649 21H306.811V19.852H305.831C305.187 19.852 304.851 19.516 304.851 18.802V15.148H306.671V14H304.851V12.04H303.591V14H302.331V15.148Z" fill="#3A3A3D"/>
<rect x="1" y="35" width="1030" height="1" fill="#E1E3E8"/>
<path d="M1030.31 21.1179L1016.16 6.97578" stroke="#C3C5CB"/>
<path d="M1016.16 21.3048L1030.3 7.16268" stroke="#C3C5CB"/>
</svg>
