<svg width="1034" height="37" viewBox="0 0 1034 37" fill="none" xmlns="http://www.w3.org/2000/svg">
<path d="M792.469 21H798.279V19.796H793.785V11.2H792.469V21ZM801.49 21.112C802.512 21.112 803.352 20.65 803.856 19.852L804.01 21H804.99V16.24C804.99 14.798 804.08 13.888 802.33 13.888C800.482 13.888 799.6 14.77 799.53 15.96H800.93C801 15.4 801.392 15.008 802.33 15.008C803.282 15.008 803.73 15.456 803.73 16.24V16.758H802.33C800.104 16.758 799.25 17.612 799.25 19.04C799.25 20.328 800.034 21.112 801.49 21.112ZM801.63 19.992C800.958 19.992 800.566 19.6 800.566 19.012C800.566 18.298 801.042 17.822 802.33 17.822H803.73V18.074C803.73 19.11 802.848 19.992 801.63 19.992ZM809.394 21.112C811.34 21.112 812.194 20.258 812.194 19.04C812.194 16.17 808.05 17.388 808.05 15.89C808.05 15.344 808.386 15.008 809.394 15.008C810.276 15.008 810.598 15.344 810.738 16.03H812.054C811.914 14.728 811.06 13.888 809.394 13.888C807.588 13.888 806.734 14.742 806.734 15.89C806.734 18.564 810.878 17.346 810.878 19.04C810.878 19.656 810.542 19.992 809.394 19.992C808.372 19.992 808.05 19.656 807.91 18.83H806.594C806.734 20.258 807.588 21.112 809.394 21.112ZM813.037 15.148H814.297V18.942C814.297 20.258 815.039 21 816.355 21H817.517V19.852H816.537C815.893 19.852 815.557 19.516 815.557 18.802V15.148H817.377V14H815.557V12.04H814.297V14H813.037V15.148ZM825.362 21H826.902L830.332 11.2H828.932L826.132 19.39L823.108 11.2H821.652L825.362 21ZM831.776 21H833.036V14H831.776V21ZM832.406 12.936C832.882 12.936 833.246 12.572 833.246 12.096C833.246 11.62 832.882 11.256 832.406 11.256C831.93 11.256 831.566 11.62 831.566 12.096C831.566 12.572 831.93 12.936 832.406 12.936ZM837.976 21.112C839.866 21.112 840.776 20.202 841.056 18.83H839.768C839.488 19.558 839.082 19.964 837.976 19.964C836.926 19.964 836.184 19.264 836.142 17.906H841.126V17.234C841.126 15.176 839.838 13.888 837.976 13.888C836.128 13.888 834.826 15.19 834.826 17.234V17.766C834.826 19.838 836.1 21.112 837.976 21.112ZM837.976 15.036C839.026 15.036 839.67 15.582 839.782 16.814H836.156C836.282 15.624 836.982 15.036 837.976 15.036ZM848.62 21H850.16L852.05 14H850.79L849.362 19.516L847.766 14H846.226L844.798 19.446L843.286 14H841.97L844 21H845.54L846.996 15.428L848.62 21ZM856.037 21.112C857.927 21.112 858.837 20.202 859.117 18.83H857.829C857.549 19.558 857.143 19.964 856.037 19.964C854.987 19.964 854.245 19.264 854.203 17.906H859.187V17.234C859.187 15.176 857.899 13.888 856.037 13.888C854.189 13.888 852.887 15.19 852.887 17.234V17.766C852.887 19.838 854.161 21.112 856.037 21.112ZM856.037 15.036C857.087 15.036 857.731 15.582 857.843 16.814H854.217C854.343 15.624 855.043 15.036 856.037 15.036ZM863.205 21.112C864.199 21.112 864.997 20.748 865.487 20.006L865.627 21H866.607V11.2H865.347V14.812C864.843 14.196 864.115 13.888 863.219 13.888C861.623 13.888 860.447 15.064 860.447 17.234V17.766C860.447 19.95 861.609 21.112 863.205 21.112ZM863.555 19.908C862.463 19.908 861.763 19.194 861.763 17.766V17.234C861.763 15.778 862.449 15.092 863.555 15.092C864.563 15.092 865.305 15.806 865.347 17.136V17.878C865.305 19.194 864.563 19.908 863.555 19.908Z" fill="#3A3A3D"/>
<path d="M884 16L880.5 19L877 16" stroke="#3A3A3D"/>
<path d="M5.012 18.27H6.328L8.274 14.14L8.904 12.656V21H10.22V11.2H8.372L5.698 16.87L2.996 11.2H1.12V21H2.436V12.67L3.052 14.14L5.012 18.27ZM13.294 23.8H14.638L18.404 14H17.06L15.044 19.418L12.916 14H11.544L14.372 21L13.294 23.8ZM26.5454 21.112C28.1274 21.112 29.3174 19.922 29.3174 17.766V17.234C29.3174 15.064 28.1414 13.888 26.5594 13.888C25.5514 13.888 24.7534 14.266 24.2634 15.008L24.1374 14H23.1574V23.8H24.4174V20.202C24.9074 20.804 25.6354 21.112 26.5454 21.112ZM26.2094 19.908C25.1734 19.908 24.4174 19.138 24.4174 17.766V17.136C24.4454 15.806 25.2014 15.092 26.2094 15.092C27.3154 15.092 28.0014 15.792 28.0014 17.234V17.766C28.0014 19.236 27.3294 19.908 26.2094 19.908ZM30.9914 21H32.2514V16.8C32.2794 15.792 32.9934 15.092 34.2814 15.092H34.9814V13.888H34.2814C33.3574 13.888 32.5734 14.266 32.0974 14.952L31.9714 14H30.9914V21ZM38.973 21.112C40.919 21.112 42.193 19.838 42.193 17.766V17.234C42.193 15.148 40.933 13.888 38.973 13.888C37.027 13.888 35.753 15.162 35.753 17.234V17.766C35.753 19.852 37.013 21.112 38.973 21.112ZM38.973 19.908C37.811 19.908 37.069 19.166 37.069 17.766V17.234C37.069 15.82 37.797 15.092 38.973 15.092C40.135 15.092 40.877 15.834 40.877 17.234V17.766C40.877 19.18 40.149 19.908 38.973 19.908ZM42.4423 23.8H42.9043C44.5283 23.8 45.2423 23.086 45.2423 21.21V14H43.9823V21.21C43.9823 22.26 43.6463 22.652 42.9043 22.652H42.4423V23.8ZM44.6123 12.936C45.0883 12.936 45.4523 12.572 45.4523 12.096C45.4523 11.62 45.0883 11.256 44.6123 11.256C44.1363 11.256 43.7723 11.62 43.7723 12.096C43.7723 12.572 44.1363 12.936 44.6123 12.936ZM50.1823 21.112C52.0723 21.112 52.9823 20.202 53.2623 18.83H51.9743C51.6943 19.558 51.2883 19.964 50.1823 19.964C49.1323 19.964 48.3903 19.264 48.3483 17.906H53.3323V17.234C53.3323 15.176 52.0443 13.888 50.1823 13.888C48.3343 13.888 47.0323 15.19 47.0323 17.234V17.766C47.0323 19.838 48.3063 21.112 50.1823 21.112ZM50.1823 15.036C51.2323 15.036 51.8763 15.582 51.9883 16.814H48.3623C48.4883 15.624 49.1883 15.036 50.1823 15.036ZM57.7429 21.112C59.3809 21.112 60.3329 20.174 60.6129 18.83H59.2689C59.0589 19.474 58.6249 19.908 57.6729 19.908C56.6369 19.908 55.9089 19.18 55.9089 17.766V17.234C55.9089 15.806 56.6229 15.092 57.6729 15.092C58.6109 15.092 59.0589 15.54 59.2689 16.03H60.6129C60.3329 14.84 59.3809 13.888 57.7429 13.888C55.8249 13.888 54.5929 15.12 54.5929 17.234V17.766C54.5929 19.894 55.8109 21.112 57.7429 21.112ZM61.2413 15.148H62.5013V18.942C62.5013 20.258 63.2433 21 64.5593 21H65.7213V19.852H64.7413C64.0973 19.852 63.7613 19.516 63.7613 18.802V15.148H65.5813V14H63.7613V12.04H62.5013V14H61.2413V15.148ZM69.5062 21.112C71.4522 21.112 72.3062 20.258 72.3062 19.04C72.3062 16.17 68.1622 17.388 68.1622 15.89C68.1622 15.344 68.4982 15.008 69.5062 15.008C70.3882 15.008 70.7102 15.344 70.8502 16.03H72.1662C72.0262 14.728 71.1722 13.888 69.5062 13.888C67.7002 13.888 66.8462 14.742 66.8462 15.89C66.8462 18.564 70.9902 17.346 70.9902 19.04C70.9902 19.656 70.6542 19.992 69.5062 19.992C68.4842 19.992 68.1622 19.656 68.0222 18.83H66.7062C66.8462 20.258 67.7002 21.112 69.5062 21.112Z" fill="#3A3A3D"/>
<path d="M127.27 21.112C129.692 21.112 130.84 19.964 130.84 18.326C130.84 14.602 125.212 16.058 125.212 13.748C125.212 12.964 125.842 12.348 127.27 12.348C128.642 12.348 129.146 12.866 129.3 14.07H130.7C130.56 12.124 129.524 11.088 127.27 11.088C125.002 11.088 123.84 12.236 123.84 13.748C123.84 17.318 129.468 15.876 129.468 18.312C129.468 19.166 128.782 19.852 127.27 19.852C125.856 19.852 125.226 19.278 125.1 17.85H123.7C123.84 20.048 124.974 21.112 127.27 21.112ZM132.595 21H133.855V16.8C133.883 15.792 134.611 15.092 135.745 15.092C136.767 15.092 137.355 15.68 137.355 16.87V21H138.615V16.87C138.615 14.938 137.565 13.888 135.955 13.888C135.045 13.888 134.317 14.224 133.855 14.826V11.2H132.595V21ZM142.398 21.112C143.42 21.112 144.26 20.65 144.764 19.852L144.918 21H145.898V16.24C145.898 14.798 144.988 13.888 143.238 13.888C141.39 13.888 140.508 14.77 140.438 15.96H141.838C141.908 15.4 142.3 15.008 143.238 15.008C144.19 15.008 144.638 15.456 144.638 16.24V16.758H143.238C141.012 16.758 140.158 17.612 140.158 19.04C140.158 20.328 140.942 21.112 142.398 21.112ZM142.538 19.992C141.866 19.992 141.474 19.6 141.474 19.012C141.474 18.298 141.95 17.822 143.238 17.822H144.638V18.074C144.638 19.11 143.756 19.992 142.538 19.992ZM147.921 21H149.181V16.8C149.209 15.792 149.923 15.092 151.211 15.092H151.911V13.888H151.211C150.287 13.888 149.503 14.266 149.027 14.952L148.901 14H147.921V21ZM155.833 21.112C157.723 21.112 158.633 20.202 158.913 18.83H157.625C157.345 19.558 156.939 19.964 155.833 19.964C154.783 19.964 154.041 19.264 153.999 17.906H158.983V17.234C158.983 15.176 157.695 13.888 155.833 13.888C153.985 13.888 152.683 15.19 152.683 17.234V17.766C152.683 19.838 153.957 21.112 155.833 21.112ZM155.833 15.036C156.883 15.036 157.527 15.582 157.639 16.814H154.013C154.139 15.624 154.839 15.036 155.833 15.036ZM163.001 21.112C163.995 21.112 164.793 20.748 165.283 20.006L165.423 21H166.403V11.2H165.143V14.812C164.639 14.196 163.911 13.888 163.015 13.888C161.419 13.888 160.243 15.064 160.243 17.234V17.766C160.243 19.95 161.405 21.112 163.001 21.112ZM163.351 19.908C162.259 19.908 161.559 19.194 161.559 17.766V17.234C161.559 15.778 162.245 15.092 163.351 15.092C164.359 15.092 165.101 15.806 165.143 17.136V17.878C165.101 19.194 164.359 19.908 163.351 19.908ZM177.947 21H179.487L181.377 14H180.117L178.689 19.516L177.093 14H175.553L174.125 19.446L172.613 14H171.297L173.327 21H174.867L176.323 15.428L177.947 21ZM182.883 21H184.143V14H182.883V21ZM183.513 12.936C183.989 12.936 184.353 12.572 184.353 12.096C184.353 11.62 183.989 11.256 183.513 11.256C183.037 11.256 182.673 11.62 182.673 12.096C182.673 12.572 183.037 12.936 183.513 12.936ZM185.513 15.148H186.773V18.942C186.773 20.258 187.515 21 188.831 21H189.993V19.852H189.013C188.369 19.852 188.033 19.516 188.033 18.802V15.148H189.853V14H188.033V12.04H186.773V14H185.513V15.148ZM191.398 21H192.658V16.8C192.686 15.792 193.414 15.092 194.548 15.092C195.57 15.092 196.158 15.68 196.158 16.87V21H197.418V16.87C197.418 14.938 196.368 13.888 194.758 13.888C193.848 13.888 193.12 14.224 192.658 14.826V11.2H191.398V21ZM202.95 21H204.21V16.8C204.238 15.764 204.952 15.092 205.89 15.092C206.842 15.092 207.43 15.68 207.43 16.87V21H208.69V16.8C208.718 15.792 209.432 15.092 210.37 15.092C211.322 15.092 211.91 15.68 211.91 16.87V21H213.17V16.87C213.17 14.938 212.12 13.888 210.65 13.888C209.642 13.888 208.802 14.364 208.326 15.162C207.892 14.336 207.122 13.888 206.17 13.888C205.274 13.888 204.532 14.266 204.056 14.952L203.93 14H202.95V21ZM217.93 21.112C219.82 21.112 220.73 20.202 221.01 18.83H219.722C219.442 19.558 219.036 19.964 217.93 19.964C216.88 19.964 216.138 19.264 216.096 17.906H221.08V17.234C221.08 15.176 219.792 13.888 217.93 13.888C216.082 13.888 214.78 15.19 214.78 17.234V17.766C214.78 19.838 216.054 21.112 217.93 21.112ZM217.93 15.036C218.98 15.036 219.624 15.582 219.736 16.814H216.11C216.236 15.624 216.936 15.036 217.93 15.036Z" fill="#7E838E"/>
<path d="M271.12 21H274.2C277.084 21 278.75 19.334 278.75 16.52V15.68C278.75 12.838 277.112 11.2 274.2 11.2H271.12V21ZM274.2 12.404C276.244 12.404 277.378 13.524 277.378 15.68V16.52C277.378 18.704 276.272 19.796 274.2 19.796H272.436V12.404H274.2ZM283.296 21.112C285.186 21.112 286.096 20.202 286.376 18.83H285.088C284.808 19.558 284.402 19.964 283.296 19.964C282.246 19.964 281.504 19.264 281.462 17.906H286.446V17.234C286.446 15.176 285.158 13.888 283.296 13.888C281.448 13.888 280.146 15.19 280.146 17.234V17.766C280.146 19.838 281.42 21.112 283.296 21.112ZM283.296 15.036C284.346 15.036 284.99 15.582 285.102 16.814H281.476C281.602 15.624 282.302 15.036 283.296 15.036ZM290.17 21H290.786V19.852H290.352C289.708 19.852 289.386 19.516 289.386 18.802V11.2H288.126V18.942C288.126 20.272 288.854 21 290.17 21ZM294.848 21.112C296.738 21.112 297.648 20.202 297.928 18.83H296.64C296.36 19.558 295.954 19.964 294.848 19.964C293.798 19.964 293.056 19.264 293.014 17.906H297.998V17.234C297.998 15.176 296.71 13.888 294.848 13.888C293 13.888 291.698 15.19 291.698 17.234V17.766C291.698 19.838 292.972 21.112 294.848 21.112ZM294.848 15.036C295.898 15.036 296.542 15.582 296.654 16.814H293.028C293.154 15.624 293.854 15.036 294.848 15.036ZM298.839 15.148H300.099V18.942C300.099 20.258 300.841 21 302.157 21H303.319V19.852H302.339C301.695 19.852 301.359 19.516 301.359 18.802V15.148H303.179V14H301.359V12.04H300.099V14H298.839V15.148ZM307.454 21.112C309.344 21.112 310.254 20.202 310.534 18.83H309.246C308.966 19.558 308.56 19.964 307.454 19.964C306.404 19.964 305.662 19.264 305.62 17.906H310.604V17.234C310.604 15.176 309.316 13.888 307.454 13.888C305.606 13.888 304.304 15.19 304.304 17.234V17.766C304.304 19.838 305.578 21.112 307.454 21.112ZM307.454 15.036C308.504 15.036 309.148 15.582 309.26 16.814H305.634C305.76 15.624 306.46 15.036 307.454 15.036ZM314.622 21.112C315.616 21.112 316.414 20.748 316.904 20.006L317.044 21H318.024V11.2H316.764V14.812C316.26 14.196 315.532 13.888 314.636 13.888C313.04 13.888 311.864 15.064 311.864 17.234V17.766C311.864 19.95 313.026 21.112 314.622 21.112ZM314.972 19.908C313.88 19.908 313.18 19.194 313.18 17.766V17.234C313.18 15.778 313.866 15.092 314.972 15.092C315.98 15.092 316.722 15.806 316.764 17.136V17.878C316.722 19.194 315.98 19.908 314.972 19.908Z" fill="#7E838E"/>
<circle cx="759.5" cy="15.5" r="5" stroke="#3A3A3D"/>
<path d="M763 18.999L767 23" stroke="#3A3A3D"/>
<path d="M912 10.5H922" stroke="#424246"/>
<path d="M912 16H922" stroke="#424246"/>
<path d="M912 21.5H922" stroke="#424246"/>
<rect x="909" y="10" width="1" height="1" fill="#3A3A3D"/>
<path d="M909 15.5H910V16.5H909V15.5Z" fill="#3A3A3D"/>
<path d="M909 21H910V22H909V21Z" fill="#3A3A3D"/>
<path d="M985 16L973 16" stroke="#3A3A3D"/>
<path d="M979 22L979 10" stroke="#3A3A3D"/>
<path d="M1020.5 12.5L1015.64 12.4448L1014.62 10.2915H1010V22.2915H1024.29L1024.7 17.6795" stroke="#3A3A3D" stroke-miterlimit="10"/>
<circle cx="1026.05" cy="12.5" r="4" stroke="#3A3A3D"/>
<path d="M1028.55 12.4719L1023.55 12.4719" stroke="#3A3A3D"/>
<path d="M1026.08 15L1026.08 10" stroke="#3A3A3D"/>
<rect x="947" y="6" width="1" height="20" fill="#E1E3E8"/>
<rect x="1" y="35" width="1030" height="1" fill="#E1E3E8"/>
<rect x="1" y="35" width="72" height="1" fill="#3A3A3D"/>
</svg>
